<svg id="SvgjsSvg1011" xmlns="http://www.w3.org/2000/svg" version="1.1" xmlns:xlink="http://www.w3.org/1999/xlink" xmlns:svgjs="http://svgjs.com/svgjs" width="14" height="14" viewBox="0 0 14 14"><title>Ellipse 3</title><desc>Created with Avocode.</desc><defs id="SvgjsDefs1012"><clipPath id="SvgjsClipPath1015"><path id="SvgjsPath1014" d="M494 554C497.866 554 501 557.134 501 561C501 564.866 497.866 568 494 568C490.134 568 487 564.866 487 561C487 557.134 490.134 554 494 554Z " fill="#ffffff"></path></clipPath></defs><path id="SvgjsPath1013" d="M494 554C497.866 554 501 557.134 501 561C501 564.866 497.866 568 494 568C490.134 568 487 564.866 487 561C487 557.134 490.134 554 494 554Z " fill-opacity="0" fill="#ffffff" stroke-dasharray="0" stroke-linejoin="miter" stroke-linecap="butt" stroke-opacity="1" stroke="#e1e1e1" stroke-miterlimit="50" stroke-width="4" clip-path="url(&quot;#SvgjsClipPath1015&quot;)" transform="matrix(1,0,0,1,-487,-554)"></path></svg>