<svg id="SvgjsSvg1011" xmlns="http://www.w3.org/2000/svg" version="1.1" xmlns:xlink="http://www.w3.org/1999/xlink" xmlns:svgjs="http://svgjs.com/svgjs" width="7" height="16" viewBox="0 0 7 16"><title>Forma 1</title><desc>Created with Avocode.</desc><defs id="SvgjsDefs1012"></defs><path id="SvgjsPath1013" d="M1464.74 4651.88L1462.78 4651.88C1462.78 4655.12 1462.78 4659.12 1462.78 4659.12L1459.8799999999999 4659.12C1459.8799999999999 4659.12 1459.8799999999999 4655.16 1459.8799999999999 4651.88L1458.4999999999998 4651.88L1458.4999999999998 4649.31L1459.8799999999999 4649.31L1459.8799999999999 4647.660000000001C1459.8799999999999 4646.470000000001 1460.4299999999998 4644.620000000001 1462.81 4644.620000000001L1464.96 4644.630000000001L1464.96 4647.110000000001C1464.96 4647.110000000001 1463.65 4647.110000000001 1463.4 4647.110000000001C1463.15 4647.110000000001 1462.7800000000002 4647.240000000001 1462.7800000000002 4647.81L1462.7800000000002 4649.320000000001L1465.0000000000002 4649.320000000001Z " fill="#f7f7f7" fill-opacity="1" transform="matrix(1,0,0,1,-1458,-4644)"></path></svg>