<svg id="SvgjsSvg1008" xmlns="http://www.w3.org/2000/svg" version="1.1" xmlns:xlink="http://www.w3.org/1999/xlink" xmlns:svgjs="http://svgjs.com/svgjs" width="17" height="17" viewBox="0 0 17 17"><title>Forma 1</title><desc>Created with Avocode.</desc><defs id="SvgjsDefs1009"></defs><path id="SvgjsPath1010" d="M1420.14 4643.64C1421.26 4643.64 1422.18 4644.4800000000005 1422.18 4645.700000000001L1422.18 4657.6C1422.18 4658.820000000001 1421.26 4659.660000000001 1420.14 4659.660000000001L1408.3200000000002 4659.660000000001C1407.2000000000003 4659.660000000001 1406.2800000000002 4658.820000000001 1406.2800000000002 4657.6L1406.2800000000002 4645.700000000001C1406.2800000000002 4644.4800000000005 1407.2000000000003 4643.64 1408.3200000000002 4643.64ZM1418.99 4650.42C1419.1200000000001 4650.85 1419.19 4651.31 1419.19 4651.79C1419.19 4654.46 1416.98 4656.61 1414.25 4656.61C1411.52 4656.61 1409.31 4654.46 1409.31 4651.79C1409.31 4651.31 1409.3799999999999 4650.85 1409.51 4650.42L1408.05 4650.42L1408.05 4657.18C1408.05 4657.530000000001 1408.33 4657.820000000001 1408.68 4657.820000000001L1419.75 4657.820000000001C1420.1 4657.820000000001 1420.39 4657.530000000001 1420.39 4657.18L1420.39 4650.42ZM1417.15 4646.14L1417.15 4647.87C1417.15 4648.2699999999995 1417.47 4648.59 1417.8700000000001 4648.59L1419.66 4648.59C1420.0600000000002 4648.59 1420.38 4648.27 1420.38 4647.87L1420.38 4646.14C1420.38 4645.75 1420.0600000000002 4645.42 1419.66 4645.42L1417.8700000000001 4645.42C1417.47 4645.42 1417.15 4645.75 1417.15 4646.14ZM1414.25 4648.5C1412.48 4648.5 1411.05 4649.89 1411.05 4651.62C1411.05 4653.34 1412.48 4654.73 1414.25 4654.73C1416.01 4654.73 1417.44 4653.339999999999 1417.44 4651.62C1417.44 4649.89 1416.01 4648.5 1414.25 4648.5Z " fill="#f7f7f7" fill-opacity="1" transform="matrix(1,0,0,1,-1406,-4643)"></path></svg>