<svg id="SvgjsSvg1035" xmlns="http://www.w3.org/2000/svg" version="1.1" xmlns:xlink="http://www.w3.org/1999/xlink" xmlns:svgjs="http://svgjs.com/svgjs" width="14" height="14" viewBox="0 0 14 14"><title>Shape 27</title><desc>Created with Avocode.</desc><defs id="SvgjsDefs1036"><clipPath id="SvgjsClipPath1039"><path id="SvgjsPath1038" d="M453 3714L453 3720L456 3717Z " fill="#ffffff"></path></clipPath><clipPath id="SvgjsClipPath1042"><path id="SvgjsPath1041" d="M454 3710C457.866 3710 461 3713.13 461 3717C461 3720.87 457.866 3724 454 3724C450.134 3724 447 3720.87 447 3717C447 3713.13 450.134 3710 454 3710Z " fill="#ffffff"></path></clipPath></defs><path id="SvgjsPath1037" d="M453 3714L453 3720L456 3717Z " fill-opacity="0" fill="#ffffff" stroke-dasharray="0" stroke-linejoin="miter" stroke-linecap="butt" stroke-opacity="1" stroke="#5fa8cb" stroke-miterlimit="50" stroke-width="2" clip-path="url(&quot;#SvgjsClipPath1039&quot;)" transform="matrix(1,0,0,1,-447,-3710)"></path><path id="SvgjsPath1040" d="M454 3710C457.866 3710 461 3713.13 461 3717C461 3720.87 457.866 3724 454 3724C450.134 3724 447 3720.87 447 3717C447 3713.13 450.134 3710 454 3710Z " fill-opacity="0" fill="#ffffff" stroke-dasharray="0" stroke-linejoin="miter" stroke-linecap="butt" stroke-opacity="1" stroke="#5fa8cb" stroke-miterlimit="50" stroke-width="2" clip-path="url(&quot;#SvgjsClipPath1042&quot;)" transform="matrix(1,0,0,1,-447,-3710)"></path></svg>