<svg id="SvgjsSvg1047" xmlns="http://www.w3.org/2000/svg" version="1.1" xmlns:xlink="http://www.w3.org/1999/xlink" xmlns:svgjs="http://svgjs.com/svgjs" width="6" height="6" viewBox="0 0 6 6"><title>Rectangle 2 copy</title><desc>Created with Avocode.</desc><defs id="SvgjsDefs1048"></defs><path id="SvgjsPath1049" d="M386 1226L387 1226L387 1225C387 1224.45 387.448 1224 388 1224C388.552 1224 389 1224.45 389 1225L389 1226L390 1226C390.552 1226 391 1226.45 391 1227C391 1227.55 390.552 1228 390 1228L389 1228L389 1229C389 1229.55 388.552 1230 388 1230C387.448 1230 387 1229.55 387 1229L387 1228L386 1228C385.448 1228 385 1227.55 385 1227C385 1226.45 385.448 1226 386 1226Z " fill="#ffffff" fill-opacity="1" transform="matrix(1,0,0,1,-385,-1224)"></path></svg>