<svg id="SvgjsSvg1017" xmlns="http://www.w3.org/2000/svg" version="1.1" xmlns:xlink="http://www.w3.org/1999/xlink" xmlns:svgjs="http://svgjs.com/svgjs" width="78" height="78" viewBox="0 0 78 78"><title>Shape 33</title><desc>Created with Avocode.</desc><defs id="SvgjsDefs1018"></defs><path id="SvgjsPath1019" d="M1428.75 1091.65C1428.29 1091.65 1427.96 1091.45 1427.77 1091.1000000000001L1415.8899999999999 1073.47C1412.4099999999999 1067.59 1413.4699999999998 1060.13 1418.2199999999998 1055.3600000000001C1420.9999999999998 1052.5800000000002 1424.7499999999998 1051.0000000000002 1428.7499999999998 1051.0000000000002C1432.7499999999998 1051.0000000000002 1436.4999999999998 1052.5800000000002 1439.2799999999997 1055.3600000000001C1444.0699999999997 1060.13 1445.0299999999997 1067.5900000000001 1441.6499999999996 1073.4L1429.7599999999995 1091.1000000000001C1429.5399999999995 1091.45 1429.1499999999996 1091.65 1428.7499999999995 1091.65ZM1428.75 1053.45C1425.4 1053.45 1422.28 1054.78 1419.91 1057.1200000000001C1415.92 1061.1100000000001 1415.1200000000001 1067.2800000000002 1417.91 1072.15L1428.75 1088.27L1439.61 1072.12C1442.3799999999999 1067.28 1441.56 1061.11 1437.57 1057.1399999999999C1435.23 1054.78 1432.1 1053.4499999999998 1428.75 1053.4499999999998ZM1428.75 1074.21C1426.53 1074.21 1424.51 1073.3700000000001 1422.93 1071.76C1421.38 1070.24 1420.5 1068.1299999999999 1420.5 1065.93C1420.5 1063.76 1421.38 1061.64 1422.93 1060.0900000000001C1426.02 1056.9700000000003 1431.45 1056.9700000000003 1434.55 1060.0900000000001C1436.1299999999999 1061.64 1437 1063.7600000000002 1437 1065.93C1437 1068.13 1436.13 1070.24 1434.55 1071.76C1433 1073.37 1430.95 1074.21 1428.75 1074.21ZM1428.75 1060.13C1427.18 1060.13 1425.74 1060.72 1424.64 1061.8100000000002C1423.51 1062.91 1422.93 1064.38 1422.93 1065.93C1422.93 1067.51 1423.51 1068.94 1424.64 1070.04C1426.8500000000001 1072.27 1430.63 1072.27 1432.8600000000001 1070.04C1433.96 1068.94 1434.5500000000002 1067.51 1434.5500000000002 1065.93C1434.5500000000002 1064.38 1433.9600000000003 1062.91 1432.8600000000001 1061.8100000000002C1431.7700000000002 1060.7200000000003 1430.3000000000002 1060.13 1428.7500000000002 1060.13ZM1390.35 1090.01C1390.35 1091.73 1388.9599999999998 1093.05 1387.28 1093.05C1385.62 1093.05 1384.23 1091.73 1384.23 1090.01C1384.23 1088.32 1385.6200000000001 1086.95 1387.28 1086.95C1388.96 1086.95 1390.35 1088.32 1390.35 1090.01ZM1411.04 1109.31C1411.04 1111 1409.6599999999999 1112.35 1408 1112.35C1406.34 1112.35 1404.96 1111 1404.96 1109.31C1404.96 1107.6399999999999 1406.3400000000001 1106.26 1408 1106.26C1409.66 1106.26 1411.04 1107.64 1411.04 1109.31ZM1416.9 1101.9C1416.5600000000002 1101.9 1416.22 1101.72 1415.97 1101.45C1415.51 1100.91 1415.6000000000001 1100.17 1416.1100000000001 1099.7L1418.92 1097.3700000000001C1419.46 1096.88 1420.22 1097.0000000000002 1420.64 1097.45C1421.0900000000001 1098.01 1421 1098.77 1420.5400000000002 1099.16L1417.6800000000003 1101.5600000000002C1417.4600000000003 1101.7900000000002 1417.1500000000003 1101.9 1416.9000000000003 1101.9ZM1399.11 1101.9C1398.82 1101.9 1398.57 1101.7900000000002 1398.29 1101.5600000000002L1395.47 1099.16C1394.99 1098.77 1394.8700000000001 1098.01 1395.3600000000001 1097.45C1395.7900000000002 1097 1396.5100000000002 1096.88 1397.0700000000002 1097.3700000000001L1399.89 1099.7C1400.3700000000001 1100.17 1400.45 1100.91 1400.0300000000002 1101.45C1399.7800000000002 1101.72 1399.4400000000003 1101.9 1399.1100000000001 1101.9ZM1422.53 1097.09C1422.23 1097.09 1421.85 1096.9099999999999 1421.6299999999999 1096.6599999999999C1421.1499999999999 1096.12 1421.2299999999998 1095.3899999999999 1421.7399999999998 1094.9099999999999L1423.5999999999997 1093.36C1424.1399999999996 1092.9099999999999 1424.8999999999996 1092.99 1425.3499999999997 1093.5C1425.7699999999998 1094.01 1425.6799999999996 1094.77 1425.1999999999996 1095.22L1423.3399999999997 1096.77C1423.1199999999997 1097 1422.8399999999997 1097.09 1422.5299999999997 1097.09ZM1393.47 1097.09C1393.13 1097.09 1392.88 1097 1392.66 1096.77L1390.76 1095.22C1390.32 1094.77 1390.24 1094.01 1390.68 1093.5C1391.1100000000001 1092.99 1391.8700000000001 1092.91 1392.3700000000001 1093.36L1394.2700000000002 1094.9099999999999C1394.7300000000002 1095.3899999999999 1394.8200000000002 1096.12 1394.3700000000001 1096.6599999999999C1394.1200000000001 1096.9099999999999 1393.8100000000002 1097.09 1393.47 1097.09ZM1412.22 1105.84C1411.89 1105.84 1411.52 1105.76 1411.29 1105.4099999999999C1410.84 1104.9099999999999 1410.93 1104.1499999999999 1411.4099999999999 1103.6999999999998L1413.2599999999998 1102.1499999999999C1413.7699999999998 1101.6699999999998 1414.5899999999997 1101.79 1415.0099999999998 1102.2599999999998C1415.4599999999998 1102.7999999999997 1415.3799999999997 1103.5599999999997 1414.8399999999997 1103.9799999999998L1413.0099999999998 1105.5499999999997C1412.7799999999997 1105.7799999999997 1412.4699999999998 1105.8399999999997 1412.2199999999998 1105.8399999999997ZM1403.78 1105.84C1403.49 1105.84 1403.21 1105.78 1402.99 1105.55L1401.13 1103.98C1400.63 1103.56 1400.5100000000002 1102.8 1400.99 1102.26C1401.41 1101.79 1402.23 1101.67 1402.7 1102.15L1404.6000000000001 1103.7C1405.0600000000002 1104.15 1405.1200000000001 1104.91 1404.71 1105.41C1404.45 1105.76 1404.1100000000001 1105.8400000000001 1403.78 1105.8400000000001ZM1447 1090.01C1447 1098.8 1444.01 1106.8799999999999 1439.06 1113.41C1439.03 1113.5 1439.03 1113.5600000000002 1439 1113.6100000000001C1438.83 1113.8200000000002 1438.66 1113.95 1438.52 1114.15C1438.05 1114.77 1437.54 1115.3700000000001 1437 1115.92C1436.56 1116.43 1436.13 1116.94 1435.68 1117.38C1435.48 1117.5800000000002 1435.25 1117.7900000000002 1435.0600000000002 1117.96C1433.5100000000002 1119.47 1431.8500000000001 1120.82 1430.1100000000001 1122.06C1429.9900000000002 1122.09 1429.96 1122.1699999999998 1429.88 1122.21C1429.0100000000002 1122.82 1428.0500000000002 1123.42 1427.15 1123.92C1426.92 1124.03 1426.72 1124.18 1426.5 1124.29C1425.57 1124.76 1424.67 1125.22 1423.75 1125.6399999999999C1423.46 1125.79 1423.18 1125.87 1422.9 1125.9799999999998C1421.97 1126.3399999999997 1421.0300000000002 1126.7699999999998 1420.1100000000001 1127.0499999999997C1419.7700000000002 1127.1599999999996 1419.3700000000001 1127.2199999999998 1419.0400000000002 1127.3599999999997C1418.14 1127.6499999999996 1417.2000000000003 1127.8899999999996 1416.2500000000002 1128.1299999999997C1415.8600000000001 1128.2099999999996 1415.3800000000003 1128.2399999999996 1414.9900000000002 1128.3199999999997C1413.2000000000003 1128.6499999999996 1411.4100000000003 1128.8199999999997 1409.6100000000001 1128.9499999999998C1409.15 1128.9499999999998 1408.7600000000002 1128.9999999999998 1408.2800000000002 1128.9999999999998C1408.2000000000003 1128.9999999999998 1408.1100000000001 1128.9999999999998 1408.0000000000002 1128.9999999999998C1407.8900000000003 1128.9999999999998 1407.8300000000002 1128.9999999999998 1407.6900000000003 1128.9999999999998C1407.2400000000002 1128.9999999999998 1406.8100000000002 1128.9499999999998 1406.4000000000003 1128.9499999999998C1404.6000000000004 1128.8199999999997 1402.7600000000002 1128.6499999999999 1401.0200000000002 1128.3199999999997C1400.63 1128.2399999999998 1400.1500000000003 1128.2099999999998 1399.7600000000002 1128.1299999999997C1398.7600000000002 1127.8899999999996 1397.8600000000001 1127.6499999999996 1396.9600000000003 1127.3599999999997C1396.6300000000003 1127.2199999999996 1396.2300000000002 1127.1599999999996 1395.8900000000003 1127.0499999999997C1394.9500000000003 1126.7699999999998 1394.0000000000002 1126.3399999999997 1393.1000000000004 1125.9799999999998C1392.8200000000004 1125.87 1392.5100000000004 1125.7899999999997 1392.2600000000004 1125.6399999999999C1391.3300000000004 1125.2199999999998 1390.4000000000005 1124.7599999999998 1389.5000000000005 1124.29C1389.2400000000005 1124.18 1389.0700000000004 1124.03 1388.8500000000004 1123.92C1387.9500000000003 1123.42 1386.9900000000005 1122.8200000000002 1386.0900000000004 1122.21C1386.0100000000004 1122.17 1385.9800000000005 1122.0900000000001 1385.9200000000003 1122.06C1384.1800000000003 1120.82 1382.4900000000002 1119.47 1380.9400000000003 1117.96C1380.7400000000002 1117.79 1380.4800000000002 1117.58 1380.3200000000004 1117.38C1379.8700000000003 1116.94 1379.4400000000003 1116.43 1378.9600000000005 1115.92C1378.4600000000005 1115.3700000000001 1377.9600000000005 1114.77 1377.4800000000005 1114.15C1377.3100000000004 1113.95 1377.1600000000005 1113.8200000000002 1377.0000000000005 1113.6100000000001C1376.9700000000005 1113.5600000000002 1376.9700000000005 1113.5000000000002 1376.9400000000005 1113.41C1371.9900000000005 1106.88 1369.0000000000005 1098.8000000000002 1369.0000000000005 1090.01C1369.0000000000005 1081.26 1371.9900000000005 1073.14 1376.9400000000005 1066.57C1376.9700000000005 1066.52 1376.9700000000005 1066.46 1377.0000000000005 1066.3999999999999C1377.1600000000005 1066.2199999999998 1377.3100000000004 1066.05 1377.4800000000005 1065.9099999999999C1377.9600000000005 1065.2799999999997 1378.4600000000005 1064.6599999999999 1378.9600000000005 1064.09C1379.4400000000005 1063.62 1379.8700000000006 1063.11 1380.3200000000004 1062.59C1380.4800000000005 1062.4599999999998 1380.7200000000005 1062.27 1380.8900000000003 1062.1C1382.4600000000003 1060.58 1384.1200000000003 1059.1899999999998 1385.9200000000003 1057.9599999999998C1385.9800000000002 1057.8999999999999 1386.0100000000002 1057.84 1386.0900000000004 1057.8099999999997C1386.9900000000005 1057.2299999999998 1387.9500000000003 1056.6299999999997 1388.8800000000003 1056.0999999999997C1389.0700000000004 1055.9899999999998 1389.2400000000002 1055.8499999999997 1389.5000000000002 1055.7699999999998C1390.4000000000003 1055.2499999999998 1391.3300000000002 1054.8299999999997 1392.2600000000002 1054.3799999999997C1392.5100000000002 1054.2399999999996 1392.8200000000002 1054.1599999999996 1393.1000000000001 1054.0199999999998C1394.0000000000002 1053.6099999999997 1394.95 1053.2899999999997 1395.89 1052.9699999999998C1396.23 1052.86 1396.63 1052.7499999999998 1396.96 1052.6399999999999C1397.8600000000001 1052.4099999999999 1398.76 1052.1 1399.76 1051.8999999999999C1400.15 1051.85 1400.6 1051.82 1400.99 1051.6999999999998C1402.73 1051.37 1404.47 1051.1999999999998 1406.28 1051.12C1406.73 1051.09 1407.18 1051.04 1407.6299999999999 1051.04L1407.6899999999998 1051.04C1407.7799999999997 1051.04 1407.8899999999999 1051 1407.9999999999998 1051C1408.1099999999997 1051 1408.2199999999998 1051.04 1408.2799999999997 1051.04L1408.3299999999997 1051.04C1408.7899999999997 1051.04 1409.2399999999998 1051.09 1409.7199999999998 1051.12C1411.4899999999998 1051.1999999999998 1413.2299999999998 1051.37 1415.0099999999998 1051.6999999999998C1415.3999999999999 1051.8199999999997 1415.8599999999997 1051.85 1416.2499999999998 1051.8999999999999C1416.3299999999997 1051.9599999999998 1416.3799999999999 1051.9599999999998 1416.5299999999997 1051.9899999999998C1416.2199999999998 1052.2399999999998 1415.9199999999998 1052.5199999999998 1415.5999999999997 1052.7799999999997C1415.1799999999996 1053.2299999999998 1414.8399999999997 1053.6499999999996 1414.5099999999998 1054.1299999999997C1414.2799999999997 1054.0999999999997 1409.8499999999997 1053.7099999999996 1409.6299999999997 1053.6499999999996L1409.2099999999996 1053.6499999999996L1409.2099999999996 1069.2799999999997C1409.6599999999996 1069.2799999999997 1410.0799999999995 1069.2599999999998 1410.4999999999995 1069.2599999999998C1410.6499999999996 1070.0999999999997 1410.8699999999994 1070.8899999999999 1411.1499999999996 1071.6699999999998C1410.4999999999995 1071.6699999999998 1409.8499999999997 1071.7299999999998 1409.2099999999996 1071.7299999999998L1409.2099999999996 1088.7699999999998L1421.7699999999995 1088.7699999999998L1423.3999999999996 1091.2199999999998L1409.2099999999996 1091.2199999999998L1409.2099999999996 1102.7199999999998C1408.8499999999997 1102.6599999999999 1408.3899999999996 1102.6299999999999 1407.9999999999995 1102.6299999999999C1407.5699999999995 1102.6299999999999 1407.1599999999996 1102.6599999999999 1406.7599999999995 1102.7199999999998L1406.7599999999995 1091.2199999999998L1393.8599999999994 1091.2199999999998C1393.9499999999994 1090.86 1393.9699999999993 1090.3999999999999 1393.9699999999993 1090.0099999999998C1393.9699999999993 1089.5599999999997 1393.9499999999994 1089.1899999999998 1393.8599999999994 1088.7699999999998L1406.7599999999995 1088.7699999999998L1406.7599999999995 1071.7299999999998C1401.7799999999995 1071.6699999999998 1396.9599999999996 1071.3899999999999 1392.5099999999995 1070.9999999999998C1390.7399999999996 1074.8799999999999 1389.5899999999995 1079.1099999999997 1388.9599999999996 1083.5699999999997C1388.4199999999996 1083.4199999999996 1387.8699999999997 1083.2799999999997 1387.2799999999995 1083.2799999999997C1387.0299999999995 1083.2799999999997 1386.7899999999995 1083.3599999999997 1386.5099999999995 1083.3599999999997C1387.1399999999996 1078.9099999999996 1388.2599999999995 1074.6599999999996 1389.9699999999996 1070.7199999999996C1385.6399999999996 1070.1499999999996 1381.7299999999996 1069.4199999999996 1378.4899999999996 1068.5499999999995C1374.3199999999995 1074.2599999999995 1371.7299999999996 1081.2599999999995 1371.4999999999995 1088.7699999999995L1380.7199999999996 1088.7699999999995C1380.6299999999997 1089.1899999999996 1380.5699999999995 1089.5599999999995 1380.5699999999995 1090.0099999999995C1380.5699999999995 1090.3999999999996 1380.6299999999994 1090.8599999999994 1380.7199999999996 1091.2199999999996L1371.4999999999995 1091.2199999999996C1371.7299999999996 1098.7699999999995 1374.3199999999995 1105.7799999999995 1378.4899999999996 1111.4799999999996C1381.7299999999996 1110.6099999999997 1385.6399999999996 1109.8399999999995 1389.9699999999996 1109.3099999999995C1388.2599999999995 1105.3899999999994 1387.1399999999996 1101.1399999999994 1386.5099999999995 1096.6299999999994C1386.7899999999995 1096.6599999999994 1387.0299999999995 1096.6899999999994 1387.2799999999995 1096.6899999999994C1387.8699999999994 1096.6899999999994 1388.4199999999996 1096.6299999999994 1388.9599999999996 1096.4899999999993C1389.5899999999997 1100.9099999999994 1390.7399999999996 1105.1699999999994 1392.5099999999995 1109.0499999999993C1395.3599999999994 1108.7699999999993 1398.3399999999995 1108.5399999999993 1401.3899999999996 1108.4299999999994C1401.3599999999997 1108.7099999999994 1401.2599999999995 1109.0199999999993 1401.2599999999995 1109.3099999999995C1401.2599999999995 1109.8399999999995 1401.3899999999996 1110.3699999999994 1401.4999999999995 1110.9099999999994C1398.8199999999995 1110.9999999999993 1396.1999999999996 1111.1299999999994 1393.6899999999996 1111.3699999999994C1396.8199999999997 1117.1899999999994 1401.2399999999996 1122.1499999999994 1406.7599999999995 1125.7899999999995L1406.7599999999995 1115.8899999999994C1407.1599999999996 1115.9499999999994 1407.5699999999995 1116.0099999999993 1407.9999999999995 1116.0099999999993C1408.3899999999996 1116.0099999999993 1408.8499999999995 1115.9499999999994 1409.2099999999996 1115.8899999999994L1409.2099999999996 1125.7899999999995C1414.7299999999996 1122.1499999999994 1419.1799999999996 1117.1899999999996 1422.3099999999995 1111.3699999999994C1419.7999999999995 1111.1299999999994 1417.1499999999994 1110.9999999999995 1414.5099999999995 1110.9099999999994C1414.6199999999994 1110.3699999999994 1414.6999999999996 1109.8399999999995 1414.6999999999996 1109.3099999999995C1414.6999999999996 1109.0199999999995 1414.6399999999996 1108.7099999999996 1414.6199999999997 1108.4299999999994C1417.6599999999996 1108.5399999999993 1420.6399999999996 1108.7699999999993 1423.4599999999996 1109.0499999999993C1425.4299999999996 1104.7399999999993 1426.6399999999996 1100.0099999999993 1427.1799999999996 1094.9899999999993C1427.6799999999996 1095.1599999999994 1428.1899999999996 1095.2799999999993 1428.7499999999995 1095.2799999999993C1429.0399999999995 1095.2799999999993 1429.3199999999995 1095.2499999999993 1429.6299999999997 1095.1599999999994C1429.0899999999997 1100.2199999999993 1427.8999999999996 1104.9599999999994 1425.9899999999996 1109.3099999999995C1430.3599999999994 1109.8399999999995 1434.2699999999995 1110.6099999999994 1437.5099999999995 1111.4799999999996C1441.6699999999996 1105.7799999999995 1444.2399999999996 1098.7699999999995 1444.4899999999996 1091.2199999999996L1434.0999999999995 1091.2199999999996L1435.7399999999996 1088.7699999999995L1444.4899999999996 1088.7699999999995C1444.3499999999995 1085.1999999999996 1443.7399999999996 1081.7499999999995 1442.6299999999997 1078.4799999999996L1444.2899999999997 1076.0099999999995C1446.0499999999997 1080.3799999999994 1446.9999999999998 1085.1099999999994 1446.9999999999998 1090.0099999999995ZM1380.12 1066.46C1383.25 1067.25 1386.9899999999998 1067.9 1391.11 1068.38C1393.9699999999998 1062.5900000000001 1398.08 1057.64 1403.1499999999999 1053.7600000000002C1402.84 1053.8400000000001 1402.5099999999998 1053.9700000000003 1402.1799999999998 1053.9900000000002C1399.2699999999998 1054.4400000000003 1396.4799999999998 1055.2300000000002 1393.86 1056.3600000000001C1393.75 1056.38 1393.6899999999998 1056.41 1393.58 1056.47C1392.71 1056.83 1391.84 1057.25 1391 1057.7C1390.81 1057.81 1390.62 1057.9 1390.48 1057.99C1389.64 1058.44 1388.85 1058.89 1388.09 1059.39C1387.9499999999998 1059.5300000000002 1387.72 1059.65 1387.58 1059.73C1386.82 1060.23 1386.06 1060.83 1385.3 1061.39C1385.24 1061.45 1385.22 1061.48 1385.19 1061.5C1383.99 1062.46 1382.8500000000001 1063.54 1381.76 1064.66C1381.3 1065.14 1380.86 1065.5900000000001 1380.43 1066.13C1380.3200000000002 1066.24 1380.24 1066.3500000000001 1380.1200000000001 1066.46ZM1435.88 1113.56C1432.75 1112.71 1429.0100000000002 1112.1499999999999 1424.9 1111.6699999999998C1421.99 1117.3799999999999 1417.88 1122.37 1412.7800000000002 1126.1999999999998C1413.15 1126.1799999999998 1413.5200000000002 1126.09 1413.8600000000001 1126.0699999999997C1416.73 1125.5899999999997 1419.46 1124.7899999999997 1422.1100000000001 1123.6899999999996C1422.23 1123.6699999999996 1422.3100000000002 1123.6399999999996 1422.42 1123.5499999999995C1423.29 1123.1599999999994 1424.14 1122.7999999999995 1424.98 1122.3199999999995C1425.14 1122.2099999999996 1425.38 1122.1499999999994 1425.51 1122.0399999999995C1426.36 1121.5799999999995 1427.12 1121.1099999999994 1427.9 1120.5999999999995C1428.0500000000002 1120.5099999999995 1428.24 1120.3499999999995 1428.41 1120.2399999999996C1429.2 1119.7599999999995 1429.96 1119.1899999999996 1430.67 1118.6599999999996C1430.75 1118.5699999999997 1430.8000000000002 1118.4299999999996 1430.95 1118.3699999999997C1432.05 1117.4399999999996 1433.1200000000001 1116.4599999999996 1434.16 1115.4499999999996C1434.64 1114.9399999999996 1435.1200000000001 1114.4299999999996 1435.5900000000001 1113.8999999999996C1435.68 1113.8199999999997 1435.7900000000002 1113.6399999999996 1435.88 1113.5599999999997ZM1403.21 1126.2C1398.08 1122.3700000000001 1393.97 1117.38 1391.1100000000001 1111.67C1386.9900000000002 1112.15 1383.2500000000002 1112.71 1380.1200000000001 1113.5600000000002C1380.21 1113.64 1380.3200000000002 1113.8200000000002 1380.3700000000001 1113.9C1380.89 1114.43 1381.3300000000002 1114.94 1381.8400000000001 1115.45C1382.8500000000001 1116.46 1383.95 1117.44 1385.0500000000002 1118.3700000000001C1385.14 1118.43 1385.2200000000003 1118.5700000000002 1385.3000000000002 1118.66C1386.0100000000002 1119.19 1386.7900000000002 1119.76 1387.5500000000002 1120.24C1387.7200000000003 1120.35 1387.9500000000003 1120.51 1388.0900000000001 1120.6C1388.88 1121.11 1389.64 1121.58 1390.4800000000002 1122.04C1390.6200000000003 1122.1499999999999 1390.8100000000002 1122.21 1391.0200000000002 1122.32C1391.8700000000001 1122.8 1392.7100000000003 1123.1599999999999 1393.5800000000002 1123.55C1393.69 1123.6399999999999 1393.8100000000002 1123.6699999999998 1393.89 1123.69C1396.51 1124.79 1399.2700000000002 1125.5900000000001 1402.1100000000001 1126.0700000000002C1402.48 1126.0900000000001 1402.8200000000002 1126.18 1403.21 1126.2000000000003ZM1393.69 1068.64C1397.78 1068.99 1402.23 1069.26 1406.76 1069.2800000000002L1406.76 1054.2700000000002C1401.24 1057.9000000000003 1396.82 1062.8300000000002 1393.69 1068.64Z " fill="#3387b8" fill-opacity="1" transform="matrix(1,0,0,1,-1369,-1051)"></path></svg>