<svg id="SvgjsSvg1043" xmlns="http://www.w3.org/2000/svg" version="1.1" xmlns:xlink="http://www.w3.org/1999/xlink" xmlns:svgjs="http://svgjs.com/svgjs" width="40" height="40" viewBox="0 0 40 40"><title>Shape 25</title><desc>Created with Avocode.</desc><defs id="SvgjsDefs1044"></defs><path id="SvgjsPath1045" d="M343.986 2463.5C343.986 2452.74 335.24199999999996 2443.99 324.49 2443.99C313.738 2443.99 304.994 2452.74 304.994 2463.5C304.994 2474.26 313.73800000000006 2483 324.49 2483C335.242 2483 343.986 2474.26 343.986 2463.5ZM342.409 2463.5C342.409 2473.39 334.37399999999997 2481.43 324.49 2481.43C314.606 2481.43 306.571 2473.39 306.571 2463.5C306.571 2453.61 314.60600000000005 2445.57 324.49 2445.57C334.374 2445.57 342.409 2453.61 342.409 2463.5ZM326.138 2469.98C326.28999999999996 2470.13 326.49699999999996 2470.21 326.69599999999997 2470.21C326.895 2470.21 327.102 2470.13 327.25399999999996 2469.98C327.56399999999996 2469.67 327.56399999999996 2469.17 327.25399999999996 2468.86L321.89399999999995 2463.5L327.25399999999996 2458.14C327.56399999999996 2457.83 327.56399999999996 2457.33 327.25399999999996 2457.02C326.943 2456.71 326.44899999999996 2456.71 326.138 2457.02L320.221 2462.94C319.911 2463.25 319.911 2463.75 320.221 2464.06Z " fill="#d1d1d1" fill-opacity="1" transform="matrix(1,0,0,1,-304,-2443)"></path></svg>