<svg id="SvgjsSvg1008" xmlns="http://www.w3.org/2000/svg" version="1.1" xmlns:xlink="http://www.w3.org/1999/xlink" xmlns:svgjs="http://svgjs.com/svgjs" width="78" height="73" viewBox="0 0 78 73"><title>Shape 31</title><desc>Created with Avocode.</desc><defs id="SvgjsDefs1009"></defs><path id="SvgjsPath1010" d="M535.183 1068.93C534.874 1068.91 527.616 1067.72 516.703 1067.72C505.762 1067.72 498.506 1068.91 498.22799999999995 1068.93C495.424 1069.3600000000001 493.549 1071.29 493.549 1073.73L493.549 1076.1200000000001L485.03 1076.1200000000001C484.109 1076.1200000000001 483.39599999999996 1076.8400000000001 483.39599999999996 1077.7L483.39599999999996 1086.55C483.39599999999996 1086.9199999999998 483.56299999999993 1087.27 483.859 1087.49L489.137 1091.48L493.549 1094.73676L493.549 1118.17C493.549 1120.08683 494.70648 1121.7593200000001 496.37645 1122.52541C496.40094 1126.98945 497.44876 1127.78 503.072 1127.78C508.58067 1127.78 509.69364 1127.06044 509.78372 1122.97L524.41166 1122.97C524.50666 1127.04252 525.66787 1127.78 531.101 1127.78C536.891 1127.78 537.818 1126.99 537.818 1122.36C537.818 1122.2677899999999 537.80758 1122.1778499999998 537.78786 1122.0912999999998C539.04071 1121.21843 539.86 1119.7804499999997 539.86 1118.1699999999998L539.86 1094.7159399999998L544.242 1091.4799999999998L549.5169999999999 1087.4899999999998C549.8149999999999 1087.2699999999998 549.9999999999999 1086.9199999999998 549.9999999999999 1086.5499999999997L549.9999999999999 1077.6999999999998C549.9999999999999 1076.84 549.2709999999998 1076.12 548.3779999999999 1076.12L539.8599999999999 1076.12L539.8599999999999 1073.7299999999998C539.8599999999999 1071.3499999999997 538.0099999999999 1069.4699999999998 535.1829999999999 1068.9299999999998ZM537.41 1118.17C537.41 1119.48 536.3209999999999 1120.5600000000002 534.985 1120.5600000000002L498.42 1120.5600000000002C497.058 1120.5600000000002 495.968 1119.4800000000002 495.968 1118.17L495.968 1116.54095C496.10106 1116.56008 496.23727 1116.5700000000002 496.37600000000003 1116.5700000000002L502.95900000000006 1116.5700000000002C503.88700000000006 1116.4800000000002 504.84200000000004 1115.5900000000001 505.25000000000006 1115.0900000000001C505.76200000000006 1114.4 505.76200000000006 1113.8100000000002 505.63300000000004 1113.3400000000001L504.81700000000006 1110.95C503.99800000000005 1108.54 502.22400000000005 1108.54 501.25300000000004 1108.54L496.37600000000003 1108.54C496.23727 1108.54 496.10106 1108.54984 495.968 1108.56883L495.968 1073.73C495.968 1072.23 497.38 1071.48 498.60200000000003 1071.29C498.69100000000003 1071.29 505.95500000000004 1070.11 516.703 1070.11C527.424 1070.11 534.688 1071.29 534.744 1071.29C535.369 1071.3999999999999 537.4100000000001 1071.93 537.4100000000001 1073.73L537.4100000000001 1108.56867C537.2767400000001 1108.54978 537.14052 1108.5400000000002 537.0020000000001 1108.5400000000002L532.047 1108.5400000000002C531.181 1108.5400000000002 529.408 1108.5400000000002 528.5400000000001 1110.9500000000003L527.7210000000001 1113.4800000000002C527.6160000000001 1113.8100000000002 527.6160000000001 1114.4000000000003 528.1300000000001 1115.0900000000001C528.5400000000001 1115.5900000000001 529.4920000000001 1116.4800000000002 530.5230000000001 1116.5700000000002L537.0020000000002 1116.5700000000002C537.1405200000002 1116.5700000000002 537.2767400000001 1116.5601400000003 537.4100000000002 1116.5411100000001ZM504.296 1090.51C504.562 1090.57 511.151 1091.75 517.327 1091.75C523.453 1091.75 528.915 1090.57 529.138 1090.51C531.972 1089.87 533.759 1088.07 533.759 1085.74L533.759 1077.33C533.759 1076.6799999999998 533.197 1076.12 532.535 1076.12L500.84299999999996 1076.12C500.18199999999996 1076.12 499.61799999999994 1076.6799999999998 499.61799999999994 1077.33L499.61799999999994 1085.74C499.61799999999994 1088.15 501.38499999999993 1089.96 504.29599999999994 1090.51ZM502.07 1078.51L531.341 1078.51L531.341 1085.74C531.341 1087.43 529.268 1088 528.619 1088.15C528.562 1088.18 523.179 1089.3400000000001 517.327 1089.3400000000001C511.393 1089.3400000000001 504.785 1088.15 504.729 1088.15C503.50399999999996 1087.92 502.07 1087.3200000000002 502.07 1085.74ZM533.759 1103.74C534.439 1103.74 534.985 1103.21 534.985 1102.55C534.985 1101.8799999999999 534.439 1101.32 533.759 1101.32L527.424 1101.32L527.125 1102.1299999999999C526.167 1104.6499999999999 524.646 1107.2099999999998 523.996 1107.35L509.40799999999996 1107.35C508.67799999999994 1107.2099999999998 506.85799999999995 1104.6699999999998 505.602 1102.02L505.28099999999995 1101.32L499.61799999999994 1101.32C498.9579999999999 1101.32 498.41999999999996 1101.8799999999999 498.41999999999996 1102.55C498.41999999999996 1103.21 498.95799999999997 1103.74 499.61799999999994 1103.74L503.7459999999999 1103.74C504.8719999999999 1105.96 507.1239999999999 1109.76 509.3829999999999 1109.76L523.9959999999999 1109.76C526.3099999999998 1109.76 528.1849999999998 1106.01 529.1139999999999 1103.74ZM526.464 1096.55C526.464 1095.8899999999999 525.902 1095.34 525.221 1095.34L508.182 1095.34C507.47900000000004 1095.34 506.957 1095.8899999999999 506.957 1096.55C506.957 1097.19 507.479 1097.74 508.182 1097.74L525.221 1097.74C525.902 1097.74 526.464 1097.19 526.464 1096.55ZM510.608 1101.32C509.928 1101.32 509.383 1101.8799999999999 509.383 1102.55C509.383 1103.21 509.928 1103.74 510.608 1103.74L522.77 1103.74C523.453 1103.74 523.996 1103.21 523.996 1102.55C523.996 1101.8799999999999 523.453 1101.32 522.77 1101.32ZM491.102 1089.93L491.102 1078.51L493.549 1078.51L493.549 1091.75253ZM539.86 1091.72995L539.86 1078.51L542.28 1078.51L542.28 1089.93ZM521.578 1112.14L511.832 1112.14C511.151 1112.14 510.608 1112.71 510.608 1113.3400000000001C510.608 1114.0100000000002 511.151 1114.5600000000002 511.832 1114.5600000000002L521.578 1114.5600000000002C522.25 1114.5600000000002 522.77 1114.0100000000002 522.77 1113.3400000000001C522.77 1112.71 522.25 1112.14 521.578 1112.14ZM488.674 1088.1L485.815 1085.9299999999998L485.815 1078.5099999999998L488.674 1078.5099999999998ZM547.562 1085.93L544.729 1088.1000000000001L544.729 1078.5100000000002L547.562 1078.5100000000002ZM537.002 1114.14L530.7149999999999 1114.14C530.6039999999999 1114.1100000000001 530.3369999999999 1113.92 530.1709999999999 1113.76L530.8779999999999 1111.72C531.1239999999999 1110.92 531.2119999999999 1110.8600000000001 532.127 1110.92L537.002 1110.92C537.241 1110.92 537.41 1111.15 537.41 1111.3400000000001L537.41 1113.7600000000002C537.41 1113.9500000000003 537.241 1114.1400000000003 537.002 1114.1400000000003ZM502.719 1114.14L496.376 1114.14C496.154 1114.14 495.96799999999996 1113.95 495.96799999999996 1113.76L495.96799999999996 1111.34C495.96799999999996 1111.1499999999999 496.15399999999994 1110.9199999999998 496.376 1110.9199999999998L501.35299999999995 1110.9199999999998C502.09399999999994 1110.9199999999998 502.25499999999994 1110.9199999999998 502.50199999999995 1111.7199999999998L503.20699999999994 1113.7599999999998C503.07199999999995 1113.8899999999999 502.8539999999999 1114.0599999999997 502.71899999999994 1114.1399999999999ZM526.83266 1122.97L534.985 1122.97C535.11371 1122.97 535.24126 1122.96503 535.36747 1122.9552800000001C535.34744 1125.3600000000001 535.06566 1125.3600000000001 531.101 1125.3600000000001C527.1426 1125.3600000000001 526.85374 1125.3600000000001 526.83266 1122.97ZM498.80366 1122.97L507.33934 1122.97C507.31827 1125.3600000000001 507.02948 1125.3600000000001 503.072 1125.3600000000001C499.1136 1125.3600000000001 498.82474 1125.3600000000001 498.80366 1122.97ZM538.436 1055.69L495.15200000000004 1055.69C494.83000000000004 1055.69 494.55100000000004 1055.8500000000001 494.31100000000004 1056.04L472.37800000000004 1076.44C472.136 1076.68 472.00000000000006 1076.98 472.00000000000006 1077.3300000000002L472.00000000000006 1115.7200000000003C472.00000000000006 1116.3900000000003 472.54300000000006 1116.9500000000003 473.2250000000001 1116.9500000000003L476.8690000000001 1116.9500000000003L476.8690000000001 1121.7500000000002C476.8690000000001 1122.4200000000003 477.43700000000007 1122.9700000000003 478.0940000000001 1122.9700000000003L480.5200000000001 1122.9700000000003L480.5200000000001 1123.2500000000002C480.4890000000001 1124.7800000000002 480.4890000000001 1125.8600000000001 481.3350000000001 1126.6800000000003C482.2250000000001 1127.6400000000003 483.6760000000001 1127.7800000000002 486.6320000000001 1127.7800000000002C489.57800000000015 1127.7800000000002 491.04500000000013 1127.64 491.94100000000014 1126.6800000000003C492.7570000000001 1125.8600000000004 492.7570000000001 1124.7200000000003 492.73200000000014 1123.2800000000002L492.70300000000015 1122.3600000000001C492.70300000000015 1122.2500000000002 492.67600000000016 1122.17 492.64600000000013 1122.0600000000002C492.6760000000001 1121.9400000000003 492.70300000000015 1121.8600000000001 492.70300000000015 1121.7500000000002C492.70300000000015 1121.0800000000002 492.18300000000016 1120.5600000000002 491.5070000000001 1120.5600000000002L479.29500000000013 1120.5600000000002L479.29500000000013 1116.9500000000003L487.85700000000014 1116.9500000000003C488.4880000000001 1116.9500000000003 489.05700000000013 1116.3900000000003 489.05700000000013 1115.7200000000003C489.05700000000013 1115.0900000000001 488.4880000000001 1114.5600000000002 487.85700000000014 1114.5600000000002L474.42000000000013 1114.5600000000002L474.42000000000013 1077.8600000000001L493.92700000000013 1059.68L493.92700000000013 1065.3100000000002C493.92700000000013 1065.9600000000003 494.4780000000001 1066.5200000000002 495.15200000000016 1066.5200000000002C495.83300000000014 1066.5200000000002 496.37600000000015 1065.9600000000003 496.37600000000015 1065.3100000000002L496.37600000000015 1058.1100000000001L537.1940000000002 1058.1100000000001L537.1940000000002 1065.3100000000002C537.1940000000002 1065.9600000000003 537.7630000000001 1066.5200000000002 538.4360000000001 1066.5200000000002C539.1000000000001 1066.5200000000002 539.6380000000001 1065.9600000000003 539.6380000000001 1065.3100000000002L539.6380000000001 1056.9C539.6380000000001 1056.25 539.1000000000001 1055.69 538.4360000000001 1055.69ZM490.196 1125.02C489.985 1125.25 488.761 1125.36 486.632 1125.36C483.94100000000003 1125.36 483.21 1125.1999999999998 483.07 1125.02C482.938 1124.85 482.938 1123.94 482.938 1123.28L482.938 1122.97L490.283 1122.97L490.283 1123.3C490.309 1124 490.309 1124.85 490.196 1125.02Z " fill="#3387b8" fill-opacity="1" transform="matrix(1,0,0,1,-472,-1055)"></path></svg>