<svg id="SvgjsSvg1011" xmlns="http://www.w3.org/2000/svg" version="1.1" xmlns:xlink="http://www.w3.org/1999/xlink" xmlns:svgjs="http://svgjs.com/svgjs" width="78" height="78" viewBox="0 0 78 78"><title>Shape 34</title><desc>Created with Avocode.</desc><defs id="SvgjsDefs1012"></defs><path id="SvgjsPath1013" d="M796.964 1049.08C781.658 1049.08 769.2360000000001 1061.59 769.2360000000001 1076.9399999999998C769.2360000000001 1095.5399999999997 794.0340000000001 1117.35 796.0990000000002 1119.1C796.3220000000001 1119.33 796.6240000000001 1119.51 796.9640000000002 1119.51C797.2690000000001 1119.51 797.5710000000001 1119.33 797.8300000000002 1119.1C799.8890000000001 1117.35 824.6950000000002 1095.54 824.6950000000002 1076.9399999999998C824.6950000000002 1061.59 812.2380000000002 1049.08 796.9640000000002 1049.08ZM796.964 1116.64C792.576 1112.74 771.638 1093.0400000000002 771.638 1076.94C771.638 1062.91 783 1051.52 796.964 1051.52C810.894 1051.52 822.293 1062.91 822.293 1076.94C822.293 1093.04 801.315 1112.74 796.964 1116.64ZM835.244 1119.86L826.8100000000001 1101.8799999999999C825.836 1100.1399999999999 824.8610000000001 1099.81 823.711 1099.36L820.809 1098.3799999999999C820.333 1099.08 819.9169999999999 1099.78 819.4409999999999 1100.4499999999998L822.319 1101.4299999999998L822.842 1101.6299999999999C823.856 1101.9599999999998 824.164 1102.1299999999999 824.6659999999999 1103.01L833.01 1120.76C833.405 1121.95 833.15 1123.12 832.424 1123.8C831.817 1124.4099999999999 830.896 1124.5 829.7429999999999 1124.05L813.746 1118.54L812.0169999999999 1109.99C811.347 1110.77 810.6729999999999 1111.5 810.002 1112.23L811.318 1118.68L796.9639999999999 1124.27L782.579 1118.68L783.8919999999999 1112.23C783.2209999999999 1111.5 782.5469999999999 1110.77 781.8879999999999 1109.99L780.151 1118.54L764.093 1124.08C763.035 1124.5 762.1179999999999 1124.4099999999999 761.4699999999999 1123.8C760.747 1123.12 760.526 1121.95 760.8279999999999 1120.8999999999999L769.2099999999998 1103.09C769.7329999999998 1102.1299999999999 770.0729999999999 1101.9599999999998 771.0489999999999 1101.6299999999999L774.4819999999999 1100.4499999999998C774.0399999999998 1099.7799999999997 773.5349999999999 1099.08 773.0839999999998 1098.34L770.6799999999998 1099.1599999999999L770.1859999999998 1099.36C769.0329999999998 1099.81 768.0599999999998 1100.1399999999999 767.0549999999998 1101.9599999999998L758.5949999999998 1119.9999999999998C757.9209999999998 1122.0599999999997 758.4029999999998 1124.2099999999998 759.7969999999998 1125.5599999999997C760.6649999999998 1126.3799999999997 761.6929999999998 1126.7699999999998 762.8319999999998 1126.7699999999998C763.5029999999998 1126.7699999999998 764.2319999999997 1126.6299999999997 764.9319999999998 1126.3499999999997L781.2169999999998 1120.7599999999998L796.5139999999998 1126.6899999999998C796.7899999999997 1126.7999999999997 797.1039999999998 1126.7999999999997 797.3799999999998 1126.6899999999998L812.6509999999997 1120.7599999999998L828.9069999999997 1126.3199999999997C830.8959999999997 1127.1099999999997 832.7609999999997 1126.8499999999997 834.1339999999997 1125.5599999999997C835.4939999999997 1124.2099999999998 835.9729999999997 1122.0599999999997 835.2439999999997 1119.8599999999997ZM809.589 1061.22L784.3420000000001 1061.22C782.6050000000001 1061.22 781.243 1062.6000000000001 781.243 1064.31L781.243 1089.6699999999998C781.243 1091.3899999999999 782.605 1092.7899999999997 784.3420000000001 1092.7899999999997L809.589 1092.7899999999997C811.288 1092.7899999999997 812.624 1091.3899999999996 812.624 1089.6699999999998L812.624 1064.31C812.624 1062.6 811.288 1061.22 809.589 1061.22ZM810.223 1089.67C810.223 1090.04 809.9209999999999 1090.3500000000001 809.5889999999999 1090.3500000000001L784.342 1090.3500000000001C783.947 1090.3500000000001 783.645 1090.0400000000002 783.645 1089.67L783.645 1064.3100000000002C783.645 1063.9600000000003 783.947 1063.64 784.342 1063.64L789.956 1063.64L789.956 1070.01C789.956 1070.46 790.148 1070.82 790.479 1071.08C790.8760000000001 1071.28 791.289 1071.3 791.6840000000001 1071.11L794.2250000000001 1069.82L796.3490000000002 1071.08C796.5140000000001 1071.1899999999998 796.7090000000002 1071.25 796.9640000000002 1071.25C797.1590000000002 1071.25 797.3510000000001 1071.19 797.5450000000002 1071.08L799.6680000000002 1069.82L802.1800000000002 1071.11C802.5780000000002 1071.3 803.0200000000002 1071.28 803.3860000000002 1071.08C803.7460000000002 1070.82 803.9400000000002 1070.46 803.9400000000002 1070.01L803.9400000000002 1063.64L809.5890000000002 1063.64C809.9210000000002 1063.64 810.2230000000002 1063.96 810.2230000000002 1064.3100000000002ZM792.355 1063.64L801.5120000000001 1063.64L801.5120000000001 1068.0500000000002L800.176 1067.3500000000001C799.808 1067.18 799.3950000000001 1067.21 799.0260000000001 1067.4L796.964 1068.6000000000001L794.87 1067.4C794.5360000000001 1067.21 794.086 1067.18 793.688 1067.3500000000001L792.355 1068.0500000000002ZM804.196 1083.09L799.8340000000001 1083.09C799.163 1083.09 798.6400000000001 1083.61 798.6400000000001 1084.29C798.6400000000001 1084.96 799.1630000000001 1085.5 799.8340000000001 1085.5L804.196 1085.5C804.8670000000001 1085.5 805.393 1084.96 805.393 1084.29C805.393 1083.61 804.8670000000001 1083.09 804.196 1083.09Z " fill="#3387b8" fill-opacity="1" transform="matrix(1,0,0,1,-758,-1049)"></path></svg>