<svg id="SvgjsSvg1014" xmlns="http://www.w3.org/2000/svg" version="1.1" xmlns:xlink="http://www.w3.org/1999/xlink" xmlns:svgjs="http://svgjs.com/svgjs" width="92" height="81" viewBox="0 0 92 81"><title>Shape 32</title><desc>Created with Avocode.</desc><defs id="SvgjsDefs1015"></defs><path id="SvgjsPath1016" d="M1070.08 1094.91C1065.65337 1094.91 1061.97757 1098.1744800000001 1061.30867 1102.44L1058.8999999999999 1102.44C1056.9699999999998 1102.44 1055.35 1100.81 1055.35 1098.8200000000002L1055.35 1089.39C1055.35 1085.9033200000001 1057.4072999999999 1082.3409800000002 1059.8208499999998 1079.0900000000001L1072.31 1079.0900000000001C1074.55 1079.0900000000001 1075.82 1078.17 1076.55 1077.3700000000001C1078.26 1075.48 1078.08 1072.7900000000002 1078.06 1072.6200000000001L1078.06 1067.6100000000001C1078.06 1066.8200000000002 1077.47 1066.15 1076.6799999999998 1066.15C1075.8899999999999 1066.15 1075.2299999999998 1066.8200000000002 1075.2299999999998 1067.6100000000001L1075.2299999999998 1072.72C1075.2599999999998 1073.23 1075.1599999999999 1074.6100000000001 1074.4499999999998 1075.44C1073.9499999999998 1075.98 1073.2599999999998 1076.21 1072.3099999999997 1076.21L1062.0830599999997 1076.21C1062.4508499999997 1075.76007 1062.8150299999998 1075.3196500000001 1063.1699999999996 1074.89C1063.8399999999997 1074.1200000000001 1064.4299999999996 1073.39 1064.9399999999996 1072.69C1069.5499999999995 1066.91 1075.8199999999997 1058.98 1082.6899999999996 1058.98L1128.3399999999997 1058.98C1128.5599999999997 1059.01 1132.1399999999996 1059.47 1132.1399999999996 1063.82L1132.1399999999996 1071.53L1101.2499999999995 1071.53L1101.2499999999995 1067.8799999999999L1100.8499999999995 1067.4799999999998C1100.2299999999996 1066.8499999999997 1099.4399999999994 1066.5199999999998 1098.6299999999994 1066.5199999999998C1098.6299999999994 1066.5199999999998 1098.6299999999994 1066.5199999999998 1098.5499999999995 1066.5199999999998C1097.7399999999996 1066.5199999999998 1096.9499999999996 1066.8499999999997 1096.4599999999996 1067.3499999999997L1085.4399999999996 1075.8499999999997C1085.0499999999995 1076.1399999999996 1084.8999999999996 1076.5999999999997 1084.9199999999996 1077.0999999999997C1084.8999999999996 1077.5599999999997 1085.0499999999997 1078.0699999999997 1085.4399999999996 1078.3899999999996L1096.3199999999997 1086.7699999999998C1097.5699999999997 1088.0399999999997 1099.6199999999997 1088.0399999999997 1100.8499999999997 1086.7699999999998L1101.2499999999998 1086.3399999999997L1101.2499999999998 1082.8799999999997L1132.1399999999999 1082.8799999999997L1132.1399999999999 1090.5799999999997L1134.9699999999998 1090.5799999999997L1134.9699999999998 1079.9899999999998L1098.4299999999998 1079.9899999999998L1098.4299999999998 1084.7799999999997C1098.36 1084.7399999999998 1098.2599999999998 1084.6799999999998 1098.1699999999998 1084.6099999999997L1088.4799999999998 1077.0999999999997L1098.2899999999997 1069.5099999999998C1098.3199999999997 1069.4699999999998 1098.3899999999996 1069.4499999999998 1098.4299999999998 1069.4499999999998L1098.4299999999998 1074.3899999999999L1134.9699999999998 1074.3899999999999L1134.9699999999998 1063.82C1134.9699999999998 1058.35 1130.8799999999999 1056.3899999999999 1128.5799999999997 1056.12L1082.6899999999996 1056.12C1074.4799999999996 1056.12 1067.6699999999996 1064.6499999999999 1062.7499999999995 1070.8999999999999C1062.2199999999996 1071.56 1061.6399999999996 1072.29 1060.9999999999995 1073.06C1057.2299999999996 1077.56 1052.4999999999995 1083.29 1052.4999999999995 1089.3899999999999L1052.4999999999995 1098.82C1052.4999999999995 1102.4199999999998 1055.3499999999995 1105.31 1058.8999999999996 1105.31L1061.3176099999996 1105.31C1062.0096899999996 1109.5877799999998 1065.6726999999996 1112.84 1070.0799999999997 1112.84C1074.4783099999997 1112.84 1078.1080499999996 1109.5877799999998 1078.7935299999997 1105.31L1093.7299999999998 1105.31L1093.7299999999998 1102.44L1078.8023799999999 1102.44C1078.1398699999997 1098.1744800000001 1074.49759 1094.91 1070.08 1094.91ZM1140.18 1094.91L1101.25 1094.91C1099.44 1094.91 1098 1096.3600000000001 1098 1098.19L1098 1133.26C1098 1135.08 1099.44 1136.55 1101.25 1136.55L1140.18 1136.55C1141.99 1136.55 1143.5 1135.08 1143.5 1133.26L1143.5 1098.19C1143.5 1096.3600000000001 1141.99 1094.91 1140.18 1094.91ZM1140.65 1133.26C1140.65 1133.49 1140.41 1133.68 1140.18 1133.68L1101.25 1133.68C1101.02 1133.68 1100.85 1133.49 1100.85 1133.26L1100.85 1098.19C1100.85 1097.95 1101.02 1097.76 1101.25 1097.76L1110.48 1097.76L1110.48 1105.79C1110.48 1106.33 1110.75 1106.75 1111.17 1107.06C1111.5700000000002 1107.3 1112.0900000000001 1107.32 1112.51 1107.09L1116.37 1105.1699999999998L1119.55 1107.06C1119.78 1107.19 1120.05 1107.25 1120.31 1107.25C1120.53 1107.25 1120.76 1107.19 1121.03 1107.06L1124.21 1105.1699999999998L1128.02 1107.09C1128.49 1107.32 1128.98 1107.3 1129.44 1107.06C1129.8300000000002 1106.75 1130.0900000000001 1106.33 1130.0900000000001 1105.79L1130.0900000000001 1097.76L1140.18 1097.76C1140.41 1097.76 1140.65 1097.95 1140.65 1098.19ZM1070.08 1109.95C1066.72 1109.95 1064.03 1107.23 1064.03 1103.8400000000001C1064.03 1100.5200000000002 1066.72 1097.7600000000002 1070.08 1097.7600000000002C1073.3899999999999 1097.7600000000002 1076.08 1100.5200000000002 1076.08 1103.8400000000001C1076.08 1107.2300000000002 1073.3899999999999 1109.95 1070.08 1109.95ZM1113.3 1097.76L1127.24 1097.76L1127.24 1103.47L1124.84 1102.25C1124.3799999999999 1102.01 1123.8899999999999 1102.01 1123.4499999999998 1102.29L1120.3099999999997 1104.17L1117.1099999999997 1102.29C1116.7199999999996 1102.01 1116.1999999999996 1102.01 1115.7699999999998 1102.25L1113.2999999999997 1103.47ZM1134.97 1126.48L1133.54 1126.48C1132.72 1126.48 1132.1399999999999 1127.15 1132.1399999999999 1127.95C1132.1399999999999 1128.74 1132.7199999999998 1129.41 1133.54 1129.41L1134.97 1129.41C1135.71 1129.41 1136.3700000000001 1128.74 1136.3700000000001 1127.95C1136.3700000000001 1127.15 1135.71 1126.48 1134.97 1126.48ZM1127.86 1126.48L1126.4099999999999 1126.48C1125.6599999999999 1126.48 1125.0099999999998 1127.15 1125.0099999999998 1127.95C1125.0099999999998 1128.74 1125.6599999999999 1129.41 1126.4099999999999 1129.41L1127.86 1129.41C1128.6499999999999 1129.41 1129.2299999999998 1128.74 1129.2299999999998 1127.95C1129.2299999999998 1127.15 1128.6499999999999 1126.48 1127.86 1126.48ZM1120.73 1126.48L1119.32 1126.48C1118.53 1126.48 1117.87 1127.15 1117.87 1127.95C1117.87 1128.74 1118.53 1129.41 1119.32 1129.41L1120.73 1129.41C1121.52 1129.41 1122.18 1128.74 1122.18 1127.95C1122.18 1127.15 1121.52 1126.48 1120.73 1126.48Z " fill="#3387b8" fill-opacity="1" transform="matrix(1,0,0,1,-1052,-1056)"></path></svg>