<svg id="SvgjsSvg1000" xmlns="http://www.w3.org/2000/svg" version="1.1" xmlns:xlink="http://www.w3.org/1999/xlink" xmlns:svgjs="http://svgjs.com/svgjs" width="21" height="15" viewBox="0 0 21 15"><title>Shape 6</title><desc>Created with Avocode.</desc><defs id="SvgjsDefs1001"></defs><path id="SvgjsPath1007" d="M1360.36 4644C1357.9499999999998 4644 1356 4645.97 1356 4648.4L1356 4654.599999999999C1356 4657.03 1357.95 4658.999999999999 1360.36 4658.999999999999L1372.6399999999999 4658.999999999999C1375.05 4658.999999999999 1376.9999999999998 4657.029999999999 1376.9999999999998 4654.599999999999L1376.9999999999998 4648.4C1376.9999999999998 4645.969999999999 1375.0499999999997 4644 1372.6399999999999 4644ZM1363.95 4654.56C1363.79 4654.64 1363.6200000000001 4654.530000000001 1363.6200000000001 4654.35L1363.6200000000001 4648.650000000001C1363.6200000000001 4648.4800000000005 1363.8000000000002 4648.370000000001 1363.95 4648.450000000001L1369.69 4651.380000000001C1369.8600000000001 4651.470000000001 1369.8600000000001 4651.720000000001 1369.69 4651.800000000001Z " fill="#404040" fill-opacity="1" transform="matrix(1,0,0,1,-1356,-4644)"></path></svg>