<svg id="SvgjsSvg1020" xmlns="http://www.w3.org/2000/svg" version="1.1" xmlns:xlink="http://www.w3.org/1999/xlink" xmlns:svgjs="http://svgjs.com/svgjs" width="46" height="48" viewBox="0 0 46 48"><title>Shape 37</title><desc>Created with Avocode.</desc><defs id="SvgjsDefs1021"></defs><path id="SvgjsPath1022" d="M451.994 1991.21C451.994 1994.81 450.46000000000004 1998.3 447.66600000000005 2001.08L446.56200000000007 2009.82L440.78800000000007 2009.82L439.2780000000001 2005.82C436.96600000000007 2006.3999999999999 433.8690000000001 2006.79 431.3850000000001 2006.79C429.3880000000001 2006.79 427.4220000000001 2006.54 425.5300000000001 2006.04L423.9220000000001 2009.82L417.7430000000001 2009.82L417.7430000000001 2002.1899999999998C417.7220000000001 2002.1799999999998 417.7000000000001 2002.1699999999998 417.6780000000001 2002.1499999999999C411.74900000000014 1998.58 408.6020000000001 1996.1899999999998 407.77800000000013 1994.62C406.6250000000001 1992.4299999999998 405.99800000000016 1988.8899999999999 406.9420000000001 1987.31C407.29200000000014 1986.73 407.83300000000014 1986.4099999999999 408.4670000000001 1986.4099999999999L408.5950000000001 1986.4099999999999C409.8420000000001 1986.4099999999999 410.80500000000006 1986.2699999999998 411.5870000000001 1985.9699999999998C412.3120000000001 1984.4899999999998 413.33100000000013 1983.2099999999998 414.5740000000001 1982.1999999999998C412.80700000000013 1979.08 412.2170000000001 1977.5599999999997 412.96500000000015 1976.62C413.3050000000001 1976.1899999999998 413.87500000000017 1975.9799999999998 414.65900000000016 1975.9799999999998C416.17600000000016 1975.9799999999998 418.7660000000002 1976.7899999999997 420.7160000000002 1978.2999999999997L421.05600000000015 1978.1199999999997C424.1630000000002 1976.5199999999998 427.83100000000013 1975.6299999999997 431.38500000000016 1975.6299999999997C442.36300000000017 1975.6299999999997 451.99400000000014 1982.9099999999996 451.99400000000014 1991.2099999999996ZM424.809 1975.19C424.40400000000005 1974.14 424.199 1973.04 424.199 1971.91C424.199 1966.91 428.23900000000003 1962.8400000000001 433.20300000000003 1962.8400000000001C438.16700000000003 1962.8400000000001 442.20700000000005 1966.91 442.20700000000005 1971.91C442.20700000000005 1973.3200000000002 441.89300000000003 1974.67 441.27400000000006 1975.93L439.4800000000001 1975.03C439.95900000000006 1974.06 440.2030000000001 1973.01 440.2030000000001 1971.91C440.2030000000001 1968.02 437.0630000000001 1964.8600000000001 433.2030000000001 1964.8600000000001C429.3440000000001 1964.8600000000001 426.2030000000001 1968.0200000000002 426.2030000000001 1971.91C426.2030000000001 1972.7900000000002 426.3630000000001 1973.65 426.6760000000001 1974.46ZM418.256 1985.76C417.22299999999996 1985.76 416.385 1986.54 416.385 1987.51C416.385 1988.48 417.223 1989.26 418.256 1989.26C419.28799999999995 1989.26 420.126 1988.48 420.126 1987.51C420.126 1986.54 419.28799999999995 1985.76 418.256 1985.76ZM449.99 1991.21C449.99 1983.99 441.296 1977.65 431.385 1977.65C428.352 1977.65 425.23 1978.3600000000001 422.524 1979.65L422.574 1983.8400000000001L420.711 1981.14C419.42 1979.2800000000002 416.295 1978.0300000000002 414.728 1978C415.044 1979 416.255 1981.1 416.755 1981.96L417.228 1982.78L416.44800000000004 1983.31C415.062 1984.25 413.95300000000003 1985.58 413.242 1987.1699999999998L413.088 1987.5099999999998L412.74800000000005 1987.6699999999998C411.64300000000003 1988.1799999999998 410.3310000000001 1988.4199999999998 408.6170000000001 1988.4199999999998C408.3040000000001 1989.09 408.5040000000001 1991.6899999999998 409.54800000000006 1993.6799999999998C409.90200000000004 1994.35 411.56300000000005 1996.12 418.70700000000005 2000.4199999999998C419.08700000000005 2000.6499999999999 419.32000000000005 2000.8 419.36000000000007 2000.83L419.74700000000007 2001.1299999999999L419.74700000000007 2007.8L422.59900000000005 2007.8L424.38800000000003 2003.6L425.247 2003.86C427.213 2004.4599999999998 429.278 2004.77 431.385 2004.77C434.03499999999997 2004.77 437.414 2004.31 439.603 2003.6399999999999L440.496 2003.37L442.16999999999996 2007.8L444.79599999999994 2007.8L445.7679999999999 2000.12L446.0279999999999 1999.87C448.5829999999999 1997.4399999999998 449.9899999999999 1994.36 449.9899999999999 1991.2099999999998Z " fill="#3387b8" fill-opacity="1" transform="matrix(1,0,0,1,-406,-1962)"></path></svg>