<svg id="SvgjsSvg1022" xmlns="http://www.w3.org/2000/svg" version="1.1" xmlns:xlink="http://www.w3.org/1999/xlink" xmlns:svgjs="http://svgjs.com/svgjs" width="14" height="14" viewBox="0 0 14 14"><title>Ellipse 3</title><desc>Created with Avocode.</desc><defs id="SvgjsDefs1023"><clipPath id="SvgjsClipPath1026"><path id="SvgjsPath1025" d="M702 3014C705.866 3014 709 3017.13 709 3021C709 3024.87 705.866 3028 702 3028C698.134 3028 695 3024.87 695 3021C695 3017.13 698.134 3014 702 3014Z " fill="#ffffff"></path></clipPath></defs><path id="SvgjsPath1024" d="M702 3014C705.866 3014 709 3017.13 709 3021C709 3024.87 705.866 3028 702 3028C698.134 3028 695 3024.87 695 3021C695 3017.13 698.134 3014 702 3014Z " fill-opacity="0" fill="#ffffff" stroke-dasharray="0" stroke-linejoin="miter" stroke-linecap="butt" stroke-opacity="1" stroke="#5fa8cb" stroke-miterlimit="50" stroke-width="2" clip-path="url(&quot;#SvgjsClipPath1026&quot;)" transform="matrix(1,0,0,1,-695,-3014)"></path></svg>