<svg id="SvgjsSvg1000" xmlns="http://www.w3.org/2000/svg" version="1.1" xmlns:xlink="http://www.w3.org/1999/xlink" xmlns:svgjs="http://svgjs.com/svgjs" width="23" height="29" viewBox="0 0 23 29"><title>Shape 1</title><desc>Created with Avocode.</desc><defs id="SvgjsDefs1001"></defs><path id="SvgjsPath1007" d="M751.414 118.842C751.249 118.842 751.082 118.794 750.936 118.694C750.551 118.429 750.455 117.904 750.719 117.52C751.981 115.692 752.3960000000001 114.167 751.951 112.991C751.037 110.574 746.548 109.452 743.2710000000001 108.633C741.2640000000001 108.133 739.6790000000001 107.73599999999999 738.826 107.115C737.575 106.204 737.477 105.318 737.615 104.735C737.916 103.468 739.611 102.569 742.654 102.063C743.111 101.98400000000001 743.55 102.296 743.626 102.757C743.703 103.215 743.3919999999999 103.65 742.932 103.727C740.092 104.199 739.3100000000001 104.911 739.259 105.123C739.2520000000001 105.15400000000001 739.321 105.387 739.822 105.751C740.409 106.179 741.998 106.57600000000001 743.681 106.997C747.523 107.957 752.3050000000001 109.151 753.532 112.395C754.1840000000001 114.11999999999999 753.706 116.167 752.111 118.478C751.947 118.71499999999999 751.683 118.842 751.414 118.842ZM747.298 105.905C746.925 105.905 746.597 105.661 746.489 105.304C745.9580000000001 103.536 744.9250000000001 102.395 743.926 101.291C742.676 99.91069999999999 741.385 98.4827 741.385 96.06139999999999C741.385 92.91539999999999 744.148 90.15539999999999 747.298 90.15539999999999C750.448 90.15539999999999 753.212 92.91539999999999 753.212 96.06139999999999C753.212 98.4827 751.92 99.91069999999999 750.6709999999999 101.291C749.6719999999999 102.395 748.6389999999999 103.536 748.107 105.304C748 105.661 747.6709999999999 105.905 747.298 105.905ZM735.856 117.718C735.614 117.718 735.375 117.61500000000001 735.208 117.416C734.908 117.059 734.954 116.52799999999999 735.312 116.227C737.3000000000001 114.561 738.273 113.114 738.206 111.927C738.1220000000001 110.44500000000001 736.3770000000001 109.29 734.837 108.271C733.74 107.545 732.792 106.917 732.348 106.136C731.685 104.97099999999999 731.8549999999999 104.057 732.115 103.497C732.789 102.038 734.879 101.022 738.692 100.295C739.154 100.20700000000001 739.593 100.508 739.6800000000001 100.96600000000001C739.768 101.424 739.4670000000001 101.86600000000001 739.009 101.953C734.888 102.73700000000001 733.8820000000001 103.7 733.648 104.20400000000001C733.5600000000001 104.394 733.482 104.715 733.817 105.30300000000001C734.062 105.73300000000002 734.931 106.308 735.771 106.86500000000001C737.548 108.04100000000001 739.761 109.50600000000001 739.8929999999999 111.83200000000001C739.9929999999999 113.60400000000001 738.8499999999999 115.465 736.3979999999999 117.52000000000001C736.2399999999999 117.653 736.0469999999999 117.718 735.8559999999999 117.718ZM747.298 91.8427C745.088 91.8427 743.074 93.85379999999999 743.074 96.06139999999999C743.074 97.83359999999999 744.0029999999999 98.85999999999999 745.179 100.15899999999999C745.8919999999999 100.948 746.669 101.806 747.298 102.92099999999999C747.927 101.806 748.704 100.948 749.417 100.15899999999999C750.5930000000001 98.85999999999999 751.522 97.83359999999999 751.522 96.06139999999999C751.522 93.85379999999999 749.509 91.8427 747.298 91.8427ZM747.305 98.5786C745.904 98.5786 744.7639999999999 97.4461 744.7639999999999 96.05399999999999C744.7639999999999 94.66219999999998 745.9039999999999 93.5302 747.305 93.5302C748.707 93.5302 749.847 94.6622 749.847 96.05399999999999C749.847 97.44609999999999 748.707 98.5786 747.305 98.5786ZM747.305 95.2172C746.8349999999999 95.2172 746.453 95.593 746.453 96.054C746.453 96.5158 746.8349999999999 96.8913 747.305 96.8913C747.775 96.8913 748.1569999999999 96.5158 748.1569999999999 96.054C748.1569999999999 95.593 747.775 95.2172 747.305 95.2172Z " fill="#000000" fill-opacity="1" transform="matrix(1,0,0,1,-731,-90)"></path></svg>
