<svg id="SvgjsSvg1008" xmlns="http://www.w3.org/2000/svg" version="1.1" xmlns:xlink="http://www.w3.org/1999/xlink" xmlns:svgjs="http://svgjs.com/svgjs" width="25" height="25" viewBox="0 0 25 25"><title>Shape 2</title><desc>Created with Avocode.</desc><defs id="SvgjsDefs1009"></defs><path id="SvgjsPath1010" d="M1069.93 117.498C1069.91 117.498 1069.89 117.498 1069.88 117.497C1068.8300000000002 117.44 1063.2700000000002 116.846 1057.22 110.783C1051.17 104.72 1050.57 99.1558 1050.52 98.1012C1050.5 97.80250000000001 1050.6399999999999 97.516 1050.8899999999999 97.3472C1052.78 96.054 1054.33 95.5393 1055.59 95.2059C1055.8899999999999 95.127 1056.2099999999998 95.2154 1056.4199999999998 95.4368C1057.7899999999997 96.8438 1059.09 98.8036 1059.82 100.551C1059.96 100.873 1059.8899999999999 101.243 1059.6399999999999 101.49L1057.9999999999998 103.131C1058.2899999999997 103.853 1059.0499999999997 105.344 1060.8499999999997 107.146C1062.6499999999996 108.94800000000001 1064.1399999999996 109.709 1064.8599999999997 110L1066.4999999999998 108.358C1066.7399999999998 108.11200000000001 1067.1099999999997 108.039 1067.4299999999998 108.174C1069.1799999999998 108.90700000000001 1071.1299999999999 110.21300000000001 1072.5399999999997 111.58300000000001C1072.7599999999998 111.79800000000002 1072.8499999999997 112.11600000000001 1072.7699999999998 112.41600000000001C1072.4399999999998 113.68 1071.9199999999998 115.22900000000001 1070.6299999999997 117.12500000000001C1070.4699999999996 117.36000000000001 1070.2099999999996 117.49800000000002 1069.9299999999996 117.49800000000002ZM1052.27 98.4863C1052.47 100.01 1053.47 104.603 1058.43 109.571C1063.39 114.538 1067.97 115.539 1069.49 115.739C1070.29 114.476 1070.71 113.394 1070.98 112.468C1069.91 111.51100000000001 1068.55 110.59400000000001 1067.29 109.989L1065.69 111.59100000000001C1065.47 111.808 1065.16 111.89200000000001 1064.8600000000001 111.81200000000001C1064.46 111.70400000000001 1062.3000000000002 111.02600000000001 1059.64 108.35800000000002C1056.98 105.69200000000002 1056.3000000000002 103.53200000000002 1056.19 103.12600000000002C1056.1100000000001 102.83000000000001 1056.2 102.51400000000002 1056.41 102.29800000000002L1058.01 100.69500000000002C1057.41 99.43420000000002 1056.49 98.06600000000002 1055.54 96.99980000000002C1054.61 97.27220000000003 1053.53 97.68570000000003 1052.27 98.48630000000003ZM1070.8 105.499C1070.33 105.499 1069.95 105.116 1069.95 104.642C1069.95 101.018 1067 98.07079999999999 1063.39 98.07079999999999C1062.91 98.07079999999999 1062.5300000000002 97.6869 1062.5300000000002 97.2134C1062.5300000000002 96.7396 1062.9100000000003 96.35629999999999 1063.39 96.35629999999999C1067.95 96.35629999999999 1071.66 100.073 1071.66 104.642C1071.66 105.116 1071.27 105.499 1070.8000000000002 105.499ZM1067.95 105.499C1067.48 105.499 1067.0900000000001 105.116 1067.0900000000001 104.642C1067.0900000000001 102.594 1065.43 100.92699999999999 1063.39 100.92699999999999C1062.91 100.92699999999999 1062.5300000000002 100.544 1062.5300000000002 100.07C1062.5300000000002 99.5967 1062.9100000000003 99.2131 1063.39 99.2131C1066.3700000000001 99.2131 1068.8000000000002 101.648 1068.8000000000002 104.642C1068.8000000000002 105.116 1068.42 105.499 1067.9500000000003 105.499ZM1073.65 105.499C1073.18 105.499 1072.8000000000002 105.116 1072.8000000000002 104.642C1072.8000000000002 99.4429 1068.5800000000002 95.2127 1063.39 95.2127C1062.91 95.2127 1062.5300000000002 94.8295 1062.5300000000002 94.3557C1062.5300000000002 93.8825 1062.9100000000003 93.49889999999999 1063.39 93.49889999999999C1069.5200000000002 93.49889999999999 1074.51 98.4974 1074.51 104.642C1074.51 105.116 1074.1299999999999 105.499 1073.65 105.499Z " fill="#000000" fill-opacity="1" transform="matrix(1,0,0,1,-1050,-93)"></path></svg>
