<svg id="SvgjsSvg1000" xmlns="http://www.w3.org/2000/svg" version="1.1" xmlns:xlink="http://www.w3.org/1999/xlink" xmlns:svgjs="http://svgjs.com/svgjs" width="41" height="36" viewBox="0 0 41 36"><title>Shape 1</title><desc>Created with Avocode.</desc><defs id="SvgjsDefs1001"></defs><path id="SvgjsPath1007" d="M716.915 1320.12C716.343 1319.54 715.411 1319.54 714.831 1320.11C714.251 1320.6699999999998 714.251 1321.59 714.823 1322.1699999999998L721.8009999999999 1329.11C722.078 1329.3799999999999 722.4459999999999 1329.54 722.838 1329.54C722.838 1329.54 722.838 1329.54 722.846 1329.54C723.239 1329.54 723.606 1329.3799999999999 723.884 1329.12L745.128 1308.2399999999998C745.7 1307.6799999999998 745.7080000000001 1306.7499999999998 745.1360000000001 1306.1799999999998C744.5640000000001 1305.61 743.633 1305.61 743.0530000000001 1306.1699999999998L735.5440000000001 1313.5399999999997C732.349 1309.6599999999996 727.5450000000001 1307.3799999999997 722.4380000000001 1307.3799999999997C720.0520000000001 1307.3799999999997 717.748 1307.8699999999997 715.5910000000001 1308.8099999999997C713.5070000000002 1309.7299999999998 711.6530000000001 1311.0299999999997 710.0920000000001 1312.6999999999998C708.5320000000002 1314.35 707.3470000000001 1316.2599999999998 706.5710000000001 1318.3799999999999C705.7620000000002 1320.58 705.4350000000002 1322.8999999999999 705.6060000000001 1325.27C706.1870000000001 1333.48 712.8950000000001 1340.12 721.2040000000001 1340.71C721.613 1340.74 722.0290000000001 1340.75 722.4380000000001 1340.75C726.3030000000001 1340.75 730.0370000000001 1339.46 733.0440000000001 1337.05C736.3280000000001 1334.44 738.4850000000001 1330.73 739.1310000000001 1326.6299999999999C739.2610000000001 1325.79 739.3270000000001 1324.9299999999998 739.3270000000001 1324.06C739.3270000000001 1323.26 738.6650000000001 1322.61 737.8560000000001 1322.61C737.0470000000001 1322.61 736.3850000000001 1323.26 736.3850000000001 1324.06C736.3850000000001 1324.77 736.3280000000001 1325.48 736.2220000000001 1326.19C735.1270000000001 1333.21 728.623 1338.31 721.4170000000001 1337.8C714.5620000000001 1337.32 709.0220000000002 1331.85 708.5400000000002 1325.06C708.2620000000002 1321.19 709.5770000000002 1317.5 712.2410000000002 1314.6699999999998C714.8720000000002 1311.8899999999999 718.5900000000003 1310.2899999999997 722.4380000000002 1310.2899999999997C726.7520000000002 1310.2899999999997 730.8050000000002 1312.2699999999998 733.4440000000002 1315.6099999999997L722.8550000000001 1326.0299999999997Z " fill="#3387b8" fill-opacity="1" transform="matrix(1,0,0,1,-705,-1305)"></path></svg>