<svg id="SvgjsSvg1014" xmlns="http://www.w3.org/2000/svg" version="1.1" xmlns:xlink="http://www.w3.org/1999/xlink" xmlns:svgjs="http://svgjs.com/svgjs" width="17" height="14" viewBox="0 0 17 14"><title>Forma 1</title><desc>Created with Avocode.</desc><defs id="SvgjsDefs1015"></defs><path id="SvgjsPath1016" d="M1517.47 4646.3C1515.25 4646.24 1513.74 4647.41 1512.96 4649.820000000001C1513.3600000000001 4649.660000000001 1513.76 4649.580000000001 1514.14 4649.580000000001C1514.95 4649.580000000001 1515.3100000000002 4650.010000000001 1515.22 4650.870000000001C1515.17 4651.390000000001 1514.81 4652.140000000001 1514.14 4653.130000000001C1513.47 4654.130000000001 1512.97 4654.620000000001 1512.64 4654.620000000001C1512.2 4654.620000000001 1511.8100000000002 4653.85 1511.45 4652.320000000001C1511.3300000000002 4651.870000000001 1511.1100000000001 4650.72 1510.81 4648.870000000001C1510.52 4647.160000000001 1509.75 4646.360000000001 1508.51 4646.470000000001C1507.98 4646.520000000001 1507.2 4646.970000000001 1506.14 4647.8200000000015C1505.38 4648.480000000001 1504.6000000000001 4649.130000000002 1503.8100000000002 4649.790000000002L1504.5600000000002 4650.700000000002C1505.2800000000002 4650.220000000002 1505.7000000000003 4649.990000000002 1505.8200000000002 4649.990000000002C1506.3700000000001 4649.990000000002 1506.88 4650.800000000002 1507.3600000000001 4652.420000000002C1507.7900000000002 4653.910000000002 1508.22 4655.4000000000015 1508.65 4656.890000000002C1509.3000000000002 4658.510000000002 1510.0900000000001 4659.320000000002 1511.02 4659.320000000002C1512.52 4659.320000000002 1514.37 4657.9900000000025 1516.54 4655.330000000003C1518.6499999999999 4652.7800000000025 1519.73 4650.7800000000025 1519.81 4649.310000000002C1519.8999999999999 4647.350000000002 1519.1299999999999 4646.350000000002 1517.47 4646.300000000002Z " fill="#f7f7f7" fill-opacity="1" transform="matrix(1,0,0,1,-1503,-4646)"></path></svg>