<?xml version="1.0" standalone="no"?>
<!DOCTYPE svg PUBLIC "-//W3C//DTD SVG 1.1//EN" "http://www.w3.org/Graphics/SVG/1.1/DTD/svg11.dtd" >
<svg>
<metadata>
Created by FontForge 20090622 at Sat Apr 29 14:42:44 2021
 By deploy user
Copyright (c) 2001-2005 Peter Bilak (www.typotheque.com). All rights reserved.
</metadata>
<defs>
<font id="FedraSansPro-LightItalic" horiz-adv-x="531" >
  <font-face 
    font-family="Fedra Sans Pro Light"
    font-weight="300"
    font-style="italic"
    font-stretch="normal"
    units-per-em="1000"
    panose-1="2 11 3 4 4 0 0 9 0 4"
    ascent="780"
    descent="-220"
    x-height="546"
    cap-height="708"
    bbox="-316 -284 1286 951"
    underline-thickness="50"
    underline-position="-50"
    slope="-6"
    unicode-range="U+0020-U+FB04"
  />
<missing-glyph horiz-adv-x="1000" 
 />
    <glyph glyph-name="f_k" unicode="fk" horiz-adv-x="777" 
d="M55 -219l75 715h-80l5 50h80l3 28q12 111 62 155.5t131 44.5q18 0 70 -4t80 -4q16 0 23 1l-80 -767h-56l76 720q-22 -1 -66 1.5t-53 2.5q-65 0 -94.5 -39t-36.5 -113l-3 -26h116l-5 -50h-116l-75 -715h-56zM689 -17l-201 308l203 255h69l-203 -255l185 -278z" />
    <glyph glyph-name="f_h" unicode="fh" horiz-adv-x="841" 
d="M54 -220l75 716h-80l6 50h80l3 28q11 111 61 155.5t132 44.5q18 0 70 -4t80 -4h11.5t11.5 1l-33 -321q3 2 24.5 19l33 25.5t34.5 24t39.5 23.5t37 15t36.5 7q49 0 69 -18.5t19.5 -55.5t-6.5 -92l-42 -394h-56l42 381q11 75 4 101.5t-53 26.5q-18 0 -56.5 -24t-84 -58
t-47.5 -35l-42 -392h-55l74 718q-21 -1 -62.5 2.5t-55.5 3.5q-65 0 -94.5 -39t-36.5 -113l-3 -26h117l-6 -50h-116l-75 -716h-56z" />
    <glyph glyph-name="f_j" unicode="fj" horiz-adv-x="532" 
d="M226 -220q-37 0 -57 9l15 46q12 -4 53 -4q64 0 92.5 38.5t36.5 110.5l54 516h-234l-75 -715h-56l75 715h-80l5 50h80l3 28q12 111 62 155.5t131 44.5q15 0 70.5 -2.5t87.5 -2.5q16 0 44 2l3 -42q-28 -11 -86 -11q-26 1 -69.5 3.5t-55.5 2.5q-66 0 -95 -39t-36 -113
l-3 -26h291l-60 -568q-21 -198 -196 -198z" />
    <glyph glyph-name="f_f_j" unicode="ffj" horiz-adv-x="816" 
d="M55 -220l75 716h-80l5 50h80l6 55q6 53 27.5 89.5t55.5 53.5t67.5 23.5t74.5 6.5q20 0 79 -10.5t69 -13.5q47 24 103 24q15 0 71 -2.5t87 -2.5q16 0 44 2l3 -42q-29 -11 -87 -11q-25 1 -69 3.5t-56 2.5q-65 0 -94.5 -39t-36.5 -113l-3 -26h291l-60 -568
q-11 -108 -59.5 -153t-127.5 -45q-35 0 -62 10l13 51q33 -10 60 -10q63 0 87.5 37t32.5 111l54 517h-234l-75 -716h-56l75 716h-232l-75 -716h-53zM188 546h233l3 28q9 84 41 136q-75 15 -111 15q-148 0 -160 -125z" />
    <glyph glyph-name="aogonek_j" unicode="&#x105;j" horiz-adv-x="763" 
d="M377 -224q-133 0 -133 105q0 36 27 70t67 57l11 99q-67 -61 -115 -90.5t-88 -29.5q-50 0 -76 44t-26 115q0 64 21.5 133.5t60 130.5t100.5 100.5t134 39.5q57 0 90 -7l-57 -543q-34 -19 -63.5 -50.5t-29.5 -60.5q0 -64 81 -64q83 0 129 37t55 126l59 558h56l-60 -568
q-6 -58 -31 -99.5t-61.5 -62.5t-73.5 -30.5t-77 -9.5zM158 42q34 0 97 47t100 84l35 325q-9 2 -41 2q-58 0 -107 -35t-78.5 -88.5t-46 -112.5t-16.5 -112q0 -49 14.5 -79.5t42.5 -30.5zM663 663l-49 53l61 52l51 -52z" />
    <glyph glyph-name="f_f" unicode="ff" horiz-adv-x="617" 
d="M55 -220l75 716h-80l5 50h80l6 55q6 53 27.5 89.5t55.5 53.5t67.5 23.5t74.5 6.5q81 0 151 -25q51 25 135 25q20 0 53.5 -6t38.5 -9l-15 -45q2 -1 -2 0q-1 0 -5 1q-53 10 -82 10q-148 0 -160 -125l-6 -54h119l-5 -50h-119l-75 -716h-54l76 716h-233l-75 -716h-53z
M188 546h233l6 55q6 65 36 110q-60 14 -108 14q-149 0 -161 -125z" />
    <glyph glyph-name="fi" unicode="fi" horiz-adv-x="573" 
d="M54 -219l75 715h-80l6 50h80l3 28q12 111 62 155.5t131 44.5q15 0 71 -3.5t87 -3.5q11 0 26 2t18 2l8 -41q-32 -12 -92 -12q-27 0 -71 3t-54 3q-65 0 -94 -39t-37 -113l-3 -26h291l-58 -546h-56l52 496h-234l-75 -715h-56z" />
    <glyph glyph-name="fl" unicode="fl" horiz-adv-x="557" 
d="M54 -220l75 716h-80l6 50h80l3 28q12 111 62 155.5t131 44.5q18 0 70 -4t80 -4h11.5t11.5 1l-81 -767h-56l76 720q-22 -1 -66 1.5t-53 2.5q-65 0 -94 -39t-37 -113l-3 -26h117l-6 -50h-116l-75 -716h-56z" />
    <glyph glyph-name="f_f_i" unicode="ffi" horiz-adv-x="816" 
d="M55 -220l75 716h-80l5 50h80l6 55q6 53 27.5 89.5t55.5 53.5t67.5 23.5t74.5 6.5q20 0 79 -10.5t69 -13.5q47 24 103 24q15 0 71 -2.5t87 -2.5q16 0 44 2l3 -42q-29 -11 -87 -11q-25 1 -69 3.5t-56 2.5q-65 0 -94.5 -39t-36.5 -113l-3 -26h291l-58 -546h-56l52 496h-234
l-75 -716h-56l75 716h-232l-75 -716h-53zM188 546h233l3 28q9 84 41 136q-75 15 -111 15q-148 0 -160 -125z" />
    <glyph glyph-name="f_f_l" unicode="ffl" horiz-adv-x="843" 
d="M55 -220l75 716h-80l5 50h80l6 55q6 53 27.5 89.5t55.5 53.5t67.5 23.5t74.5 6.5q55 0 147 -25q43 25 104 25q18 0 70 -4t80 -4h12.5t10.5 1l-80 -767h-56l76 720q-22 -1 -66 1.5t-53 2.5q-65 0 -94.5 -39t-36.5 -113l-3 -26h116l-5 -50h-116l-75 -716h-56l75 716h-233
l-75 -716h-53zM188 546h233l3 28q9 82 42 135q-75 16 -111 16q-149 0 -161 -125z" />
    <glyph glyph-name=".notdef" horiz-adv-x="1000" 
 />
    <glyph glyph-name=".null" horiz-adv-x="0" 
 />
    <glyph glyph-name="nonmarkingreturn" horiz-adv-x="333" 
 />
    <glyph glyph-name="space" unicode=" " horiz-adv-x="200" 
 />
    <glyph glyph-name="exclam" unicode="!" horiz-adv-x="271" 
d="M118 159l11 126l45 422h54l-45 -422l-15 -126h-50zM92 0l7 71h69l-7 -71h-69z" />
    <glyph glyph-name="quotedbl" unicode="&#x22;" horiz-adv-x="309" 
d="M77 515l22 238h51l-30 -238h-43zM235 515l22 238h51l-30 -238h-43z" />
    <glyph glyph-name="numbersign" unicode="#" horiz-adv-x="577" 
d="M101 0l26 164h-90l6 50h92l23 141h-100l5 50h103l25 162h53l-25 -162h183l25 162h53l-25 -162h85l-5 -50h-88l-23 -141h96l-6 -50h-98l-26 -164h-53l26 164h-183l-26 -164h-53zM188 214h183l23 141h-183z" />
    <glyph glyph-name="dollar" unicode="$" horiz-adv-x="523" 
d="M183 -99l11 95q-95 4 -163 39l27 50q87 -37 163 -37q40 0 72 7.5t58 32t26 64.5q0 26 -20.5 46t-51.5 33l-67.5 29t-67.5 32.5t-51.5 46t-20.5 66.5q0 64 43.5 99.5t110.5 44.5l9 91h59l-12 -89q85 -2 146 -29l-22 -46q-83 26 -139 26q-24 0 -46 -3.5t-44 -12.5
t-35 -27.5t-13 -44.5q0 -31 29 -55.5t70 -42l82 -36t70 -48.5t29 -70q0 -76 -53 -117.5t-132 -47.5l-7 -96h-60z" />
    <glyph glyph-name="percent" unicode="%" horiz-adv-x="752" 
d="M229 396q-61 0 -94.5 33t-33.5 94q0 77 44.5 134t119.5 57q129 0 129 -127q0 -79 -44 -135t-121 -56zM233 440q55 0 83.5 41t28.5 98q0 43 -20.5 68.5t-63.5 25.5q-54 0 -81.5 -45t-27.5 -102q0 -86 81 -86zM559 -8q-61 0 -94 33t-33 94q0 78 44 134.5t120 56.5
q129 0 129 -127q0 -79 -44.5 -135t-121.5 -56zM564 36q54 0 82.5 41.5t28.5 97.5q0 43 -20.5 68.5t-63.5 25.5q-53 0 -80.5 -45t-27.5 -102q0 -86 81 -86zM129 66l-30 32l575 531l30 -32z" />
    <glyph glyph-name="ampersand" unicode="&#x26;" horiz-adv-x="628" 
d="M673 -98q-151 0 -301 145q-78 -56 -182 -56q-75 0 -121.5 39t-46.5 114q0 67 39 121.5t106 107.5q-23 73 -23 148q0 86 43 139t132 53q59 0 92 -33t33 -92q0 -18 -6 -35.5t-12.5 -31t-23 -31l-26.5 -27.5t-34.5 -28l-35 -25.5l-39.5 -27l-38 -25.5q61 -163 192.5 -284.5
t275.5 -121.5q19 0 30 1l7 -45q-35 -5 -61 -5zM197 42q82 0 142 37q-98 107 -155 245q-104 -84 -104 -178q0 -104 117 -104zM214 404q43 29 67.5 47.5t52 43t40 46t12.5 42.5q0 34 -20.5 57.5t-54.5 23.5q-112 0 -112 -142q0 -61 15 -118zM429 100l6 48q29 23 83 23h70
l-6 -50h-70q-51 0 -83 -21z" />
    <glyph glyph-name="quotesingle" unicode="'" horiz-adv-x="151" 
d="M57 515l22 238h54l-30 -238h-46z" />
    <glyph glyph-name="parenleft" unicode="(" horiz-adv-x="331" 
d="M245 -221q-78 65 -120.5 184.5t-42.5 232.5q0 102 29 210.5t91.5 209.5t146.5 153l29 -39q-110 -73 -172.5 -224.5t-62.5 -299.5q0 -104 36 -215t103 -173z" />
    <glyph glyph-name="parenright" unicode=")" horiz-adv-x="331" 
d="M40 -221l-29 39q109 83 173.5 240t64.5 306q0 101 -36 207t-105 159l37 39q80 -57 123 -172.5t43 -236.5q0 -160 -73.5 -326.5t-197.5 -254.5z" />
    <glyph glyph-name="asterisk" unicode="*" horiz-adv-x="421" 
d="M80 471l-24 51l106 46l14 -32zM165 601l-96 46l35 51l84 -64zM181 409l24 111h37l-2 -111h-59zM219 650v112h59l-22 -112h-37zM355 472l-84 63l24 33l95 -44zM297 603l-15 31l97 65l25 -50z" />
    <glyph glyph-name="plus" unicode="+" horiz-adv-x="600" 
d="M239 56l23 221h-219l6 50h219l24 228h53l-24 -228h233l-6 -50h-233l-23 -221h-53z" />
    <glyph glyph-name="comma" unicode="," horiz-adv-x="278" 
d="M41 -146l10.5 27.5l9.5 25t7 20.5t6.5 22.5t5.5 22.5t5.5 29.5t4 34.5l5.5 45h70q-8 -73 -21.5 -116t-53.5 -111h-49z" />
    <glyph glyph-name="hyphen" unicode="-" horiz-adv-x="358" 
d="M18 261l6 54h298l-6 -54h-298z" />
    <glyph glyph-name="hyphen" unicode="&#xad;" horiz-adv-x="358" 
d="M18 261l6 54h298l-6 -54h-298z" />
    <glyph glyph-name="period" unicode="." horiz-adv-x="300" 
d="M80 0l7 71h69l-7 -71h-69z" />
    <glyph glyph-name="slash" unicode="/" horiz-adv-x="366" 
d="M-3 -62l319 831h53l-319 -831h-53z" />
    <glyph glyph-name="zero" unicode="0" horiz-adv-x="607" 
d="M275 -10q-106 0 -168 67.5t-62 185.5q0 135 78 226t208 91q106 0 168 -66t62 -188q0 -134 -80 -225t-206 -91zM279 38q101 0 164 75.5t63 183.5q0 97 -46 156t-133 59q-105 0 -164.5 -73.5t-59.5 -185.5q0 -98 44 -156.5t132 -58.5z" />
    <glyph glyph-name="one" unicode="1" horiz-adv-x="301" 
d="M117 0l53 502h-142l4 43l199 6l-58 -551h-56z" />
    <glyph glyph-name="two" unicode="2" horiz-adv-x="420" 
d="M10 0l5 45l63.5 52l70.5 58t62.5 58.5t57 65.5t36 67.5t15.5 75.5q0 45 -28.5 65t-72.5 20q-60 0 -120 -39l-25 38q27 23 69.5 39t85.5 16q74 0 112.5 -40.5t38.5 -93.5q0 -183 -290 -375h285l-6 -52h-359z" />
    <glyph glyph-name="three" unicode="3" horiz-adv-x="400" 
d="M99 -169q-77 0 -149 38l19 46q69 -33 132 -33q86 0 136 56.5t50 126.5q0 57 -41 92.5t-122 42.5l-4 42q68 19 117 75.5t49 109.5q0 83 -108 83q-66 0 -118 -24l-14 44q57 31 142 31q73 0 113.5 -34t40.5 -95q0 -55 -39 -109.5t-103 -86.5q145 -43 145 -166
q0 -90 -69.5 -164.5t-176.5 -74.5z" />
    <glyph glyph-name="four" unicode="4" horiz-adv-x="537" 
d="M269 -160l21 199h-280l6 60l291 447h92l-48 -457h132l-5 -50h-132l-21 -199h-56zM67 89h229l44 422z" />
    <glyph glyph-name="five" unicode="5" horiz-adv-x="451" 
d="M157 -171q-83 0 -161 31l17 47q76 -26 148 -26q86 0 136 47.5t50 126.5q0 153 -289 184l31 307h321l-5 -49h-270l-21 -213q81 -12 142.5 -36.5t104 -72t42.5 -112.5q0 -97 -68.5 -165.5t-177.5 -68.5z" />
    <glyph glyph-name="six" unicode="6" horiz-adv-x="555" 
d="M255 -11q-100 0 -151 59.5t-51 170.5q0 57 7 112.5t21.5 112.5t40.5 105t61 86t86 59.5t113 21.5q50 0 85 -16l-16 -50q-34 14 -86 14q-58 0 -103.5 -28t-73.5 -72.5t-45.5 -105.5t-24.5 -120t-7 -123q0 -83 39.5 -130t111.5 -47q75 0 113 58.5t38 140.5q0 142 -143 142
q-24 0 -56 -5l-5 46q36 10 72 10q83 0 137 -49t54 -140q0 -107 -57 -179.5t-160 -72.5z" />
    <glyph glyph-name="seven" unicode="7" horiz-adv-x="409" 
d="M33 -172l-43 24l343 646h-335l5 48h386l-6 -57z" />
    <glyph glyph-name="eight" unicode="8" horiz-adv-x="561" 
d="M231 -10q-79 0 -131 41t-52 105q0 143 183 237q-31 24 -44.5 35.5t-34 34t-28.5 46.5t-8 54q0 79 57 125t145 46q64 0 109.5 -36.5t45.5 -95.5q0 -124 -159 -211q64 -42 102.5 -87.5t38.5 -104.5q0 -87 -68.5 -138t-155.5 -51zM244 37q66 0 109.5 38.5t43.5 103.5
q0 26 -12 51t-36 47.5t-41 35.5t-45 32q-46 -28 -75 -49.5t-56 -62t-27 -86.5q0 -51 38.5 -80.5t100.5 -29.5zM279 397q138 77 138 181q0 43 -33 66.5t-82 23.5q-56 0 -94 -33t-38 -86q0 -23 9 -45t29.5 -43.5t32.5 -32t38 -31.5z" />
    <glyph glyph-name="nine" unicode="9" horiz-adv-x="513" 
d="M137 -167q-50 0 -85 16l16 50q34 -14 86 -14q58 0 103.5 28t73.5 73t45.5 105.5t24.5 120t7 123.5q0 82 -39.5 129t-111.5 47q-76 0 -114 -58.5t-38 -140.5q0 -142 144 -142q24 0 56 5l5 -46q-36 -10 -72 -10q-83 0 -137 49t-54 140q0 107 57 179.5t160 72.5
q101 0 151.5 -59.5t50.5 -170.5q0 -57 -7 -112.5t-21.5 -112.5t-40.5 -105t-61 -86t-86 -59.5t-113 -21.5z" />
    <glyph glyph-name="colon" unicode=":" horiz-adv-x="300" 
d="M115 0l8 71h69l-7 -71h-70zM165 475l8 71h69l-8 -71h-69z" />
    <glyph glyph-name="semicolon" unicode=";" horiz-adv-x="278" 
d="M71 -146l10.5 27.5l9.5 25t7 20.5t6.5 22.5t5.5 22.5t5.5 29.5t4 34.5l5.5 45h70q-8 -73 -21.5 -116t-53.5 -111h-49zM165 475l8 71h69l-8 -71h-69z" />
    <glyph glyph-name="less" unicode="&#x3c;" horiz-adv-x="600" 
d="M456 69l-378 189l9 91l418 189l-6 -57l-389 -178l352 -177z" />
    <glyph glyph-name="equal" unicode="=" horiz-adv-x="600" 
d="M33 180l6 50h505l-6 -50h-505zM54 379l6 50h505l-6 -50h-505z" />
    <glyph glyph-name="greater" unicode="&#x3e;" horiz-adv-x="600" 
d="M58 69l6 57l388 177l-351 178l6 57l378 -189l-9 -91z" />
    <glyph glyph-name="question" unicode="?" horiz-adv-x="383" 
d="M145 158q-4 20 -4 47q0 44 19.5 81.5t47 65l55 52.5t47 54.5t19.5 61.5q0 61 -51.5 96.5t-118.5 42.5l18 50q85 -7 148 -54t63 -127q0 -43 -18 -78.5t-44 -61t-53 -49t-48 -52.5t-26 -61q-2 -16 0 -62zM122 0l7 71h69l-7 -71h-69z" />
    <glyph glyph-name="at" unicode="@" horiz-adv-x="776" 
d="M314 -72q-129 0 -197 72.5t-68 202.5q0 104 29.5 196t85 163t142 112t192.5 41q113 0 172 -58.5t59 -171.5q0 -57 -14.5 -114t-43 -107.5t-77.5 -82t-110 -31.5q-74 0 -61 69q-22 -22 -61 -42t-66 -20q-78 0 -78 91q0 104 57.5 179t158.5 75q52 0 94 -21l-53 -238
q-4 -16 -4 -25q0 -23 16 -23q52 0 90 27t58 71.5t29.5 91t9.5 94.5q0 186 -184 186q-96 0 -170.5 -37t-120 -101t-68.5 -145t-23 -174q0 -115 54.5 -170.5t167.5 -55.5q76 0 148 18l7 -47q-63 -25 -171 -25zM308 206q27 0 63 21t59 45l39 178q-28 6 -42 6q-78 0 -118 -60
t-40 -142q0 -25 8 -36.5t31 -11.5z" />
    <glyph glyph-name="A" unicode="A" horiz-adv-x="611" 
d="M-32 0l352 707h97l144 -707h-62l-55 279h-276l-138 -279h-62zM193 330h241l-60 306l-9 44l-22 -45z" />
    <glyph glyph-name="B" unicode="B" horiz-adv-x="606" 
d="M75 0l75 707h180q192 0 192 -155q0 -61 -33 -111.5t-91 -64.5l1 -3q60 -5 98 -47.5t38 -103.5q0 -111 -66.5 -166.5t-182.5 -55.5h-211zM141 51h132q97 0 148.5 35.5t51.5 129.5q0 30 -9 52t-27.5 35t-36 20.5t-47 11t-46.5 4t-48 0.5h-88zM177 390h108q86 0 129 36
t43 122q0 68 -39.5 90t-113.5 22h-99z" />
    <glyph glyph-name="C" unicode="C" horiz-adv-x="591" 
d="M362 -10q-143 0 -226.5 88t-83.5 234q0 179 103 290t280 111q97 0 158 -27l-22 -49q-63 23 -139 23q-152 0 -235 -95t-83 -252q0 -129 72.5 -198.5t200.5 -69.5q84 0 150 22l12 -52q-80 -25 -187 -25z" />
    <glyph glyph-name="D" unicode="D" horiz-adv-x="718" 
d="M75 0l75 707h172q156 0 249.5 -78.5t93.5 -234.5q0 -193 -106 -293.5t-301 -100.5h-183zM140 51h131q161 0 247 86.5t86 254.5q0 134 -77 199t-213 65h-110z" />
    <glyph glyph-name="E" unicode="E" horiz-adv-x="562" 
d="M75 0l75 707h377l-5 -50h-318l-29 -276h296l-5 -52h-296l-30 -279h342l-5 -50h-402z" />
    <glyph glyph-name="F" unicode="F" horiz-adv-x="455" 
d="M75 0l75 707h321l-5 -50h-262l-31 -296h240l-5 -53h-241l-32 -308h-60z" />
    <glyph glyph-name="G" unicode="G" horiz-adv-x="648" 
d="M362 -10q-143 0 -227 88t-84 235q0 178 102.5 289t278.5 111q99 0 157 -25l-23 -49q-62 21 -137 21q-151 0 -233.5 -95t-82.5 -252q0 -129 72.5 -198.5t201.5 -69.5q59 0 104 14l29 291h60l-34 -328q-48 -18 -85.5 -25t-98.5 -7z" />
    <glyph glyph-name="H" unicode="H" horiz-adv-x="742" 
d="M75 0l75 707h59l-34 -327h398l34 328h60l-74 -708h-60l35 329h-398l-35 -329h-60z" />
    <glyph glyph-name="I" unicode="I" horiz-adv-x="285" 
d="M75 0l75 707h59l-74 -707h-60z" />
    <glyph glyph-name="J" unicode="J" horiz-adv-x="284" 
d="M-57 -184l-23 44q91 48 127 112t48 179l59 556h59l-58 -554q-13 -128 -61.5 -209t-150.5 -128z" />
    <glyph glyph-name="K" unicode="K" horiz-adv-x="588" 
d="M483 -21l-274 386l2 20l308 322h77l-320 -326l258 -367zM75 0l75 707h59l-74 -707h-60z" />
    <glyph glyph-name="L" unicode="L" horiz-adv-x="478" 
d="M75 0l75 707h59l-68 -653h307l-6 -54h-367z" />
    <glyph glyph-name="M" unicode="M" horiz-adv-x="866" 
d="M-4 0l225 707h88l57 -683l310 683h88l-35 -707h-60l36 643l-291 -643h-105l-54 644l-200 -644h-59z" />
    <glyph glyph-name="N" unicode="N" horiz-adv-x="726" 
d="M75 0l76 707h99l272 -685l70 685h59l-77 -707h-105l-264 668l-70 -668h-60z" />
    <glyph glyph-name="O" unicode="O" horiz-adv-x="779" 
d="M343 -11q-141 0 -216 87t-75 234q0 180 102.5 294t278.5 114q141 0 218 -87.5t77 -233.5q0 -181 -103.5 -294.5t-281.5 -113.5zM352 40q149 0 231 102t82 256q0 122 -62 194.5t-179 72.5q-146 0 -228.5 -100.5t-82.5 -252.5q0 -122 60.5 -197t178.5 -75z" />
    <glyph glyph-name="P" unicode="P" horiz-adv-x="560" 
d="M75 0l75 707h219q92 0 145 -46.5t53 -137.5q0 -126 -80.5 -188.5t-209.5 -60.5h-14l6 51q233 -2 233 195q0 138 -160 138h-137l-69 -658h-61z" />
    <glyph glyph-name="Q" unicode="Q" horiz-adv-x="779" 
d="M343 -11q-141 0 -216 87t-75 234q0 180 102.5 294t278.5 114q141 0 218 -87.5t77 -233.5q0 -181 -103.5 -294.5t-281.5 -113.5zM352 40q149 0 231 102t82 256q0 122 -62 194.5t-179 72.5q-146 0 -228.5 -100.5t-82.5 -252.5q0 -122 60.5 -197t178.5 -75zM712 -150
l-382 70l5 49l383 -64z" />
    <glyph glyph-name="R" unicode="R" horiz-adv-x="612" 
d="M530 -17l-202 331q-37 -4 -158 -4l-34 -310h-61l75 707h206q91 0 145.5 -44.5t54.5 -122.5q0 -76 -43 -134t-123 -78l195 -314zM175 362h101q102 0 158.5 44t56.5 133q0 119 -161 119h-125z" />
    <glyph glyph-name="S" unicode="S" horiz-adv-x="466" 
d="M182 -11q-45 0 -102 14.5t-86 33.5l25 53q94 -46 167 -46q174 0 174 146q0 38 -29.5 70.5t-72 58t-85 54t-72 72t-29.5 97.5q0 82 61.5 126t153.5 44q49 0 96.5 -11t71.5 -26l-19 -50q-72 34 -153 34q-153 0 -153 -119q0 -33 21.5 -62.5t53 -51l69 -47.5t69 -50.5t53 -61
t21.5 -79.5q0 -94 -65.5 -146.5t-169.5 -52.5z" />
    <glyph glyph-name="T" unicode="T" horiz-adv-x="541" 
d="M212 0l68 654h-246l6 53h552l-6 -53h-246l-69 -654h-59z" />
    <glyph glyph-name="U" unicode="U" horiz-adv-x="714" 
d="M330 -12q-54 0 -97 11t-81 37t-56 76t-10 121l50 474h61l-49 -467q-6 -60 6.5 -101t40.5 -61.5t59.5 -29t72.5 -8.5q92 0 151.5 50t72.5 175l46 442h56l-47 -445q-8 -79 -35.5 -135.5t-68 -85.5t-82.5 -41t-90 -12z" />
    <glyph glyph-name="V" unicode="V" horiz-adv-x="627" 
d="M219 0l-173 707h62l158 -669l343 669h65l-368 -707h-87z" />
    <glyph glyph-name="W" unicode="W" horiz-adv-x="873" 
d="M139 0l-101 707h61l89 -661l245 515l-28 146h62l125 -665l260 665h59l-278 -707h-88l-97 475l-226 -475h-83z" />
    <glyph glyph-name="X" unicode="X" horiz-adv-x="555" 
d="M-41 0l289 376l-157 331h65l132 -285l211 285h65l-253 -331l181 -376h-65l-155 325l-244 -325h-69z" />
    <glyph glyph-name="Y" unicode="Y" horiz-adv-x="495" 
d="M173 0l29 284l-177 423h65l149 -371l243 371h63l-283 -423l-30 -284h-59z" />
    <glyph glyph-name="Z" unicode="Z" horiz-adv-x="514" 
d="M-10 0l6 60l443 590h-355l6 57h422l-5 -53l-446 -598h404l-6 -56h-469z" />
    <glyph glyph-name="bracketleft" unicode="[" horiz-adv-x="348" 
d="M59 -220l103 974h156l-5 -48h-100l-92 -878h100l-5 -48h-157z" />
    <glyph glyph-name="backslash" unicode="\" horiz-adv-x="366" 
d="M228 -62l-145 831h53l146 -831h-54z" />
    <glyph glyph-name="bracketright" unicode="]" horiz-adv-x="348" 
d="M34 -220l5 48h100l92 878h-100l5 48h157l-103 -974h-156z" />
    <glyph glyph-name="asciicircum" unicode="^" horiz-adv-x="557" 
d="M60 294l203 413h83l101 -413h-61l-85 375l-179 -375h-62z" />
    <glyph glyph-name="underscore" unicode="_" horiz-adv-x="500" 
d="M-2 -158l4 54h500l-5 -54h-499z" />
    <glyph glyph-name="grave" unicode="`" horiz-adv-x="585" 
d="M384 619l-168 122l34 45l162 -129z" />
    <glyph glyph-name="a" unicode="a" horiz-adv-x="521" 
d="M146 -13q-50 0 -76 44t-26 115q0 64 21.5 133.5t60 130.5t100.5 100.5t134 39.5q57 0 90 -7l-56 -543h-57l12 107q-67 -61 -115 -90.5t-88 -29.5zM158 42q34 0 97 47t100 84l35 325q-9 2 -41 2q-58 0 -107 -35t-78.5 -88.5t-46 -112.5t-16.5 -112q0 -49 14.5 -79.5
t42.5 -30.5z" />
    <glyph glyph-name="b" unicode="b" horiz-adv-x="535" 
d="M202 -7q-62 0 -132 21l78 741h55l-30 -294q2 2 16 11t18.5 11.5t18 11t20 11.5t19.5 10t21.5 10t21.5 8t23 7t22.5 3.5t24.5 1.5q115 0 115 -155q0 -54 -10.5 -108.5t-34 -107t-56.5 -93t-82.5 -65t-107.5 -24.5zM209 43q50 0 90 24t65 61t41.5 85t23 92.5t6.5 86.5
q0 60 -17.5 81.5t-53.5 21.5q-70 0 -198 -88l-37 -352q48 -12 80 -12z" />
    <glyph glyph-name="c" unicode="c" horiz-adv-x="438" 
d="M166 -12q-34 0 -58.5 20t-37 51.5t-18 62.5t-5.5 61q0 161 70.5 269t189.5 108q74 0 122 -50l-35 -34q-42 35 -93 35q-54 0 -94 -32t-60.5 -82.5t-30 -101t-9.5 -100.5q0 -72 18.5 -113t42.5 -41q77 0 190 60l21 -42q-37 -22 -60.5 -34t-66.5 -24.5t-86 -12.5z" />
    <glyph glyph-name="d" unicode="d" horiz-adv-x="515" 
d="M146 -13q-52 0 -75 50t-23 127q0 170 91 279t228 107q4 0 14 -0.5t16 -0.5l22 206h56l-81 -755h-56l11 107q-131 -120 -203 -120zM158 42q62 0 197 130l35 329l-51 1q-96 2 -166 -99t-70 -218q0 -84 14 -113.5t41 -29.5z" />
    <glyph glyph-name="e" unicode="e" horiz-adv-x="433" 
d="M165 -12q-63 0 -91 56.5t-28 145.5q0 159 67.5 265t185.5 106q63 0 94.5 -33.5t31.5 -85.5q0 -88 -132 -138l-188 -72q-1 -10 -1 -31q0 -160 68 -160q65 0 173 54l20 -45q-84 -44 -130 -54q-35 -8 -70 -8zM110 286l168 67q91 36 91 87q0 37 -21 53.5t-52 16.5
q-149 0 -186 -224z" />
    <glyph glyph-name="f" unicode="f" horiz-adv-x="301" 
d="M49 -220l74 716h-80l5 50h81l4 48q14 180 210 180q41 0 85 -14l-15 -46q-44 12 -82 12q-70 0 -104 -29.5t-40 -96.5l-5 -54h118l-4 -50h-119l-75 -716h-53z" />
    <glyph glyph-name="g" unicode="g" horiz-adv-x="521" 
d="M151 -231q-75 0 -164 19l13 55q88 -22 139 -22q87 0 136.5 31.5t59.5 123.5l14 131q-67 -63 -113.5 -91.5t-89.5 -28.5q-99 0 -99 160q0 158 91.5 280.5t221.5 122.5q57 0 90 -7l-61 -582q-7 -69 -45 -113.5t-86.5 -61.5t-106.5 -17zM158 42q34 0 97 47t100 84l35 325
q-10 2 -41 2q-69 0 -127 -53t-88.5 -131.5t-30.5 -159.5q0 -66 14.5 -90t40.5 -24z" />
    <glyph glyph-name="h" unicode="h" horiz-adv-x="544" 
d="M69 0l80 755h56l-32 -307q1 1 18.5 16l25 21l26 20t32 21.5t31.5 16.5t35.5 13t34.5 4q49 0 70 -18.5t21 -55.5t-6 -92l-43 -394h-56l42 381q12 75 4.5 101.5t-53.5 26.5q-16 0 -45.5 -16.5t-55 -34.5t-54.5 -40.5l-33 -25.5l-42 -392h-56z" />
    <glyph glyph-name="i" unicode="i" horiz-adv-x="264" 
d="M70 0l57 546h56l-57 -546h-56zM164 663l-49 53l61 52l51 -52z" />
    <glyph glyph-name="j" unicode="j" horiz-adv-x="264" 
d="M-64 -220q-35 0 -62 10l13 51q33 -10 60 -10q63 0 87.5 37t32.5 111l60 567h56l-60 -568q-11 -108 -59.5 -153t-127.5 -45zM164 663l-49 53l61 52l51 -52z" />
    <glyph glyph-name="k" unicode="k" horiz-adv-x="478" 
d="M389 -17l-201 308l203 255h70l-205 -255l186 -278zM69 0l79 754h57l-80 -754h-56z" />
    <glyph glyph-name="l" unicode="l" horiz-adv-x="258" 
d="M69 0l79 754h57l-80 -754h-56z" />
    <glyph glyph-name="m" unicode="m" horiz-adv-x="815" 
d="M69 0l57 546h57l-10 -97q2 1 16 13.5l20.5 18t22.5 17.5t26 18.5l26.5 16.5t29 14.5t27.5 8.5t28 4q56 0 73.5 -23.5t14.5 -77.5q113 101 193 101q48 0 68.5 -18.5t20 -55.5t-6.5 -92l-43 -394h-55l41 381q12 75 5 101.5t-54 26.5q-26 0 -88.5 -43.5t-86.5 -65.5
l-43 -400h-56l42 381q12 75 5 100.5t-53 25.5q-12 0 -39.5 -16t-52 -34l-53.5 -40t-34 -25l-42 -392h-56z" />
    <glyph glyph-name="n" unicode="n" horiz-adv-x="544" 
d="M69 0l57 546h57l-10 -98q1 1 18.5 16l25 21l26 20t32 21.5t31.5 16.5t35.5 13t34.5 4q49 0 70 -18.5t21 -55.5t-6 -92l-43 -394h-56l42 381q12 75 4.5 101.5t-53.5 26.5q-15 0 -45 -16.5t-55 -34.5l-54.5 -40.5l-33.5 -25.5l-42 -392h-56z" />
    <glyph glyph-name="o" unicode="o" horiz-adv-x="501" 
d="M195 -12q-68 0 -108 54.5t-40 132.5q0 176 73.5 280.5t190.5 104.5q69 0 107 -54.5t38 -126.5t-14.5 -138.5t-44 -124.5t-82 -93t-120.5 -35zM212 38q77 0 131.5 93t54.5 230q0 77 -25 113.5t-84 36.5q-75 0 -129 -94t-54 -224q0 -155 106 -155z" />
    <glyph glyph-name="p" unicode="p" horiz-adv-x="535" 
d="M45 -220l83 766h55l-8 -85q119 85 204 85q115 0 115 -155q0 -54 -10.5 -108.5t-34 -107t-56.5 -93t-82.5 -65t-107.5 -24.5q-32 0 -78 8l-24 -221h-56zM210 43q50 0 90 24t65 61t41.5 85t23 92.5t6.5 86.5q0 60 -17.5 81.5t-53.5 21.5q-69 0 -197 -88l-37 -352l21 -4.5
t18.5 -4t17 -2.5t22.5 -1z" />
    <glyph glyph-name="q" unicode="q" horiz-adv-x="521" 
d="M314 -220l35 327q-71 -62 -117 -91t-86 -29q-99 0 -99 164q0 102 40.5 193.5t113.5 148.5t159 57q57 0 90 -7l-79 -763h-57zM158 42q34 0 97 47t100 84l35 325q-10 2 -41 2q-103 0 -174.5 -107t-71.5 -233q0 -70 14 -94t41 -24z" />
    <glyph glyph-name="r" unicode="r" horiz-adv-x="345" 
d="M69 0l57 546h56l-10 -101l46 45t60 41t77 25q9 0 23 -2l-11 -51q-3 1 -16 1q-10 0 -22 -4t-22.5 -9t-25.5 -14.5t-25 -16.5t-26 -20l-23 -18.5t-22.5 -19t-18.5 -15.5l-41 -387h-56z" />
    <glyph glyph-name="s" unicode="s" horiz-adv-x="423" 
d="M168 -9q-87 0 -139 23l17 52q67 -24 126 -24q19 0 38.5 3.5t43 12t38 28t14.5 46.5q0 33 -22 61.5t-53 51l-62 46t-53 56t-22 71.5q0 74 48 105.5t124 31.5q72 0 132 -29l-19 -45q-80 26 -128 26q-104 0 -104 -78q0 -33 22 -61t53.5 -50t62.5 -46t53 -58.5t22 -77.5
q0 -73 -57 -109t-135 -36z" />
    <glyph glyph-name="t" unicode="t" horiz-adv-x="374" 
d="M174 -12q-47 0 -66 15q-36 30 -26 124l41 368h-80l5 51h80l11 112h56l-11 -112h177l-5 -51h-177l-40 -363q-6 -57 2 -74.5t41 -17.5q51 0 119 34l15 -47q-19 -12 -60 -25.5t-82 -13.5z" />
    <glyph glyph-name="u" unicode="u" horiz-adv-x="543" 
d="M177 -11q-62 0 -83 37t-12 119l43 401h56l-42 -379q-10 -75 -1 -103t49 -28q11 0 23 2.5t25 8.5t23.5 11.5t24 16t21.5 16t22 18l18.5 16.5t17.5 17l14 13l42 391h56l-58 -546h-56l10 98q-29 -30 -50 -48.5t-62.5 -39.5t-80.5 -21z" />
    <glyph glyph-name="v" unicode="v" horiz-adv-x="457" 
d="M142 0l-94 546h62l79 -516l158 333q47 101 47 171q0 2 -0.5 6t-0.5 6h56v-12q0 -74 -48 -175l-171 -359h-88z" />
    <glyph glyph-name="w" unicode="w" horiz-adv-x="757" 
d="M145 0l-97 546h62l82 -516l190 322l-34 194h62l79 -516l158 333q46 97 46 169q0 10 -1 14h57v-12q0 -75 -48 -175l-171 -359h-89l-47 281l-164 -281h-85z" />
    <glyph glyph-name="x" unicode="x" horiz-adv-x="424" 
d="M-35 0l215 294l-109 252h60l86 -205l145 205h62l-186 -255l123 -291h-61l-98 242l-174 -242h-63z" />
    <glyph glyph-name="y" unicode="y" horiz-adv-x="457" 
d="M70 -220l106 220h-41l-87 546h62l77 -517l160 334q20 42 33.5 91t13.5 80q0 2 -0.5 6t-0.5 6h57v-12q0 -76 -47 -175l-275 -579h-58z" />
    <glyph glyph-name="z" unicode="z" horiz-adv-x="426" 
d="M-6 0l6 56l353 439h-280l5 51h343l-5 -53l-361 -443h319l-5 -50h-375z" />
    <glyph glyph-name="braceleft" unicode="{" horiz-adv-x="338" 
d="M260 -219q-23 0 -40.5 1.5t-38 5.5t-34 11t-27.5 19t-19 28.5t-7.5 40t5.5 53.5l43 201q8 36 -14.5 70t-58.5 34l6 57q36 0 65.5 32.5t29.5 71.5v210q0 158 194 158h12l-5 -48h-18q-67 0 -98.5 -25.5t-31.5 -87.5l1 -184q0 -65 -28.5 -104t-77.5 -49v-2q100 -33 74 -152
l-40 -186q-23 -108 107 -108h18l-5 -47h-12z" />
    <glyph glyph-name="bar" unicode="|" horiz-adv-x="281" 
d="M47 -220l102 974h56l-102 -974h-56z" />
    <glyph glyph-name="braceright" unicode="}" horiz-adv-x="338" 
d="M-8 -219l5 47h18q129 0 129 108v186q0 117 106 152v2q-47 10 -67.5 49t-6.5 104l40 184q13 62 -13.5 87t-93.5 25h-18l6 49h12q40 0 70.5 -7t57 -24.5t33.5 -48t0 -78.5l-44 -210q-8 -38 14.5 -71t58.5 -33l-6 -57q-36 0 -65.5 -34t-29.5 -70l1 -201q0 -51 -16 -84.5
t-46.5 -48.5t-60.5 -20.5t-72 -5.5h-12z" />
    <glyph glyph-name="asciitilde" unicode="~" horiz-adv-x="505" 
d="M366 295q-55 0 -121.5 30t-104.5 30q-41 0 -93 -29l-27 43q59 43 126 43q53 0 114.5 -31t105.5 -31q41 0 87 33l32 -38q-55 -50 -119 -50z" />
    <glyph glyph-name="uni00A0" unicode="&#xa0;" horiz-adv-x="200" 
 />
    <glyph glyph-name="exclamdown" unicode="&#xa1;" horiz-adv-x="271" 
d="M62 -161l45 422l15 126h50l-11 -126l-45 -422h-54zM122 475l7 71h69l-7 -71h-69z" />
    <glyph glyph-name="cent" unicode="&#xa2;" horiz-adv-x="486" 
d="M232 -41l11 74q-92 9 -137 56t-45 138q0 117 59.5 195.5t172.5 86.5l5 81h64l-10 -80q71 -5 101 -28l-23 -42q-49 24 -119 24q-100 0 -147 -65t-47 -169q0 -87 44 -118.5t135 -31.5q44 0 113 15l3 -46q-49 -15 -110 -17l-5 -73h-65z" />
    <glyph glyph-name="sterling" unicode="&#xa3;" horiz-adv-x="453" 
d="M34 0l6 54q40 16 67.5 60t33.5 91h-100l5 49h101q2 14 3.5 30.5t3 36t2.5 30.5q7 58 27.5 96.5t56 58.5t75.5 28.5t99 10.5l-1 -49q-39 -3 -62 -6.5t-51.5 -13t-44.5 -24.5t-28 -41.5t-15 -63.5q-2 -31 -8 -93h184l-5 -49h-186q-5 -45 -29.5 -87t-61.5 -68h296l-6 -50
h-362z" />
    <glyph glyph-name="currency" unicode="&#xa4;" horiz-adv-x="496" 
d="M72 142l-33 34l73 72q-33 42 -33 104q0 66 32 104l-71 71l33 32l70 -70q53 34 105 34q63 0 105 -32l69 70l34 -35l-70 -70q32 -35 32 -104t-34 -106l70 -70l-31 -34l-70 70q-51 -30 -105 -30q-60 0 -103 32zM248 229q60 0 91.5 34t31.5 89q1 54 -31.5 89t-91.5 35
t-91.5 -35t-32.5 -89q0 -53 33 -88t91 -35z" />
    <glyph glyph-name="yen" unicode="&#xa5;" horiz-adv-x="565" 
d="M552 546l-154 -235h131l-5 -50h-159l-72 -109v-1h219l-5 -50h-219l-11 -101h-58l11 101h-208l5 50h208v1l-44 109h-152l5 50h125l-98 235h64l137 -339l219 339h61z" />
    <glyph glyph-name="brokenbar" unicode="&#xa6;" horiz-adv-x="276" 
d="M57 -220l38 362h56l-38 -362h-56zM122 392l38 361h56l-38 -361h-56z" />
    <glyph glyph-name="section" unicode="&#xa7;" horiz-adv-x="423" 
d="M83 -216q-59 0 -108 39l28 52q49 -38 87 -38q25 0 40.5 21t19.5 43.5t4 47.5q0 33 -8 99l-38 368q-4 46 -4 70q0 124 56.5 198.5t176.5 74.5q77 0 136 -40l-23 -51q-65 39 -122 39q-56 0 -56 -108q0 -13 2 -39l46 -389q7 -63 7 -109q0 -119 -64 -198.5t-180 -79.5z
M179 -150q92 53 92 193q0 32 -5 74l-45 401q-4 46 -4 68q0 76 23 107l-2 3q-78 -45 -78 -184q0 -30 3 -62l44 -399q4 -36 4 -82q0 -40 -6 -64.5t-27 -52.5z" />
    <glyph glyph-name="dieresis" unicode="&#xa8;" horiz-adv-x="388" 
d="M204 668l-43 47l53 48l43 -48zM391 668l-42 47l52 48l43 -48z" />
    <glyph glyph-name="copyright" unicode="&#xa9;" horiz-adv-x="827" 
d="M419 53q-93 0 -142.5 47t-49.5 125q0 111 61 179t174 68q70 0 114 -27l-22 -39q-47 22 -96 22q-79 0 -129.5 -52t-50.5 -144q0 -66 45 -100t113 -34q37 0 95 17l11 -38q-61 -24 -123 -24zM366 -114q-142 0 -224.5 86t-82.5 228q0 185 112 302.5t291 117.5
q144 0 225 -87.5t81 -226.5q0 -182 -110.5 -301t-291.5 -119zM374 -64q160 0 249.5 104t89.5 258q0 122 -67 197t-193 75q-156 0 -247 -103.5t-91 -256.5q0 -119 66 -196.5t193 -77.5z" />
    <glyph glyph-name="ordfeminine" unicode="&#xaa;" horiz-adv-x="422" 
d="M167 386q-65 0 -65 112q0 90 52.5 155t132.5 65q27 0 60 -7l-34 -320h-49l7 52q-64 -57 -104 -57zM172 433q18 0 51 22t52 40l18 174l-5 1h-8h-5q-49 3 -87 -50t-38 -116q0 -71 22 -71zM69 299l6 50h271l-7 -50h-270z" />
    <glyph glyph-name="guillemotleft" unicode="&#xab;" horiz-adv-x="418" 
d="M157 54l-78 218l124 218l45 -17l-107 -201l64 -199zM323 54l-78 218l125 218l44 -17l-107 -201l64 -199z" />
    <glyph glyph-name="logicalnot" unicode="&#xac;" horiz-adv-x="600" 
d="M447 119l17 158h-412l5 51h466l-22 -209h-54z" />
    <glyph glyph-name="registered" unicode="&#xae;" horiz-adv-x="827" 
d="M598 254q-55 6 -101 63q-9 6 -83 105q-20 -2 -33 -2h-55v-159h-49v418h134q62 0 96.5 -33t34.5 -95q0 -86 -78 -119l29 -35.5t36.5 -43.5t36.5 -33t43 -24zM405 86q-161 0 -253 101.5t-92 267.5q0 167 100.5 266t263.5 99q165 0 254 -102t89 -265q0 -166 -97 -266.5
t-265 -100.5zM408 136q148 0 225.5 88.5t77.5 229.5q0 139 -78.5 227.5t-217.5 88.5q-143 0 -220.5 -87.5t-77.5 -226.5q0 -87 31 -158t98.5 -116.5t161.5 -45.5zM326 465h59q106 0 106 82q0 47 -21.5 68.5t-70.5 21.5h-73v-172z" />
    <glyph glyph-name="macron" unicode="&#xaf;" horiz-adv-x="536" 
d="M201 675l5 48h271l-5 -48h-271z" />
    <glyph glyph-name="macron" unicode="&#x2c9;" horiz-adv-x="536" 
d="M201 675l5 48h271l-5 -48h-271z" />
    <glyph glyph-name="degree" unicode="&#xb0;" horiz-adv-x="320" 
d="M139 404q-150 0 -135 158q7 68 55 111.5t117 43.5q73 0 110 -40.5t30 -114.5q-8 -73 -56 -115.5t-121 -42.5zM146 446q50 0 80.5 30.5t36.5 85.5q5 52 -19 83t-73 31t-79.5 -30.5t-35.5 -83.5q-7 -56 18.5 -86t71.5 -30z" />
    <glyph glyph-name="plusminus" unicode="&#xb1;" horiz-adv-x="600" 
d="M254 123l20 189h-189l6 52h189l20 190h57l-20 -190h189l-6 -52h-189l-20 -189h-57zM52 0l6 52h435l-6 -52h-435z" />
    <glyph glyph-name="twosuperior" unicode="&#xb2;" horiz-adv-x="307" 
d="M-1 415l4 45l55.5 37.5l53.5 37t42 32.5t38 35.5t22.5 34t12.5 38.5q4 32 -14 49t-48 17q-57 0 -97 -37l-22 31q23 23 58 37t68 14q49 0 80.5 -27.5t26.5 -79.5q-2 -17 -7 -33t-15 -31.5l-18 -27t-25 -26t-26 -23t-30 -22.5l-28.5 -19t-31 -19.5l-28.5 -17.5h192l-5 -45
h-258z" />
    <glyph glyph-name="threesuperior" unicode="&#xb3;" horiz-adv-x="300" 
d="M115 410q-58 0 -103 16l17 41q49 -14 85 -14q93 0 100 60q4 40 -22.5 55t-86.5 20l4 36q100 9 107 70q2 24 -16 37t-48 13q-33 0 -71 -17l-11 33q47 26 96 26q46 0 75 -24t25 -61q-7 -64 -75 -90q40 -7 59.5 -33.5t16.5 -60.5q-6 -55 -50 -81t-102 -26z" />
    <glyph glyph-name="acute" unicode="&#xb4;" horiz-adv-x="585" 
d="M267 622l-27 37l174 137l34 -46z" />
    <glyph glyph-name="mu" unicode="&#xb5;" horiz-adv-x="543" 
d="M44 -220l81 766h56l-42 -380q-10 -76 -0.5 -104t49.5 -28q32 0 67.5 21.5t76 58.5t44.5 40l42 392h56l-58 -546h-56l10 98q-9 -7 -37.5 -33t-46.5 -40t-49 -27.5t-62 -12.5q-35 2 -54 8l-22 -213h-55z" />
    <glyph glyph-name="paragraph" unicode="&#xb6;" horiz-adv-x="598" 
d="M269 -220q-38 0 -57 8l16 46q8 -4 47 -4q65 0 94 39t37 109l76 729h56l-77 -730q-10 -97 -55 -147t-137 -50zM271 280q-208 0 -208 182q0 109 56.5 177t163.5 68h93l-44 -427h-61z" />
    <glyph glyph-name="periodcentered" unicode="&#xb7;" horiz-adv-x="278" 
d="M139 299l-49 53l61 52l51 -52z" />
    <glyph glyph-name="cedilla" unicode="&#xb8;" horiz-adv-x="449" 
d="M174 -229l-15 31q56 33 62 79q2 25 -18 68h62q16 -30 13 -63q-6 -75 -104 -115z" />
    <glyph glyph-name="onesuperior" unicode="&#xb9;" horiz-adv-x="256" 
d="M103 415l34 323h-93l4 42l147 4l-39 -369h-53z" />
    <glyph glyph-name="ordmasculine" unicode="&#xba;" horiz-adv-x="422" 
d="M191 385q-44 0 -72.5 38t-28.5 90q0 93 39 150.5t108 57.5q50 0 75 -39t25 -90q0 -49 -12 -93t-46.5 -79t-87.5 -35zM199 428q42 0 65.5 54.5t23.5 107.5q0 35 -16 62t-45 27q-30 0 -50.5 -28.5t-28 -63t-7.5 -67.5q0 -37 14 -64.5t44 -27.5zM51 301l6 48h271l-7 -48
h-270z" />
    <glyph glyph-name="guillemotright" unicode="&#xbb;" horiz-adv-x="418" 
d="M102 54l-44 19l106 199l-65 201l49 17l78 -218zM268 54l-44 19l106 199l-65 201l49 17l78 -218z" />
    <glyph glyph-name="onequarter" unicode="&#xbc;" horiz-adv-x="714" 
d="M103 415l34 323h-93l4 42l147 4l-39 -369h-53zM47 80l-31 34l577 533l29 -33zM546 0l10 91h-171l5 49l164 225h84l-25 -231h65l-4 -43h-65l-10 -91h-53zM434 134h126l21 201z" />
    <glyph glyph-name="onehalf" unicode="&#xbd;" horiz-adv-x="698" 
d="M103 415l34 323h-93l4 42l147 4l-39 -369h-53zM37 80l-31 34l577 533l29 -33zM390 0l4 45l55.5 37.5l53.5 37t42 32.5t38 35.5t22.5 34t12.5 38.5q4 32 -14 49t-48 17q-57 0 -97 -37l-22 31q23 23 58 37t68 14q49 0 80.5 -27.5t26.5 -79.5q-2 -17 -7 -33t-15 -31.5
l-18 -27t-25 -26t-26 -23t-30 -22.5l-28.5 -19t-31 -19.5l-28.5 -17.5h192l-5 -45h-258z" />
    <glyph glyph-name="threequarters" unicode="&#xbe;" horiz-adv-x="714" 
d="M115 410q-58 0 -103 16l17 41q49 -14 85 -14q93 0 100 60q4 40 -22.5 55t-86.5 20l4 36q100 9 107 70q2 24 -16 37t-48 13q-33 0 -71 -17l-11 33q47 26 96 26q46 0 75 -24t25 -61q-7 -64 -75 -90q40 -7 59.5 -33.5t16.5 -60.5q-6 -55 -50 -81t-102 -26zM57 80l-31 34
l577 533l29 -33zM546 0l10 91h-171l5 49l164 225h84l-25 -231h65l-4 -43h-65l-10 -91h-53zM434 134h126l21 201z" />
    <glyph glyph-name="questiondown" unicode="&#xbf;" horiz-adv-x="383" 
d="M254 -163q-85 7 -148 54t-63 127q0 43 18 78.5t44 61t53 49t48 52.5t26 61q2 16 0 62l54 6q4 -20 4 -47q0 -44 -19.5 -81.5t-47 -65l-55 -52.5t-47 -54.5t-19.5 -61.5q0 -61 51.5 -96.5t118.5 -42.5zM233 475l7 71h69l-7 -71h-69z" />
    <glyph glyph-name="Agrave" unicode="&#xc0;" horiz-adv-x="611" 
d="M-32 0l352 707h97l144 -707h-62l-55 279h-276l-138 -279h-62zM193 330h241l-60 306l-9 44l-22 -45zM422 736l-207 66l25 58l198 -80z" />
    <glyph glyph-name="Aacute" unicode="&#xc1;" horiz-adv-x="611" 
d="M-32 0l352 707h97l144 -707h-62l-55 279h-276l-138 -279h-62zM193 330h241l-60 306l-9 44l-22 -45zM313 737l-13 43l221 78l14 -57z" />
    <glyph glyph-name="Acircumflex" unicode="&#xc2;" horiz-adv-x="611" 
d="M-32 0l352 707h97l144 -707h-62l-55 279h-276l-138 -279h-62zM193 330h241l-60 306l-9 44l-22 -45zM519 737l-135 73l-156 -72l-16 42l177 85l155 -86z" />
    <glyph glyph-name="Atilde" unicode="&#xc3;" horiz-adv-x="611" 
d="M-32 0l352 707h97l144 -707h-62l-55 279h-276l-138 -279h-62zM193 330h241l-60 306l-9 44l-22 -45zM436 748q-20 0 -62.5 18t-60.5 18q-37 0 -71 -24l-20 35q46 38 96 38q24 0 63.5 -18t59.5 -18q38 0 70 28l20 -36q-47 -41 -95 -41z" />
    <glyph glyph-name="Adieresis" unicode="&#xc4;" horiz-adv-x="611" 
d="M-32 0l352 707h97l144 -707h-62l-55 279h-276l-138 -279h-62zM193 330h241l-60 306l-9 44l-22 -45zM273 751l-42 50l52 48l43 -48zM470 751l-42 50l52 48l44 -48z" />
    <glyph glyph-name="Aring" unicode="&#xc5;" horiz-adv-x="611" 
d="M-32 0l340 683q-42 24 -42 70q0 51 35.5 83.5t86.5 32.5q41 0 71 -25t30 -63q0 -75 -66 -103l138 -678h-62l-55 279h-276l-138 -279h-62zM371 702q32 0 53 20t21 52q0 26 -17.5 42.5t-43.5 16.5q-32 0 -53 -20t-21 -52q0 -27 17 -43t44 -16zM193 330h241l-69 350z" />
    <glyph glyph-name="AE" unicode="&#xc6;" horiz-adv-x="889" 
d="M-48 0l474 707h428l-5 -50h-318l-29 -276h297l-6 -52h-296l-30 -279h342l-5 -50h-401l35 329h-204l-214 -329h-68zM268 381h175l29 276h-24z" />
    <glyph glyph-name="Ccedilla" unicode="&#xc7;" horiz-adv-x="591" 
d="M362 -10q-143 0 -226.5 88t-83.5 234q0 179 103 290t280 111q97 0 158 -27l-22 -49q-63 23 -139 23q-152 0 -235 -95t-83 -252q0 -129 72.5 -198.5t200.5 -69.5q84 0 150 22l12 -52q-80 -25 -187 -25zM285 -229l-15 31q56 33 62 79q2 25 -18 68h62q16 -30 13 -63
q-6 -75 -104 -115z" />
    <glyph glyph-name="Egrave" unicode="&#xc8;" horiz-adv-x="562" 
d="M75 0l75 707h377l-5 -50h-318l-29 -276h296l-5 -52h-296l-30 -279h342l-5 -50h-402zM405 736l-207 66l25 58l198 -80z" />
    <glyph glyph-name="Eacute" unicode="&#xc9;" horiz-adv-x="562" 
d="M75 0l75 707h377l-5 -50h-318l-29 -276h296l-5 -52h-296l-30 -279h342l-5 -50h-402zM278 737l-13 43l221 78l14 -57z" />
    <glyph glyph-name="Ecircumflex" unicode="&#xca;" horiz-adv-x="562" 
d="M75 0l75 707h377l-5 -50h-318l-29 -276h296l-5 -52h-296l-30 -279h342l-5 -50h-402zM483 737l-135 73l-156 -72l-16 42l177 85l155 -86z" />
    <glyph glyph-name="Edieresis" unicode="&#xcb;" horiz-adv-x="562" 
d="M75 0l75 707h377l-5 -50h-318l-29 -276h296l-5 -52h-296l-30 -279h342l-5 -50h-402zM252 751l-42 50l52 48l43 -48zM449 751l-42 50l52 48l44 -48z" />
    <glyph glyph-name="Igrave" unicode="&#xcc;" horiz-adv-x="285" 
d="M75 0l75 707h59l-74 -707h-60zM219 736l-207 66l25 58l198 -80z" />
    <glyph glyph-name="Iacute" unicode="&#xcd;" horiz-adv-x="285" 
d="M75 0l75 707h59l-74 -707h-60zM141 737l-13 43l221 78l14 -57z" />
    <glyph glyph-name="Icircumflex" unicode="&#xce;" horiz-adv-x="285" 
d="M75 0l75 707h59l-74 -707h-60zM328 737l-135 73l-156 -72l-16 42l177 85l155 -86z" />
    <glyph glyph-name="Idieresis" unicode="&#xcf;" horiz-adv-x="285" 
d="M75 0l75 707h59l-74 -707h-60zM86 751l-42 50l52 48l43 -48zM283 751l-42 50l52 48l44 -48z" />
    <glyph glyph-name="Eth" unicode="&#xd0;" horiz-adv-x="716" 
d="M75 0l35 325h-70l6 53h69l35 330h172q155 0 249 -79t94 -235q0 -196 -107 -295t-304 -99h-179zM138 51h133q159 0 246 89.5t87 251.5q0 135 -77 200t-213 65h-112l-29 -279h148l-6 -53h-148z" />
    <glyph glyph-name="Ntilde" unicode="&#xd1;" horiz-adv-x="726" 
d="M75 0l76 707h99l272 -685l70 685h59l-77 -707h-105l-264 668l-70 -668h-60zM477 748q-20 0 -62.5 18t-60.5 18q-36 0 -71 -24l-20 35q46 38 96 38q24 0 63.5 -18t59.5 -18q38 0 70 28l20 -36q-47 -41 -95 -41z" />
    <glyph glyph-name="Ograve" unicode="&#xd2;" horiz-adv-x="779" 
d="M343 -11q-141 0 -216 87t-75 234q0 180 102.5 294t278.5 114q141 0 218 -87.5t77 -233.5q0 -181 -103.5 -294.5t-281.5 -113.5zM352 40q149 0 231 102t82 256q0 122 -62 194.5t-179 72.5q-146 0 -228.5 -100.5t-82.5 -252.5q0 -122 60.5 -197t178.5 -75zM483 736l-207 66
l25 58l198 -80z" />
    <glyph glyph-name="Oacute" unicode="&#xd3;" horiz-adv-x="779" 
d="M343 -11q-141 0 -216 87t-75 234q0 180 102.5 294t278.5 114q141 0 218 -87.5t77 -233.5q0 -181 -103.5 -294.5t-281.5 -113.5zM352 40q149 0 231 102t82 256q0 122 -62 194.5t-179 72.5q-146 0 -228.5 -100.5t-82.5 -252.5q0 -122 60.5 -197t178.5 -75zM351 737l-13 43
l221 78l14 -57z" />
    <glyph glyph-name="Ocircumflex" unicode="&#xd4;" horiz-adv-x="779" 
d="M343 -11q-141 0 -216 87t-75 234q0 180 102.5 294t278.5 114q141 0 218 -87.5t77 -233.5q0 -181 -103.5 -294.5t-281.5 -113.5zM352 40q149 0 231 102t82 256q0 122 -62 194.5t-179 72.5q-146 0 -228.5 -100.5t-82.5 -252.5q0 -122 60.5 -197t178.5 -75zM571 737l-135 73
l-156 -72l-16 42l177 85l155 -86z" />
    <glyph glyph-name="Otilde" unicode="&#xd5;" horiz-adv-x="779" 
d="M343 -11q-141 0 -216 87t-75 234q0 180 102.5 294t278.5 114q141 0 218 -87.5t77 -233.5q0 -181 -103.5 -294.5t-281.5 -113.5zM352 40q149 0 231 102t82 256q0 122 -62 194.5t-179 72.5q-146 0 -228.5 -100.5t-82.5 -252.5q0 -122 60.5 -197t178.5 -75zM492 748
q-20 0 -62.5 18t-60.5 18q-37 0 -71 -24l-20 35q46 38 96 38q24 0 63.5 -18t59.5 -18q38 0 70 28l20 -36q-47 -41 -95 -41z" />
    <glyph glyph-name="Odieresis" unicode="&#xd6;" horiz-adv-x="779" 
d="M343 -11q-141 0 -216 87t-75 234q0 180 102.5 294t278.5 114q141 0 218 -87.5t77 -233.5q0 -181 -103.5 -294.5t-281.5 -113.5zM352 40q149 0 231 102t82 256q0 122 -62 194.5t-179 72.5q-146 0 -228.5 -100.5t-82.5 -252.5q0 -122 60.5 -197t178.5 -75zM333 751l-42 50
l52 48l43 -48zM530 751l-42 50l52 48l44 -48z" />
    <glyph glyph-name="multiply" unicode="&#xd7;" horiz-adv-x="600" 
d="M459 86l-166 186l-197 -177l-33 37l196 178l-158 176l40 35l157 -176l202 182l34 -37l-202 -183l166 -186z" />
    <glyph glyph-name="Oslash" unicode="&#xd8;" horiz-adv-x="779" 
d="M62 -25l-36 31l85 90q-59 83 -59 214q0 180 102.5 294t278.5 114q122 0 198 -68l76 80l37 -33l-79 -84q63 -85 63 -216q0 -181 -103.5 -294.5t-281.5 -113.5q-127 0 -201 71zM154 142l436 464q-64 59 -166 59q-146 0 -228.5 -100.5t-82.5 -252.5q0 -103 41 -170zM352 40
q149 0 231 102t82 256q0 100 -43 169l-438 -463q62 -64 168 -64z" />
    <glyph glyph-name="Ugrave" unicode="&#xd9;" horiz-adv-x="714" 
d="M330 -12q-54 0 -97 11t-81 37t-56 76t-10 121l50 474h61l-49 -467q-6 -60 6.5 -101t40.5 -61.5t59.5 -29t72.5 -8.5q92 0 151.5 50t72.5 175l46 442h56l-47 -445q-8 -79 -35.5 -135.5t-68 -85.5t-82.5 -41t-90 -12zM472 736l-207 66l25 58l198 -80z" />
    <glyph glyph-name="Uacute" unicode="&#xda;" horiz-adv-x="714" 
d="M330 -12q-54 0 -97 11t-81 37t-56 76t-10 121l50 474h61l-49 -467q-6 -60 6.5 -101t40.5 -61.5t59.5 -29t72.5 -8.5q92 0 151.5 50t72.5 175l46 442h56l-47 -445q-8 -79 -35.5 -135.5t-68 -85.5t-82.5 -41t-90 -12zM340 737l-13 43l221 78l14 -57z" />
    <glyph glyph-name="Ucircumflex" unicode="&#xdb;" horiz-adv-x="714" 
d="M330 -12q-54 0 -97 11t-81 37t-56 76t-10 121l50 474h61l-49 -467q-6 -60 6.5 -101t40.5 -61.5t59.5 -29t72.5 -8.5q92 0 151.5 50t72.5 175l46 442h56l-47 -445q-8 -79 -35.5 -135.5t-68 -85.5t-82.5 -41t-90 -12zM550 737l-135 73l-156 -72l-16 42l177 85l155 -86z" />
    <glyph glyph-name="Udieresis" unicode="&#xdc;" horiz-adv-x="714" 
d="M330 -12q-54 0 -97 11t-81 37t-56 76t-10 121l50 474h61l-49 -467q-6 -60 6.5 -101t40.5 -61.5t59.5 -29t72.5 -8.5q92 0 151.5 50t72.5 175l46 442h56l-47 -445q-8 -79 -35.5 -135.5t-68 -85.5t-82.5 -41t-90 -12zM296 751l-42 50l52 48l43 -48zM493 751l-42 50l52 48
l44 -48z" />
    <glyph glyph-name="Yacute" unicode="&#xdd;" horiz-adv-x="495" 
d="M173 0l29 284l-177 423h65l149 -371l243 371h63l-283 -423l-30 -284h-59zM226 737l-13 43l221 78l14 -57z" />
    <glyph glyph-name="Thorn" unicode="&#xde;" horiz-adv-x="560" 
d="M75 0l75 707h59l-14 -137h124q53 0 90.5 -6.5t71.5 -24t51.5 -54.5t17.5 -93q0 -119 -73.5 -181.5t-194.5 -62.5q-24 0 -36 1l5 51h16q218 -3 218 189q0 73 -41.5 102.5t-118.5 29.5h-135l-54 -521h-61z" />
    <glyph glyph-name="germandbls" unicode="&#xdf;" horiz-adv-x="625" 
d="M60 -220l83 798q6 57 25.5 97t50 60.5t64.5 29.5t77 9q35 0 66.5 -12t55.5 -44t24 -80q0 -35 -22 -70t-48 -58.5t-48 -48.5t-22 -41q0 -25 18.5 -50.5t45 -48.5t53 -48.5t45 -62t18.5 -77.5q0 -49 -31.5 -83t-69.5 -46.5t-77 -12.5q-67 0 -139 24l16 50q55 -21 120 -21
q51 0 88 23.5t37 55.5q0 31 -13.5 58.5t-33.5 47.5l-43.5 42l-43.5 42t-33.5 47.5t-13.5 57.5q0 24 14 47t34.5 42l40.5 38.5t34 44.5t14 53q0 36 -28 57.5t-65 21.5q-75 0 -111 -37t-43 -108l-84 -797h-55z" />
    <glyph glyph-name="agrave" unicode="&#xe0;" horiz-adv-x="521" 
d="M146 -13q-50 0 -76 44t-26 115q0 64 21.5 133.5t60 130.5t100.5 100.5t134 39.5q57 0 90 -7l-56 -543h-57l12 107q-67 -61 -115 -90.5t-88 -29.5zM158 42q34 0 97 47t100 84l35 325q-9 2 -41 2q-58 0 -107 -35t-78.5 -88.5t-46 -112.5t-16.5 -112q0 -49 14.5 -79.5
t42.5 -30.5zM413 619l-168 122l34 45l162 -129z" />
    <glyph glyph-name="aacute" unicode="&#xe1;" horiz-adv-x="521" 
d="M146 -13q-50 0 -76 44t-26 115q0 64 21.5 133.5t60 130.5t100.5 100.5t134 39.5q57 0 90 -7l-56 -543h-57l12 107q-67 -61 -115 -90.5t-88 -29.5zM158 42q34 0 97 47t100 84l35 325q-9 2 -41 2q-58 0 -107 -35t-78.5 -88.5t-46 -112.5t-16.5 -112q0 -49 14.5 -79.5
t42.5 -30.5zM308 622l-27 37l174 137l34 -46z" />
    <glyph glyph-name="acircumflex" unicode="&#xe2;" horiz-adv-x="521" 
d="M146 -13q-50 0 -76 44t-26 115q0 64 21.5 133.5t60 130.5t100.5 100.5t134 39.5q57 0 90 -7l-56 -543h-57l12 107q-67 -61 -115 -90.5t-88 -29.5zM158 42q34 0 97 47t100 84l35 325q-9 2 -41 2q-58 0 -107 -35t-78.5 -88.5t-46 -112.5t-16.5 -112q0 -49 14.5 -79.5
t42.5 -30.5zM210 626l-23 39l185 111l154 -111l-25 -39l-136 90z" />
    <glyph glyph-name="atilde" unicode="&#xe3;" horiz-adv-x="521" 
d="M146 -13q-50 0 -76 44t-26 115q0 64 21.5 133.5t60 130.5t100.5 100.5t134 39.5q57 0 90 -7l-56 -543h-57l12 107q-67 -61 -115 -90.5t-88 -29.5zM158 42q34 0 97 47t100 84l35 325q-9 2 -41 2q-58 0 -107 -35t-78.5 -88.5t-46 -112.5t-16.5 -112q0 -49 14.5 -79.5
t42.5 -30.5zM420 649q-19 0 -62 18t-61 18q-37 0 -71 -24l-20 35q1 1 6 5l9.5 7.5t13 8.5t17.5 8.5t22.5 6t27.5 2.5q24 0 63.5 -18t59.5 -18q38 0 70 28l20 -36q-41 -41 -95 -41z" />
    <glyph glyph-name="adieresis" unicode="&#xe4;" horiz-adv-x="521" 
d="M146 -13q-50 0 -76 44t-26 115q0 64 21.5 133.5t60 130.5t100.5 100.5t134 39.5q57 0 90 -7l-56 -543h-57l12 107q-67 -61 -115 -90.5t-88 -29.5zM158 42q34 0 97 47t100 84l35 325q-9 2 -41 2q-58 0 -107 -35t-78.5 -88.5t-46 -112.5t-16.5 -112q0 -49 14.5 -79.5
t42.5 -30.5zM270 668l-43 47l53 48l43 -48zM457 668l-42 47l52 48l43 -48z" />
    <glyph glyph-name="aring" unicode="&#xe5;" horiz-adv-x="521" 
d="M146 -13q-50 0 -76 44t-26 115q0 64 21.5 133.5t60 130.5t100.5 100.5t134 39.5q57 0 90 -7l-56 -543h-57l12 107q-67 -61 -115 -90.5t-88 -29.5zM158 42q34 0 97 47t100 84l35 325q-9 2 -41 2q-58 0 -107 -35t-78.5 -88.5t-46 -112.5t-16.5 -112q0 -49 14.5 -79.5
t42.5 -30.5zM362 613q-43 0 -73 23.5t-30 62.5q0 51 35.5 83.5t86.5 32.5q41 0 71 -25t30 -63q0 -51 -34 -82.5t-86 -31.5zM364 648q32 0 53 20t21 52q0 26 -17.5 42.5t-43.5 16.5q-32 0 -53 -20t-21 -52q0 -27 17 -43t44 -16z" />
    <glyph glyph-name="ae" unicode="&#xe6;" horiz-adv-x="742" 
d="M146 -13q-49 0 -74 49t-25 128q0 165 89.5 275.5t222.5 110.5q42 0 90 -8l-9 -70q66 89 168 89q126 0 126 -119q0 -88 -132 -138l-188 -72q0 -6 -0.5 -16.5t-0.5 -15.5q0 -159 69 -159q54 0 171 54l21 -45l-15.5 -8t-17 -9t-16.5 -8.5t-18.5 -8.5l-18.5 -7t-21 -7
t-20.5 -5.5t-23 -5t-23.5 -2.5t-26 -1q-95 0 -112 129q-135 -130 -216 -130zM158 42q34 0 95.5 46.5t99.5 84.5l35 324l-49 2q-63 2 -118.5 -45.5t-86.5 -120.5t-31 -148q0 -84 14 -113.5t41 -29.5zM420 286l167 67q91 36 91 87q0 37 -21 53.5t-52 16.5q-44 0 -78.5 -19.5
t-55 -54t-32.5 -71t-19 -79.5z" />
    <glyph glyph-name="ccedilla" unicode="&#xe7;" horiz-adv-x="438" 
d="M166 -12q-34 0 -58.5 20t-37 51.5t-18 62.5t-5.5 61q0 161 70.5 269t189.5 108q74 0 122 -50l-35 -34q-42 35 -93 35q-54 0 -94 -32t-60.5 -82.5t-30 -101t-9.5 -100.5q0 -72 18.5 -113t42.5 -41q77 0 190 60l21 -42q-37 -22 -60.5 -34t-66.5 -24.5t-86 -12.5zM155 -229
l-15 31q56 33 62 79q2 25 -18 68h62q16 -30 13 -63q-6 -75 -104 -115z" />
    <glyph glyph-name="egrave" unicode="&#xe8;" horiz-adv-x="433" 
d="M165 -12q-63 0 -91 56.5t-28 145.5q0 159 67.5 265t185.5 106q63 0 94.5 -33.5t31.5 -85.5q0 -88 -132 -138l-188 -72q-1 -10 -1 -31q0 -160 68 -160q65 0 173 54l20 -45q-84 -44 -130 -54q-35 -8 -70 -8zM110 286l168 67q91 36 91 87q0 37 -21 53.5t-52 16.5
q-149 0 -186 -224zM324 619l-168 122l34 45l162 -129z" />
    <glyph glyph-name="eacute" unicode="&#xe9;" horiz-adv-x="433" 
d="M165 -12q-63 0 -91 56.5t-28 145.5q0 159 67.5 265t185.5 106q63 0 94.5 -33.5t31.5 -85.5q0 -88 -132 -138l-188 -72q-1 -10 -1 -31q0 -160 68 -160q65 0 173 54l20 -45q-84 -44 -130 -54q-35 -8 -70 -8zM110 286l168 67q91 36 91 87q0 37 -21 53.5t-52 16.5
q-149 0 -186 -224zM228 622l-27 37l174 137l34 -46z" />
    <glyph glyph-name="ecircumflex" unicode="&#xea;" horiz-adv-x="433" 
d="M165 -12q-63 0 -91 56.5t-28 145.5q0 159 67.5 265t185.5 106q63 0 94.5 -33.5t31.5 -85.5q0 -88 -132 -138l-188 -72q-1 -10 -1 -31q0 -160 68 -160q65 0 173 54l20 -45q-84 -44 -130 -54q-35 -8 -70 -8zM110 286l168 67q91 36 91 87q0 37 -21 53.5t-52 16.5
q-149 0 -186 -224zM146 626l-23 39l185 111l154 -111l-25 -39l-136 90z" />
    <glyph glyph-name="edieresis" unicode="&#xeb;" horiz-adv-x="433" 
d="M165 -12q-63 0 -91 56.5t-28 145.5q0 159 67.5 265t185.5 106q63 0 94.5 -33.5t31.5 -85.5q0 -88 -132 -138l-188 -72q-1 -10 -1 -31q0 -160 68 -160q65 0 173 54l20 -45q-84 -44 -130 -54q-35 -8 -70 -8zM110 286l168 67q91 36 91 87q0 37 -21 53.5t-52 16.5
q-149 0 -186 -224zM207 668l-43 47l53 48l43 -48zM394 668l-42 47l52 48l43 -48z" />
    <glyph glyph-name="igrave" unicode="&#xec;" horiz-adv-x="264" 
d="M70 0l57 546h56l-57 -546h-56zM196 619l-168 122l34 45l162 -129z" />
    <glyph glyph-name="iacute" unicode="&#xed;" horiz-adv-x="264" 
d="M70 0l57 546h56l-57 -546h-56zM120 622l-27 37l174 137l34 -46z" />
    <glyph glyph-name="icircumflex" unicode="&#xee;" horiz-adv-x="264" 
d="M70 0l57 546h56l-57 -546h-56zM25 626l-23 39l185 111l154 -111l-25 -39l-136 90z" />
    <glyph glyph-name="idieresis" unicode="&#xef;" horiz-adv-x="264" 
d="M70 0l57 546h56l-57 -546h-56zM75 668l-43 47l53 48l43 -48zM262 668l-42 47l52 48l43 -48z" />
    <glyph glyph-name="eth" unicode="&#xf0;" horiz-adv-x="501" 
d="M194 -12q-68 0 -107.5 56t-39.5 131q0 176 73.5 279.5t190.5 103.5q34 0 62 -14q-12 43 -35 88l-108 -33l-14 47l96 29q-25 34 -52 55l35 39q40 -29 73 -77l110 34l14 -47l-99 -30q63 -126 63 -287q0 -62 -14.5 -124.5t-44 -120t-82.5 -93.5t-121 -36zM218 39
q77 0 129 92t52 230q0 76 -27.5 113t-87.5 37q-71 0 -124.5 -95.5t-53.5 -222.5q0 -154 112 -154z" />
    <glyph glyph-name="ntilde" unicode="&#xf1;" horiz-adv-x="544" 
d="M69 0l57 546h57l-10 -98q1 1 18.5 16l25 21l26 20t32 21.5t31.5 16.5t35.5 13t34.5 4q49 0 70 -18.5t21 -55.5t-6 -92l-43 -394h-56l42 381q12 75 4.5 101.5t-53.5 26.5q-15 0 -45 -16.5t-55 -34.5l-54.5 -40.5l-33.5 -25.5l-42 -392h-56zM394 649q-19 0 -62 18t-61 18
q-37 0 -71 -24l-20 35q1 1 6 5l9.5 7.5t13 8.5t17.5 8.5t22.5 6t27.5 2.5q24 0 63.5 -18t59.5 -18q38 0 70 28l20 -36q-41 -41 -95 -41z" />
    <glyph glyph-name="ograve" unicode="&#xf2;" horiz-adv-x="501" 
d="M195 -12q-68 0 -108 54.5t-40 132.5q0 176 73.5 280.5t190.5 104.5q69 0 107 -54.5t38 -126.5t-14.5 -138.5t-44 -124.5t-82 -93t-120.5 -35zM212 38q77 0 131.5 93t54.5 230q0 77 -25 113.5t-84 36.5q-75 0 -129 -94t-54 -224q0 -155 106 -155zM342 619l-168 122l34 45
l162 -129z" />
    <glyph glyph-name="oacute" unicode="&#xf3;" horiz-adv-x="501" 
d="M195 -12q-68 0 -108 54.5t-40 132.5q0 176 73.5 280.5t190.5 104.5q69 0 107 -54.5t38 -126.5t-14.5 -138.5t-44 -124.5t-82 -93t-120.5 -35zM212 38q77 0 131.5 93t54.5 230q0 77 -25 113.5t-84 36.5q-75 0 -129 -94t-54 -224q0 -155 106 -155zM258 622l-27 37l174 137
l34 -46z" />
    <glyph glyph-name="ocircumflex" unicode="&#xf4;" horiz-adv-x="501" 
d="M195 -12q-68 0 -108 54.5t-40 132.5q0 176 73.5 280.5t190.5 104.5q69 0 107 -54.5t38 -126.5t-14.5 -138.5t-44 -124.5t-82 -93t-120.5 -35zM212 38q77 0 131.5 93t54.5 230q0 77 -25 113.5t-84 36.5q-75 0 -129 -94t-54 -224q0 -155 106 -155zM171 626l-23 39l185 111
l154 -111l-25 -39l-136 90z" />
    <glyph glyph-name="otilde" unicode="&#xf5;" horiz-adv-x="501" 
d="M195 -12q-68 0 -108 54.5t-40 132.5q0 176 73.5 280.5t190.5 104.5q69 0 107 -54.5t38 -126.5t-14.5 -138.5t-44 -124.5t-82 -93t-120.5 -35zM212 38q77 0 131.5 93t54.5 230q0 77 -25 113.5t-84 36.5q-75 0 -129 -94t-54 -224q0 -155 106 -155zM372 649q-19 0 -62 18
t-61 18q-37 0 -71 -24l-20 35q1 1 6 5l9.5 7.5t13 8.5t17.5 8.5t22.5 6t27.5 2.5q24 0 63.5 -18t59.5 -18q38 0 70 28l20 -36q-41 -41 -95 -41z" />
    <glyph glyph-name="odieresis" unicode="&#xf6;" horiz-adv-x="501" 
d="M195 -12q-68 0 -108 54.5t-40 132.5q0 176 73.5 280.5t190.5 104.5q69 0 107 -54.5t38 -126.5t-14.5 -138.5t-44 -124.5t-82 -93t-120.5 -35zM212 38q77 0 131.5 93t54.5 230q0 77 -25 113.5t-84 36.5q-75 0 -129 -94t-54 -224q0 -155 106 -155zM212 668l-43 47l53 48
l43 -48zM399 668l-42 47l52 48l43 -48z" />
    <glyph glyph-name="divide" unicode="&#xf7;" horiz-adv-x="600" 
d="M236 74l7 65h64l-7 -65h-64zM44 277l5 50h505l-5 -50h-505zM278 469l7 66h64l-7 -66h-64z" />
    <glyph glyph-name="oslash" unicode="&#xf8;" horiz-adv-x="501" 
d="M11 -28l-34 29l82 96q-12 41 -12 78q0 174 74 279.5t190 105.5q63 0 104 -51l55 63l34 -28l-65 -77q17 -42 17 -88q0 -72 -14.5 -138.5t-44 -124.5t-82 -93t-120.5 -35q-73 0 -115 64zM109 154l269 312q-26 45 -89 45q-73 0 -128 -91.5t-55 -226.5zM212 38q77 0 131.5 93
t54.5 230q0 24 -4 54l-274 -317q23 -60 92 -60z" />
    <glyph glyph-name="ugrave" unicode="&#xf9;" horiz-adv-x="543" 
d="M177 -11q-62 0 -83 37t-12 119l43 401h56l-42 -379q-10 -75 -1 -103t49 -28q11 0 23 2.5t25 8.5t23.5 11.5t24 16t21.5 16t22 18l18.5 16.5t17.5 17l14 13l42 391h56l-58 -546h-56l10 98q-29 -30 -50 -48.5t-62.5 -39.5t-80.5 -21zM351 619l-168 122l34 45l162 -129z" />
    <glyph glyph-name="uacute" unicode="&#xfa;" horiz-adv-x="543" 
d="M177 -11q-62 0 -83 37t-12 119l43 401h56l-42 -379q-10 -75 -1 -103t49 -28q11 0 23 2.5t25 8.5t23.5 11.5t24 16t21.5 16t22 18l18.5 16.5t17.5 17l14 13l42 391h56l-58 -546h-56l10 98q-29 -30 -50 -48.5t-62.5 -39.5t-80.5 -21zM277 622l-27 37l174 137l34 -46z" />
    <glyph glyph-name="ucircumflex" unicode="&#xfb;" horiz-adv-x="543" 
d="M177 -11q-62 0 -83 37t-12 119l43 401h56l-42 -379q-10 -75 -1 -103t49 -28q11 0 23 2.5t25 8.5t23.5 11.5t24 16t21.5 16t22 18l18.5 16.5t17.5 17l14 13l42 391h56l-58 -546h-56l10 98q-29 -30 -50 -48.5t-62.5 -39.5t-80.5 -21zM172 626l-23 39l185 111l154 -111
l-25 -39l-136 90z" />
    <glyph glyph-name="udieresis" unicode="&#xfc;" horiz-adv-x="543" 
d="M177 -11q-62 0 -83 37t-12 119l43 401h56l-42 -379q-10 -75 -1 -103t49 -28q11 0 23 2.5t25 8.5t23.5 11.5t24 16t21.5 16t22 18l18.5 16.5t17.5 17l14 13l42 391h56l-58 -546h-56l10 98q-29 -30 -50 -48.5t-62.5 -39.5t-80.5 -21zM220 668l-43 47l53 48l43 -48zM407 668
l-42 47l52 48l43 -48z" />
    <glyph glyph-name="yacute" unicode="&#xfd;" horiz-adv-x="457" 
d="M70 -220l106 220h-41l-87 546h62l77 -517l160 334q20 42 33.5 91t13.5 80q0 2 -0.5 6t-0.5 6h57v-12q0 -76 -47 -175l-275 -579h-58zM226 622l-27 37l174 137l34 -46z" />
    <glyph glyph-name="thorn" unicode="&#xfe;" horiz-adv-x="528" 
d="M43 -220l107 973h55l-30 -281q113 80 185 80q62 0 95 -36.5t33 -120.5q0 -101 -29.5 -189.5t-96.5 -150t-161 -61.5q-38 0 -78 7l-24 -221h-56zM208 44q47 0 86.5 25t64 63t41 86t23.5 92.5t7 84.5q0 60 -17.5 84t-52.5 24q-64 0 -192 -94l-39 -353l21 -4.5t18.5 -4
t17 -2.5t22.5 -1z" />
    <glyph glyph-name="ydieresis" unicode="&#xff;" horiz-adv-x="457" 
d="M70 -220l106 220h-41l-87 546h62l77 -517l160 334q20 42 33.5 91t13.5 80q0 2 -0.5 6t-0.5 6h57v-12q0 -76 -47 -175l-275 -579h-58zM171 668l-43 47l53 48l43 -48zM358 668l-42 47l52 48l43 -48z" />
    <glyph glyph-name="Amacron" unicode="&#x100;" horiz-adv-x="611" 
d="M-32 0l352 707h97l144 -707h-62l-55 279h-276l-138 -279h-62zM193 330h241l-60 306l-9 44l-22 -45zM239 765l5 48h271l-5 -48h-271z" />
    <glyph glyph-name="amacron" unicode="&#x101;" horiz-adv-x="521" 
d="M146 -13q-50 0 -76 44t-26 115q0 64 21.5 133.5t60 130.5t100.5 100.5t134 39.5q57 0 90 -7l-56 -543h-57l12 107q-67 -61 -115 -90.5t-88 -29.5zM158 42q34 0 97 47t100 84l35 325q-9 2 -41 2q-58 0 -107 -35t-78.5 -88.5t-46 -112.5t-16.5 -112q0 -49 14.5 -79.5
t42.5 -30.5zM222 675l5 48h271l-5 -48h-271z" />
    <glyph glyph-name="Abreve" unicode="&#x102;" horiz-adv-x="611" 
d="M-32 0l352 707h97l144 -707h-62l-55 279h-276l-138 -279h-62zM193 330h241l-60 306l-9 44l-22 -45zM369 753q-103 0 -148 78l35 29q5 -8 16 -19.5t40.5 -25.5t64.5 -14q79 0 132 58l27 -26q-3 -6 -8 -12t-19.5 -19.5t-32 -23t-46 -17.5t-61.5 -8z" />
    <glyph glyph-name="abreve" unicode="&#x103;" horiz-adv-x="521" 
d="M146 -13q-50 0 -76 44t-26 115q0 64 21.5 133.5t60 130.5t100.5 100.5t134 39.5q57 0 90 -7l-56 -543h-57l12 107q-67 -61 -115 -90.5t-88 -29.5zM158 42q34 0 97 47t100 84l35 325q-9 2 -41 2q-58 0 -107 -35t-78.5 -88.5t-46 -112.5t-16.5 -112q0 -49 14.5 -79.5
t42.5 -30.5zM351 652q-103 0 -148 78l35 29q5 -8 16 -19.5t40.5 -25.5t64.5 -14q79 0 132 58l27 -26q-3 -6 -8 -12t-19.5 -19.5t-32 -23t-46 -17.5t-61.5 -8z" />
    <glyph glyph-name="Aogonek" unicode="&#x104;" horiz-adv-x="611" 
d="M487 -217q-107 0 -97 100q6 63 107 125l-53 271h-276l-138 -279h-62l352 707h97l144 -707q-39 -22 -75.5 -54t-39.5 -60q-4 -31 12.5 -42.5t51.5 -11.5q27 0 39 8l11 -44q-22 -13 -73 -13zM193 330h241l-69 350z" />
    <glyph glyph-name="aogonek" unicode="&#x105;" horiz-adv-x="521" 
d="M319 -217q-50 0 -73.5 25t-23.5 66q0 38 35.5 75.5t80.5 63.5l11 94q-67 -61 -115 -90.5t-88 -29.5q-50 0 -76 44t-26 115q0 64 21.5 133.5t60 130.5t100.5 100.5t134 39.5q57 0 90 -7l-57 -543q-40 -23 -77.5 -55.5t-37.5 -60.5q0 -31 15 -41.5t49 -10.5q27 0 39 8
l11 -44q-22 -13 -73 -13zM158 42q34 0 97 47t100 84l35 325q-9 2 -41 2q-58 0 -107 -35t-78.5 -88.5t-46 -112.5t-16.5 -112q0 -49 14.5 -79.5t42.5 -30.5z" />
    <glyph glyph-name="Cacute" unicode="&#x106;" horiz-adv-x="591" 
d="M362 -10q-143 0 -226.5 88t-83.5 234q0 179 103 290t280 111q97 0 158 -27l-22 -49q-63 23 -139 23q-152 0 -235 -95t-83 -252q0 -129 72.5 -198.5t200.5 -69.5q84 0 150 22l12 -52q-80 -25 -187 -25zM339 737l-13 43l221 78l14 -57z" />
    <glyph glyph-name="cacute" unicode="&#x107;" horiz-adv-x="438" 
d="M166 -12q-34 0 -58.5 20t-37 51.5t-18 62.5t-5.5 61q0 161 70.5 269t189.5 108q74 0 122 -50l-35 -34q-42 35 -93 35q-54 0 -94 -32t-60.5 -82.5t-30 -101t-9.5 -100.5q0 -72 18.5 -113t42.5 -41q77 0 190 60l21 -42q-37 -22 -60.5 -34t-66.5 -24.5t-86 -12.5zM248 622
l-27 37l174 137l34 -46z" />
    <glyph glyph-name="Ccircumflex" unicode="&#x108;" horiz-adv-x="591" 
d="M362 -10q-143 0 -226.5 88t-83.5 234q0 179 103 290t280 111q97 0 158 -27l-22 -49q-63 23 -139 23q-152 0 -235 -95t-83 -252q0 -129 72.5 -198.5t200.5 -69.5q84 0 150 22l12 -52q-80 -25 -187 -25zM579 737l-135 73l-156 -72l-16 42l177 85l155 -86z" />
    <glyph glyph-name="ccircumflex" unicode="&#x109;" horiz-adv-x="438" 
d="M166 -12q-34 0 -58.5 20t-37 51.5t-18 62.5t-5.5 61q0 161 70.5 269t189.5 108q74 0 122 -50l-35 -34q-42 35 -93 35q-54 0 -94 -32t-60.5 -82.5t-30 -101t-9.5 -100.5q0 -72 18.5 -113t42.5 -41q77 0 190 60l21 -42q-37 -22 -60.5 -34t-66.5 -24.5t-86 -12.5zM161 626
l-23 39l185 111l154 -111l-25 -39l-136 90z" />
    <glyph glyph-name="Cdotaccent" unicode="&#x10a;" horiz-adv-x="591" 
d="M362 -10q-143 0 -226.5 88t-83.5 234q0 179 103 290t280 111q97 0 158 -27l-22 -49q-63 23 -139 23q-152 0 -235 -95t-83 -252q0 -129 72.5 -198.5t200.5 -69.5q84 0 150 22l12 -52q-80 -25 -187 -25zM433 752l-49 53l61 52l51 -52z" />
    <glyph glyph-name="cdotaccent" unicode="&#x10b;" horiz-adv-x="438" 
d="M166 -12q-34 0 -58.5 20t-37 51.5t-18 62.5t-5.5 61q0 161 70.5 269t189.5 108q74 0 122 -50l-35 -34q-42 35 -93 35q-54 0 -94 -32t-60.5 -82.5t-30 -101t-9.5 -100.5q0 -72 18.5 -113t42.5 -41q77 0 190 60l21 -42q-37 -22 -60.5 -34t-66.5 -24.5t-86 -12.5zM312 663
l-49 53l61 52l51 -52z" />
    <glyph glyph-name="Ccaron" unicode="&#x10c;" horiz-adv-x="591" 
d="M362 -10q-143 0 -226.5 88t-83.5 234q0 179 103 290t280 111q97 0 158 -27l-22 -49q-63 23 -139 23q-152 0 -235 -95t-83 -252q0 -129 72.5 -198.5t200.5 -69.5q84 0 150 22l12 -52q-80 -25 -187 -25zM400 737l-155 86l25 42l135 -73l155 72l17 -42z" />
    <glyph glyph-name="ccaron" unicode="&#x10d;" horiz-adv-x="438" 
d="M166 -12q-34 0 -58.5 20t-37 51.5t-18 62.5t-5.5 61q0 161 70.5 269t189.5 108q74 0 122 -50l-35 -34q-42 35 -93 35q-54 0 -94 -32t-60.5 -82.5t-30 -101t-9.5 -100.5q0 -72 18.5 -113t42.5 -41q77 0 190 60l21 -42q-37 -22 -60.5 -34t-66.5 -24.5t-86 -12.5zM294 626
l-155 111l26 39l135 -93l156 93l22 -39z" />
    <glyph glyph-name="Dcaron" unicode="&#x10e;" horiz-adv-x="718" 
d="M75 0l75 707h172q156 0 249.5 -78.5t93.5 -234.5q0 -193 -106 -293.5t-301 -100.5h-183zM140 51h131q161 0 247 86.5t86 254.5q0 134 -77 199t-213 65h-110zM341 737l-155 86l25 42l135 -73l155 72l17 -42z" />
    <glyph glyph-name="dcaron" unicode="&#x10f;" horiz-adv-x="515" 
d="M146 -13q-52 0 -75 50t-23 127q0 170 91 279t228 107q4 0 14 -0.5t16 -0.5l22 206h56l-81 -755h-56l11 107q-131 -120 -203 -120zM158 42q62 0 197 130l35 329l-51 1q-96 2 -166 -99t-70 -218q0 -84 14 -113.5t41 -29.5zM506 554l46 201h54l-54 -201h-46z" />
    <glyph glyph-name="Dcroat" unicode="&#x110;" horiz-adv-x="716" 
d="M75 0l35 325h-70l6 53h69l35 330h172q155 0 249 -79t94 -235q0 -196 -107 -295t-304 -99h-179zM138 51h133q159 0 246 89.5t87 251.5q0 135 -77 200t-213 65h-112l-29 -279h148l-6 -53h-148z" />
    <glyph glyph-name="dcroat" unicode="&#x111;" horiz-adv-x="515" 
d="M146 -13q-52 0 -75 50t-23 127q0 170 91 279t228 107q4 0 14 -0.5t16 -0.5l8 74h-151l5 45h151l9 87h56l-9 -87h91l-5 -45h-91l-67 -623h-56l11 107q-131 -120 -203 -120zM158 42q62 0 197 130l35 329l-51 1q-96 2 -166 -99t-70 -218q0 -84 14 -113.5t41 -29.5z" />
    <glyph glyph-name="Emacron" unicode="&#x112;" horiz-adv-x="562" 
d="M75 0l75 707h377l-5 -50h-318l-29 -276h296l-5 -52h-296l-30 -279h342l-5 -50h-402zM207 765l5 48h271l-5 -48h-271z" />
    <glyph glyph-name="emacron" unicode="&#x113;" horiz-adv-x="433" 
d="M165 -12q-63 0 -91 56.5t-28 145.5q0 159 67.5 265t185.5 106q63 0 94.5 -33.5t31.5 -85.5q0 -88 -132 -138l-188 -72q-1 -10 -1 -31q0 -160 68 -160q65 0 173 54l20 -45q-84 -44 -130 -54q-35 -8 -70 -8zM110 286l168 67q91 36 91 87q0 37 -21 53.5t-52 16.5
q-149 0 -186 -224zM167 675l5 48h271l-5 -48h-271z" />
    <glyph glyph-name="Ebreve" unicode="&#x114;" horiz-adv-x="562" 
d="M75 0l75 707h377l-5 -50h-318l-29 -276h296l-5 -52h-296l-30 -279h342l-5 -50h-402zM344 753q-102 0 -148 78l35 29q5 -8 16 -19.5t40.5 -25.5t64.5 -14q79 0 132 58l27 -26q-3 -6 -8 -12t-19.5 -19.5t-32 -23t-46 -17.5t-61.5 -8z" />
    <glyph glyph-name="ebreve" unicode="&#x115;" horiz-adv-x="433" 
d="M165 -12q-63 0 -91 56.5t-28 145.5q0 159 67.5 265t185.5 106q63 0 94.5 -33.5t31.5 -85.5q0 -88 -132 -138l-188 -72q-1 -10 -1 -31q0 -160 68 -160q65 0 173 54l20 -45q-84 -44 -130 -54q-35 -8 -70 -8zM110 286l168 67q91 36 91 87q0 37 -21 53.5t-52 16.5
q-149 0 -186 -224zM306 652q-102 0 -148 78l35 29q5 -8 16 -19.5t40.5 -25.5t64.5 -14q79 0 132 58l27 -26q-3 -6 -8 -12t-19.5 -19.5t-32 -23t-46 -17.5t-61.5 -8z" />
    <glyph glyph-name="Edotaccent" unicode="&#x116;" horiz-adv-x="562" 
d="M75 0l75 707h377l-5 -50h-318l-29 -276h296l-5 -52h-296l-30 -279h342l-5 -50h-402zM343 752l-49 53l61 52l51 -52z" />
    <glyph glyph-name="edotaccent" unicode="&#x117;" horiz-adv-x="433" 
d="M165 -12q-63 0 -91 56.5t-28 145.5q0 159 67.5 265t185.5 106q63 0 94.5 -33.5t31.5 -85.5q0 -88 -132 -138l-188 -72q-1 -10 -1 -31q0 -160 68 -160q65 0 173 54l20 -45q-84 -44 -130 -54q-35 -8 -70 -8zM110 286l168 67q91 36 91 87q0 37 -21 53.5t-52 16.5
q-149 0 -186 -224zM278 663l-49 53l61 52l51 -52z" />
    <glyph glyph-name="Eogonek" unicode="&#x118;" horiz-adv-x="562" 
d="M402 -217q-107 0 -97 100q6 58 95 117h-325l75 707h377l-5 -50h-318l-29 -276h296l-5 -52h-296l-30 -279h342l-6 -50q-40 -22 -76 -54t-39 -60q-4 -31 12.5 -42.5t51.5 -11.5q27 0 39 8l11 -44q-22 -13 -73 -13z" />
    <glyph glyph-name="eogonek" unicode="&#x119;" horiz-adv-x="433" 
d="M252 -217q-46 0 -69.5 24t-23.5 65q0 55 74 124q-34 -8 -68 -8q-63 0 -91 56.5t-28 145.5q0 159 67.5 265t185.5 106q63 0 94.5 -33.5t31.5 -85.5q0 -88 -132 -138l-188 -72q-1 -10 -1 -31q0 -160 68 -160q65 0 173 54l20 -45q-51 -30 -100.5 -82t-49.5 -87q0 -50 53 -50
q22 0 51 9l11 -44q-32 -13 -78 -13zM110 286l168 67q91 36 91 87q0 37 -21 53.5t-52 16.5q-149 0 -186 -224z" />
    <glyph glyph-name="Ecaron" unicode="&#x11a;" horiz-adv-x="562" 
d="M75 0l75 707h377l-5 -50h-318l-29 -276h296l-5 -52h-296l-30 -279h342l-5 -50h-402zM334 737l-155 86l25 42l135 -73l155 72l17 -42z" />
    <glyph glyph-name="ecaron" unicode="&#x11b;" horiz-adv-x="433" 
d="M165 -12q-63 0 -91 56.5t-28 145.5q0 159 67.5 265t185.5 106q63 0 94.5 -33.5t31.5 -85.5q0 -88 -132 -138l-188 -72q-1 -10 -1 -31q0 -160 68 -160q65 0 173 54l20 -45q-84 -44 -130 -54q-35 -8 -70 -8zM110 286l168 67q91 36 91 87q0 37 -21 53.5t-52 16.5
q-149 0 -186 -224zM276 626l-155 111l26 39l135 -93l156 93l22 -39z" />
    <glyph glyph-name="Gcircumflex" unicode="&#x11c;" horiz-adv-x="648" 
d="M362 -10q-143 0 -227 88t-84 235q0 178 102.5 289t278.5 111q99 0 157 -25l-23 -49q-62 21 -137 21q-151 0 -233.5 -95t-82.5 -252q0 -129 72.5 -198.5t201.5 -69.5q59 0 104 14l29 291h60l-34 -328q-48 -18 -85.5 -25t-98.5 -7zM574 737l-135 73l-156 -72l-16 42l177 85
l155 -86z" />
    <glyph glyph-name="gcircumflex" unicode="&#x11d;" horiz-adv-x="521" 
d="M151 -231q-75 0 -164 19l13 55q88 -22 139 -22q87 0 136.5 31.5t59.5 123.5l14 131q-67 -63 -113.5 -91.5t-89.5 -28.5q-99 0 -99 160q0 158 91.5 280.5t221.5 122.5q57 0 90 -7l-61 -582q-7 -69 -45 -113.5t-86.5 -61.5t-106.5 -17zM158 42q34 0 97 47t100 84l35 325
q-10 2 -41 2q-69 0 -127 -53t-88.5 -131.5t-30.5 -159.5q0 -66 14.5 -90t40.5 -24zM202 626l-23 39l185 111l154 -111l-25 -39l-136 90z" />
    <glyph glyph-name="Gbreve" unicode="&#x11e;" horiz-adv-x="648" 
d="M362 -10q-143 0 -227 88t-84 235q0 178 102.5 289t278.5 111q99 0 157 -25l-23 -49q-62 21 -137 21q-151 0 -233.5 -95t-82.5 -252q0 -129 72.5 -198.5t201.5 -69.5q59 0 104 14l29 291h60l-34 -328q-48 -18 -85.5 -25t-98.5 -7zM411 753q-102 0 -148 78l35 29
q5 -8 16 -19.5t40.5 -25.5t64.5 -14q79 0 132 58l27 -26q-3 -6 -8 -12t-19.5 -19.5t-32 -23t-46 -17.5t-61.5 -8z" />
    <glyph glyph-name="gbreve" unicode="&#x11f;" horiz-adv-x="521" 
d="M151 -231q-75 0 -164 19l13 55q88 -22 139 -22q87 0 136.5 31.5t59.5 123.5l14 131q-67 -63 -113.5 -91.5t-89.5 -28.5q-99 0 -99 160q0 158 91.5 280.5t221.5 122.5q57 0 90 -7l-61 -582q-7 -69 -45 -113.5t-86.5 -61.5t-106.5 -17zM158 42q34 0 97 47t100 84l35 325
q-10 2 -41 2q-69 0 -127 -53t-88.5 -131.5t-30.5 -159.5q0 -66 14.5 -90t40.5 -24zM336 652q-102 0 -148 78l35 29q5 -8 16 -19.5t40.5 -25.5t64.5 -14q79 0 132 58l27 -26q-3 -6 -8 -12t-19.5 -19.5t-32 -23t-46 -17.5t-61.5 -8z" />
    <glyph glyph-name="Gdotaccent" unicode="&#x120;" horiz-adv-x="648" 
d="M362 -10q-143 0 -227 88t-84 235q0 178 102.5 289t278.5 111q99 0 157 -25l-23 -49q-62 21 -137 21q-151 0 -233.5 -95t-82.5 -252q0 -129 72.5 -198.5t201.5 -69.5q59 0 104 14l29 291h60l-34 -328q-48 -18 -85.5 -25t-98.5 -7zM445 752l-49 53l61 52l51 -52z" />
    <glyph glyph-name="gdotaccent" unicode="&#x121;" horiz-adv-x="521" 
d="M151 -231q-75 0 -164 19l13 55q88 -22 139 -22q87 0 136.5 31.5t59.5 123.5l14 131q-67 -63 -113.5 -91.5t-89.5 -28.5q-99 0 -99 160q0 158 91.5 280.5t221.5 122.5q57 0 90 -7l-61 -582q-7 -69 -45 -113.5t-86.5 -61.5t-106.5 -17zM158 42q34 0 97 47t100 84l35 325
q-10 2 -41 2q-69 0 -127 -53t-88.5 -131.5t-30.5 -159.5q0 -66 14.5 -90t40.5 -24zM342 663l-49 53l61 52l51 -52z" />
    <glyph glyph-name="Gcommaaccent" unicode="&#x122;" horiz-adv-x="648" 
d="M362 -10q-143 0 -227 88t-84 235q0 178 102.5 289t278.5 111q99 0 157 -25l-23 -49q-62 21 -137 21q-151 0 -233.5 -95t-82.5 -252q0 -129 72.5 -198.5t201.5 -69.5q59 0 104 14l29 291h60l-34 -328q-48 -18 -85.5 -25t-98.5 -7zM298 -259l46 201h54l-54 -201h-46z" />
    <glyph glyph-name="gcommaaccent" unicode="&#x123;" horiz-adv-x="521" 
d="M151 -231q-75 0 -164 19l13 55q88 -22 139 -22q87 0 136.5 31.5t59.5 123.5l14 131q-67 -63 -113.5 -91.5t-89.5 -28.5q-99 0 -99 160q0 158 91.5 280.5t221.5 122.5q57 0 90 -7l-61 -582q-7 -69 -45 -113.5t-86.5 -61.5t-106.5 -17zM158 42q34 0 97 47t100 84l35 325
q-10 2 -41 2q-69 0 -127 -53t-88.5 -131.5t-30.5 -159.5q0 -66 14.5 -90t40.5 -24zM431 807l-46 -201h-54l54 201h46z" />
    <glyph glyph-name="Hcircumflex" unicode="&#x124;" horiz-adv-x="742" 
d="M75 0l75 707h59l-34 -327h398l34 328h60l-74 -708h-60l35 329h-398l-35 -329h-60zM554 737l-135 73l-156 -72l-16 42l177 85l155 -86z" />
    <glyph glyph-name="hcircumflex" unicode="&#x125;" horiz-adv-x="544" 
d="M69 0l80 755h56l-32 -307q1 1 18.5 16l25 21l26 20t32 21.5t31.5 16.5t35.5 13t34.5 4q49 0 70 -18.5t21 -55.5t-6 -92l-43 -394h-56l42 381q12 75 4.5 101.5t-53.5 26.5q-16 0 -45.5 -16.5t-55 -34.5t-54.5 -40.5l-33 -25.5l-42 -392h-56zM320 737l-135 73l-156 -72
l-16 42l177 85l155 -86z" />
    <glyph glyph-name="Hbar" unicode="&#x126;" horiz-adv-x="742" 
d="M75 0l53 502h-64l5 48h64l17 157h59l-17 -157h398l17 158h60l-17 -158h73l-5 -48h-73l-52 -502h-60l35 329h-398l-35 -329h-60zM175 380h398l12 122h-398z" />
    <glyph glyph-name="hbar" unicode="&#x127;" horiz-adv-x="544" 
d="M69 0l66 623h-85l5 45h85l9 87h56l-9 -87h141l-5 -45h-141l-18 -175q1 1 18.5 16l25 21l26 20t32 21.5t31.5 16.5t35.5 13t34.5 4q49 0 70 -18.5t21 -55.5t-6 -92l-43 -394h-56l42 381q12 75 4.5 101.5t-53.5 26.5q-16 0 -45.5 -16.5t-55 -34.5t-54.5 -40.5l-33 -25.5
l-42 -392h-56z" />
    <glyph glyph-name="Itilde" unicode="&#x128;" horiz-adv-x="285" 
d="M75 0l75 707h59l-74 -707h-60zM244 748q-20 0 -62.5 18t-60.5 18q-37 0 -71 -24l-20 35q46 38 96 38q24 0 63.5 -18t59.5 -18q38 0 70 28l20 -36q-47 -41 -95 -41z" />
    <glyph glyph-name="itilde" unicode="&#x129;" horiz-adv-x="264" 
d="M70 0l57 546h56l-57 -546h-56zM240 649q-19 0 -62 18t-61 18q-37 0 -71 -24l-20 35q1 1 6 5l9.5 7.5t13 8.5t17.5 8.5t22.5 6t27.5 2.5q24 0 63.5 -18t59.5 -18q38 0 70 28l20 -36q-41 -41 -95 -41z" />
    <glyph glyph-name="Imacron" unicode="&#x12a;" horiz-adv-x="285" 
d="M75 0l75 707h59l-74 -707h-60zM50 765l5 48h271l-5 -48h-271z" />
    <glyph glyph-name="imacron" unicode="&#x12b;" horiz-adv-x="264" 
d="M70 0l57 546h56l-57 -546h-56zM40 675l5 48h271l-5 -48h-271z" />
    <glyph glyph-name="Ibreve" unicode="&#x12c;" horiz-adv-x="285" 
d="M75 0l75 707h59l-74 -707h-60zM180 753q-102 0 -148 78l35 29q5 -8 16 -19.5t40.5 -25.5t64.5 -14q79 0 132 58l27 -26q-3 -6 -8 -12t-19.5 -19.5t-32 -23t-46 -17.5t-61.5 -8z" />
    <glyph glyph-name="ibreve" unicode="&#x12d;" horiz-adv-x="264" 
d="M70 0l57 546h56l-57 -546h-56zM162 652q-102 0 -148 78l35 29q5 -8 16 -19.5t40.5 -25.5t64.5 -14q79 0 132 58l27 -26q-3 -6 -8 -12t-19.5 -19.5t-32 -23t-46 -17.5t-61.5 -8z" />
    <glyph glyph-name="Iogonek" unicode="&#x12e;" horiz-adv-x="285" 
d="M61 -217q-107 0 -97 100q7 65 112 128l74 696h59l-76 -708q-108 -64 -113 -113q-4 -31 12.5 -42.5t51.5 -11.5q27 0 39 8l11 -44q-22 -13 -73 -13z" />
    <glyph glyph-name="iogonek" unicode="&#x12f;" horiz-adv-x="264" 
d="M134 -160l11 -44q-30 -12 -63 -12q-49 0 -78 23t-29 68q0 33 29.5 72.5t66.5 65.5l56 533h56l-57 -546q-32 -18 -63.5 -55t-31.5 -66q0 -46 59 -46q26 0 44 7zM166 663l-49 53l61 52l51 -52z" />
    <glyph glyph-name="Idotaccent" unicode="&#x130;" horiz-adv-x="285" 
d="M75 0l75 707h59l-74 -707h-60zM183 752l-49 53l61 52l51 -52z" />
    <glyph glyph-name="dotlessi" unicode="&#x131;" horiz-adv-x="264" 
d="M70 0l57 546h56l-57 -546h-56z" />
    <glyph glyph-name="IJ" unicode="&#x132;" horiz-adv-x="555" 
d="M75 0l75 707h59l-74 -707h-60zM214 -184l-23 44q91 48 127 112t48 179l59 556h59l-58 -554q-13 -128 -61.5 -209t-150.5 -128z" />
    <glyph glyph-name="ij" unicode="&#x133;" horiz-adv-x="504" 
d="M70 0l57 546h56l-57 -546h-56zM164 663l-49 53l61 52l51 -52zM176 -220q-35 0 -62 10l13 51q32 -10 60 -10q63 0 87.5 37t32.5 111l60 567h56l-60 -568q-11 -108 -59.5 -153t-127.5 -45zM404 663l-49 53l61 52l51 -52z" />
    <glyph glyph-name="Jcircumflex" unicode="&#x134;" horiz-adv-x="284" 
d="M-57 -184l-23 44q91 48 127 112t48 179l59 556h59l-58 -554q-13 -128 -61.5 -209t-150.5 -128zM333 737l-135 73l-156 -72l-16 42l177 85l155 -86z" />
    <glyph glyph-name="jcircumflex" unicode="&#x135;" horiz-adv-x="264" 
d="M-64 -220q-35 0 -62 10l13 51q33 -10 60 -10q63 0 87.5 37t32.5 111l60 567h56l-60 -568q-11 -108 -59.5 -153t-127.5 -45zM21 626l-23 39l185 111l154 -111l-25 -39l-136 90z" />
    <glyph glyph-name="Kcommaaccent" unicode="&#x136;" horiz-adv-x="588" 
d="M483 -21l-274 386l2 20l308 322h77l-320 -326l258 -367zM75 0l75 707h59l-74 -707h-60zM201 -259l46 201h54l-54 -201h-46z" />
    <glyph glyph-name="kcommaaccent" unicode="&#x137;" horiz-adv-x="478" 
d="M389 -17l-201 308l203 255h70l-205 -255l186 -278zM69 0l79 754h57l-80 -754h-56zM163 -259l46 201h54l-54 -201h-46z" />
    <glyph glyph-name="Lacute" unicode="&#x139;" horiz-adv-x="478" 
d="M75 0l75 707h59l-68 -653h307l-6 -54h-367zM169 737l-13 43l221 78l14 -57z" />
    <glyph glyph-name="lacute" unicode="&#x13a;" horiz-adv-x="258" 
d="M69 0l79 754h57l-80 -754h-56zM150 771l-13 43l221 78l14 -57z" />
    <glyph glyph-name="Lcommaaccent" unicode="&#x13b;" horiz-adv-x="478" 
d="M75 0l75 707h59l-68 -653h307l-6 -54h-367zM189 -259l46 201h54l-54 -201h-46z" />
    <glyph glyph-name="lcommaaccent" unicode="&#x13c;" horiz-adv-x="258" 
d="M29 -259l46 201h54l-54 -201h-46zM69 0l79 754h57l-80 -754h-56z" />
    <glyph glyph-name="Lcaron" unicode="&#x13d;" horiz-adv-x="478" 
d="M75 0l75 707h59l-68 -653h307l-6 -54h-367zM268 556l46 201h54l-54 -201h-46z" />
    <glyph glyph-name="lcaron" unicode="&#x13e;" horiz-adv-x="258" 
d="M69 0l79 754h57l-80 -754h-56zM232 553l46 201h54l-54 -201h-46z" />
    <glyph glyph-name="Ldot" unicode="&#x13f;" horiz-adv-x="478" 
d="M75 0l75 707h59l-68 -653h307l-6 -54h-367zM333 301l-49 53l61 52l51 -52z" />
    <glyph glyph-name="ldot" unicode="&#x140;" horiz-adv-x="292" 
d="M69 0l79 754h57l-80 -754h-56zM269 299l-49 53l61 52l51 -52z" />
    <glyph glyph-name="Lslash" unicode="&#x141;" horiz-adv-x="464" 
d="M68 0l33 315l-66 -35l5 51l66 36l36 340h60l-32 -306l158 86l-5 -51l-159 -86l-31 -295h307l-5 -55h-367z" />
    <glyph glyph-name="lslash" unicode="&#x142;" horiz-adv-x="258" 
d="M68 0l35 339l-81 -44l6 52l81 43l38 364h56l-35 -332l94 50l-5 -50l-94 -51l-39 -371h-56z" />
    <glyph glyph-name="Nacute" unicode="&#x143;" horiz-adv-x="726" 
d="M75 0l76 707h99l272 -685l70 685h59l-77 -707h-105l-264 668l-70 -668h-60zM364 737l-13 43l221 78l14 -57z" />
    <glyph glyph-name="nacute" unicode="&#x144;" horiz-adv-x="544" 
d="M69 0l57 546h57l-10 -98q1 1 18.5 16l25 21l26 20t32 21.5t31.5 16.5t35.5 13t34.5 4q49 0 70 -18.5t21 -55.5t-6 -92l-43 -394h-56l42 381q12 75 4.5 101.5t-53.5 26.5q-15 0 -45 -16.5t-55 -34.5l-54.5 -40.5l-33.5 -25.5l-42 -392h-56zM280 622l-27 37l174 137l34 -46
z" />
    <glyph glyph-name="Ncommaaccent" unicode="&#x145;" horiz-adv-x="726" 
d="M75 0l76 707h99l272 -685l70 685h59l-77 -707h-105l-264 668l-70 -668h-60zM244 -259l46 201h54l-54 -201h-46z" />
    <glyph glyph-name="ncommaaccent" unicode="&#x146;" horiz-adv-x="544" 
d="M69 0l57 546h57l-10 -98q1 1 18.5 16l25 21l26 20t32 21.5t31.5 16.5t35.5 13t34.5 4q49 0 70 -18.5t21 -55.5t-6 -92l-43 -394h-56l42 381q12 75 4.5 101.5t-53.5 26.5q-15 0 -45 -16.5t-55 -34.5l-54.5 -40.5l-33.5 -25.5l-42 -392h-56zM183 -259l46 201h54l-54 -201
h-46z" />
    <glyph glyph-name="Ncaron" unicode="&#x147;" horiz-adv-x="726" 
d="M75 0l76 707h99l272 -685l70 685h59l-77 -707h-105l-264 668l-70 -668h-60zM408 737l-155 86l25 42l135 -73l155 72l17 -42z" />
    <glyph glyph-name="ncaron" unicode="&#x148;" horiz-adv-x="544" 
d="M69 0l57 546h57l-10 -98q1 1 18.5 16l25 21l26 20t32 21.5t31.5 16.5t35.5 13t34.5 4q49 0 70 -18.5t21 -55.5t-6 -92l-43 -394h-56l42 381q12 75 4.5 101.5t-53.5 26.5q-15 0 -45 -16.5t-55 -34.5l-54.5 -40.5l-33.5 -25.5l-42 -392h-56zM321 626l-155 111l26 39
l135 -93l156 93l22 -39z" />
    <glyph glyph-name="napostrophe" unicode="&#x149;" horiz-adv-x="544" 
d="M69 0l57 546h57l-10 -98q1 1 18.5 16l25 21l26 20t32 21.5t31.5 16.5t35.5 13t34.5 4q49 0 70 -18.5t21 -55.5t-6 -92l-43 -394h-56l42 381q12 75 4.5 101.5t-53.5 26.5q-15 0 -45 -16.5t-55 -34.5l-54.5 -40.5l-33.5 -25.5l-42 -392h-56zM12 572q37 91 44 193h65
q-1 -20 -3 -38t-7 -35.5t-8 -29t-11 -27.5t-10.5 -22t-12 -22.5t-10.5 -18.5h-47z" />
    <glyph glyph-name="Eng" unicode="&#x14a;" horiz-adv-x="726" 
d="M384 -220q-35 0 -62 10l13 51q33 -10 60 -10q63 0 87.5 37t32.5 111l2 21h-48l-264 668l-70 -668h-60l76 707h99l272 -685l70 685h59l-81 -739q-11 -102 -55 -145t-131 -43z" />
    <glyph glyph-name="eng" unicode="&#x14b;" horiz-adv-x="544" 
d="M228 -220q-35 0 -62 10l13 51q32 -10 60 -10q63 0 87.5 37t32.5 111l45 402q12 75 4.5 101.5t-53.5 26.5q-15 0 -45 -16.5t-55 -34.5l-54.5 -40.5l-33.5 -25.5l-42 -392h-56l57 546h57l-10 -98q1 1 18.5 16l25 21l26 20t32 21.5t31.5 16.5t35.5 13t34.5 4q49 0 70 -18.5
t21 -55.5t-6 -92l-46 -416q-11 -108 -59.5 -153t-127.5 -45z" />
    <glyph glyph-name="Omacron" unicode="&#x14c;" horiz-adv-x="779" 
d="M343 -11q-141 0 -216 87t-75 234q0 180 102.5 294t278.5 114q141 0 218 -87.5t77 -233.5q0 -181 -103.5 -294.5t-281.5 -113.5zM352 40q149 0 231 102t82 256q0 122 -62 194.5t-179 72.5q-146 0 -228.5 -100.5t-82.5 -252.5q0 -122 60.5 -197t178.5 -75zM296 765l5 48
h271l-5 -48h-271z" />
    <glyph glyph-name="omacron" unicode="&#x14d;" horiz-adv-x="501" 
d="M195 -12q-68 0 -108 54.5t-40 132.5q0 176 73.5 280.5t190.5 104.5q69 0 107 -54.5t38 -126.5t-14.5 -138.5t-44 -124.5t-82 -93t-120.5 -35zM212 38q77 0 131.5 93t54.5 230q0 77 -25 113.5t-84 36.5q-75 0 -129 -94t-54 -224q0 -155 106 -155zM172 675l5 48h271l-5 -48
h-271z" />
    <glyph glyph-name="Obreve" unicode="&#x14e;" horiz-adv-x="779" 
d="M343 -11q-141 0 -216 87t-75 234q0 180 102.5 294t278.5 114q141 0 218 -87.5t77 -233.5q0 -181 -103.5 -294.5t-281.5 -113.5zM352 40q149 0 231 102t82 256q0 122 -62 194.5t-179 72.5q-146 0 -228.5 -100.5t-82.5 -252.5q0 -122 60.5 -197t178.5 -75zM430 753
q-102 0 -148 78l35 29q5 -8 16 -19.5t40.5 -25.5t64.5 -14q79 0 132 58l27 -26q-3 -6 -8 -12t-19.5 -19.5t-32 -23t-46 -17.5t-61.5 -8z" />
    <glyph glyph-name="obreve" unicode="&#x14f;" horiz-adv-x="501" 
d="M195 -12q-68 0 -108 54.5t-40 132.5q0 176 73.5 280.5t190.5 104.5q69 0 107 -54.5t38 -126.5t-14.5 -138.5t-44 -124.5t-82 -93t-120.5 -35zM212 38q77 0 131.5 93t54.5 230q0 77 -25 113.5t-84 36.5q-75 0 -129 -94t-54 -224q0 -155 106 -155zM294 652q-102 0 -148 78
l35 29q5 -8 16 -19.5t40.5 -25.5t64.5 -14q79 0 132 58l27 -26q-3 -6 -8 -12t-19.5 -19.5t-32 -23t-46 -17.5t-61.5 -8z" />
    <glyph glyph-name="Ohungarumlaut" unicode="&#x150;" horiz-adv-x="779" 
d="M343 -11q-141 0 -216 87t-75 234q0 180 102.5 294t278.5 114q141 0 218 -87.5t77 -233.5q0 -181 -103.5 -294.5t-281.5 -113.5zM352 40q149 0 231 102t82 256q0 122 -62 194.5t-179 72.5q-146 0 -228.5 -100.5t-82.5 -252.5q0 -122 60.5 -197t178.5 -75zM296 738l-26 37
l188 141l30 -50zM471 737l-13 43l221 78l14 -57z" />
    <glyph glyph-name="ohungarumlaut" unicode="&#x151;" horiz-adv-x="501" 
d="M195 -12q-68 0 -108 54.5t-40 132.5q0 176 73.5 280.5t190.5 104.5q69 0 107 -54.5t38 -126.5t-14.5 -138.5t-44 -124.5t-82 -93t-120.5 -35zM212 38q77 0 131.5 93t54.5 230q0 77 -25 113.5t-84 36.5q-75 0 -129 -94t-54 -224q0 -155 106 -155zM178 619l-20 39l195 131
l28 -51zM405 624l-25 36l194 136l32 -47z" />
    <glyph glyph-name="OE" unicode="&#x152;" horiz-adv-x="1068" 
d="M343 -11q-141 0 -216 87t-75 234q0 180 102.5 294t278.5 114q137 0 215 -84l8 73h377l-5 -50h-318l-29 -276h296l-5 -52h-296l-30 -279h342l-5 -50h-402l8 69q-99 -80 -246 -80zM352 42q161 0 247 122l39 373q-58 126 -214 126q-146 0 -228.5 -99.5t-82.5 -251.5
q0 -122 60.5 -196t178.5 -74z" />
    <glyph glyph-name="oe" unicode="&#x153;" horiz-adv-x="773" 
d="M195 -12q-68 0 -108 54.5t-40 132.5q0 176 73.5 280.5t190.5 104.5q52 0 86.5 -32t49.5 -83q70 116 192 116q63 0 94.5 -33.5t31.5 -85.5q0 -88 -132 -138l-188 -72q-1 -10 -1 -31q0 -160 68 -160q65 0 173 54l20 -45q-84 -44 -130 -54q-35 -8 -70 -8q-89 0 -112 120
q-71 -120 -198 -120zM212 38q77 0 131.5 93t54.5 230q0 77 -25 113.5t-84 36.5q-72 0 -127.5 -93t-55.5 -225q0 -155 106 -155zM450 286l168 67q91 36 91 87q0 37 -21 53.5t-52 16.5q-149 0 -186 -224z" />
    <glyph glyph-name="Racute" unicode="&#x154;" horiz-adv-x="612" 
d="M530 -17l-202 331q-37 -4 -158 -4l-34 -310h-61l75 707h206q91 0 145.5 -44.5t54.5 -122.5q0 -76 -43 -134t-123 -78l195 -314zM175 362h101q102 0 158.5 44t56.5 133q0 119 -161 119h-125zM270 737l-13 43l221 78l14 -57z" />
    <glyph glyph-name="racute" unicode="&#x155;" horiz-adv-x="345" 
d="M69 0l57 546h56l-10 -101l46 45t60 41t77 25q9 0 23 -2l-11 -51q-3 1 -16 1q-10 0 -22 -4t-22.5 -9t-25.5 -14.5t-25 -16.5t-26 -20l-23 -18.5t-22.5 -19t-18.5 -15.5l-41 -387h-56zM215 622l-27 37l174 137l34 -46z" />
    <glyph glyph-name="Rcommaaccent" unicode="&#x156;" horiz-adv-x="612" 
d="M530 -17l-202 331q-37 -4 -158 -4l-34 -310h-61l75 707h206q91 0 145.5 -44.5t54.5 -122.5q0 -76 -43 -134t-123 -78l195 -314zM175 362h101q102 0 158.5 44t56.5 133q0 119 -161 119h-125zM223 -259l46 201h54l-54 -201h-46z" />
    <glyph glyph-name="rcommaaccent" unicode="&#x157;" horiz-adv-x="345" 
d="M69 0l57 546h56l-10 -101l46 45t60 41t77 25q9 0 23 -2l-11 -51q-3 1 -16 1q-10 0 -22 -4t-22.5 -9t-25.5 -14.5t-25 -16.5t-26 -20l-23 -18.5t-22.5 -19t-18.5 -15.5l-41 -387h-56zM31 -259l46 201h54l-54 -201h-46z" />
    <glyph glyph-name="Rcaron" unicode="&#x158;" horiz-adv-x="612" 
d="M530 -17l-202 331q-37 -4 -158 -4l-34 -310h-61l75 707h206q91 0 145.5 -44.5t54.5 -122.5q0 -76 -43 -134t-123 -78l195 -314zM175 362h101q102 0 158.5 44t56.5 133q0 119 -161 119h-125zM328 737l-155 86l25 42l135 -73l155 72l17 -42z" />
    <glyph glyph-name="rcaron" unicode="&#x159;" horiz-adv-x="345" 
d="M69 0l57 546h56l-10 -101l46 45t60 41t77 25q9 0 23 -2l-11 -51q-3 1 -16 1q-10 0 -22 -4t-22.5 -9t-25.5 -14.5t-25 -16.5t-26 -20l-23 -18.5t-22.5 -19t-18.5 -15.5l-41 -387h-56zM253 626l-155 111l26 39l135 -93l156 93l22 -39z" />
    <glyph glyph-name="Sacute" unicode="&#x15a;" horiz-adv-x="466" 
d="M182 -11q-45 0 -102 14.5t-86 33.5l25 53q94 -46 167 -46q174 0 174 146q0 38 -29.5 70.5t-72 58t-85 54t-72 72t-29.5 97.5q0 82 61.5 126t153.5 44q49 0 96.5 -11t71.5 -26l-19 -50q-72 34 -153 34q-153 0 -153 -119q0 -33 21.5 -62.5t53 -51l69 -47.5t69 -50.5t53 -61
t21.5 -79.5q0 -94 -65.5 -146.5t-169.5 -52.5zM228 737l-13 43l221 78l14 -57z" />
    <glyph glyph-name="sacute" unicode="&#x15b;" horiz-adv-x="423" 
d="M168 -9q-87 0 -139 23l17 52q67 -24 126 -24q19 0 38.5 3.5t43 12t38 28t14.5 46.5q0 33 -22 61.5t-53 51l-62 46t-53 56t-22 71.5q0 74 48 105.5t124 31.5q72 0 132 -29l-19 -45q-80 26 -128 26q-104 0 -104 -78q0 -33 22 -61t53.5 -50t62.5 -46t53 -58.5t22 -77.5
q0 -73 -57 -109t-135 -36zM232 622l-27 37l174 137l34 -46z" />
    <glyph glyph-name="Scircumflex" unicode="&#x15c;" horiz-adv-x="466" 
d="M182 -11q-45 0 -102 14.5t-86 33.5l25 53q94 -46 167 -46q174 0 174 146q0 38 -29.5 70.5t-72 58t-85 54t-72 72t-29.5 97.5q0 82 61.5 126t153.5 44q49 0 96.5 -11t71.5 -26l-19 -50q-72 34 -153 34q-153 0 -153 -119q0 -33 21.5 -62.5t53 -51l69 -47.5t69 -50.5t53 -61
t21.5 -79.5q0 -94 -65.5 -146.5t-169.5 -52.5zM434 737l-135 73l-156 -72l-16 42l177 85l155 -86z" />
    <glyph glyph-name="scircumflex" unicode="&#x15d;" horiz-adv-x="423" 
d="M168 -9q-87 0 -139 23l17 52q67 -24 126 -24q19 0 38.5 3.5t43 12t38 28t14.5 46.5q0 33 -22 61.5t-53 51l-62 46t-53 56t-22 71.5q0 74 48 105.5t124 31.5q72 0 132 -29l-19 -45q-80 26 -128 26q-104 0 -104 -78q0 -33 22 -61t53.5 -50t62.5 -46t53 -58.5t22 -77.5
q0 -73 -57 -109t-135 -36zM119 626l-23 39l185 111l154 -111l-25 -39l-136 90z" />
    <glyph glyph-name="Scedilla" unicode="&#x15e;" horiz-adv-x="466" 
d="M182 -11q-45 0 -102 14.5t-86 33.5l25 53q94 -46 167 -46q174 0 174 146q0 38 -29.5 70.5t-72 58t-85 54t-72 72t-29.5 97.5q0 82 61.5 126t153.5 44q49 0 96.5 -11t71.5 -26l-19 -50q-72 34 -153 34q-153 0 -153 -119q0 -33 21.5 -62.5t53 -51l69 -47.5t69 -50.5t53 -61
t21.5 -79.5q0 -94 -65.5 -146.5t-169.5 -52.5zM127 -229l-15 31q56 33 62 79q2 25 -18 68h62q16 -30 13 -63q-6 -75 -104 -115z" />
    <glyph glyph-name="scedilla" unicode="&#x15f;" horiz-adv-x="423" 
d="M168 -9q-87 0 -139 23l17 52q67 -24 126 -24q19 0 38.5 3.5t43 12t38 28t14.5 46.5q0 33 -22 61.5t-53 51l-62 46t-53 56t-22 71.5q0 74 48 105.5t124 31.5q72 0 132 -29l-19 -45q-80 26 -128 26q-104 0 -104 -78q0 -33 22 -61t53.5 -50t62.5 -46t53 -58.5t22 -77.5
q0 -73 -57 -109t-135 -36zM110 -229l-15 31q56 33 62 79q2 25 -18 68h62q16 -30 13 -63q-6 -75 -104 -115z" />
    <glyph glyph-name="Scaron" unicode="&#x160;" horiz-adv-x="466" 
d="M182 -11q-45 0 -102 14.5t-86 33.5l25 53q94 -46 167 -46q174 0 174 146q0 38 -29.5 70.5t-72 58t-85 54t-72 72t-29.5 97.5q0 82 61.5 126t153.5 44q49 0 96.5 -11t71.5 -26l-19 -50q-72 34 -153 34q-153 0 -153 -119q0 -33 21.5 -62.5t53 -51l69 -47.5t69 -50.5t53 -61
t21.5 -79.5q0 -94 -65.5 -146.5t-169.5 -52.5zM274 737l-155 86l25 42l135 -73l155 72l17 -42z" />
    <glyph glyph-name="scaron" unicode="&#x161;" horiz-adv-x="423" 
d="M168 -9q-87 0 -139 23l17 52q67 -24 126 -24q19 0 38.5 3.5t43 12t38 28t14.5 46.5q0 33 -22 61.5t-53 51l-62 46t-53 56t-22 71.5q0 74 48 105.5t124 31.5q72 0 132 -29l-19 -45q-80 26 -128 26q-104 0 -104 -78q0 -33 22 -61t53.5 -50t62.5 -46t53 -58.5t22 -77.5
q0 -73 -57 -109t-135 -36zM273 626l-155 111l26 39l135 -93l156 93l22 -39z" />
    <glyph glyph-name="Tcommaaccent" unicode="&#x162;" horiz-adv-x="541" 
d="M212 0l68 654h-246l6 53h552l-6 -53h-246l-69 -654h-59zM171 -259l46 201h54l-54 -201h-46z" />
    <glyph glyph-name="tcommaaccent" unicode="&#x163;" horiz-adv-x="374" 
d="M174 -12q-47 0 -66 15q-36 30 -26 124l41 368h-80l5 51h80l11 112h56l-11 -112h177l-5 -51h-177l-40 -363q-6 -57 2 -74.5t41 -17.5q51 0 119 34l15 -47q-19 -12 -60 -25.5t-82 -13.5zM114 -259l46 201h54l-54 -201h-46z" />
    <glyph glyph-name="Tcaron" unicode="&#x164;" horiz-adv-x="541" 
d="M212 0l68 654h-246l6 53h552l-6 -53h-246l-69 -654h-59zM314 737l-155 86l25 42l135 -73l155 72l17 -42z" />
    <glyph glyph-name="tcaron" unicode="&#x165;" horiz-adv-x="374" 
d="M174 -12q-47 0 -66 15q-36 30 -26 124l41 368h-80l5 51h80l11 112h56l-11 -112h177l-5 -51h-177l-40 -363q-6 -57 2 -74.5t41 -17.5q51 0 119 34l15 -47q-19 -12 -60 -25.5t-82 -13.5zM266 606l46 201h54l-54 -201h-46z" />
    <glyph glyph-name="Tbar" unicode="&#x166;" horiz-adv-x="541" 
d="M212 0l36 353h-156l5 45h156l27 256h-246l6 53h552l-6 -53h-246l-27 -256h157l-5 -45h-157l-37 -353h-59z" />
    <glyph glyph-name="tbar" unicode="&#x167;" horiz-adv-x="374" 
d="M174 -12q-47 0 -66 15q-36 30 -26 124l19 177h-61l5 45h61l17 146h-80l5 51h80l11 112h56l-11 -112h177l-5 -51h-177l-16 -146h163l-5 -45h-163l-19 -172q-6 -57 2 -74.5t41 -17.5q51 0 119 34l15 -47q-19 -12 -60 -25.5t-82 -13.5z" />
    <glyph glyph-name="Utilde" unicode="&#x168;" horiz-adv-x="714" 
d="M330 -12q-54 0 -97 11t-81 37t-56 76t-10 121l50 474h61l-49 -467q-6 -60 6.5 -101t40.5 -61.5t59.5 -29t72.5 -8.5q92 0 151.5 50t72.5 175l46 442h56l-47 -445q-8 -79 -35.5 -135.5t-68 -85.5t-82.5 -41t-90 -12zM471 748q-20 0 -62.5 18t-60.5 18q-36 0 -71 -24
l-20 35q46 38 96 38q24 0 63.5 -18t59.5 -18q38 0 70 28l20 -36q-47 -41 -95 -41z" />
    <glyph glyph-name="utilde" unicode="&#x169;" horiz-adv-x="543" 
d="M177 -11q-62 0 -83 37t-12 119l43 401h56l-42 -379q-10 -75 -1 -103t49 -28q11 0 23 2.5t25 8.5t23.5 11.5t24 16t21.5 16t22 18l18.5 16.5t17.5 17l14 13l42 391h56l-58 -546h-56l10 98q-29 -30 -50 -48.5t-62.5 -39.5t-80.5 -21zM403 649q-19 0 -62 18t-61 18
q-36 0 -71 -24l-20 35q1 1 6 5l9.5 7.5t13 8.5t17.5 8.5t22.5 6t27.5 2.5q24 0 63.5 -18t59.5 -18q38 0 70 28l20 -36q-41 -41 -95 -41z" />
    <glyph glyph-name="Umacron" unicode="&#x16a;" horiz-adv-x="714" 
d="M330 -12q-54 0 -97 11t-81 37t-56 76t-10 121l50 474h61l-49 -467q-6 -60 6.5 -101t40.5 -61.5t59.5 -29t72.5 -8.5q92 0 151.5 50t72.5 175l46 442h56l-47 -445q-8 -79 -35.5 -135.5t-68 -85.5t-82.5 -41t-90 -12zM265 765l5 48h271l-5 -48h-271z" />
    <glyph glyph-name="umacron" unicode="&#x16b;" horiz-adv-x="543" 
d="M177 -11q-62 0 -83 37t-12 119l43 401h56l-42 -379q-10 -75 -1 -103t49 -28q11 0 23 2.5t25 8.5t23.5 11.5t24 16t21.5 16t22 18l18.5 16.5t17.5 17l14 13l42 391h56l-58 -546h-56l10 98q-29 -30 -50 -48.5t-62.5 -39.5t-80.5 -21zM179 675l5 48h271l-5 -48h-271z" />
    <glyph glyph-name="Ubreve" unicode="&#x16c;" horiz-adv-x="714" 
d="M330 -12q-54 0 -97 11t-81 37t-56 76t-10 121l50 474h61l-49 -467q-6 -60 6.5 -101t40.5 -61.5t59.5 -29t72.5 -8.5q92 0 151.5 50t72.5 175l46 442h56l-47 -445q-8 -79 -35.5 -135.5t-68 -85.5t-82.5 -41t-90 -12zM403 742q-103 0 -148 78l35 29q5 -8 16 -19.5
t40.5 -25.5t64.5 -14q79 0 132 58l27 -26q-3 -6 -8 -12t-19.5 -19.5t-32 -23t-46 -17.5t-61.5 -8z" />
    <glyph glyph-name="ubreve" unicode="&#x16d;" horiz-adv-x="543" 
d="M177 -11q-62 0 -83 37t-12 119l43 401h56l-42 -379q-10 -75 -1 -103t49 -28q11 0 23 2.5t25 8.5t23.5 11.5t24 16t21.5 16t22 18l18.5 16.5t17.5 17l14 13l42 391h56l-58 -546h-56l10 98q-29 -30 -50 -48.5t-62.5 -39.5t-80.5 -21zM318 652q-102 0 -148 78l35 29
q5 -8 16 -19.5t40.5 -25.5t64.5 -14q79 0 132 58l27 -26q-3 -6 -8 -12t-19.5 -19.5t-32 -23t-46 -17.5t-61.5 -8z" />
    <glyph glyph-name="Uring" unicode="&#x16e;" horiz-adv-x="714" 
d="M330 -12q-54 0 -97 11t-81 37t-56 76t-10 121l50 474h61l-49 -467q-6 -60 6.5 -101t40.5 -61.5t59.5 -29t72.5 -8.5q92 0 151.5 50t72.5 175l46 442h56l-47 -445q-8 -79 -35.5 -135.5t-68 -85.5t-82.5 -41t-90 -12zM397 702q-43 0 -73 23.5t-30 62.5q0 51 35.5 83.5
t86.5 32.5q41 0 71 -25t30 -63q0 -51 -34 -82.5t-86 -31.5zM399 737q32 0 53 20t21 52q0 26 -17.5 42.5t-43.5 16.5q-32 0 -53 -20t-21 -52q0 -27 17 -43t44 -16z" />
    <glyph glyph-name="uring" unicode="&#x16f;" horiz-adv-x="543" 
d="M177 -11q-62 0 -83 37t-12 119l43 401h56l-42 -379q-10 -75 -1 -103t49 -28q11 0 23 2.5t25 8.5t23.5 11.5t24 16t21.5 16t22 18l18.5 16.5t17.5 17l14 13l42 391h56l-58 -546h-56l10 98q-29 -30 -50 -48.5t-62.5 -39.5t-80.5 -21zM316 613q-43 0 -73 23.5t-30 62.5
q0 51 35.5 83.5t86.5 32.5q41 0 71 -25t30 -63q0 -51 -34 -82.5t-86 -31.5zM318 648q32 0 53 20t21 52q0 26 -17.5 42.5t-43.5 16.5q-32 0 -53 -20t-21 -52q0 -27 17 -43t44 -16z" />
    <glyph glyph-name="Uhungarumlaut" unicode="&#x170;" horiz-adv-x="714" 
d="M330 -12q-54 0 -97 11t-81 37t-56 76t-10 121l50 474h61l-49 -467q-6 -60 6.5 -101t40.5 -61.5t59.5 -29t72.5 -8.5q92 0 151.5 50t72.5 175l46 442h56l-47 -445q-8 -79 -35.5 -135.5t-68 -85.5t-82.5 -41t-90 -12zM266 738l-26 37l188 141l30 -50zM441 737l-13 43
l221 78l14 -57z" />
    <glyph glyph-name="uhungarumlaut" unicode="&#x171;" horiz-adv-x="543" 
d="M177 -11q-62 0 -83 37t-12 119l43 401h56l-42 -379q-10 -75 -1 -103t49 -28q11 0 23 2.5t25 8.5t23.5 11.5t24 16t21.5 16t22 18l18.5 16.5t17.5 17l14 13l42 391h56l-58 -546h-56l10 98q-29 -30 -50 -48.5t-62.5 -39.5t-80.5 -21zM193 619l-20 39l195 131l28 -51z
M420 624l-25 36l194 136l32 -47z" />
    <glyph glyph-name="Uogonek" unicode="&#x172;" horiz-adv-x="714" 
d="M346 -217q-107 0 -97 100q5 52 77 105q-53 0 -96 11.5t-80 37.5t-54.5 76t-9.5 120l50 474h61l-49 -467q-6 -60 6.5 -101t40.5 -61.5t59.5 -29t72.5 -8.5q92 0 151.5 50t72.5 175l46 442h56l-47 -445q-22 -217 -186 -262q-110 -66 -115 -114q-4 -31 12.5 -42.5
t51.5 -11.5q27 0 39 8l11 -44q-22 -13 -73 -13z" />
    <glyph glyph-name="uogonek" unicode="&#x173;" horiz-adv-x="543" 
d="M342 -217q-107 0 -97 100q6 66 116 130l9 85q-29 -30 -50 -48.5t-62.5 -39.5t-80.5 -21q-62 0 -83 37t-12 119l43 401h56l-42 -379q-10 -75 -1 -103t49 -28q11 0 23 2.5t25 8.5t23.5 11.5t24 16t21.5 16t22 18l18.5 16.5t17.5 17l14 13l42 391h56l-59 -546
q-40 -23 -75.5 -54.5t-38.5 -59.5q-4 -31 12.5 -42.5t51.5 -11.5q27 0 39 8l11 -44q-22 -13 -73 -13z" />
    <glyph glyph-name="Wcircumflex" unicode="&#x174;" horiz-adv-x="873" 
d="M139 0l-101 707h61l89 -661l245 515l-28 146h62l125 -665l260 665h59l-278 -707h-88l-97 475l-226 -475h-83zM582 737l-135 73l-156 -72l-16 42l177 85l155 -86z" />
    <glyph glyph-name="wcircumflex" unicode="&#x175;" horiz-adv-x="757" 
d="M145 0l-97 546h62l82 -516l190 322l-34 194h62l79 -516l158 333q46 97 46 169q0 10 -1 14h57v-12q0 -75 -48 -175l-171 -359h-89l-47 281l-164 -281h-85zM257 626l-23 39l185 111l154 -111l-25 -39l-136 90z" />
    <glyph glyph-name="Ycircumflex" unicode="&#x176;" horiz-adv-x="495" 
d="M173 0l29 284l-177 423h65l149 -371l243 371h63l-283 -423l-30 -284h-59zM430 737l-135 73l-156 -72l-16 42l177 85l155 -86z" />
    <glyph glyph-name="ycircumflex" unicode="&#x177;" horiz-adv-x="457" 
d="M70 -220l106 220h-41l-87 546h62l77 -517l160 334q20 42 33.5 91t13.5 80q0 2 -0.5 6t-0.5 6h57v-12q0 -76 -47 -175l-275 -579h-58zM107 626l-23 39l185 111l154 -111l-25 -39l-136 90z" />
    <glyph glyph-name="Ydieresis" unicode="&#x178;" horiz-adv-x="495" 
d="M173 0l29 284l-177 423h65l149 -371l243 371h63l-283 -423l-30 -284h-59zM184 751l-42 50l52 48l43 -48zM381 751l-42 50l52 48l44 -48z" />
    <glyph glyph-name="Zacute" unicode="&#x179;" horiz-adv-x="514" 
d="M-10 0l6 60l443 590h-355l6 57h422l-5 -53l-446 -598h404l-6 -56h-469zM238 737l-13 43l221 78l14 -57z" />
    <glyph glyph-name="zacute" unicode="&#x17a;" horiz-adv-x="426" 
d="M-6 0l6 56l353 439h-280l5 51h343l-5 -53l-361 -443h319l-5 -50h-375zM218 622l-27 37l174 137l34 -46z" />
    <glyph glyph-name="Zdotaccent" unicode="&#x17b;" horiz-adv-x="514" 
d="M-10 0l6 60l443 590h-355l6 57h422l-5 -53l-446 -598h404l-6 -56h-469zM302 752l-49 53l61 52l51 -52z" />
    <glyph glyph-name="zdotaccent" unicode="&#x17c;" horiz-adv-x="426" 
d="M-6 0l6 56l353 439h-280l5 51h343l-5 -53l-361 -443h319l-5 -50h-375zM260 663l-49 53l61 52l51 -52z" />
    <glyph glyph-name="Zcaron" unicode="&#x17d;" horiz-adv-x="514" 
d="M-10 0l6 60l443 590h-355l6 57h422l-5 -53l-446 -598h404l-6 -56h-469zM300 737l-155 86l25 42l135 -73l155 72l17 -42z" />
    <glyph glyph-name="zcaron" unicode="&#x17e;" horiz-adv-x="426" 
d="M-6 0l6 56l353 439h-280l5 51h343l-5 -53l-361 -443h319l-5 -50h-375zM257 626l-155 111l26 39l135 -93l156 93l22 -39z" />
    <glyph glyph-name="florin" unicode="&#x192;" horiz-adv-x="432" 
d="M-32 -9l2 47q6 0 18 1q30 2 44.5 3.5t38 6t36.5 13.5t28 24t23.5 39t12.5 57l10 79h-104l5 50h106l6 45q8 61 32 102t61.5 60.5t74.5 26.5t86 7l-2 -48q-86 -8 -112 -18q-67 -25 -82 -121q-1 -5 -2 -11l-6 -43h111l-5 -50h-113l-11 -82q-6 -42 -20 -74.5t-36 -52.5
t-44.5 -33t-53 -18.5t-53 -7.5t-51.5 -2z" />
    <glyph glyph-name="uni01D4" unicode="&#x1d4;" horiz-adv-x="630" 
d="M177 -11q-53 0 -75.5 26.5t-22.5 82.5q0 22 3 47l43 401h56l-42 -379q-5 -47 -5 -68q0 -35 11.5 -49t41.5 -14q11 0 23 2.5t25 8.5t23.5 11.5t24 16t21.5 16t22 18l18.5 16.5t17.5 17l14 13l42 391h56l-58 -546h-56l10 98q-29 -30 -50 -48.5t-62.5 -39.5t-80.5 -21z
M304 626l-155 111l26 39l135 -93l156 93l22 -39z" />
    <glyph glyph-name="AEmacron" unicode="&#x1e2;" horiz-adv-x="889" 
d="M-48 0l474 707h428l-5 -50h-318l-29 -276h297l-6 -52h-296l-30 -279h342l-5 -50h-401l35 329h-204l-214 -329h-68zM268 381h175l29 276h-24zM508 765l5 48h271l-5 -48h-271z" />
    <glyph glyph-name="aemacron" unicode="&#x1e3;" horiz-adv-x="742" 
d="M146 -13q-49 0 -74 49t-25 128q0 165 89.5 275.5t222.5 110.5q42 0 90 -8l-9 -70q66 89 168 89q126 0 126 -119q0 -88 -132 -138l-188 -72q0 -6 -0.5 -16.5t-0.5 -15.5q0 -159 69 -159q54 0 171 54l21 -45l-15.5 -8t-17 -9t-16.5 -8.5t-18.5 -8.5l-18.5 -7t-21 -7
t-20.5 -5.5t-23 -5t-23.5 -2.5t-26 -1q-95 0 -112 129q-135 -130 -216 -130zM158 42q34 0 95.5 46.5t99.5 84.5l35 324l-49 2q-63 2 -118.5 -45.5t-86.5 -120.5t-31 -148q0 -84 14 -113.5t41 -29.5zM420 286l167 67q91 36 91 87q0 37 -21 53.5t-52 16.5q-44 0 -78.5 -19.5
t-55 -54t-32.5 -71t-19 -79.5zM335 675l5 48h271l-5 -48h-271z" />
    <glyph glyph-name="AEacute" unicode="&#x1fc;" horiz-adv-x="889" 
d="M-48 0l474 707h428l-5 -50h-318l-29 -276h297l-6 -52h-296l-30 -279h342l-5 -50h-401l35 329h-204l-214 -329h-68zM268 381h175l29 276h-24zM557 737l-13 43l221 78l14 -57z" />
    <glyph glyph-name="aeacute" unicode="&#x1fd;" horiz-adv-x="742" 
d="M146 -13q-49 0 -74 49t-25 128q0 165 89.5 275.5t222.5 110.5q42 0 90 -8l-9 -70q66 89 168 89q126 0 126 -119q0 -88 -132 -138l-188 -72q0 -6 -0.5 -16.5t-0.5 -15.5q0 -159 69 -159q54 0 171 54l21 -45l-15.5 -8t-17 -9t-16.5 -8.5t-18.5 -8.5l-18.5 -7t-21 -7
t-20.5 -5.5t-23 -5t-23.5 -2.5t-26 -1q-95 0 -112 129q-135 -130 -216 -130zM158 42q34 0 95.5 46.5t99.5 84.5l35 324l-49 2q-63 2 -118.5 -45.5t-86.5 -120.5t-31 -148q0 -84 14 -113.5t41 -29.5zM420 286l167 67q91 36 91 87q0 37 -21 53.5t-52 16.5q-44 0 -78.5 -19.5
t-55 -54t-32.5 -71t-19 -79.5zM416 622l-27 37l174 137l34 -46z" />
    <glyph glyph-name="Oslashacute" unicode="&#x1fe;" horiz-adv-x="779" 
d="M62 -25l-36 31l85 90q-59 83 -59 214q0 180 102.5 294t278.5 114q122 0 198 -68l76 80l37 -33l-79 -84q63 -85 63 -216q0 -181 -103.5 -294.5t-281.5 -113.5q-127 0 -201 71zM154 142l436 464q-64 59 -166 59q-146 0 -228.5 -100.5t-82.5 -252.5q0 -103 41 -170zM352 40
q149 0 231 102t82 256q0 100 -43 169l-438 -463q62 -64 168 -64zM322 737l-13 43l221 78l14 -57z" />
    <glyph glyph-name="oslashacute" unicode="&#x1ff;" horiz-adv-x="501" 
d="M11 -28l-34 29l82 96q-12 41 -12 78q0 174 74 279.5t190 105.5q63 0 104 -51l55 63l34 -28l-65 -77q17 -42 17 -88q0 -72 -14.5 -138.5t-44 -124.5t-82 -93t-120.5 -35q-73 0 -115 64zM109 154l269 312q-26 45 -89 45q-73 0 -128 -91.5t-55 -226.5zM212 38q77 0 131.5 93
t54.5 230q0 24 -4 54l-274 -317q23 -60 92 -60zM225 622l-27 37l174 137l34 -46z" />
    <glyph glyph-name="Scommaaccent" unicode="&#x218;" horiz-adv-x="466" 
d="M182 -11q-45 0 -102 14.5t-86 33.5l25 53q94 -46 167 -46q174 0 174 146q0 38 -29.5 70.5t-72 58t-85 54t-72 72t-29.5 97.5q0 82 61.5 126t153.5 44q49 0 96.5 -11t71.5 -26l-19 -50q-72 34 -153 34q-153 0 -153 -119q0 -33 21.5 -62.5t53 -51l69 -47.5t69 -50.5t53 -61
t21.5 -79.5q0 -94 -65.5 -146.5t-169.5 -52.5zM120 -259l46 201h54l-54 -201h-46z" />
    <glyph glyph-name="scommaaccent" unicode="&#x219;" horiz-adv-x="423" 
d="M168 -9q-87 0 -139 23l17 52q67 -24 126 -24q19 0 38.5 3.5t43 12t38 28t14.5 46.5q0 33 -22 61.5t-53 51l-62 46t-53 56t-22 71.5q0 74 48 105.5t124 31.5q72 0 132 -29l-19 -45q-80 26 -128 26q-104 0 -104 -78q0 -33 22 -61t53.5 -50t62.5 -46t53 -58.5t22 -77.5
q0 -73 -57 -109t-135 -36zM104 -259l46 201h54l-54 -201h-46z" />
    <glyph glyph-name="uni021A" unicode="&#x21a;" horiz-adv-x="541" 
d="M212 0l68 654h-246l6 53h552l-6 -53h-246l-69 -654h-59zM171 -259l46 201h54l-54 -201h-46z" />
    <glyph glyph-name="uni021B" unicode="&#x21b;" horiz-adv-x="374" 
d="M174 -12q-47 0 -66 15q-36 30 -26 124l41 368h-80l5 51h80l11 112h56l-11 -112h177l-5 -51h-177l-40 -363q-6 -57 2 -74.5t41 -17.5q51 0 119 34l15 -47q-19 -12 -60 -25.5t-82 -13.5zM114 -259l46 201h54l-54 -201h-46z" />
    <glyph glyph-name="dotlessj" unicode="&#x237;" horiz-adv-x="264" 
d="M-64 -220q-35 0 -62 10l13 51q33 -10 60 -10q63 0 87.5 37t32.5 111l60 567h56l-60 -568q-11 -108 -59.5 -153t-127.5 -45z" />
    <glyph glyph-name="schwa" unicode="&#x259;" horiz-adv-x="435" 
d="M279 560q63 0 91 -56.5t28 -145.5q0 -159 -67.5 -265t-185.5 -106q-63 0 -94.5 33.5t-31.5 85.5q0 88 132 138l188 72q1 10 1 31q0 160 -68 160q-65 0 -173 -54l-20 45q84 44 130 54q35 8 70 8zM334 262l-168 -67q-91 -36 -91 -87q0 -37 21 -53.5t52 -16.5q149 0 186 224
z" />
    <glyph glyph-name="circumflex" unicode="&#x2c6;" horiz-adv-x="536" 
d="M147 626l-23 39l185 111l154 -111l-25 -39l-136 90z" />
    <glyph glyph-name="caron" unicode="&#x2c7;" horiz-adv-x="536" 
d="M330 626l-155 111l26 39l135 -93l156 93l22 -39z" />
    <glyph glyph-name="breve" unicode="&#x2d8;" horiz-adv-x="496" 
d="M335 652q-103 0 -148 78l35 29q5 -8 16 -19.5t40.5 -25.5t64.5 -14q79 0 132 58l27 -26q-3 -6 -8 -12t-19.5 -19.5t-32 -23t-46 -17.5t-61.5 -8z" />
    <glyph glyph-name="dotaccent" unicode="&#x2d9;" horiz-adv-x="273" 
d="M170 663l-49 53l61 52l51 -52z" />
    <glyph glyph-name="ring" unicode="&#x2da;" horiz-adv-x="532" 
d="M333 613q-43 0 -73 23.5t-30 62.5q0 51 35.5 83.5t86.5 32.5q41 0 71 -25t30 -63q0 -51 -34 -82.5t-86 -31.5zM335 648q32 0 53 20t21 52q0 26 -17.5 42.5t-43.5 16.5q-32 0 -53 -20t-21 -52q0 -27 17 -43t44 -16z" />
    <glyph glyph-name="ogonek" unicode="&#x2db;" horiz-adv-x="561" 
d="M438 -160l11 -44q-32 -13 -78 -13t-69.5 24t-23.5 65q0 89 168 169l23 -31q-135 -75 -135 -129q0 -50 53 -50q22 0 51 9z" />
    <glyph glyph-name="tilde" unicode="&#x2dc;" horiz-adv-x="536" 
d="M400 649q-19 0 -62 18t-61 18q-37 0 -71 -24l-20 35q1 1 6 5l9.5 7.5t13 8.5t17.5 8.5t22.5 6t27.5 2.5q24 0 63.5 -18t59.5 -18q38 0 70 28l20 -36q-41 -41 -95 -41z" />
    <glyph glyph-name="hungarumlaut" unicode="&#x2dd;" horiz-adv-x="549" 
d="M144 619l-20 39l195 131l28 -51zM371 624l-25 36l194 136l32 -47z" />
    <glyph glyph-name="uni0374" unicode="&#x374;" horiz-adv-x="147" 
d="M42 572q37 91 44 193h65q-1 -20 -3 -38t-7 -35.5t-8 -29t-11 -27.5t-10.5 -22t-12 -22.5t-10.5 -18.5h-47z" />
    <glyph glyph-name="uni0375" unicode="&#x375;" horiz-adv-x="147" 
d="M31 -121q40 97 44 192h66q-1 -17 -3 -34.5t-4.5 -29.5t-7.5 -28l-7.5 -23.5t-10 -22.5l-9.5 -19t-10.5 -19t-9.5 -16h-48z" />
    <glyph glyph-name="uni037E" unicode="&#x37e;" horiz-adv-x="300" 
d="M65 -122q33 83 37 123l7 61h58l-3 -26q-9 -85 -52 -158h-47zM142 475l8 71h70l-8 -71h-70z" />
    <glyph glyph-name="tonos" unicode="&#x384;" horiz-adv-x="467" 
d="M342 624l97 158h66l-109 -158h-54z" />
    <glyph glyph-name="dieresistonos" unicode="&#x385;" horiz-adv-x="428" 
d="M34 629l-43 47l53 48l43 -48zM102 624l97 158h66l-109 -158h-54zM281 629l-42 47l52 48l43 -48z" />
    <glyph glyph-name="Alphatonos" unicode="&#x386;" horiz-adv-x="611" 
d="M-32 0l352 707h97l144 -707h-62l-55 279h-276l-138 -279h-62zM193 330h241l-60 306l-9 44l-22 -45zM2 540l97 158h66l-109 -158h-54z" />
    <glyph glyph-name="anoteleia" unicode="&#x387;" horiz-adv-x="278" 
d="M139 299l-49 53l61 52l51 -52z" />
    <glyph glyph-name="Epsilontonos" unicode="&#x388;" horiz-adv-x="562" 
d="M75 0l75 707h377l-5 -50h-318l-29 -276h296l-5 -52h-296l-30 -279h342l-5 -50h-402zM-66 540l97 158h66l-109 -158h-54z" />
    <glyph glyph-name="Etatonos" unicode="&#x389;" horiz-adv-x="742" 
d="M75 0l75 707h59l-34 -327h398l34 328h60l-74 -708h-60l35 329h-398l-35 -329h-60zM-47 540l97 158h66l-109 -158h-54z" />
    <glyph glyph-name="Iotatonos" unicode="&#x38a;" horiz-adv-x="285" 
d="M75 0l75 707h59l-74 -707h-60zM-67 540l97 158h66l-109 -158h-54z" />
    <glyph glyph-name="Omicrontonos" unicode="&#x38c;" horiz-adv-x="779" 
d="M343 -11q-141 0 -216 87t-75 234q0 180 102.5 294t278.5 114q141 0 218 -87.5t77 -233.5q0 -181 -103.5 -294.5t-281.5 -113.5zM352 40q149 0 231 102t82 256q0 122 -62 194.5t-179 72.5q-146 0 -228.5 -100.5t-82.5 -252.5q0 -122 60.5 -197t178.5 -75zM-35 540l97 158
h66l-109 -158h-54z" />
    <glyph glyph-name="Upsilontonos" unicode="&#x38e;" horiz-adv-x="495" 
d="M181 0l29 284l-177 423h65l149 -371l243 371h63l-283 -423l-30 -284h-59zM-157 540l97 158h66l-109 -158h-54z" />
    <glyph glyph-name="Omegatonos" unicode="&#x38f;" horiz-adv-x="796" 
d="M41 0l5 55h182q-66 34 -115 108t-49 177q0 166 106 272t274 106q146 0 221 -87t75 -224q0 -114 -64 -211.5t-168 -140.5h190l-5 -55h-263l5 55q242 133 242 349q0 119 -61 190t-181 71q-146 0 -228.5 -95t-82.5 -235q0 -164 180 -280l-5 -55h-258zM-43 541l97 158h66
l-109 -158h-54z" />
    <glyph glyph-name="iotadieresistonos" unicode="&#x390;" horiz-adv-x="264" 
d="M70 0l57 546h56l-57 -546h-56zM65 635l-43 47l53 48l43 -48zM133 630l97 158h66l-109 -158h-54zM312 635l-42 47l52 48l43 -48z" />
    <glyph glyph-name="Alpha" unicode="&#x391;" horiz-adv-x="611" 
d="M-32 0l352 707h97l144 -707h-62l-55 279h-276l-138 -279h-62zM193 330h241l-60 306l-9 44l-22 -45z" />
    <glyph glyph-name="Beta" unicode="&#x392;" horiz-adv-x="606" 
d="M75 0l75 707h180q192 0 192 -155q0 -61 -33 -111.5t-91 -64.5l1 -3q60 -5 98 -47.5t38 -103.5q0 -111 -66.5 -166.5t-182.5 -55.5h-211zM141 51h132q97 0 148.5 35.5t51.5 129.5q0 30 -9 52t-27.5 35t-36 20.5t-47 11t-46.5 4t-48 0.5h-88zM177 390h108q86 0 129 36
t43 122q0 68 -39.5 90t-113.5 22h-99z" />
    <glyph glyph-name="Gamma" unicode="&#x393;" horiz-adv-x="426" 
d="M75 0l75 707h307l-6 -50h-247l-69 -657h-60z" />
    <glyph glyph-name="Delta" unicode="&#x394;" horiz-adv-x="635" 
d="M53 52h464l-132 585l-9 44l-21 -45zM-35 0l365 707h97l163 -707h-625z" />
    <glyph glyph-name="Epsilon" unicode="&#x395;" horiz-adv-x="562" 
d="M75 0l75 707h377l-5 -50h-318l-29 -276h296l-5 -52h-296l-30 -279h342l-5 -50h-402z" />
    <glyph glyph-name="Zeta" unicode="&#x396;" horiz-adv-x="514" 
d="M-10 0l6 60l443 590h-355l6 57h422l-5 -53l-446 -598h404l-6 -56h-469z" />
    <glyph glyph-name="Eta" unicode="&#x397;" horiz-adv-x="742" 
d="M75 0l75 707h59l-34 -327h398l34 328h60l-74 -708h-60l35 329h-398l-35 -329h-60z" />
    <glyph glyph-name="Theta" unicode="&#x398;" horiz-adv-x="779" 
d="M343 -11q-141 0 -216 87t-75 234q0 180 102.5 294t278.5 114q141 0 218 -87.5t77 -233.5q0 -181 -103.5 -294.5t-281.5 -113.5zM352 40q149 0 231 102t82 256q0 122 -62 194.5t-179 72.5q-146 0 -228.5 -100.5t-82.5 -252.5q0 -122 60.5 -197t178.5 -75zM243 329l5 52
h287l-5 -52h-287z" />
    <glyph glyph-name="Iota" unicode="&#x399;" horiz-adv-x="285" 
d="M75 0l75 707h59l-74 -707h-60z" />
    <glyph glyph-name="Kappa" unicode="&#x39a;" horiz-adv-x="588" 
d="M483 -21l-274 386l2 20l308 322h77l-320 -326l258 -367zM75 0l75 707h59l-74 -707h-60z" />
    <glyph glyph-name="Lambda" unicode="&#x39b;" horiz-adv-x="598" 
d="M-25 0l337 707h97l134 -707h-61l-115 634l-9 44l-22 -45l-300 -633h-61z" />
    <glyph glyph-name="Mu" unicode="&#x39c;" horiz-adv-x="866" 
d="M-4 0l225 707h88l57 -683l310 683h88l-35 -707h-60l36 643l-291 -643h-105l-54 644l-200 -644h-59z" />
    <glyph glyph-name="Nu" unicode="&#x39d;" horiz-adv-x="726" 
d="M75 0l76 707h99l272 -685l70 685h59l-77 -707h-105l-264 668l-70 -668h-60z" />
    <glyph glyph-name="Xi" unicode="&#x39e;" horiz-adv-x="556" 
d="M4 0l6 55h452l-6 -55h-452zM71 327l6 56h388l-6 -56h-388zM83 652l6 55h432l-6 -55h-432z" />
    <glyph glyph-name="Omicron" unicode="&#x39f;" horiz-adv-x="779" 
d="M343 -11q-141 0 -216 87t-75 234q0 180 102.5 294t278.5 114q141 0 218 -87.5t77 -233.5q0 -181 -103.5 -294.5t-281.5 -113.5zM352 40q149 0 231 102t82 256q0 122 -62 194.5t-179 72.5q-146 0 -228.5 -100.5t-82.5 -252.5q0 -122 60.5 -197t178.5 -75z" />
    <glyph glyph-name="Pi" unicode="&#x3a0;" horiz-adv-x="724" 
d="M75 0l75 707h499l-75 -707h-60l69 653h-379l-69 -653h-60z" />
    <glyph glyph-name="Rho" unicode="&#x3a1;" horiz-adv-x="560" 
d="M75 0l75 707h219q92 0 145 -46.5t53 -137.5q0 -126 -80.5 -188.5t-209.5 -60.5h-14l6 51q233 -2 233 195q0 138 -160 138h-137l-69 -658h-61z" />
    <glyph glyph-name="Sigma" unicode="&#x3a3;" horiz-adv-x="556" 
d="M8 0l6 63l241 288l-176 302l6 54h451l-5 -49h-386l178 -308l-247 -295h396l-6 -55h-458z" />
    <glyph glyph-name="Tau" unicode="&#x3a4;" horiz-adv-x="541" 
d="M212 0l68 654h-246l6 53h552l-6 -53h-246l-69 -654h-59z" />
    <glyph glyph-name="Upsilon" unicode="&#x3a5;" horiz-adv-x="495" 
d="M173 0l29 284l-177 423h65l149 -371l243 371h63l-283 -423l-30 -284h-59z" />
    <glyph glyph-name="Phi" unicode="&#x3a6;" horiz-adv-x="786" 
d="M325 0l9 85q-131 0 -206.5 63.5t-75.5 191.5q0 153 94 237t247 84l8 76h60l-8 -76q132 0 207 -63.5t75 -192.5q0 -153 -94 -236.5t-247 -83.5l-9 -85h-60zM339 136l49 474q-129 0 -203 -69t-74 -193q0 -104 59.5 -158t168.5 -54zM399 136q128 0 202 69.5t74 193.5
q0 104 -59 157.5t-168 53.5z" />
    <glyph glyph-name="Chi" unicode="&#x3a7;" horiz-adv-x="555" 
d="M-41 0l289 376l-157 331h65l132 -285l211 285h65l-253 -331l181 -376h-65l-155 325l-244 -325h-69z" />
    <glyph glyph-name="Psi" unicode="&#x3a8;" horiz-adv-x="712" 
d="M289 0l18 169q-52 5 -93 18t-79 38t-56 70.5t-12 108.5l30 303h61l-29 -296q-5 -52 8.5 -89.5t43.5 -58t60.5 -30t70.5 -14.5l52 488h59l-51 -487q213 29 232 215l26 272h56l-25 -276q-24 -238 -295 -263l-17 -168h-60z" />
    <glyph glyph-name="Omega" unicode="&#x3a9;" horiz-adv-x="796" 
d="M41 0l5 55h182q-66 34 -115 108t-49 177q0 166 106 272t274 106q146 0 221 -87t75 -224q0 -114 -64 -211.5t-168 -140.5h190l-5 -55h-263l5 55q242 133 242 349q0 119 -61 190t-181 71q-146 0 -228.5 -95t-82.5 -235q0 -164 180 -280l-5 -55h-258z" />
    <glyph glyph-name="Iotadieresis" unicode="&#x3aa;" horiz-adv-x="285" 
d="M75 0l75 707h59l-74 -707h-60zM85 751l-42 50l52 48l43 -48zM282 751l-42 50l52 48l44 -48z" />
    <glyph glyph-name="Upsilondieresis" unicode="&#x3ab;" horiz-adv-x="495" 
d="M173 0l29 284l-177 423h65l149 -371l243 371h63l-283 -423l-30 -284h-59zM181 751l-42 50l52 48l43 -48zM378 751l-42 50l52 48l44 -48z" />
    <glyph glyph-name="alphatonos" unicode="&#x3ac;" horiz-adv-x="521" 
d="M146 -13q-50 0 -76 44t-26 115q0 64 17.5 133.5t49 130.5t82 100.5t109.5 39.5q51 0 90 -47l5 43h54l-57 -546h-57l12 107q-67 -61 -115 -90.5t-88 -29.5zM158 42q34 0 97 47t100 84l30 270q-41 56 -89 56q-55 0 -101.5 -59t-70 -138t-23.5 -150q0 -49 14.5 -79.5
t42.5 -30.5zM303 634l97 158h66l-109 -158h-54z" />
    <glyph glyph-name="epsilontonos" unicode="&#x3ad;" horiz-adv-x="434" 
d="M215 -12q-85 0 -129.5 38t-44.5 103q0 120 116 168q-33 12 -54 40.5t-21 64.5q0 66 52.5 111.5t143.5 45.5q79 0 133 -34l-23 -41q-54 28 -114 28q-133 0 -133 -107q0 -43 29.5 -64t68.5 -21h68l-5 -49h-73q-52 0 -90.5 -35.5t-38.5 -96.5q0 -99 121 -99q63 0 161 39
l19 -45q-99 -46 -186 -46zM246 632l97 158h66l-109 -158h-54z" />
    <glyph glyph-name="etatonos" unicode="&#x3ae;" horiz-adv-x="544" 
d="M338 -219l66 600q7 59 7 78q0 28 -12 39t-44 11q-15 0 -45 -16.5t-55 -34.5l-54.5 -40.5l-33.5 -25.5l-42 -392h-56l57 546h57l-10 -98q1 1 18.5 16l25 21l26 20t32 21.5t31.5 16.5t35.5 13t34.5 4q52 0 71.5 -20.5t19.5 -66.5q0 -17 -6 -79l-67 -613h-56zM286 634
l97 158h66l-109 -158h-54z" />
    <glyph glyph-name="iotatonos" unicode="&#x3af;" horiz-adv-x="264" 
d="M70 0l57 546h56l-57 -546h-56zM135 631l97 158h66l-109 -158h-54z" />
    <glyph glyph-name="upsilondieresistonos" unicode="&#x3b0;" 
d="M228 -11q-67 0 -110.5 36t-43.5 123q0 11 2 37l38 361h54l-38 -355q-2 -26 -2 -35q0 -66 28.5 -91.5t77.5 -25.5q58 0 93 37t45 133l36 337h54l-36 -340q-6 -62 -26 -106t-48.5 -67.5t-58.5 -33.5t-65 -10zM186 629l-43 47l53 48l43 -48zM254 624l97 158h66l-109 -158
h-54zM433 629l-42 47l52 48l43 -48z" />
    <glyph glyph-name="alpha" unicode="&#x3b1;" horiz-adv-x="521" 
d="M146 -13q-50 0 -76 44t-26 115q0 64 17.5 133.5t49 130.5t82 100.5t109.5 39.5q51 0 90 -47l5 43h54l-57 -546h-57l12 107q-67 -61 -115 -90.5t-88 -29.5zM158 42q34 0 97 47t100 84l30 270q-41 56 -89 56q-55 0 -101.5 -59t-70 -138t-23.5 -150q0 -49 14.5 -79.5
t42.5 -30.5z" />
    <glyph glyph-name="beta" unicode="&#x3b2;" horiz-adv-x="538" 
d="M50 -220l80 761q12 108 73 170.5t146 62.5q139 0 139 -130q0 -71 -39.5 -136t-97.5 -82q62 6 102 -28t40 -106q0 -123 -67.5 -211.5t-175.5 -88.5q-77 0 -122 27l-25 -239h-53zM256 41q78 0 128.5 70t50.5 169q0 49 -21.5 76t-53.5 33.5t-83 4.5l-3 40q65 7 110.5 68.5
t45.5 137.5q0 46 -24 66t-73 20q-60 0 -99 -49t-50 -134l-51 -470q58 -32 123 -32z" />
    <glyph glyph-name="gamma" unicode="&#x3b3;" horiz-adv-x="435" 
d="M124 -220l26 220l-108 546h62l68 -376l15 -103l45 104l93 192q20 42 33.5 91t13.5 80q0 7 -1 12h56v-12q0 -74 -48 -175l-174 -359l-26 -220h-55z" />
    <glyph glyph-name="delta" unicode="&#x3b4;" horiz-adv-x="503" 
d="M206 -12q-72 0 -115.5 50t-43.5 137q0 128 56.5 215t149.5 123q-37 24 -59.5 51.5t-22.5 67.5q0 73 50.5 107.5t131.5 34.5q75 0 140 -28l-16 -46q-74 26 -136 26q-56 0 -86.5 -21.5t-30.5 -61.5q0 -20 5.5 -35.5t20.5 -30t24 -22t35 -24l34 -21.5q50 -34 79 -78t29 -117
q0 -156 -74.5 -241.5t-170.5 -85.5zM218 38q53 0 95 45t61.5 105t19.5 118q0 73 -25 110t-78 70q-90 -38 -138 -120t-48 -180q0 -70 25.5 -109t87.5 -39z" />
    <glyph glyph-name="epsilon" unicode="&#x3b5;" horiz-adv-x="434" 
d="M215 -12q-85 0 -129.5 38t-44.5 103q0 120 116 168q-33 12 -54 40.5t-21 64.5q0 66 52.5 111.5t143.5 45.5q79 0 133 -34l-23 -41q-54 28 -114 28q-133 0 -133 -107q0 -43 29.5 -64t68.5 -21h68l-5 -49h-73q-52 0 -90.5 -35.5t-38.5 -96.5q0 -99 121 -99q63 0 161 39
l19 -45q-99 -46 -186 -46z" />
    <glyph glyph-name="zeta" unicode="&#x3b6;" horiz-adv-x="434" 
d="M336 -159l-44 9q52 85 52 128q0 22 -18 22q-24 0 -66 -6t-65 -6q-70 0 -111.5 37t-41.5 114q0 69 26 143.5t66.5 137t91 121t97 99.5t87.5 68h-275l5 46h336l-6 -51q-63 -45 -123.5 -103t-118 -130.5t-93 -157.5t-35.5 -164q0 -56 25 -81.5t77 -25.5q30 0 73 6.5t71 6.5
q49 0 49 -59q0 -67 -59 -154z" />
    <glyph glyph-name="eta" unicode="&#x3b7;" horiz-adv-x="544" 
d="M338 -219l66 600q7 59 7 78q0 28 -12 39t-44 11q-15 0 -45 -16.5t-55 -34.5l-54.5 -40.5l-33.5 -25.5l-42 -392h-56l57 546h57l-10 -98q1 1 18.5 16l25 21l26 20t32 21.5t31.5 16.5t35.5 13t34.5 4q52 0 71.5 -20.5t19.5 -66.5q0 -17 -6 -79l-67 -613h-56z" />
    <glyph glyph-name="theta" unicode="&#x3b8;" horiz-adv-x="508" 
d="M207 -12q-76 0 -113.5 56t-37.5 153q0 73 8 148.5t27.5 153.5t48 138.5t74.5 98.5t102 38q73 0 111.5 -53.5t38.5 -145.5q0 -47 -2.5 -94.5t-9.5 -107.5t-18.5 -112t-31.5 -103.5t-46.5 -88t-65 -59t-85.5 -22.5zM220 38q49 0 86 51t56.5 121.5t31.5 160.5h-269
q-10 -84 -10 -168q0 -82 24.5 -123.5t80.5 -41.5zM132 418h267q8 73 8 151q0 80 -23.5 118.5t-76.5 38.5q-46 0 -82.5 -45.5t-58 -111t-34.5 -151.5z" />
    <glyph glyph-name="iota" unicode="&#x3b9;" horiz-adv-x="264" 
d="M70 0l57 546h56l-57 -546h-56z" />
    <glyph glyph-name="kappa" unicode="&#x3ba;" horiz-adv-x="478" 
d="M389 -17l-201 308l203 255h70l-205 -255l186 -278zM70 0l57 546h56l-57 -546h-56z" />
    <glyph glyph-name="lambda" unicode="&#x3bb;" horiz-adv-x="459" 
d="M413 -9q-43 3 -63 33t-29 83l-49 303l-14 98l-44 -102l-184 -406h-61l259 546h22l-14 86q-8 50 -22.5 72t-52.5 22q-30 0 -73 -18l-8 45q51 22 85 22q104 0 121 -109l88 -544q7 -47 20 -63t36 -23z" />
    <glyph glyph-name="mugreek" unicode="&#x3bc;" horiz-adv-x="543" 
d="M44 -220l81 766h56l-42 -380q-10 -76 -0.5 -104t49.5 -28q32 0 67.5 21.5t76 58.5t44.5 40l42 392h56l-58 -546h-56l10 98q-9 -7 -37.5 -33t-46.5 -40t-49 -27.5t-62 -12.5q-35 2 -54 8l-22 -213h-55z" />
    <glyph glyph-name="nu" unicode="&#x3bd;" horiz-adv-x="457" 
d="M142 0l-94 546h62l79 -516l158 333q47 101 47 171q0 2 -0.5 6t-0.5 6h56v-12q0 -74 -48 -175l-171 -359h-88z" />
    <glyph glyph-name="xi" unicode="&#x3be;" horiz-adv-x="453" 
d="M332 -159l-44 9q52 85 52 128q0 22 -20 22q-65 0 -112.5 8t-86.5 28t-59 57.5t-20 92.5q0 86 56 146.5t151 80.5q-65 21 -100.5 66.5t-35.5 99.5q0 91 67 139t167 48q57 0 112 -24l-8 -45q-49 21 -103 21q-78 0 -128.5 -32t-50.5 -99q0 -61 45.5 -104t127.5 -44l-9 -47
q-118 -21 -175 -68.5t-57 -128.5q0 -40 13.5 -68t32 -42.5t54.5 -22t64 -9t77 -1.5t49 -57q0 -67 -59 -154z" />
    <glyph glyph-name="omicron" unicode="&#x3bf;" horiz-adv-x="501" 
d="M195 -12q-68 0 -108 54.5t-40 132.5q0 176 73.5 280.5t190.5 104.5q69 0 107 -54.5t38 -126.5t-14.5 -138.5t-44 -124.5t-82 -93t-120.5 -35zM212 38q77 0 131.5 93t54.5 230q0 77 -25 113.5t-84 36.5q-75 0 -129 -94t-54 -224q0 -155 106 -155z" />
    <glyph glyph-name="pi" unicode="&#x3c0;" horiz-adv-x="537" 
d="M77 0l52 490h-69l6 56h453l-5 -56h-61l-53 -490h-56l53 490h-212l-52 -490h-56z" />
    <glyph glyph-name="rho" unicode="&#x3c1;" horiz-adv-x="559" 
d="M34 -220l43 401q22 205 89.5 292t173.5 87q62 0 103.5 -43.5t41.5 -127.5q0 -105 -29.5 -194.5t-89 -146.5t-137.5 -57q-67 0 -114 32l-25 -243h-56zM225 41q68 0 116 55.5t67.5 131.5t19.5 161q0 57 -25 89.5t-72 32.5q-81 0 -129.5 -78.5t-68.5 -246.5l-13 -109
q55 -36 105 -36z" />
    <glyph glyph-name="sigma1" unicode="&#x3c2;" horiz-adv-x="438" 
d="M343 -159l-44 9q52 85 52 128q0 22 -18 22q-28 0 -78 -6t-80 -6q-128 0 -128 205q0 99 30.5 182t91 134t138.5 51q74 0 122 -50l-35 -34q-42 35 -93 35q-57 0 -97.5 -33.5t-60 -87.5t-28 -106t-8.5 -105q0 -139 83 -139q30 0 82.5 7t80.5 7q49 0 49 -59q0 -67 -59 -154z
" />
    <glyph glyph-name="sigma" unicode="&#x3c3;" horiz-adv-x="549" 
d="M196 -12q-67 0 -108 53t-41 135q0 74 17.5 141.5t51.5 122t90.5 86t126.5 28.5l191 -8l-8 -50l-92 4q37 -62 37 -149q0 -157 -72.5 -260t-192.5 -103zM213 38q47 0 85 30t60.5 77.5t34.5 99.5t12 101q0 105 -43 156l-36 2q-72 4 -123.5 -41.5t-74 -115.5t-22.5 -154
q0 -155 107 -155z" />
    <glyph glyph-name="tau" unicode="&#x3c4;" horiz-adv-x="388" 
d="M133 0l52 494h-147l5 52h350l-5 -52h-147l-52 -494h-56z" />
    <glyph glyph-name="upsilon" unicode="&#x3c5;" 
d="M228 -11q-67 0 -110.5 36t-43.5 123q0 11 2 37l38 361h54l-38 -355q-2 -26 -2 -35q0 -66 28.5 -91.5t77.5 -25.5q58 0 93 37t45 133l36 337h54l-36 -340q-6 -62 -26 -106t-48.5 -67.5t-58.5 -33.5t-65 -10z" />
    <glyph glyph-name="phi" unicode="&#x3c6;" horiz-adv-x="605" 
d="M224 -220l22 213q-89 1 -144 53t-55 139q0 159 68.5 253.5t189.5 112.5l12 107h55l-11 -103q90 -1 144.5 -53t54.5 -131q0 -67 -13 -126.5t-42 -113t-80.5 -89t-122.5 -45.5l-23 -217h-55zM251 38l50 469q-92 -14 -143.5 -98t-51.5 -206q0 -70 34 -116t111 -49zM307 42
q88 16 141.5 101t53.5 208q0 151 -146 159z" />
    <glyph glyph-name="chi" unicode="&#x3c7;" horiz-adv-x="424" 
d="M357 -225q-51 12 -72 44t-44 124l-44 175l-183 -338h-62l223 400l-75 256q-18 63 -58 75l19 50q41 -8 59.5 -32.5t32.5 -74.5l60 -210l166 302h63l-208 -364l63 -222q22 -79 35.5 -103.5t39.5 -32.5z" />
    <glyph glyph-name="psi" unicode="&#x3c8;" horiz-adv-x="656" 
d="M240 -220l23 219q-96 3 -147.5 58.5t-38.5 174.5l33 314h54l-33 -308q-11 -101 23.5 -145t113.5 -47l65 612h55l-65 -612q77 3 122.5 52.5t57.5 157.5l31 290h53l-31 -293q-27 -247 -238 -254l-23 -219h-55z" />
    <glyph glyph-name="omega" unicode="&#x3c9;" horiz-adv-x="641" 
d="M166 -8q-58 0 -88.5 45.5t-30.5 121.5q0 244 164 387h65q-169 -137 -169 -371q0 -29 2 -48.5t9 -40.5t22 -32t39 -11q40 0 70 42t38 117l17 158h55l-15 -154q-2 -30 -2 -48q0 -115 60 -115q40 0 69 30t42 76.5t18.5 87t5.5 77.5q0 138 -78 232h67q70 -107 70 -214
q0 -85 -19.5 -159.5t-66.5 -127.5t-113 -53q-37 0 -66 29.5t-30 80.5q-22 -54 -60 -82t-75 -28z" />
    <glyph glyph-name="iotadieresis" unicode="&#x3ca;" horiz-adv-x="264" 
d="M70 0l57 546h56l-57 -546h-56zM73 668l-43 47l53 48l43 -48zM260 668l-42 47l52 48l43 -48z" />
    <glyph glyph-name="upsilondieresis" unicode="&#x3cb;" 
d="M228 -11q-67 0 -110.5 36t-43.5 123q0 11 2 37l38 361h54l-38 -355q-2 -26 -2 -35q0 -66 28.5 -91.5t77.5 -25.5q58 0 93 37t45 133l36 337h54l-36 -340q-6 -62 -26 -106t-48.5 -67.5t-58.5 -33.5t-65 -10zM204 668l-43 47l53 48l43 -48zM391 668l-42 47l52 48l43 -48z
" />
    <glyph glyph-name="omicrontonos" unicode="&#x3cc;" horiz-adv-x="501" 
d="M195 -12q-68 0 -108 54.5t-40 132.5q0 176 73.5 280.5t190.5 104.5q69 0 107 -54.5t38 -126.5t-14.5 -138.5t-44 -124.5t-82 -93t-120.5 -35zM212 38q77 0 131.5 93t54.5 230q0 77 -25 113.5t-84 36.5q-75 0 -129 -94t-54 -224q0 -155 106 -155zM283 632l97 158h66
l-109 -158h-54z" />
    <glyph glyph-name="upsilontonos" unicode="&#x3cd;" 
d="M228 -11q-67 0 -110.5 36t-43.5 123q0 11 2 37l38 361h54l-38 -355q-2 -26 -2 -35q0 -66 28.5 -91.5t77.5 -25.5q58 0 93 37t45 133l36 337h54l-36 -340q-6 -62 -26 -106t-48.5 -67.5t-58.5 -33.5t-65 -10zM268 631l97 158h66l-109 -158h-54z" />
    <glyph glyph-name="omegatonos" unicode="&#x3ce;" horiz-adv-x="641" 
d="M166 -8q-58 0 -88.5 45.5t-30.5 121.5q0 244 164 387h65q-169 -137 -169 -371q0 -29 2 -48.5t9 -40.5t22 -32t39 -11q40 0 70 42t38 117l17 158h55l-15 -154q-2 -30 -2 -48q0 -115 60 -115q40 0 69 30t42 76.5t18.5 87t5.5 77.5q0 138 -78 232h67q70 -107 70 -214
q0 -85 -19.5 -159.5t-66.5 -127.5t-113 -53q-37 0 -66 29.5t-30 80.5q-22 -54 -60 -82t-75 -28zM335 624l97 158h66l-109 -158h-54z" />
    <glyph glyph-name="beta1" unicode="&#x3d0;" horiz-adv-x="507" 
d="M219 -12q-177 0 -144 316l24 237q11 108 72.5 170.5t146.5 62.5q139 0 139 -130q0 -111 -113 -185q57 -7 87.5 -51.5t30.5 -115.5q0 -123 -68 -213.5t-175 -90.5zM225 36q78 0 128.5 72.5t50.5 171.5q0 72 -22 105t-81 33q-18 0 -43 -7.5t-39 -13.5t-48.5 -23t-37.5 -18
l-5 -48q-28 -272 97 -272zM138 403q64 28 84 36q177 79 177 201q0 46 -24 66t-73 20q-60 0 -99 -49t-50 -134z" />
    <glyph glyph-name="uni03D8" unicode="&#x3d8;" horiz-adv-x="714" 
d="M232 -166l27 156q-99 9 -164 71t-65 193q0 107 32.5 197t87 148.5t125 91t147.5 32.5q119 0 190.5 -68.5t71.5 -200.5q0 -107 -31 -194.5t-82.5 -143t-113.5 -87.5t-129 -39l-27 -156h-69zM303 38q58 0 114.5 26t103.5 75.5t76 130t29 180.5q0 106 -54 164t-160 58
q-148 0 -236 -119.5t-88 -291.5q0 -64 18.5 -109.5t51 -69t68 -34t77.5 -10.5z" />
    <glyph glyph-name="uni03D9" unicode="&#x3d9;" horiz-adv-x="506" 
d="M185 -182l18 175q-77 6 -122.5 57.5t-45.5 136.5q0 121 71.5 194.5t174.5 73.5q90 0 142.5 -51.5t52.5 -142.5q0 -110 -63 -185.5t-154 -81.5l-21 -176h-53zM236 39q85 0 134 64t49 152q0 66 -36 108.5t-110 42.5q-49 0 -86 -19.5t-57.5 -52t-30.5 -68.5t-10 -74
q0 -67 36 -110t111 -43z" />
    <glyph glyph-name="uni03DA" unicode="&#x3da;" horiz-adv-x="557" 
d="M576 668l-25 -48q-98 43 -199 43q-57 0 -100 -21.5t-67.5 -60.5t-36.5 -87.5t-12 -106.5q0 -55 18.5 -93t48 -57t64.5 -31t69.5 -21.5t62 -22.5t42.5 -39.5t11 -67.5q-13 -126 -288 -196l-9 46l43 13.5t47.5 15.5t42.5 15.5t42 20t31.5 23t25.5 29t10 33.5q3 27 -13.5 44
t-45 27t-64 19t-71 24.5t-65.5 38t-48.5 64.5t-18.5 100q0 153 75 249t212 96q140 0 218 -49z" />
    <glyph glyph-name="uni03DB" unicode="&#x3db;" horiz-adv-x="500" 
d="M476 509l-24 -46q-78 34 -160 34q-60 0 -101.5 -41.5t-58 -97.5t-16.5 -120q0 -144 126 -162q68 -8 100.5 -33t26.5 -78q-12 -114 -221 -117l4 43q160 1 168 74q3 30 -21.5 44.5t-84.5 22.5q-152 21 -152 198q0 83 24.5 152.5t79 116t131.5 46.5q104 0 179 -36z" />
    <glyph glyph-name="uni03DC" unicode="&#x3dc;" horiz-adv-x="471" 
d="M75 0l75 707h321l-5 -50h-262l-31 -296h240l-5 -53h-241l-32 -308h-60z" />
    <glyph glyph-name="uni03DD" unicode="&#x3dd;" horiz-adv-x="330" 
d="M12 -220l55 542h-80l5 50h81l23 222q14 180 210 180q41 0 85 -14l-15 -46q-44 12 -82 12q-70 0 -104 -29.5t-40 -96.5l-24 -228h118l-4 -50h-119l-56 -542h-53z" />
    <glyph glyph-name="uni03DE" unicode="&#x3de;" horiz-adv-x="453" 
d="M130 -124l213 396h-343l231 458l58 8l-206 -421h342l-234 -425z" />
    <glyph glyph-name="uni03DF" unicode="&#x3df;" horiz-adv-x="452" 
d="M162 -42l182 337h-325l200 363l59 6l-175 -315h326l-204 -379z" />
    <glyph glyph-name="uni03E0" unicode="&#x3e0;" horiz-adv-x="600" 
d="M398 -73l-26 36q169 118 180 292v3l-438 -255l-17 49l447 263q-7 53 -41 95l-486 -285l-22 50l466 269q-28 20 -74 34t-87 14q-82 0 -174 -47l-21 39q95 59 205 59q137 0 216 -74.5t79 -188.5q0 -108 -68.5 -212t-138.5 -141z" />
    <glyph glyph-name="uni03E1" unicode="&#x3e1;" horiz-adv-x="600" 
d="M398 -73l-26 36q169 118 180 292v3l-438 -255l-17 49l447 263q-7 53 -41 95l-486 -285l-22 50l466 269q-28 20 -74 34t-87 14q-82 0 -174 -47l-21 39q95 59 205 59q137 0 216 -74.5t79 -188.5q0 -108 -68.5 -212t-138.5 -141z" />
    <glyph glyph-name="uni0400" unicode="&#x400;" horiz-adv-x="562" 
d="M75 0l75 707h377l-5 -50h-318l-29 -276h296l-5 -52h-296l-30 -279h342l-5 -50h-402zM419 736l-207 66l25 58l198 -80z" />
    <glyph glyph-name="afii10023" unicode="&#x401;" horiz-adv-x="562" 
d="M75 0l75 707h377l-5 -50h-318l-29 -276h296l-5 -52h-296l-30 -279h342l-5 -50h-402zM250 751l-42 50l52 48l43 -48zM447 751l-42 50l52 48l44 -48z" />
    <glyph glyph-name="afii10051" unicode="&#x402;" horiz-adv-x="720" 
d="M369 -220l-34 46q258 188 258 408q0 142 -130 142q-99 0 -194 -50l-35 -326h-59l68 654h-209l6 53h520l-6 -53h-251l-28 -271q122 45 208 45q88 0 130.5 -50.5t42.5 -138.5q0 -74 -25.5 -145t-69.5 -129t-91 -102.5t-101 -82.5z" />
    <glyph glyph-name="afii10052" unicode="&#x403;" horiz-adv-x="517" 
d="M75 0l75 707h387l-5 -53h-328l-69 -654h-60zM261 737l-13 43l221 78l14 -57z" />
    <glyph glyph-name="afii10053" unicode="&#x404;" horiz-adv-x="591" 
d="M362 -10q-143 0 -226.5 88t-83.5 234q0 179 103 290t280 111q97 0 158 -27l-22 -49q-63 23 -139 23q-135 0 -215.5 -75t-98.5 -203h393l-5 -53h-392v-16q0 -129 72.5 -198.5t200.5 -69.5q84 0 150 22l12 -52q-80 -25 -187 -25z" />
    <glyph glyph-name="afii10054" unicode="&#x405;" horiz-adv-x="466" 
d="M182 -11q-45 0 -102 14.5t-86 33.5l25 53q94 -46 167 -46q174 0 174 146q0 38 -29.5 70.5t-72 58t-85 54t-72 72t-29.5 97.5q0 82 61.5 126t153.5 44q49 0 96.5 -11t71.5 -26l-19 -50q-72 34 -153 34q-153 0 -153 -119q0 -33 21.5 -62.5t53 -51l69 -47.5t69 -50.5t53 -61
t21.5 -79.5q0 -94 -65.5 -146.5t-169.5 -52.5z" />
    <glyph glyph-name="afii10055" unicode="&#x406;" horiz-adv-x="285" 
d="M75 0l75 707h59l-74 -707h-60z" />
    <glyph glyph-name="afii10056" unicode="&#x407;" horiz-adv-x="285" 
d="M75 0l75 707h59l-74 -707h-60zM86 751l-42 50l52 48l43 -48zM283 751l-42 50l52 48l44 -48z" />
    <glyph glyph-name="afii10057" unicode="&#x408;" horiz-adv-x="284" 
d="M-57 -184l-23 44q91 48 127 112t48 179l59 556h59l-58 -554q-13 -128 -61.5 -209t-150.5 -128z" />
    <glyph glyph-name="afii10058" unicode="&#x409;" horiz-adv-x="948" 
d="M11 -22l-26 55q39 18 72.5 48t52.5 61q65 106 137 565h348l-69 -658h142q79 0 125.5 42t54.5 117q9 86 -39 121.5t-139 35.5h-67l5 52h68q126 0 186 -53t50 -161q-10 -90 -71 -146.5t-157 -56.5h-222l67 655h-231l-18.5 -100t-19 -98l-17 -83.5t-18.5 -82l-18.5 -66
t-21.5 -63t-23 -47.5q-55 -94 -151 -137z" />
    <glyph glyph-name="afii10059" unicode="&#x40a;" horiz-adv-x="967" 
d="M75 0l75 707h59l-32 -306h351l32 306h60l-69 -658h141q77 0 122 39.5t53 111.5q8 83 -38 116t-135 33h-66l5 52h66q124 0 183 -51t49 -155q-10 -87 -69.5 -141t-153.5 -54h-222l37 350h-351l-37 -350h-60z" />
    <glyph glyph-name="afii10060" unicode="&#x40b;" horiz-adv-x="735" 
d="M175 0l68 654h-209l6 53h520l-6 -53h-251l-27 -271q108 45 211 45q195 0 176 -182l-26 -246h-59l27 257q4 40 -10 66.5t-42.5 37t-49.5 13.5t-49 3q-35 0 -87 -13.5t-97 -37.5l-36 -326h-59z" />
    <glyph glyph-name="afii10061" unicode="&#x40c;" horiz-adv-x="588" 
d="M275 737l-13 43l221 78l14 -57zM483 -21l-274 386l2 20l308 322h77l-320 -326l258 -367zM75 0l75 707h59l-74 -707h-60z" />
    <glyph glyph-name="uni040D" unicode="&#x40d;" horiz-adv-x="762" 
d="M75 0l75 707h59l-54 -518l-14 -110l69 107l417 521h60l-74 -707h-60l54 518l14 110l-41 -62l-445 -566h-60zM497 736l-207 66l25 58l198 -80z" />
    <glyph glyph-name="afii10062" unicode="&#x40e;" horiz-adv-x="553" 
d="M117 -9l-19 55q51 17 86.5 46t67.5 92l19 34h-35l-187 489h66l174 -451l226 451h63l-277 -537q-44 -84 -81.5 -118.5t-102.5 -60.5zM315 760q-102 0 -151 79l39 33q40 -58 117 -58q75 0 126 58l33 -33q-66 -79 -164 -79z" />
    <glyph glyph-name="afii10145" unicode="&#x40f;" horiz-adv-x="745" 
d="M280 -153l16 153h-221l74 707h60l-68 -655h382l68 655h59l-73 -707h-222l-15 -153h-60z" />
    <glyph glyph-name="afii10017" unicode="&#x410;" horiz-adv-x="611" 
d="M-32 0l352 707h97l144 -707h-62l-55 279h-276l-138 -279h-62zM193 330h241l-60 306l-9 44l-22 -45z" />
    <glyph glyph-name="afii10018" unicode="&#x411;" horiz-adv-x="618" 
d="M75 0l73 707h399l-5 -49h-339l-63 -609h150q80 0 126.5 42t54.5 117q8 86 -39.5 121.5t-138.5 35.5h-77l5 52h78q126 0 186 -53t49 -161q-9 -90 -70 -146.5t-157 -56.5h-232z" />
    <glyph glyph-name="afii10019" unicode="&#x412;" horiz-adv-x="606" 
d="M75 0l75 707h180q192 0 192 -155q0 -61 -33 -111.5t-91 -64.5l1 -3q60 -5 98 -47.5t38 -103.5q0 -111 -66.5 -166.5t-182.5 -55.5h-211zM141 51h132q97 0 148.5 35.5t51.5 129.5q0 30 -9 52t-27.5 35t-36 20.5t-47 11t-46.5 4t-48 0.5h-88zM177 390h108q86 0 129 36
t43 122q0 68 -39.5 90t-113.5 22h-99z" />
    <glyph glyph-name="afii10020" unicode="&#x413;" horiz-adv-x="517" 
d="M75 0l75 707h387l-5 -53h-328l-69 -654h-60z" />
    <glyph glyph-name="afii10021" unicode="&#x414;" horiz-adv-x="704" 
d="M-25 -153l21 205h57q36 56 106 196q8 16 25.5 73.5t43 166.5t42.5 219h340l-68 -655h87l-21 -205h-60l16 153h-515l-15 -153h-59zM122 52h360l62 603h-225q-19 -107 -43.5 -205.5t-37.5 -140.5t-20 -61q-31 -81 -96 -196z" />
    <glyph glyph-name="afii10022" unicode="&#x415;" horiz-adv-x="562" 
d="M75 0l75 707h377l-5 -50h-318l-29 -276h296l-5 -52h-296l-30 -279h342l-5 -50h-402z" />
    <glyph glyph-name="afii10024" unicode="&#x416;" horiz-adv-x="857" 
d="M42 -20l-53 37l312 366l-223 324h68l218 -326l-2 -19zM747 -20l-253 382l2 19l286 326h76l-300 -327l242 -363zM361 0l74 707h59l-73 -707h-60z" />
    <glyph glyph-name="afii10025" unicode="&#x417;" horiz-adv-x="514" 
d="M179 -8q-102 0 -185 39l25 51q72 -36 163 -36q79 0 131.5 34.5t60.5 111.5q8 73 -40 105t-136 32h-65l6 52h65q74 0 120.5 38t53.5 106q7 66 -27.5 101t-102.5 35q-57 0 -148 -32l-13 44q86 38 172 38q93 0 141.5 -48t40.5 -125q-5 -42 -21.5 -76t-39 -54.5t-38.5 -31
t-31 -16.5v-2q138 -36 125 -161q-4 -38 -20 -72.5t-45.5 -65t-79 -49t-112.5 -18.5z" />
    <glyph glyph-name="afii10026" unicode="&#x418;" horiz-adv-x="762" 
d="M75 0l75 707h59l-54 -518l-14 -110l69 107l417 521h60l-74 -707h-60l54 518l14 110l-41 -62l-445 -566h-60z" />
    <glyph glyph-name="afii10027" unicode="&#x419;" horiz-adv-x="762" 
d="M75 0l75 707h59l-54 -518l-14 -110l69 107l417 521h60l-74 -707h-60l54 518l14 110l-41 -62l-445 -566h-60zM429 760q-102 0 -151 79l39 33q40 -58 117 -58q75 0 126 58l33 -33q-66 -79 -164 -79z" />
    <glyph glyph-name="afii10028" unicode="&#x41a;" horiz-adv-x="588" 
d="M483 -21l-274 386l2 20l308 322h77l-320 -326l258 -367zM75 0l75 707h59l-74 -707h-60z" />
    <glyph glyph-name="afii10029" unicode="&#x41b;" horiz-adv-x="670" 
d="M11 -22l-26 55q39 18 72.5 48t52.5 61q65 106 137 565h348l-73 -707h-60l67 655h-231l-18.5 -100t-19 -98l-17 -83.5t-18.5 -82l-18.5 -66t-21.5 -63t-23 -47.5q-55 -94 -151 -137z" />
    <glyph glyph-name="afii10030" unicode="&#x41c;" horiz-adv-x="866" 
d="M-4 0l225 707h88l57 -683l310 683h88l-35 -707h-60l36 643l-291 -643h-105l-54 644l-200 -644h-59z" />
    <glyph glyph-name="afii10031" unicode="&#x41d;" horiz-adv-x="742" 
d="M75 0l75 707h59l-34 -327h398l34 328h60l-74 -708h-60l35 329h-398l-35 -329h-60z" />
    <glyph glyph-name="afii10032" unicode="&#x41e;" horiz-adv-x="779" 
d="M343 -11q-141 0 -216 87t-75 234q0 180 102.5 294t278.5 114q141 0 218 -87.5t77 -233.5q0 -181 -103.5 -294.5t-281.5 -113.5zM352 40q149 0 231 102t82 256q0 122 -62 194.5t-179 72.5q-146 0 -228.5 -100.5t-82.5 -252.5q0 -122 60.5 -197t178.5 -75z" />
    <glyph glyph-name="afii10033" unicode="&#x41f;" horiz-adv-x="732" 
d="M75 0l75 708h507l-74 -708h-60l69 656h-388l-69 -656h-60z" />
    <glyph glyph-name="afii10034" unicode="&#x420;" horiz-adv-x="560" 
d="M75 0l75 707h219q92 0 145 -46.5t53 -137.5q0 -126 -80.5 -188.5t-209.5 -60.5h-14l6 51q233 -2 233 195q0 138 -160 138h-137l-69 -658h-61z" />
    <glyph glyph-name="afii10035" unicode="&#x421;" horiz-adv-x="591" 
d="M362 -10q-143 0 -226.5 88t-83.5 234q0 179 103 290t280 111q97 0 158 -27l-22 -49q-63 23 -139 23q-152 0 -235 -95t-83 -252q0 -129 72.5 -198.5t200.5 -69.5q84 0 150 22l12 -52q-80 -25 -187 -25z" />
    <glyph glyph-name="afii10036" unicode="&#x422;" horiz-adv-x="541" 
d="M212 0l68 654h-246l6 53h552l-6 -53h-246l-69 -654h-59z" />
    <glyph glyph-name="afii10037" unicode="&#x423;" horiz-adv-x="553" 
d="M117 -9l-19 55q51 17 86.5 46t67.5 92l19 34h-35l-187 489h66l174 -451l226 451h63l-277 -537q-44 -84 -81.5 -118.5t-102.5 -60.5z" />
    <glyph glyph-name="afii10038" unicode="&#x424;" horiz-adv-x="786" 
d="M325 0l9 85q-131 0 -206.5 63.5t-75.5 191.5q0 153 94 237t247 84l8 76h60l-8 -76q132 0 207 -63.5t75 -192.5q0 -153 -94 -236.5t-247 -83.5l-9 -85h-60zM339 136l49 474q-129 0 -203 -69t-74 -193q0 -104 59.5 -158t168.5 -54zM399 136q128 0 202 69.5t74 193.5
q0 104 -59 157.5t-168 53.5z" />
    <glyph glyph-name="afii10039" unicode="&#x425;" horiz-adv-x="555" 
d="M-41 0l289 376l-157 331h65l132 -285l211 285h65l-253 -331l181 -376h-65l-155 325l-244 -325h-69z" />
    <glyph glyph-name="afii10040" unicode="&#x426;" horiz-adv-x="745" 
d="M589 -153l16 153h-530l74 707h60l-68 -655h382l68 655h59l-68 -655h88l-21 -205h-60z" />
    <glyph glyph-name="afii10041" unicode="&#x427;" horiz-adv-x="639" 
d="M431 0l34 334q-100 -45 -202 -45q-63 0 -104 16t-58.5 44t-22.5 57t-1 65l24 236h59l-25 -247q-4 -40 10 -66.5t41 -37t47 -13.5t43 -3q100 0 195 51l33 316h60l-74 -707h-59z" />
    <glyph glyph-name="afii10042" unicode="&#x428;" horiz-adv-x="983" 
d="M75 0l74 707h60l-68 -655h290l68 655h60l-68 -655h290l68 655h59l-73 -707h-760z" />
    <glyph glyph-name="afii10043" unicode="&#x429;" horiz-adv-x="1003" 
d="M847 -153l16 153h-788l74 707h60l-68 -655h290l68 655h60l-68 -655h290l68 655h59l-68 -655h88l-21 -205h-60z" />
    <glyph glyph-name="afii10044" unicode="&#x42a;" horiz-adv-x="642" 
d="M156 0l67 654h-189l6 53h249l-69 -658h142q79 0 125.5 42t54.5 117q9 86 -39 121.5t-139 35.5h-67l5 52h68q126 0 186 -53t50 -161q-10 -90 -71 -146.5t-157 -56.5h-222z" />
    <glyph glyph-name="afii10045" unicode="&#x42b;" horiz-adv-x="828" 
d="M75 0l73 707h60l-69 -658h142q79 0 125.5 42t54.5 117q9 86 -39 121.5t-139 35.5h-67l5 52h68q126 0 186 -53t50 -161q-10 -90 -71 -146.5t-157 -56.5h-222zM619 0l75 707h59l-74 -707h-60z" />
    <glyph glyph-name="afii10046" unicode="&#x42c;" horiz-adv-x="561" 
d="M75 0l73 707h60l-69 -658h142q79 0 125.5 42t54.5 117q9 86 -39 121.5t-139 35.5h-67l5 52h68q126 0 186 -53t50 -161q-10 -90 -71 -146.5t-157 -56.5h-222z" />
    <glyph glyph-name="afii10047" unicode="&#x42d;" horiz-adv-x="627" 
d="M183 -10q-132 0 -192 28l20 49q73 -25 160 -25q129 0 221.5 71.5t114.5 216.5h-377l6 52h376q6 144 -66.5 211.5t-190.5 67.5q-89 0 -181 -29l-11 51l5 2l10.5 4t15.5 5t21.5 6t28 5.5t33.5 4.5t39.5 3.5t46.5 1.5q164 0 245.5 -96t64.5 -260q-15 -159 -121 -264
t-269 -105z" />
    <glyph glyph-name="afii10048" unicode="&#x42e;" horiz-adv-x="1046" 
d="M610 -11q-141 0 -216 87t-75 234v19h-149l-35 -329h-60l75 707h59l-34 -327h148q19 152 119 245t258 93q141 0 218 -87.5t77 -233.5q0 -181 -103.5 -294.5t-281.5 -113.5zM619 40q149 0 231 102t82 256q0 122 -62 194.5t-179 72.5q-146 0 -228.5 -100.5t-82.5 -252.5
q0 -122 60.5 -197t178.5 -75z" />
    <glyph glyph-name="afii10049" unicode="&#x42f;" horiz-adv-x="632" 
d="M50 -17l-51 31l244 291q-66 16 -101 60t-35 107q0 109 69.5 172t166.5 63h214l-72 -707h-61l29 291h-103q-24 0 -42 2zM350 343h109l33 315h-133q-87 0 -138 -50t-51 -132q0 -73 46 -103t134 -30z" />
    <glyph glyph-name="afii10065" unicode="&#x430;" horiz-adv-x="521" 
d="M146 -13q-50 0 -76 44t-26 115q0 64 21.5 133.5t60 130.5t100.5 100.5t134 39.5q57 0 90 -7l-56 -543h-57l12 107q-67 -61 -115 -90.5t-88 -29.5zM158 42q34 0 97 47t100 84l35 325q-9 2 -41 2q-58 0 -107 -35t-78.5 -88.5t-46 -112.5t-16.5 -112q0 -49 14.5 -79.5
t42.5 -30.5z" />
    <glyph glyph-name="afii10066" unicode="&#x431;" horiz-adv-x="507" 
d="M200 -7q-68 0 -107 45.5t-39 125.5q0 143 37.5 284.5t97.5 213.5q51 62 297 109l10 -54q-13 -3 -62.5 -13t-80.5 -17.5t-68.5 -23t-56.5 -35.5q-49 -51 -86 -203l16.5 10.5l18 11.5t17.5 11t19.5 11.5l19.5 10.5t21.5 10l21 7.5t23 6.5t22.5 3.5t24 1.5q115 0 115 -155
q0 -90 -29.5 -171t-90 -135.5t-140.5 -54.5zM211 43q61 0 106.5 52t65 121t19.5 139q0 60 -17.5 81.5t-53.5 21.5q-70 0 -198 -88q-20 -110 -20 -200q0 -127 98 -127z" />
    <glyph glyph-name="afii10067" unicode="&#x432;" horiz-adv-x="479" 
d="M212 -12q-88 0 -126.5 46.5t-38.5 112.5q0 109 30 202t91.5 152.5t143.5 59.5q62 0 91.5 -33t29.5 -79q0 -95 -106 -141q99 -35 99 -127q0 -78 -56 -135.5t-158 -57.5zM212 39q74 0 115 39t41 93q0 94 -102 112l-156 -55q-5 -30 -5 -57q0 -66 24.5 -99t82.5 -33zM115 283
l118 39q79 29 110.5 57t31.5 61q0 35 -21 52.5t-55 17.5q-54 0 -94.5 -36.5t-60.5 -84.5t-29 -106z" />
    <glyph glyph-name="afii10068" unicode="&#x433;" horiz-adv-x="416" 
d="M162 -9q-55 0 -89.5 30.5t-34.5 84.5q0 31 11.5 57.5t39.5 52.5t46 40t58 41l51.5 36t39.5 32.5t32.5 39t9.5 38.5q0 64 -73 64q-10 0 -21 -2l-19 -3.5t-19.5 -7t-17.5 -8t-18 -10l-16 -10l-17.5 -11.5t-15.5 -11l-26 40q82 71 183 71q51 0 82 -27.5t31 -83.5
q0 -14 -2.5 -27t-9.5 -26l-11.5 -22t-18 -22t-19 -19.5t-23.5 -20l-23.5 -17.5l-26.5 -19l-25 -18q-33 -23 -49.5 -36t-38 -33t-31 -37.5t-9.5 -35.5q0 -40 20.5 -54.5t55.5 -14.5q58 0 170 81l28 -39q-43 -37 -99 -65t-105 -28z" />
    <glyph glyph-name="afii10069" unicode="&#x434;" horiz-adv-x="511" 
d="M195 -12q-68 0 -108 54.5t-40 132.5q0 169 64 253t162 84q61 0 133 -62q-2 121 -32.5 184.5t-108.5 63.5q-45 0 -119 -21l-9 47q82 25 141 25q185 0 185 -294q0 -52 -5 -106t-22.5 -121.5t-45.5 -118.5t-78.5 -86t-116.5 -35zM212 38q77 0 131.5 101.5t58.5 253.5
q-23 25 -61.5 45t-68.5 20q-77 0 -121.5 -69t-44.5 -196q0 -155 106 -155z" />
    <glyph glyph-name="afii10070" unicode="&#x435;" horiz-adv-x="433" 
d="M165 -12q-63 0 -91 56.5t-28 145.5q0 159 67.5 265t185.5 106q63 0 94.5 -33.5t31.5 -85.5q0 -88 -132 -138l-188 -72q-1 -10 -1 -31q0 -160 68 -160q65 0 173 54l20 -45q-84 -44 -130 -54q-35 -8 -70 -8zM110 286l168 67q91 36 91 87q0 37 -21 53.5t-52 16.5
q-149 0 -186 -224z" />
    <glyph glyph-name="afii10072" unicode="&#x436;" horiz-adv-x="716" 
d="M44 -17l-54 30l245 282l-168 251h71l161 -258zM300 0l57 546h57l-58 -546h-56zM620 -17l-201 305l213 258h71l-216 -258l186 -275z" />
    <glyph glyph-name="afii10073" unicode="&#x437;" horiz-adv-x="412" 
d="M149 -9q-79 0 -145 26l17 47q60 -23 120 -23q77 0 115.5 33t38.5 82q0 103 -155 106l-5 42q71 16 119 56t48 85q0 30 -24.5 44.5t-84.5 14.5q-51 0 -105 -15l-13 46q55 20 128 20q74 0 114.5 -28t40.5 -78q0 -46 -36 -88t-96 -67q121 -23 121 -135q0 -71 -53 -119.5
t-145 -48.5z" />
    <glyph glyph-name="afii10074" unicode="&#x438;" horiz-adv-x="543" 
d="M177 -11q-62 0 -83 37t-12 119l43 401h56l-42 -379q-10 -75 -1 -103t49 -28q11 0 23 2.5t25 8.5t23.5 11.5t24 16t21.5 16t22 18l18.5 16.5t17.5 17l14 13l42 391h56l-58 -546h-56l10 98q-29 -30 -50 -48.5t-62.5 -39.5t-80.5 -21z" />
    <glyph glyph-name="afii10075" unicode="&#x439;" horiz-adv-x="543" 
d="M177 -11q-62 0 -83 37t-12 119l43 401h56l-42 -379q-10 -75 -1 -103t49 -28q11 0 23 2.5t25 8.5t23.5 11.5t24 16t21.5 16t22 18l18.5 16.5t17.5 17l14 13l42 391h56l-58 -546h-56l10 98q-29 -30 -50 -48.5t-62.5 -39.5t-80.5 -21zM287 661q-46 0 -101 87l45 31
q46 -66 70 -66q67 0 152 68l23 -30q-103 -90 -189 -90z" />
    <glyph glyph-name="afii10076" unicode="&#x43a;" horiz-adv-x="485" 
d="M389 -17l-201 305l213 258h71l-216 -258l186 -275zM69 0l57 546h57l-58 -546h-56z" />
    <glyph glyph-name="afii10077" unicode="&#x43b;" horiz-adv-x="428" 
d="M8 0v11q0 78 48 176l188 359h102l14 -546h-58l-6 496h-25l-161 -313q-47 -96 -47 -172v-11h-55z" />
    <glyph glyph-name="afii10078" unicode="&#x43c;" horiz-adv-x="701" 
d="M20 0v11q0 77 33 176l121 359h93l34 -516l238 516h98l-57 -546h-56l54 517l-239 -517h-87l-37 516l-108 -333q-32 -98 -32 -172v-11h-55z" />
    <glyph glyph-name="afii10079" unicode="&#x43d;" horiz-adv-x="546" 
d="M69 0l59 546h56l-27 -246l239 19l25 227h56l-59 -546h-56l28 265l-239 -19l-26 -246h-56z" />
    <glyph glyph-name="afii10080" unicode="&#x43e;" horiz-adv-x="501" 
d="M195 -12q-68 0 -108 54.5t-40 132.5q0 176 73.5 280.5t190.5 104.5q69 0 107 -54.5t38 -126.5t-14.5 -138.5t-44 -124.5t-82 -93t-120.5 -35zM212 38q77 0 131.5 93t54.5 230q0 77 -25 113.5t-84 36.5q-75 0 -129 -94t-54 -224q0 -155 106 -155z" />
    <glyph glyph-name="afii10081" unicode="&#x43f;" horiz-adv-x="544" 
d="M69 0l57 546h57l-10 -98q1 1 18.5 16l25 21l26 20t32 21.5t31.5 16.5t35.5 13t34.5 4q49 0 70 -18.5t21 -55.5t-6 -92l-43 -394h-56l42 381q12 75 4.5 101.5t-53.5 26.5q-15 0 -45 -16.5t-55 -34.5l-54.5 -40.5l-33.5 -25.5l-42 -392h-56z" />
    <glyph glyph-name="afii10082" unicode="&#x440;" horiz-adv-x="535" 
d="M45 -220l83 766h55l-8 -85q119 85 204 85q115 0 115 -155q0 -54 -10.5 -108.5t-34 -107t-56.5 -93t-82.5 -65t-107.5 -24.5q-32 0 -78 8l-24 -221h-56zM210 43q50 0 90 24t65 61t41.5 85t23 92.5t6.5 86.5q0 60 -17.5 81.5t-53.5 21.5q-69 0 -197 -88l-37 -352l21 -4.5
t18.5 -4t17 -2.5t22.5 -1z" />
    <glyph glyph-name="afii10083" unicode="&#x441;" horiz-adv-x="438" 
d="M166 -12q-34 0 -58.5 20t-37 51.5t-18 62.5t-5.5 61q0 161 70.5 269t189.5 108q74 0 122 -50l-35 -34q-42 35 -93 35q-54 0 -94 -32t-60.5 -82.5t-30 -101t-9.5 -100.5q0 -72 18.5 -113t42.5 -41q77 0 190 60l21 -42q-37 -22 -60.5 -34t-66.5 -24.5t-86 -12.5z" />
    <glyph glyph-name="afii10084" unicode="&#x442;" horiz-adv-x="815" 
d="M69 0l57 546h57l-10 -97q2 1 16 13.5l20.5 18t22.5 17.5t26 18.5l26.5 16.5t29 14.5t27.5 8.5t28 4q56 0 73.5 -23.5t14.5 -77.5q113 101 193 101q48 0 68.5 -18.5t20 -55.5t-6.5 -92l-43 -394h-55l41 381q12 75 5 101.5t-54 26.5q-26 0 -88.5 -43.5t-86.5 -65.5
l-43 -400h-56l42 381q12 75 5 100.5t-53 25.5q-12 0 -39.5 -16t-52 -34l-53.5 -40t-34 -25l-42 -392h-56z" />
    <glyph glyph-name="afii10085" unicode="&#x443;" horiz-adv-x="457" 
d="M70 -220l106 220h-41l-87 546h62l77 -517l160 334q20 42 33.5 91t13.5 80q0 2 -0.5 6t-0.5 6h57v-12q0 -76 -47 -175l-275 -579h-58z" />
    <glyph glyph-name="afii10086" unicode="&#x444;" horiz-adv-x="657" 
d="M249 -220l22 208q-109 1 -166.5 56t-57.5 141q0 374 284 374l21 195h57l-21 -195q109 0 166.5 -55.5t57.5 -141.5q0 -179 -69.5 -276t-215.5 -98l-22 -208h-56zM276 38l50 473q-112 0 -166 -84.5t-54 -223.5q0 -25 3 -45.5t13.5 -44t28 -39t50 -26t75.5 -10.5zM332 37
q113 0 167 85t54 223q0 32 -6 56.5t-22 50.5t-52 41t-90 17z" />
    <glyph glyph-name="afii10087" unicode="&#x445;" horiz-adv-x="424" 
d="M-35 0l215 294l-109 252h60l86 -205l145 205h62l-186 -255l123 -291h-61l-98 242l-174 -242h-63z" />
    <glyph glyph-name="afii10088" unicode="&#x446;" horiz-adv-x="563" 
d="M438 -137l14 137q-42 0 -62.5 14t-21 36t1.5 48q-29 -30 -50 -48.5t-62.5 -39.5t-80.5 -21q-62 0 -83 37t-12 119l43 401h56l-42 -379q-10 -75 -1 -103t49 -28q11 0 23 2.5t25 8.5t23.5 11.5t24 16t21.5 16t22 18l18.5 16.5t17.5 17l14 13l42 391h56l-46 -430
q-5 -43 2.5 -54t47.5 -12h36l-20 -187h-56z" />
    <glyph glyph-name="afii10089" unicode="&#x447;" horiz-adv-x="490" 
d="M310 0l30 287q-104 -92 -188 -92q-46 0 -65.5 18.5t-19.5 55.5t5 92l19 185h56l-18 -172q-10 -87 -4 -104q7 -24 49 -24q37 0 172 97l20 203h55l-56 -546h-55z" />
    <glyph glyph-name="afii10090" unicode="&#x448;" horiz-adv-x="780" 
d="M170 -14q-48 0 -69 19t-21 55.5t8 91.5l59 394h55l-57 -381q-11 -75 -6 -101.5t45 -26.5q9 0 20.5 4t21.5 8.5t24 14.5l23 16t23.5 18.5l20 17.5l18.5 17t14 13l54 400h56l-53 -381q-11 -75 -6 -100.5t44 -25.5q40 0 169 115l42 392h56l-57 -546h-57l10 97l-31.5 -30
t-45.5 -40.5t-44.5 -26t-54.5 -14.5q-56 0 -73.5 23.5t-14.5 77.5q-3 -3 -20.5 -19l-25.5 -23t-26.5 -20.5t-32 -20.5t-32.5 -12.5t-36 -5.5z" />
    <glyph glyph-name="afii10091" unicode="&#x449;" horiz-adv-x="801" 
d="M676 -137l14 137q-42 0 -63 14t-21.5 35.5t1.5 47.5l-31.5 -30t-45.5 -40.5t-44.5 -26t-54.5 -14.5q-56 0 -73.5 23.5t-14.5 77.5q-3 -3 -20.5 -19l-25.5 -23t-26.5 -20.5t-32 -20.5t-32.5 -12.5t-36 -5.5q-48 0 -69 19t-21 55.5t8 91.5l59 394h55l-57 -381
q-11 -75 -6 -101.5t45 -26.5q9 0 20.5 4t21.5 8.5t24 14.5l23 16t23.5 18.5l20 17.5l18.5 17t14 13l54 400h56l-53 -381q-11 -75 -6 -100.5t44 -25.5q40 0 169 115l42 392h56l-45 -430q-5 -43 3 -54t50 -12h33l-20 -187h-56z" />
    <glyph glyph-name="afii10092" unicode="&#x44a;" horiz-adv-x="486" 
d="M220 -7q-55 0 -92.5 32.5t-37.5 106.5q0 94 36 179t107 184h-200l5 51h270l13 -30q-107 -118 -142 -220q98 80 167 80q95 0 95 -115q0 -118 -66.5 -193t-154.5 -75zM227 43q62 0 109 57t47 162q0 63 -51 63q-69 0 -167 -84q-17 -52 -17 -110q0 -88 79 -88z" />
    <glyph glyph-name="afii10093" unicode="&#x44b;" horiz-adv-x="653" 
d="M192 -7q-65 0 -132 25l82 528h55l-36 -250l56 40.5t50.5 26t60.5 13.5q95 0 95 -115q0 -119 -68 -193.5t-163 -74.5zM199 43q69 0 117.5 56.5t48.5 162.5q0 63 -51 63q-24 0 -57.5 -16t-50.5 -28l-54 -40l-28 -184q31 -14 75 -14zM471 0l57 546h56l-57 -546h-56z" />
    <glyph glyph-name="afii10094" unicode="&#x44c;" horiz-adv-x="468" 
d="M192 -7q-65 0 -132 25l82 528h55l-36 -250l56 40.5t50.5 26t60.5 13.5q95 0 95 -115q0 -119 -68 -193.5t-163 -74.5zM199 43q69 0 117.5 56.5t48.5 162.5q0 63 -51 63q-24 0 -57.5 -16t-50.5 -28l-54 -40l-28 -184q31 -14 75 -14z" />
    <glyph glyph-name="afii10095" unicode="&#x44d;" horiz-adv-x="421" 
d="M115 -12q-67 0 -115 44l24 43q54 -37 108 -37q60 0 108 59t67 154h-177l5 51h180q3 29 3 59q0 79 -19 114.5t-70 35.5q-61 0 -133 -37l-20 35q78 51 165 51q74 0 104.5 -52t30.5 -129q0 -72 -14.5 -138.5t-44 -124.5t-82 -93t-120.5 -35z" />
    <glyph glyph-name="afii10096" unicode="&#x44e;" horiz-adv-x="716" 
d="M410 -12q-68 0 -108 54.5t-40 132.5q0 46 4 81l-115 -10l-26 -246h-56l59 546h56l-27 -246l118 10q25 118 92 184t159 66q69 0 107 -54.5t38 -126.5t-14.5 -138.5t-44 -124.5t-82 -93t-120.5 -35zM427 38q77 0 131.5 93t54.5 230q0 77 -25 113.5t-84 36.5q-75 0 -129 -94
t-54 -224q0 -155 106 -155z" />
    <glyph glyph-name="afii10097" unicode="&#x44f;" horiz-adv-x="488" 
d="M62 -17l-54 30l200 212q-44 9 -84.5 44t-40.5 94q0 21 3.5 41.5t17 49t35.5 50t63.5 36.5t96.5 15q66 0 120 -19l-55 -536h-56l53 497q-36 8 -73 8q-67 0 -109 -33.5t-42 -103.5q0 -26 13 -47t29 -33t42.5 -21.5t40 -12l35.5 -6.5z" />
    <glyph glyph-name="uni0450" unicode="&#x450;" horiz-adv-x="433" 
d="M165 -12q-63 0 -91 56.5t-28 145.5q0 159 67.5 265t185.5 106q63 0 94.5 -33.5t31.5 -85.5q0 -88 -132 -138l-188 -72q-1 -10 -1 -31q0 -160 68 -160q65 0 173 54l20 -45q-84 -44 -130 -54q-35 -8 -70 -8zM110 286l168 67q91 36 91 87q0 37 -21 53.5t-52 16.5
q-149 0 -186 -224zM332 619l-168 122l34 45l162 -129z" />
    <glyph glyph-name="afii10071" unicode="&#x451;" horiz-adv-x="433" 
d="M165 -12q-63 0 -91 56.5t-28 145.5q0 159 67.5 265t185.5 106q63 0 94.5 -33.5t31.5 -85.5q0 -88 -132 -138l-188 -72q-1 -10 -1 -31q0 -160 68 -160q65 0 173 54l20 -45q-84 -44 -130 -54q-35 -8 -70 -8zM110 286l168 67q91 36 91 87q0 37 -21 53.5t-52 16.5
q-149 0 -186 -224zM204 668l-43 47l53 48l43 -48zM391 668l-42 47l52 48l43 -48z" />
    <glyph glyph-name="afii10099" unicode="&#x452;" horiz-adv-x="527" 
d="M267 -220l-44 37q71 79 126 218.5t55 268.5q0 67 -12 92.5t-47 25.5q-16 0 -45.5 -16.5t-55 -34.5t-54.5 -40.5l-33 -25.5l-32 -305h-56l61 581h-90l4 50h92l13 124h56l-13 -124h191l-5 -50h-192l-23 -220q1 1 18.5 16l25 21l26 20t32 21.5t31.5 16.5t35.5 13t34.5 4
q52 0 73.5 -39t21.5 -117q0 -147 -56.5 -289.5t-137.5 -247.5z" />
    <glyph glyph-name="afii10100" unicode="&#x453;" horiz-adv-x="416" 
d="M162 -9q-55 0 -89.5 30.5t-34.5 84.5q0 31 11.5 57.5t39.5 52.5t46 40t58 41l51.5 36t39.5 32.5t32.5 39t9.5 38.5q0 64 -73 64q-10 0 -21 -2l-19 -3.5t-19.5 -7t-17.5 -8t-18 -10l-16 -10l-17.5 -11.5t-15.5 -11l-26 40q82 71 183 71q51 0 82 -27.5t31 -83.5
q0 -14 -2.5 -27t-9.5 -26l-11.5 -22t-18 -22t-19 -19.5t-23.5 -20l-23.5 -17.5l-26.5 -19l-25 -18q-33 -23 -49.5 -36t-38 -33t-31 -37.5t-9.5 -35.5q0 -40 20.5 -54.5t55.5 -14.5q58 0 170 81l28 -39q-43 -37 -99 -65t-105 -28zM227 622l-27 37l174 137l34 -46z" />
    <glyph glyph-name="afii10101" unicode="&#x454;" horiz-adv-x="438" 
d="M166 -12q-34 0 -58.5 20t-37 51.5t-18 62.5t-5.5 61q0 161 70.5 269t189.5 108q74 0 122 -50l-35 -34q-42 35 -93 35q-75 0 -119 -56.5t-63 -142.5h212l-5 -50h-215q-4 -32 -4 -67q0 -72 18.5 -113t42.5 -41q77 0 190 60l21 -42q-37 -22 -60.5 -34t-66.5 -24.5t-86 -12.5
z" />
    <glyph glyph-name="afii10102" unicode="&#x455;" horiz-adv-x="423" 
d="M168 -9q-87 0 -139 23l17 52q67 -24 126 -24q19 0 38.5 3.5t43 12t38 28t14.5 46.5q0 33 -22 61.5t-53 51l-62 46t-53 56t-22 71.5q0 74 48 105.5t124 31.5q72 0 132 -29l-19 -45q-80 26 -128 26q-104 0 -104 -78q0 -33 22 -61t53.5 -50t62.5 -46t53 -58.5t22 -77.5
q0 -73 -57 -109t-135 -36z" />
    <glyph glyph-name="afii10103" unicode="&#x456;" horiz-adv-x="264" 
d="M70 0l57 546h56l-57 -546h-56zM164 663l-49 53l61 52l51 -52z" />
    <glyph glyph-name="afii10104" unicode="&#x457;" horiz-adv-x="264" 
d="M70 0l57 546h56l-57 -546h-56zM73 668l-43 47l53 48l43 -48zM260 668l-42 47l52 48l43 -48z" />
    <glyph glyph-name="afii10105" unicode="&#x458;" horiz-adv-x="264" 
d="M-64 -220q-35 0 -62 10l13 51q33 -10 60 -10q63 0 87.5 37t32.5 111l60 567h56l-60 -568q-11 -108 -59.5 -153t-127.5 -45zM164 663l-49 53l61 52l51 -52z" />
    <glyph glyph-name="afii10106" unicode="&#x459;" horiz-adv-x="644" 
d="M383 -7q-36 0 -85 10l-24 501h-13l-151 -321q-47 -99 -47 -172v-11h-55v11q0 78 48 176l175 359h91l18 -259q114 89 179 89q95 0 95 -115q0 -119 -68 -193.5t-163 -74.5zM390 43q69 0 117.5 56.5t48.5 162.5q0 63 -51 63q-24 0 -57.5 -16t-50.5 -28l-54 -40l14 -197
q9 -1 33 -1z" />
    <glyph glyph-name="afii10107" unicode="&#x45a;" horiz-adv-x="760" 
d="M484 -7q-69 0 -120 21l26 251l-239 -19l-26 -246h-56l59 546h56l-27 -246l239 19l25 227h56l-27 -252l57 41t52 27t61 14q95 0 95 -115q0 -119 -68 -193.5t-163 -74.5zM491 43q69 0 117.5 56.5t48.5 162.5q0 63 -51 63q-24 0 -57.5 -16t-50.5 -28l-54 -40l-20 -188
q25 -10 67 -10z" />
    <glyph glyph-name="afii10108" unicode="&#x45b;" horiz-adv-x="544" 
d="M69 0l61 581h-90l4 50h92l13 124h56l-13 -124h191l-5 -50h-192l-23 -220q1 1 18.5 16l25 21l26 20t32 21.5t31.5 16.5t35.5 13t34.5 4q49 0 70 -18.5t21 -55.5t-6 -92l-33 -307h-56l32 294q12 75 4.5 101.5t-53.5 26.5q-16 0 -45.5 -16.5t-55 -34.5t-54.5 -40.5
l-33 -25.5l-32 -305h-56z" />
    <glyph glyph-name="afii10109" unicode="&#x45c;" horiz-adv-x="485" 
d="M389 -17l-201 305l213 258h71l-216 -258l186 -275zM69 0l57 546h57l-58 -546h-56zM259 622l-27 37l174 137l34 -46z" />
    <glyph glyph-name="uni045D" unicode="&#x45d;" horiz-adv-x="543" 
d="M177 -11q-62 0 -83 37t-12 119l43 401h56l-42 -379q-10 -75 -1 -103t49 -28q11 0 23 2.5t25 8.5t23.5 11.5t24 16t21.5 16t22 18l18.5 16.5t17.5 17l14 13l42 391h56l-58 -546h-56l10 98q-29 -30 -50 -48.5t-62.5 -39.5t-80.5 -21zM340 619l-168 122l34 45l162 -129z" />
    <glyph glyph-name="afii10110" unicode="&#x45e;" horiz-adv-x="457" 
d="M236 661q-46 0 -101 87l45 31q46 -66 70 -66q67 0 152 68l23 -30q-103 -90 -189 -90zM70 -220l106 220h-41l-87 546h62l77 -517l160 334q20 42 33.5 91t13.5 80q0 2 -0.5 6t-0.5 6h57v-12q0 -76 -47 -175l-275 -579h-58z" />
    <glyph glyph-name="afii10193" unicode="&#x45f;" horiz-adv-x="543" 
d="M177 -11q-62 0 -83 37t-12 119l43 401h56l-42 -379q-10 -75 -1 -103t49 -28q11 0 23 2.5t25 8.5t23.5 11.5t24 16t21.5 16t22 18l18.5 16.5t17.5 17l14 13l42 391h56l-58 -546h-56l10 98q-29 -30 -50 -48.5t-62.5 -39.5t-80.5 -21zM240 -220l34 182h46l-19 -182h-61z" />
    <glyph glyph-name="afii10146" unicode="&#x462;" horiz-adv-x="613" 
d="M133 0l56 542h-198l6 52h198l12 113h59l-12 -113h230l-5 -51h-230l-52 -494h144q86 0 136 46.5t50 118.5q0 73 -48 104t-138 31h-69l6 52h70q125 0 183 -46t58 -139q0 -96 -65 -156t-166 -60h-225z" />
    <glyph glyph-name="afii10194" unicode="&#x463;" horiz-adv-x="468" 
d="M192 -7q-65 0 -132 25l74 476h-143l6 52h145l25 162h55l-24 -162h177l-6 -52h-179l-29 -198l56 40.5t50.5 26t60.5 13.5q95 0 95 -115q0 -119 -68 -193.5t-163 -74.5zM199 43q69 0 117.5 56.5t48.5 162.5q0 63 -51 63q-24 0 -57.5 -16t-50.5 -28l-54 -40l-28 -184
q31 -14 75 -14z" />
    <glyph glyph-name="afii10147" unicode="&#x472;" horiz-adv-x="779" 
d="M343 -11q-141 0 -216 87t-75 234q0 180 102.5 294t278.5 114q141 0 218 -87.5t77 -233.5q0 -181 -103.5 -294.5t-281.5 -113.5zM352 40q131 0 211 80.5t97 210.5h-547v-19q0 -122 60.5 -197t178.5 -75zM118 382h547v16q0 122 -62 194.5t-179 72.5q-128 0 -208 -78.5
t-98 -204.5z" />
    <glyph glyph-name="afii10195" unicode="&#x473;" horiz-adv-x="501" 
d="M195 -12q-68 0 -108 54.5t-40 132.5q0 176 73.5 280.5t190.5 104.5q69 0 107 -54.5t38 -126.5t-14.5 -138.5t-44 -124.5t-82 -93t-120.5 -35zM212 38q60 0 107.5 58.5t67.5 153.5h-278q-3 -28 -3 -57q0 -155 106 -155zM116 298h278q4 40 4 63q0 77 -25 113.5t-84 36.5
q-58 0 -105.5 -59.5t-67.5 -153.5z" />
    <glyph glyph-name="afii10148" unicode="&#x474;" horiz-adv-x="626" 
d="M219 0l-173 707h62l158 -669l248 480q82 161 152 205l41 -34q-64 -39 -128 -164l-273 -525h-87z" />
    <glyph glyph-name="afii10196" unicode="&#x475;" horiz-adv-x="457" 
d="M142 0l-94 546h62l79 -516l164 345q32 66 69 114.5t68 68.5l37 -33q-70 -45 -137 -190l-160 -335h-88z" />
    <glyph glyph-name="afii10050" unicode="&#x490;" horiz-adv-x="517" 
d="M75 0l75 707h327l16 161h60l-21 -214h-328l-69 -654h-60z" />
    <glyph glyph-name="afii10098" unicode="&#x491;" horiz-adv-x="427" 
d="M69 0l59 546h222l12 114h56l-17 -163h-222l-54 -497h-56z" />
    <glyph glyph-name="afii10798" unicode="&#x4d8;" horiz-adv-x="745" 
d="M331 -12q-137 0 -206 81t-69 220q0 19 8 93h575q7 128 -53 206t-184 78q-116 0 -265 -69l-11 47q149 73 291 73t212 -82t70 -221q0 -185 -96.5 -305.5t-271.5 -120.5zM340 39q133 0 203.5 78.5t89.5 213.5h-517q-1 -11 -1 -32q0 -117 54 -188.5t171 -71.5z" />
    <glyph glyph-name="afii10846" unicode="&#x4d9;" horiz-adv-x="433" 
d="M268 561q63 0 91 -56.5t28 -145.5q0 -159 -67.5 -265t-185.5 -106q-63 0 -94.5 33.5t-31.5 85.5q0 88 132 138l188 72q1 10 1 31q0 160 -68 160q-65 0 -173 -54l-20 45q84 44 130 54q35 8 70 8zM323 263l-168 -67q-91 -36 -91 -87q0 -37 21 -53.5t52 -16.5q149 0 186 224
z" />
    <glyph glyph-name="uni1E47" unicode="&#x1e47;" horiz-adv-x="544" 
d="M69 0l57 546h57l-10 -98q1 1 18.5 16l25 21l26 20t32 21.5t31.5 16.5t35.5 13t34.5 4q52 0 71.5 -20.5t19.5 -66.5q0 -17 -6 -79l-43 -394h-56l42 381q7 59 7 78q0 28 -12 39t-44 11q-15 0 -45 -16.5t-55 -34.5l-54.5 -40.5l-33.5 -25.5l-42 -392h-56zM228 -204l-49 53
l61 52l51 -52z" />
    <glyph glyph-name="uni1E63" unicode="&#x1e63;" horiz-adv-x="423" 
d="M168 -9q-87 0 -139 23l17 52q67 -24 126 -24q19 0 38.5 3.5t43 12t38 28t14.5 46.5q0 33 -22 61.5t-53 51l-62 46t-53 56t-22 71.5q0 74 48 105.5t124 31.5q72 0 132 -29l-19 -45q-80 26 -128 26q-104 0 -104 -78q0 -33 22 -61t53.5 -50t62.5 -46t53 -58.5t22 -77.5
q0 -73 -57 -109t-135 -36zM156 -204l-49 53l61 52l51 -52z" />
    <glyph glyph-name="Wgrave" unicode="&#x1e80;" horiz-adv-x="873" 
d="M139 0l-101 707h61l89 -661l245 515l-28 146h62l125 -665l260 665h59l-278 -707h-88l-97 475l-226 -475h-83zM530 736l-207 66l25 58l198 -80z" />
    <glyph glyph-name="wgrave" unicode="&#x1e81;" horiz-adv-x="757" 
d="M145 0l-97 546h62l82 -516l190 322l-34 194h62l79 -516l158 333q46 97 46 169q0 10 -1 14h57v-12q0 -75 -48 -175l-171 -359h-89l-47 281l-164 -281h-85zM446 619l-168 122l34 45l162 -129z" />
    <glyph glyph-name="Wacute" unicode="&#x1e82;" horiz-adv-x="873" 
d="M139 0l-101 707h61l89 -661l245 515l-28 146h62l125 -665l260 665h59l-278 -707h-88l-97 475l-226 -475h-83zM404 737l-13 43l221 78l14 -57z" />
    <glyph glyph-name="wacute" unicode="&#x1e83;" horiz-adv-x="757" 
d="M145 0l-97 546h62l82 -516l190 322l-34 194h62l79 -516l158 333q46 97 46 169q0 10 -1 14h57v-12q0 -75 -48 -175l-171 -359h-89l-47 281l-164 -281h-85zM359 622l-27 37l174 137l34 -46z" />
    <glyph glyph-name="Wdieresis" unicode="&#x1e84;" horiz-adv-x="873" 
d="M139 0l-101 707h61l89 -661l245 515l-28 146h62l125 -665l260 665h59l-278 -707h-88l-97 475l-226 -475h-83zM368 757l-43 47l53 48l43 -48zM555 757l-42 47l52 48l43 -48z" />
    <glyph glyph-name="wdieresis" unicode="&#x1e85;" horiz-adv-x="757" 
d="M145 0l-97 546h62l82 -516l190 322l-34 194h62l79 -516l158 333q46 97 46 169q0 10 -1 14h57v-12q0 -75 -48 -175l-171 -359h-89l-47 281l-164 -281h-85zM302 668l-43 47l53 48l43 -48zM489 668l-42 47l52 48l43 -48z" />
    <glyph glyph-name="uni1EBD" unicode="&#x1ebd;" horiz-adv-x="461" 
d="M165 -12q-63 0 -91 56.5t-28 145.5q0 159 67.5 265t185.5 106q63 0 94.5 -33.5t31.5 -85.5q0 -88 -132 -138l-188 -72q-1 -10 -1 -31q0 -160 68 -160q65 0 173 54l20 -45q-84 -44 -130 -54q-35 -8 -70 -8zM110 286l168 67q91 36 91 87q0 37 -21 53.5t-52 16.5
q-149 0 -186 -224zM358 649q-19 0 -62 18t-61 18q-37 0 -71 -24l-20 35q1 1 6 5l9.5 7.5t13 8.5t17.5 8.5t22.5 6t27.5 2.5q24 0 63.5 -18t59.5 -18q38 0 70 28l20 -36q-41 -41 -95 -41z" />
    <glyph glyph-name="Ygrave" unicode="&#x1ef2;" horiz-adv-x="495" 
d="M173 0l29 284l-177 423h65l149 -371l243 371h63l-283 -423l-30 -284h-59zM344 736l-207 66l25 58l198 -80z" />
    <glyph glyph-name="ygrave" unicode="&#x1ef3;" horiz-adv-x="457" 
d="M70 -220l106 220h-41l-87 546h62l77 -517l160 334q20 42 33.5 91t13.5 80q0 2 -0.5 6t-0.5 6h57v-12q0 -76 -47 -175l-275 -579h-58zM303 619l-168 122l34 45l162 -129z" />
    <glyph glyph-name="uni1F00" unicode="&#x1f00;" horiz-adv-x="521" 
d="M146 -13q-50 0 -76 44t-26 115q0 64 17.5 133.5t49 130.5t82 100.5t109.5 39.5q51 0 90 -47l5 43h54l-57 -546h-57l12 107q-67 -61 -115 -90.5t-88 -29.5zM158 42q34 0 97 47t100 84l30 270q-41 56 -89 56q-55 0 -101.5 -59t-70 -138t-23.5 -150q0 -49 14.5 -79.5
t42.5 -30.5zM299 633q30 53 30 116q0 19 -5 42h59q8 -29 8 -51q0 -59 -43 -107h-49z" />
    <glyph glyph-name="uni1F01" unicode="&#x1f01;" horiz-adv-x="521" 
d="M146 -13q-50 0 -76 44t-26 115q0 64 17.5 133.5t49 130.5t82 100.5t109.5 39.5q51 0 90 -47l5 43h54l-57 -546h-57l12 107q-67 -61 -115 -90.5t-88 -29.5zM158 42q34 0 97 47t100 84l30 270q-41 56 -89 56q-55 0 -101.5 -59t-70 -138t-23.5 -150q0 -49 14.5 -79.5
t42.5 -30.5zM322 633q-43 48 -43 107q0 22 8 51h59q-5 -23 -5 -42q0 -28 7.5 -57t15.5 -44l7 -15h-49z" />
    <glyph glyph-name="uni1F02" unicode="&#x1f02;" horiz-adv-x="521" 
d="M146 -13q-50 0 -76 44t-26 115q0 64 17.5 133.5t49 130.5t82 100.5t109.5 39.5q51 0 90 -47l5 43h54l-57 -546h-57l12 107q-67 -61 -115 -90.5t-88 -29.5zM158 42q34 0 97 47t100 84l30 270q-41 56 -89 56q-55 0 -101.5 -59t-70 -138t-23.5 -150q0 -49 14.5 -79.5
t42.5 -30.5zM222 633q30 53 30 116q0 19 -5 42h59q8 -29 8 -51q0 -59 -43 -107h-49zM416 633l-86 158h60l78 -158h-52z" />
    <glyph glyph-name="uni1F03" unicode="&#x1f03;" horiz-adv-x="521" 
d="M146 -13q-50 0 -76 44t-26 115q0 64 17.5 133.5t49 130.5t82 100.5t109.5 39.5q51 0 90 -47l5 43h54l-57 -546h-57l12 107q-67 -61 -115 -90.5t-88 -29.5zM158 42q34 0 97 47t100 84l30 270q-41 56 -89 56q-55 0 -101.5 -59t-70 -138t-23.5 -150q0 -49 14.5 -79.5
t42.5 -30.5zM253 633q-43 48 -43 107q0 22 8 51h59q-5 -23 -5 -42q0 -28 7.5 -57t14.5 -44l8 -15h-49zM382 633l-86 158h60l78 -158h-52z" />
    <glyph glyph-name="uni1F04" unicode="&#x1f04;" horiz-adv-x="521" 
d="M146 -13q-50 0 -76 44t-26 115q0 64 17.5 133.5t49 130.5t82 100.5t109.5 39.5q51 0 90 -47l5 43h54l-57 -546h-57l12 107q-67 -61 -115 -90.5t-88 -29.5zM158 42q34 0 97 47t100 84l30 270q-41 56 -89 56q-55 0 -101.5 -59t-70 -138t-23.5 -150q0 -49 14.5 -79.5
t42.5 -30.5zM257 633q30 53 30 116q0 19 -5 42h59q8 -29 8 -51q0 -59 -43 -107h-49zM345 633l78 158h60l-86 -158h-52z" />
    <glyph glyph-name="uni1F05" unicode="&#x1f05;" horiz-adv-x="521" 
d="M146 -13q-50 0 -76 44t-26 115q0 64 17.5 133.5t49 130.5t82 100.5t109.5 39.5q51 0 90 -47l5 43h54l-57 -546h-57l12 107q-67 -61 -115 -90.5t-88 -29.5zM158 42q34 0 97 47t100 84l30 270q-41 56 -89 56q-55 0 -101.5 -59t-70 -138t-23.5 -150q0 -49 14.5 -79.5
t42.5 -30.5zM286 633q-43 48 -43 107q0 22 8 51h59q-5 -23 -5 -42q0 -28 7.5 -57t15.5 -44l7 -15h-49zM357 633l78 158h60l-86 -158h-52z" />
    <glyph glyph-name="uni1F06" unicode="&#x1f06;" horiz-adv-x="521" 
d="M146 -13q-50 0 -76 44t-26 115q0 64 17.5 133.5t49 130.5t82 100.5t109.5 39.5q51 0 90 -47l5 43h54l-57 -546h-57l12 107q-67 -61 -115 -90.5t-88 -29.5zM158 42q34 0 97 47t100 84l30 270q-41 56 -89 56q-55 0 -101.5 -59t-70 -138t-23.5 -150q0 -49 14.5 -79.5
t42.5 -30.5zM424 794q-23 0 -62 18.5t-61 18.5q-35 0 -69 -24l-22 38l5 4l9.5 7.5t13 8t17.5 7.5t22.5 5.5t27.5 2.5q26 0 65 -18t58 -18q38 0 66 28l24 -36q-5 -6 -15 -14.5t-32.5 -18t-46.5 -9.5zM302 615q30 53 30 116q0 19 -5 42h59q8 -29 8 -51q0 -59 -43 -107h-49z
" />
    <glyph glyph-name="uni1F07" unicode="&#x1f07;" horiz-adv-x="521" 
d="M146 -13q-50 0 -76 44t-26 115q0 64 17.5 133.5t49 130.5t82 100.5t109.5 39.5q51 0 90 -47l5 43h54l-57 -546h-57l12 107q-67 -61 -115 -90.5t-88 -29.5zM158 42q34 0 97 47t100 84l30 270q-41 56 -89 56q-55 0 -101.5 -59t-70 -138t-23.5 -150q0 -49 14.5 -79.5
t42.5 -30.5zM393 794q-23 0 -62 18.5t-61 18.5q-35 0 -69 -24l-22 38l5 4l9.5 7.5t13 8t17.5 7.5t22.5 5.5t27.5 2.5q26 0 65 -18t58 -18q38 0 66 28l24 -36q-5 -6 -15 -14.5t-32.5 -18t-46.5 -9.5zM330 615q-43 48 -43 107q0 22 8 51h59q-5 -23 -5 -42q0 -28 7.5 -57
t15.5 -44l7 -15h-49z" />
    <glyph glyph-name="uni1F08" unicode="&#x1f08;" horiz-adv-x="611" 
d="M-32 0l352 707h97l144 -707h-62l-55 279h-276l-138 -279h-62zM193 330h241l-60 306l-9 44l-22 -45zM86 549q30 53 30 116q0 19 -5 42h59q8 -29 8 -51q0 -59 -43 -107h-49z" />
    <glyph glyph-name="uni1F09" unicode="&#x1f09;" horiz-adv-x="611" 
d="M-32 0l352 707h97l144 -707h-62l-55 279h-276l-138 -279h-62zM193 330h241l-60 306l-9 44l-22 -45zM98 549q-43 48 -43 107q0 22 8 51h59q-5 -23 -5 -42q0 -28 7.5 -57t15.5 -44l7 -15h-49z" />
    <glyph glyph-name="uni1F0A" unicode="&#x1f0a;" horiz-adv-x="611" 
d="M-32 0l352 707h97l144 -707h-62l-55 279h-276l-138 -279h-62zM193 330h241l-60 306l-9 44l-22 -45zM-45 549q30 53 30 116q0 19 -5 42h59q8 -29 8 -51q0 -59 -43 -107h-49zM149 549l-86 158h60l78 -158h-52z" />
    <glyph glyph-name="uni1F0B" unicode="&#x1f0b;" horiz-adv-x="611" 
d="M-32 0l352 707h97l144 -707h-62l-55 279h-276l-138 -279h-62zM193 330h241l-60 306l-9 44l-22 -45zM-21 549q-43 48 -43 107q0 22 8 51h59q-5 -23 -5 -42q0 -28 7.5 -57t14.5 -44l8 -15h-49zM108 549l-86 158h60l78 -158h-52z" />
    <glyph glyph-name="uni1F0C" unicode="&#x1f0c;" horiz-adv-x="611" 
d="M-32 0l352 707h97l144 -707h-62l-55 279h-276l-138 -279h-62zM193 330h241l-60 306l-9 44l-22 -45zM-3 549q30 53 30 116q0 19 -5 42h59q8 -29 8 -51q0 -59 -43 -107h-49zM85 549l78 158h60l-86 -158h-52z" />
    <glyph glyph-name="uni1F0D" unicode="&#x1f0d;" horiz-adv-x="611" 
d="M-32 0l352 707h97l144 -707h-62l-55 279h-276l-138 -279h-62zM193 330h241l-60 306l-9 44l-22 -45zM11 549q-43 48 -43 107q0 22 8 51h59q-5 -23 -5 -42q0 -28 7.5 -57t14.5 -44l8 -15h-49zM82 549l78 158h60l-86 -158h-52z" />
    <glyph glyph-name="uni1F0E" unicode="&#x1f0e;" horiz-adv-x="611" 
d="M-32 0l352 707h97l144 -707h-62l-55 279h-276l-138 -279h-62zM193 330h241l-60 306l-9 44l-22 -45zM142 620q-23 0 -62 18.5t-61 18.5q-35 0 -69 -24l-22 38l5 4l9.5 7.5t13 8t17.5 7.5t22.5 5.5t27.5 2.5q26 0 65 -18t58 -18q38 0 66 28l24 -36q-5 -6 -15 -14.5
t-32.5 -18t-46.5 -9.5zM20 441q30 53 30 116q0 19 -5 42h59q8 -29 8 -51q0 -59 -43 -107h-49z" />
    <glyph glyph-name="uni1F0F" unicode="&#x1f0f;" horiz-adv-x="611" 
d="M-32 0l352 707h97l144 -707h-62l-55 279h-276l-138 -279h-62zM193 330h241l-60 306l-9 44l-22 -45zM116 620q-23 0 -62 18.5t-61 18.5q-35 0 -69 -24l-22 38l5 4l9.5 7.5t13 8t17.5 7.5t22.5 5.5t27.5 2.5q26 0 65 -18t58 -18q38 0 66 28l24 -36q-5 -6 -15 -14.5
t-32.5 -18t-46.5 -9.5zM53 441q-43 48 -43 107q0 22 8 51h59q-5 -23 -5 -42q0 -28 7.5 -57t14.5 -44l8 -15h-49z" />
    <glyph glyph-name="uni1F10" unicode="&#x1f10;" horiz-adv-x="434" 
d="M215 -12q-85 0 -129.5 38t-44.5 103q0 120 116 168q-33 12 -54 40.5t-21 64.5q0 66 52.5 111.5t143.5 45.5q79 0 133 -34l-23 -41q-54 28 -114 28q-133 0 -133 -107q0 -43 29.5 -64t68.5 -21h68l-5 -49h-73q-52 0 -90.5 -35.5t-38.5 -96.5q0 -99 121 -99q63 0 161 39
l19 -45q-99 -46 -186 -46zM262 633q30 53 30 116q0 19 -5 42h59q8 -29 8 -51q0 -59 -43 -107h-49z" />
    <glyph glyph-name="uni1F11" unicode="&#x1f11;" horiz-adv-x="434" 
d="M215 -12q-85 0 -129.5 38t-44.5 103q0 120 116 168q-33 12 -54 40.5t-21 64.5q0 66 52.5 111.5t143.5 45.5q79 0 133 -34l-23 -41q-54 28 -114 28q-133 0 -133 -107q0 -43 29.5 -64t68.5 -21h68l-5 -49h-73q-52 0 -90.5 -35.5t-38.5 -96.5q0 -99 121 -99q63 0 161 39
l19 -45q-99 -46 -186 -46zM282 633q-43 48 -43 107q0 22 8 51h59q-5 -23 -5 -42q0 -28 7.5 -57t15.5 -44l7 -15h-49z" />
    <glyph glyph-name="uni1F12" unicode="&#x1f12;" horiz-adv-x="434" 
d="M215 -12q-85 0 -129.5 38t-44.5 103q0 120 116 168q-33 12 -54 40.5t-21 64.5q0 66 52.5 111.5t143.5 45.5q79 0 133 -34l-23 -41q-54 28 -114 28q-133 0 -133 -107q0 -43 29.5 -64t68.5 -21h68l-5 -49h-73q-52 0 -90.5 -35.5t-38.5 -96.5q0 -99 121 -99q63 0 161 39
l19 -45q-99 -46 -186 -46zM167 633q30 53 30 116q0 19 -5 42h59q8 -29 8 -51q0 -59 -43 -107h-49zM361 633l-86 158h60l78 -158h-52z" />
    <glyph glyph-name="uni1F13" unicode="&#x1f13;" horiz-adv-x="434" 
d="M215 -12q-85 0 -129.5 38t-44.5 103q0 120 116 168q-33 12 -54 40.5t-21 64.5q0 66 52.5 111.5t143.5 45.5q79 0 133 -34l-23 -41q-54 28 -114 28q-133 0 -133 -107q0 -43 29.5 -64t68.5 -21h68l-5 -49h-73q-52 0 -90.5 -35.5t-38.5 -96.5q0 -99 121 -99q63 0 161 39
l19 -45q-99 -46 -186 -46zM204 633q-43 48 -43 107q0 22 8 51h59q-5 -23 -5 -42q0 -28 7.5 -57t15.5 -44l7 -15h-49zM333 633l-86 158h60l78 -158h-52z" />
    <glyph glyph-name="uni1F14" unicode="&#x1f14;" horiz-adv-x="434" 
d="M215 -12q-85 0 -129.5 38t-44.5 103q0 120 116 168q-33 12 -54 40.5t-21 64.5q0 66 52.5 111.5t143.5 45.5q79 0 133 -34l-23 -41q-54 28 -114 28q-133 0 -133 -107q0 -43 29.5 -64t68.5 -21h68l-5 -49h-73q-52 0 -90.5 -35.5t-38.5 -96.5q0 -99 121 -99q63 0 161 39
l19 -45q-99 -46 -186 -46zM205 633q30 53 30 116q0 19 -5 42h59q8 -29 8 -51q0 -59 -43 -107h-49zM293 633l78 158h60l-86 -158h-52z" />
    <glyph glyph-name="uni1F15" unicode="&#x1f15;" horiz-adv-x="434" 
d="M215 -12q-85 0 -129.5 38t-44.5 103q0 120 116 168q-33 12 -54 40.5t-21 64.5q0 66 52.5 111.5t143.5 45.5q79 0 133 -34l-23 -41q-54 28 -114 28q-133 0 -133 -107q0 -43 29.5 -64t68.5 -21h68l-5 -49h-73q-52 0 -90.5 -35.5t-38.5 -96.5q0 -99 121 -99q63 0 161 39
l19 -45q-99 -46 -186 -46zM225 633q-43 48 -43 107q0 22 8 51h59q-5 -23 -5 -42q0 -28 7.5 -57t14.5 -44l8 -15h-49zM296 633l78 158h60l-86 -158h-52z" />
    <glyph glyph-name="uni1F18" unicode="&#x1f18;" horiz-adv-x="562" 
d="M75 0l75 707h377l-5 -50h-318l-29 -276h296l-5 -52h-296l-30 -279h342l-5 -50h-402zM-30 549q30 53 30 116q0 19 -5 42h59q8 -29 8 -51q0 -59 -43 -107h-49z" />
    <glyph glyph-name="uni1F19" unicode="&#x1f19;" horiz-adv-x="562" 
d="M75 0l75 707h377l-5 -50h-318l-29 -276h296l-5 -52h-296l-30 -279h342l-5 -50h-402zM37 549q-43 48 -43 107q0 22 8 51h59q-5 -23 -5 -42q0 -28 7.5 -57t14.5 -44l8 -15h-49z" />
    <glyph glyph-name="uni1F1A" unicode="&#x1f1a;" horiz-adv-x="562" 
d="M75 0l75 707h377l-5 -50h-318l-29 -276h296l-5 -52h-296l-30 -279h342l-5 -50h-402zM-160 549q30 53 30 116q0 19 -5 42h59q8 -29 8 -51q0 -59 -43 -107h-49zM34 549l-86 158h60l78 -158h-52z" />
    <glyph glyph-name="uni1F1B" unicode="&#x1f1b;" horiz-adv-x="562" 
d="M75 0l75 707h377l-5 -50h-318l-29 -276h296l-5 -52h-296l-30 -279h342l-5 -50h-402zM-112 549q-43 48 -43 107q0 22 8 51h59q-5 -23 -5 -42q0 -28 7.5 -57t15.5 -44l7 -15h-49zM17 549l-86 158h60l78 -158h-52z" />
    <glyph glyph-name="uni1F1C" unicode="&#x1f1c;" horiz-adv-x="562" 
d="M75 0l75 707h377l-5 -50h-318l-29 -276h296l-5 -52h-296l-30 -279h342l-5 -50h-402zM-143 549q30 53 30 116q0 19 -5 42h59q8 -29 8 -51q0 -59 -43 -107h-49zM-55 549l78 158h60l-86 -158h-52z" />
    <glyph glyph-name="uni1F1D" unicode="&#x1f1d;" horiz-adv-x="562" 
d="M75 0l75 707h377l-5 -50h-318l-29 -276h296l-5 -52h-296l-30 -279h342l-5 -50h-402zM-131 549q-43 48 -43 107q0 22 8 51h59q-5 -23 -5 -42q0 -28 7.5 -57t14.5 -44l8 -15h-49zM-60 549l78 158h60l-86 -158h-52z" />
    <glyph glyph-name="uni1F20" unicode="&#x1f20;" horiz-adv-x="544" 
d="M338 -219l66 600q7 59 7 78q0 28 -12 39t-44 11q-15 0 -45 -16.5t-55 -34.5l-54.5 -40.5l-33.5 -25.5l-42 -392h-56l57 546h57l-10 -98q1 1 18.5 16l25 21l26 20t32 21.5t31.5 16.5t35.5 13t34.5 4q52 0 71.5 -20.5t19.5 -66.5q0 -17 -6 -79l-67 -613h-56zM295 633
q30 53 30 116q0 19 -5 42h59q8 -29 8 -51q0 -59 -43 -107h-49z" />
    <glyph glyph-name="uni1F21" unicode="&#x1f21;" horiz-adv-x="544" 
d="M338 -219l66 600q7 59 7 78q0 28 -12 39t-44 11q-15 0 -45 -16.5t-55 -34.5l-54.5 -40.5l-33.5 -25.5l-42 -392h-56l57 546h57l-10 -98q1 1 18.5 16l25 21l26 20t32 21.5t31.5 16.5t35.5 13t34.5 4q52 0 71.5 -20.5t19.5 -66.5q0 -17 -6 -79l-67 -613h-56zM322 633
q-43 48 -43 107q0 22 8 51h59q-5 -23 -5 -42q0 -28 7.5 -57t15.5 -44l7 -15h-49z" />
    <glyph glyph-name="uni1F22" unicode="&#x1f22;" horiz-adv-x="544" 
d="M338 -219l66 600q7 59 7 78q0 28 -12 39t-44 11q-15 0 -45 -16.5t-55 -34.5l-54.5 -40.5l-33.5 -25.5l-42 -392h-56l57 546h57l-10 -98q1 1 18.5 16l25 21l26 20t32 21.5t31.5 16.5t35.5 13t34.5 4q52 0 71.5 -20.5t19.5 -66.5q0 -17 -6 -79l-67 -613h-56zM202 633
q30 53 30 116q0 19 -5 42h59q8 -29 8 -51q0 -59 -43 -107h-49zM396 633l-86 158h60l78 -158h-52z" />
    <glyph glyph-name="uni1F23" unicode="&#x1f23;" horiz-adv-x="544" 
d="M338 -219l66 600q7 59 7 78q0 28 -12 39t-44 11q-15 0 -45 -16.5t-55 -34.5l-54.5 -40.5l-33.5 -25.5l-42 -392h-56l57 546h57l-10 -98q1 1 18.5 16l25 21l26 20t32 21.5t31.5 16.5t35.5 13t34.5 4q52 0 71.5 -20.5t19.5 -66.5q0 -17 -6 -79l-67 -613h-56zM250 633
q-43 48 -43 107q0 22 8 51h59q-5 -23 -5 -42q0 -28 7.5 -57t15.5 -44l7 -15h-49zM379 633l-86 158h60l78 -158h-52z" />
    <glyph glyph-name="uni1F24" unicode="&#x1f24;" horiz-adv-x="544" 
d="M338 -219l66 600q7 59 7 78q0 28 -12 39t-44 11q-15 0 -45 -16.5t-55 -34.5l-54.5 -40.5l-33.5 -25.5l-42 -392h-56l57 546h57l-10 -98q1 1 18.5 16l25 21l26 20t32 21.5t31.5 16.5t35.5 13t34.5 4q52 0 71.5 -20.5t19.5 -66.5q0 -17 -6 -79l-67 -613h-56zM240 633
q30 53 30 116q0 19 -5 42h59q8 -29 8 -51q0 -59 -43 -107h-49zM328 633l78 158h60l-86 -158h-52z" />
    <glyph glyph-name="uni1F25" unicode="&#x1f25;" horiz-adv-x="544" 
d="M338 -219l66 600q7 59 7 78q0 28 -12 39t-44 11q-15 0 -45 -16.5t-55 -34.5l-54.5 -40.5l-33.5 -25.5l-42 -392h-56l57 546h57l-10 -98q1 1 18.5 16l25 21l26 20t32 21.5t31.5 16.5t35.5 13t34.5 4q52 0 71.5 -20.5t19.5 -66.5q0 -17 -6 -79l-67 -613h-56zM262 633
q-43 48 -43 107q0 22 8 51h59q-5 -23 -5 -42q0 -28 7.5 -57t15.5 -44l7 -15h-49zM333 633l78 158h60l-86 -158h-52z" />
    <glyph glyph-name="uni1F26" unicode="&#x1f26;" horiz-adv-x="544" 
d="M338 -219l66 600q7 59 7 78q0 28 -12 39t-44 11q-15 0 -45 -16.5t-55 -34.5l-54.5 -40.5l-33.5 -25.5l-42 -392h-56l57 546h57l-10 -98q1 1 18.5 16l25 21l26 20t32 21.5t31.5 16.5t35.5 13t34.5 4q52 0 71.5 -20.5t19.5 -66.5q0 -17 -6 -79l-67 -613h-56zM404 794
q-23 0 -62 18.5t-61 18.5q-35 0 -69 -24l-22 38l5 4l9.5 7.5t13 8t17.5 7.5t22.5 5.5t27.5 2.5q26 0 65 -18t58 -18q38 0 66 28l24 -36q-5 -6 -15 -14.5t-32.5 -18t-46.5 -9.5zM282 615q30 53 30 116q0 19 -5 42h59q8 -29 8 -51q0 -59 -43 -107h-49z" />
    <glyph glyph-name="uni1F27" unicode="&#x1f27;" horiz-adv-x="544" 
d="M338 -219l66 600q7 59 7 78q0 28 -12 39t-44 11q-15 0 -45 -16.5t-55 -34.5l-54.5 -40.5l-33.5 -25.5l-42 -392h-56l57 546h57l-10 -98q1 1 18.5 16l25 21l26 20t32 21.5t31.5 16.5t35.5 13t34.5 4q52 0 71.5 -20.5t19.5 -66.5q0 -17 -6 -79l-67 -613h-56zM384 794
q-23 0 -62 18.5t-61 18.5q-35 0 -69 -24l-22 38l5 4l9.5 7.5t13 8t17.5 7.5t22.5 5.5t27.5 2.5q26 0 65 -18t58 -18q38 0 66 28l24 -36q-5 -6 -15 -14.5t-32.5 -18t-46.5 -9.5zM321 615q-43 48 -43 107q0 22 8 51h59q-5 -23 -5 -42q0 -28 7.5 -57t14.5 -44l8 -15h-49z" />
    <glyph glyph-name="uni1F28" unicode="&#x1f28;" horiz-adv-x="742" 
d="M75 0l75 707h59l-34 -327h398l34 328h60l-74 -708h-60l35 329h-398l-35 -329h-60zM8 549q30 53 30 116q0 19 -5 42h59q8 -29 8 -51q0 -59 -43 -107h-49z" />
    <glyph glyph-name="uni1F29" unicode="&#x1f29;" horiz-adv-x="742" 
d="M75 0l75 707h59l-34 -327h398l34 328h60l-74 -708h-60l35 329h-398l-35 -329h-60zM41 549q-43 48 -43 107q0 22 8 51h59q-5 -23 -5 -42q0 -28 7.5 -57t14.5 -44l8 -15h-49z" />
    <glyph glyph-name="uni1F2A" unicode="&#x1f2a;" horiz-adv-x="742" 
d="M75 0l75 707h59l-34 -327h398l34 328h60l-74 -708h-60l35 329h-398l-35 -329h-60zM-153 549q30 53 30 116q0 19 -5 42h59q8 -29 8 -51q0 -59 -43 -107h-49zM41 549l-86 158h60l78 -158h-52z" />
    <glyph glyph-name="uni1F2B" unicode="&#x1f2b;" horiz-adv-x="742" 
d="M75 0l75 707h59l-34 -327h398l34 328h60l-74 -708h-60l35 329h-398l-35 -329h-60zM-72 549q-43 48 -43 107q0 22 8 51h59q-5 -23 -5 -42q0 -28 7.5 -57t15.5 -44l7 -15h-49zM57 549l-86 158h60l78 -158h-52z" />
    <glyph glyph-name="uni1F2C" unicode="&#x1f2c;" horiz-adv-x="742" 
d="M75 0l75 707h59l-34 -327h398l34 328h60l-74 -708h-60l35 329h-398l-35 -329h-60zM-122 549q30 53 30 116q0 19 -5 42h59q8 -29 8 -51q0 -59 -43 -107h-49zM-34 549l78 158h60l-86 -158h-52z" />
    <glyph glyph-name="uni1F2D" unicode="&#x1f2d;" horiz-adv-x="742" 
d="M75 0l75 707h59l-34 -327h398l34 328h60l-74 -708h-60l35 329h-398l-35 -329h-60zM-111 549q-43 48 -43 107q0 22 8 51h59q-5 -23 -5 -42q0 -28 7.5 -57t14.5 -44l8 -15h-49zM-40 549l78 158h60l-86 -158h-52z" />
    <glyph glyph-name="uni1F2E" unicode="&#x1f2e;" horiz-adv-x="742" 
d="M75 0l75 707h59l-34 -327h398l34 328h60l-74 -708h-60l35 329h-398l-35 -329h-60zM19 620q-23 0 -62 18.5t-61 18.5q-35 0 -69 -24l-22 38l5 4l9.5 7.5t13 8t17.5 7.5t22.5 5.5t27.5 2.5q26 0 65 -18t58 -18q38 0 66 28l24 -36q-5 -6 -15 -14.5t-32.5 -18t-46.5 -9.5z
M-103 441q30 53 30 116q0 19 -5 42h59q8 -29 8 -51q0 -59 -43 -107h-49z" />
    <glyph glyph-name="uni1F2F" unicode="&#x1f2f;" horiz-adv-x="742" 
d="M75 0l75 707h59l-34 -327h398l34 328h60l-74 -708h-60l35 329h-398l-35 -329h-60zM5 621q-23 0 -62 18.5t-61 18.5q-35 0 -69 -24l-22 38l5 4l9.5 7.5t13 8t17.5 7.5t22.5 5.5t27.5 2.5q26 0 65 -18t58 -18q38 0 66 28l24 -36q-5 -6 -15 -14.5t-32.5 -18t-46.5 -9.5z
M-58 442q-43 48 -43 107q0 22 8 51h59q-5 -23 -5 -42q0 -28 7.5 -57t15.5 -44l7 -15h-49z" />
    <glyph glyph-name="uni1F30" unicode="&#x1f30;" horiz-adv-x="264" 
d="M70 0l57 546h56l-57 -546h-56zM133 633q30 53 30 116q0 19 -5 42h59q8 -29 8 -51q0 -59 -43 -107h-49z" />
    <glyph glyph-name="uni1F31" unicode="&#x1f31;" horiz-adv-x="264" 
d="M70 0l57 546h56l-57 -546h-56zM147 633q-43 48 -43 107q0 22 8 51h59q-5 -23 -5 -42q0 -28 7.5 -57t14.5 -44l8 -15h-49z" />
    <glyph glyph-name="uni1F32" unicode="&#x1f32;" horiz-adv-x="264" 
d="M70 0l57 546h56l-57 -546h-56zM50 633q30 53 30 116q0 19 -5 42h59q8 -29 8 -51q0 -59 -43 -107h-49zM244 633l-86 158h60l78 -158h-52z" />
    <glyph glyph-name="uni1F33" unicode="&#x1f33;" horiz-adv-x="264" 
d="M70 0l57 546h56l-57 -546h-56zM79 633q-43 48 -43 107q0 22 8 51h59q-5 -23 -5 -42q0 -28 7.5 -57t14.5 -44l8 -15h-49zM208 633l-86 158h60l78 -158h-52z" />
    <glyph glyph-name="uni1F34" unicode="&#x1f34;" horiz-adv-x="264" 
d="M70 0l57 546h56l-57 -546h-56zM95 633q30 53 30 116q0 19 -5 42h59q8 -29 8 -51q0 -59 -43 -107h-49zM183 633l78 158h60l-86 -158h-52z" />
    <glyph glyph-name="uni1F35" unicode="&#x1f35;" horiz-adv-x="264" 
d="M70 0l57 546h56l-57 -546h-56zM102 633q-43 48 -43 107q0 22 8 51h59q-5 -23 -5 -42q0 -28 7.5 -57t15.5 -44l7 -15h-49zM173 633l78 158h60l-86 -158h-52z" />
    <glyph glyph-name="uni1F36" unicode="&#x1f36;" horiz-adv-x="264" 
d="M70 0l57 546h56l-57 -546h-56zM253 794q-23 0 -62 18.5t-61 18.5q-35 0 -69 -24l-22 38l5 4l9.5 7.5t13 8t17.5 7.5t22.5 5.5t27.5 2.5q26 0 65 -18t58 -18q38 0 66 28l24 -36q-5 -6 -15 -14.5t-32.5 -18t-46.5 -9.5zM131 615q30 53 30 116q0 19 -5 42h59q8 -29 8 -51
q0 -59 -43 -107h-49z" />
    <glyph glyph-name="uni1F37" unicode="&#x1f37;" horiz-adv-x="264" 
d="M70 0l57 546h56l-57 -546h-56zM230 794q-23 0 -62 18.5t-61 18.5q-35 0 -69 -24l-22 38l5 4l9.5 7.5t13 8t17.5 7.5t22.5 5.5t27.5 2.5q26 0 65 -18t58 -18q38 0 66 28l24 -36q-5 -6 -15 -14.5t-32.5 -18t-46.5 -9.5zM167 615q-43 48 -43 107q0 22 8 51h59q-5 -23 -5 -42
q0 -28 7.5 -57t14.5 -44l8 -15h-49z" />
    <glyph glyph-name="uni1F38" unicode="&#x1f38;" horiz-adv-x="285" 
d="M75 0l75 707h59l-74 -707h-60zM-10 549q30 53 30 116q0 19 -5 42h59q8 -29 8 -51q0 -59 -43 -107h-49z" />
    <glyph glyph-name="uni1F39" unicode="&#x1f39;" horiz-adv-x="285" 
d="M75 0l75 707h59l-74 -707h-60zM37 549q-43 48 -43 107q0 22 8 51h59q-5 -23 -5 -42q0 -28 7.5 -57t14.5 -44l8 -15h-49z" />
    <glyph glyph-name="uni1F3A" unicode="&#x1f3a;" horiz-adv-x="285" 
d="M75 0l75 707h59l-74 -707h-60zM-159 549q30 53 30 116q0 19 -5 42h59q8 -29 8 -51q0 -59 -43 -107h-49zM35 549l-86 158h60l78 -158h-52z" />
    <glyph glyph-name="uni1F3B" unicode="&#x1f3b;" horiz-adv-x="285" 
d="M75 0l75 707h59l-74 -707h-60zM-90 549q-43 48 -43 107q0 22 8 51h59q-5 -23 -5 -42q0 -28 7.5 -57t15.5 -44l7 -15h-49zM39 549l-86 158h60l78 -158h-52z" />
    <glyph glyph-name="uni1F3C" unicode="&#x1f3c;" horiz-adv-x="285" 
d="M75 0l75 707h59l-74 -707h-60zM-143 549q30 53 30 116q0 19 -5 42h59q8 -29 8 -51q0 -59 -43 -107h-49zM-55 549l78 158h60l-86 -158h-52z" />
    <glyph glyph-name="uni1F3D" unicode="&#x1f3d;" horiz-adv-x="285" 
d="M75 0l75 707h59l-74 -707h-60zM-129 548q-43 48 -43 107q0 22 8 51h59q-5 -23 -5 -42q0 -28 7.5 -57t14.5 -44l8 -15h-49zM-58 548l78 158h60l-86 -158h-52z" />
    <glyph glyph-name="uni1F3E" unicode="&#x1f3e;" horiz-adv-x="285" 
d="M75 0l75 707h59l-74 -707h-60zM-2 620q-23 0 -62 18.5t-61 18.5q-35 0 -69 -24l-22 38l5 4l9.5 7.5t13 8t17.5 7.5t22.5 5.5t27.5 2.5q26 0 65 -18t58 -18q38 0 66 28l24 -36q-5 -6 -15 -14.5t-32.5 -18t-46.5 -9.5zM-124 441q30 53 30 116q0 19 -5 42h59q8 -29 8 -51
q0 -59 -43 -107h-49z" />
    <glyph glyph-name="uni1F3F" unicode="&#x1f3f;" horiz-adv-x="285" 
d="M75 0l75 707h59l-74 -707h-60zM-12 621q-23 0 -62 18.5t-61 18.5q-35 0 -69 -24l-22 38l5 4l9.5 7.5t13 8t17.5 7.5t22.5 5.5t27.5 2.5q26 0 65 -18t58 -18q38 0 66 28l24 -36q-5 -6 -15 -14.5t-32.5 -18t-46.5 -9.5zM-75 442q-43 48 -43 107q0 22 8 51h59q-5 -23 -5 -42
q0 -28 7.5 -57t14.5 -44l8 -15h-49z" />
    <glyph glyph-name="uni1F40" unicode="&#x1f40;" horiz-adv-x="501" 
d="M195 -12q-68 0 -108 54.5t-40 132.5q0 176 73.5 280.5t190.5 104.5q69 0 107 -54.5t38 -126.5t-14.5 -138.5t-44 -124.5t-82 -93t-120.5 -35zM212 38q77 0 131.5 93t54.5 230q0 77 -25 113.5t-84 36.5q-75 0 -129 -94t-54 -224q0 -155 106 -155zM273 633q30 53 30 116
q0 19 -5 42h59q8 -29 8 -51q0 -59 -43 -107h-49z" />
    <glyph glyph-name="uni1F41" unicode="&#x1f41;" horiz-adv-x="501" 
d="M195 -12q-68 0 -108 54.5t-40 132.5q0 176 73.5 280.5t190.5 104.5q69 0 107 -54.5t38 -126.5t-14.5 -138.5t-44 -124.5t-82 -93t-120.5 -35zM212 38q77 0 131.5 93t54.5 230q0 77 -25 113.5t-84 36.5q-75 0 -129 -94t-54 -224q0 -155 106 -155zM295 633q-43 48 -43 107
q0 22 8 51h59q-5 -23 -5 -42q0 -28 7.5 -57t14.5 -44l8 -15h-49z" />
    <glyph glyph-name="uni1F42" unicode="&#x1f42;" horiz-adv-x="501" 
d="M195 -12q-68 0 -108 54.5t-40 132.5q0 176 73.5 280.5t190.5 104.5q69 0 107 -54.5t38 -126.5t-14.5 -138.5t-44 -124.5t-82 -93t-120.5 -35zM212 38q77 0 131.5 93t54.5 230q0 77 -25 113.5t-84 36.5q-75 0 -129 -94t-54 -224q0 -155 106 -155zM197 633q30 53 30 116
q0 19 -5 42h59q8 -29 8 -51q0 -59 -43 -107h-49zM391 633l-86 158h60l78 -158h-52z" />
    <glyph glyph-name="uni1F43" unicode="&#x1f43;" horiz-adv-x="501" 
d="M195 -12q-68 0 -108 54.5t-40 132.5q0 176 73.5 280.5t190.5 104.5q69 0 107 -54.5t38 -126.5t-14.5 -138.5t-44 -124.5t-82 -93t-120.5 -35zM212 38q77 0 131.5 93t54.5 230q0 77 -25 113.5t-84 36.5q-75 0 -129 -94t-54 -224q0 -155 106 -155zM245 633q-43 48 -43 107
q0 22 8 51h59q-5 -23 -5 -42q0 -28 7.5 -57t14.5 -44l8 -15h-49zM374 633l-86 158h60l78 -158h-52z" />
    <glyph glyph-name="uni1F44" unicode="&#x1f44;" horiz-adv-x="501" 
d="M195 -12q-68 0 -108 54.5t-40 132.5q0 176 73.5 280.5t190.5 104.5q69 0 107 -54.5t38 -126.5t-14.5 -138.5t-44 -124.5t-82 -93t-120.5 -35zM212 38q77 0 131.5 93t54.5 230q0 77 -25 113.5t-84 36.5q-75 0 -129 -94t-54 -224q0 -155 106 -155zM253 633q30 53 30 116
q0 19 -5 42h59q8 -29 8 -51q0 -59 -43 -107h-49zM341 633l78 158h60l-86 -158h-52z" />
    <glyph glyph-name="uni1F45" unicode="&#x1f45;" horiz-adv-x="501" 
d="M195 -12q-68 0 -108 54.5t-40 132.5q0 176 73.5 280.5t190.5 104.5q69 0 107 -54.5t38 -126.5t-14.5 -138.5t-44 -124.5t-82 -93t-120.5 -35zM212 38q77 0 131.5 93t54.5 230q0 77 -25 113.5t-84 36.5q-75 0 -129 -94t-54 -224q0 -155 106 -155zM262 633q-43 48 -43 107
q0 22 8 51h59q-5 -23 -5 -42q0 -28 7.5 -57t15.5 -44l7 -15h-49zM333 633l78 158h60l-86 -158h-52z" />
    <glyph glyph-name="uni1F48" unicode="&#x1f48;" horiz-adv-x="779" 
d="M343 -11q-141 0 -216 87t-75 234q0 180 102.5 294t278.5 114q141 0 218 -87.5t77 -233.5q0 -181 -103.5 -294.5t-281.5 -113.5zM352 40q149 0 231 102t82 256q0 122 -62 194.5t-179 72.5q-146 0 -228.5 -100.5t-82.5 -252.5q0 -122 60.5 -197t178.5 -75zM-35 549
q30 53 30 116q0 19 -5 42h59q8 -29 8 -51q0 -59 -43 -107h-49z" />
    <glyph glyph-name="uni1F49" unicode="&#x1f49;" horiz-adv-x="779" 
d="M343 -11q-141 0 -216 87t-75 234q0 180 102.5 294t278.5 114q141 0 218 -87.5t77 -233.5q0 -181 -103.5 -294.5t-281.5 -113.5zM352 40q149 0 231 102t82 256q0 122 -62 194.5t-179 72.5q-146 0 -228.5 -100.5t-82.5 -252.5q0 -122 60.5 -197t178.5 -75zM-4 549
q-43 48 -43 107q0 22 8 51h59q-5 -23 -5 -42q0 -28 7.5 -57t15.5 -44l7 -15h-49z" />
    <glyph glyph-name="uni1F4A" unicode="&#x1f4a;" horiz-adv-x="779" 
d="M343 -11q-141 0 -216 87t-75 234q0 180 102.5 294t278.5 114q141 0 218 -87.5t77 -233.5q0 -181 -103.5 -294.5t-281.5 -113.5zM352 40q149 0 231 102t82 256q0 122 -62 194.5t-179 72.5q-146 0 -228.5 -100.5t-82.5 -252.5q0 -122 60.5 -197t178.5 -75zM-197 549
q30 53 30 116q0 19 -5 42h59q8 -29 8 -51q0 -59 -43 -107h-49zM-3 549l-86 158h60l78 -158h-52z" />
    <glyph glyph-name="uni1F4B" unicode="&#x1f4b;" horiz-adv-x="779" 
d="M343 -11q-141 0 -216 87t-75 234q0 180 102.5 294t278.5 114q141 0 218 -87.5t77 -233.5q0 -181 -103.5 -294.5t-281.5 -113.5zM352 40q149 0 231 102t82 256q0 122 -62 194.5t-179 72.5q-146 0 -228.5 -100.5t-82.5 -252.5q0 -122 60.5 -197t178.5 -75zM-129 549
q-43 48 -43 107q0 22 8 51h59q-5 -23 -5 -42q0 -28 7.5 -57t14.5 -44l8 -15h-49zM0 549l-86 158h60l78 -158h-52z" />
    <glyph glyph-name="uni1F4C" unicode="&#x1f4c;" horiz-adv-x="779" 
d="M343 -11q-141 0 -216 87t-75 234q0 180 102.5 294t278.5 114q141 0 218 -87.5t77 -233.5q0 -181 -103.5 -294.5t-281.5 -113.5zM352 40q149 0 231 102t82 256q0 122 -62 194.5t-179 72.5q-146 0 -228.5 -100.5t-82.5 -252.5q0 -122 60.5 -197t178.5 -75zM-119 549
q30 53 30 116q0 19 -5 42h59q8 -29 8 -51q0 -59 -43 -107h-49zM-31 549l78 158h60l-86 -158h-52z" />
    <glyph glyph-name="uni1F4D" unicode="&#x1f4d;" horiz-adv-x="779" 
d="M343 -11q-141 0 -216 87t-75 234q0 180 102.5 294t278.5 114q141 0 218 -87.5t77 -233.5q0 -181 -103.5 -294.5t-281.5 -113.5zM352 40q149 0 231 102t82 256q0 122 -62 194.5t-179 72.5q-146 0 -228.5 -100.5t-82.5 -252.5q0 -122 60.5 -197t178.5 -75zM-109 549
q-43 48 -43 107q0 22 8 51h59q-5 -23 -5 -42q0 -28 7.5 -57t14.5 -44l8 -15h-49zM-38 549l78 158h60l-86 -158h-52z" />
    <glyph glyph-name="uni1F50" unicode="&#x1f50;" 
d="M228 -11q-67 0 -110.5 36t-43.5 123q0 11 2 37l38 361h54l-38 -355q-2 -26 -2 -35q0 -66 28.5 -91.5t77.5 -25.5q58 0 93 37t45 133l36 337h54l-36 -340q-6 -62 -26 -106t-48.5 -67.5t-58.5 -33.5t-65 -10zM262 633q30 53 30 116q0 19 -5 42h59q8 -29 8 -51
q0 -59 -43 -107h-49z" />
    <glyph glyph-name="uni1F51" unicode="&#x1f51;" 
d="M228 -11q-67 0 -110.5 36t-43.5 123q0 11 2 37l38 361h54l-38 -355q-2 -26 -2 -35q0 -66 28.5 -91.5t77.5 -25.5q58 0 93 37t45 133l36 337h54l-36 -340q-6 -62 -26 -106t-48.5 -67.5t-58.5 -33.5t-65 -10zM282 633q-43 48 -43 107q0 22 8 51h59q-5 -23 -5 -42
q0 -28 7.5 -57t15.5 -44l7 -15h-49z" />
    <glyph glyph-name="uni1F52" unicode="&#x1f52;" 
d="M228 -11q-67 0 -110.5 36t-43.5 123q0 11 2 37l38 361h54l-38 -355q-2 -26 -2 -35q0 -66 28.5 -91.5t77.5 -25.5q58 0 93 37t45 133l36 337h54l-36 -340q-6 -62 -26 -106t-48.5 -67.5t-58.5 -33.5t-65 -10zM181 633q30 53 30 116q0 19 -5 42h59q8 -29 8 -51
q0 -59 -43 -107h-49zM375 633l-86 158h60l78 -158h-52z" />
    <glyph glyph-name="uni1F53" unicode="&#x1f53;" 
d="M228 -11q-67 0 -110.5 36t-43.5 123q0 11 2 37l38 361h54l-38 -355q-2 -26 -2 -35q0 -66 28.5 -91.5t77.5 -25.5q58 0 93 37t45 133l36 337h54l-36 -340q-6 -62 -26 -106t-48.5 -67.5t-58.5 -33.5t-65 -10zM235 633q-43 48 -43 107q0 22 8 51h59q-5 -23 -5 -42
q0 -28 7.5 -57t14.5 -44l8 -15h-49zM364 633l-86 158h60l78 -158h-52z" />
    <glyph glyph-name="uni1F54" unicode="&#x1f54;" 
d="M228 -11q-67 0 -110.5 36t-43.5 123q0 11 2 37l38 361h54l-38 -355q-2 -26 -2 -35q0 -66 28.5 -91.5t77.5 -25.5q58 0 93 37t45 133l36 337h54l-36 -340q-6 -62 -26 -106t-48.5 -67.5t-58.5 -33.5t-65 -10zM215 633q30 53 30 116q0 19 -5 42h59q8 -29 8 -51
q0 -59 -43 -107h-49zM303 633l78 158h60l-86 -158h-52z" />
    <glyph glyph-name="uni1F55" unicode="&#x1f55;" 
d="M228 -11q-67 0 -110.5 36t-43.5 123q0 11 2 37l38 361h54l-38 -355q-2 -26 -2 -35q0 -66 28.5 -91.5t77.5 -25.5q58 0 93 37t45 133l36 337h54l-36 -340q-6 -62 -26 -106t-48.5 -67.5t-58.5 -33.5t-65 -10zM232 633q-43 48 -43 107q0 22 8 51h59q-5 -23 -5 -42
q0 -28 7.5 -57t15.5 -44l7 -15h-49zM303 633l78 158h60l-86 -158h-52z" />
    <glyph glyph-name="uni1F56" unicode="&#x1f56;" 
d="M228 -11q-67 0 -110.5 36t-43.5 123q0 11 2 37l38 361h54l-38 -355q-2 -26 -2 -35q0 -66 28.5 -91.5t77.5 -25.5q58 0 93 37t45 133l36 337h54l-36 -340q-6 -62 -26 -106t-48.5 -67.5t-58.5 -33.5t-65 -10zM378 794q-23 0 -62 18.5t-61 18.5q-35 0 -69 -24l-22 38l5 4
l9.5 7.5t13 8t17.5 7.5t22.5 5.5t27.5 2.5q26 0 65 -18t58 -18q38 0 66 28l24 -36q-5 -6 -15 -14.5t-32.5 -18t-46.5 -9.5zM256 615q30 53 30 116q0 19 -5 42h59q8 -29 8 -51q0 -59 -43 -107h-49z" />
    <glyph glyph-name="uni1F57" unicode="&#x1f57;" 
d="M228 -11q-67 0 -110.5 36t-43.5 123q0 11 2 37l38 361h54l-38 -355q-2 -26 -2 -35q0 -66 28.5 -91.5t77.5 -25.5q58 0 93 37t45 133l36 337h54l-36 -340q-6 -62 -26 -106t-48.5 -67.5t-58.5 -33.5t-65 -10zM354 794q-23 0 -62 18.5t-61 18.5q-35 0 -69 -24l-22 38l5 4
l9.5 7.5t13 8t17.5 7.5t22.5 5.5t27.5 2.5q26 0 65 -18t58 -18q38 0 66 28l24 -36q-5 -6 -15 -14.5t-32.5 -18t-46.5 -9.5zM291 615q-43 48 -43 107q0 22 8 51h59q-5 -23 -5 -42q0 -28 7.5 -57t14.5 -44l8 -15h-49z" />
    <glyph glyph-name="uni1F59" unicode="&#x1f59;" 
d="M173 0l29 284l-177 423h65l149 -371l243 371h63l-283 -423l-30 -284h-59zM-62 549q-43 48 -43 107q0 22 8 51h59q-5 -23 -5 -42q0 -28 7.5 -57t15.5 -44l7 -15h-49z" />
    <glyph glyph-name="uni1F5B" unicode="&#x1f5b;" 
d="M173 0l29 284l-177 423h65l149 -371l243 371h63l-283 -423l-30 -284h-59zM-153 549q-43 48 -43 107q0 22 8 51h59q-5 -23 -5 -42q0 -28 7.5 -57t14.5 -44l8 -15h-49zM-24 549l-86 158h60l78 -158h-52z" />
    <glyph glyph-name="uni1F5D" unicode="&#x1f5d;" 
d="M173 0l29 284l-177 423h65l149 -371l243 371h63l-283 -423l-30 -284h-59zM-243 549q-43 48 -43 107q0 22 8 51h59q-5 -23 -5 -42q0 -28 7.5 -57t14.5 -44l8 -15h-49zM-172 549l78 158h60l-86 -158h-52z" />
    <glyph glyph-name="uni1F5F" unicode="&#x1f5f;" 
d="M173 0l29 284l-177 423h65l149 -371l243 371h63l-283 -423l-30 -284h-59zM-102 620q-23 0 -62 18.5t-61 18.5q-35 0 -69 -24l-22 38l5 4l9.5 7.5t13 8t17.5 7.5t22.5 5.5t27.5 2.5q26 0 65 -18t58 -18q38 0 66 28l24 -36q-5 -6 -15 -14.5t-32.5 -18t-46.5 -9.5zM-165 441
q-43 48 -43 107q0 22 8 51h59q-5 -23 -5 -42q0 -28 7.5 -57t14.5 -44l8 -15h-49z" />
    <glyph glyph-name="uni1F60" unicode="&#x1f60;" horiz-adv-x="641" 
d="M166 -8q-58 0 -88.5 45.5t-30.5 121.5q0 244 164 387h65q-169 -137 -169 -371q0 -29 2 -48.5t9 -40.5t22 -32t39 -11q40 0 70 42t38 117l17 158h55l-15 -154q-2 -30 -2 -48q0 -115 60 -115q40 0 69 30t42 76.5t18.5 87t5.5 77.5q0 138 -78 232h67q70 -107 70 -214
q0 -85 -19.5 -159.5t-66.5 -127.5t-113 -53q-37 0 -66 29.5t-30 80.5q-22 -54 -60 -82t-75 -28zM345 633q30 53 30 116q0 19 -5 42h59q8 -29 8 -51q0 -59 -43 -107h-49z" />
    <glyph glyph-name="uni1F61" unicode="&#x1f61;" horiz-adv-x="641" 
d="M166 -8q-58 0 -88.5 45.5t-30.5 121.5q0 244 164 387h65q-169 -137 -169 -371q0 -29 2 -48.5t9 -40.5t22 -32t39 -11q40 0 70 42t38 117l17 158h55l-15 -154q-2 -30 -2 -48q0 -115 60 -115q40 0 69 30t42 76.5t18.5 87t5.5 77.5q0 138 -78 232h67q70 -107 70 -214
q0 -85 -19.5 -159.5t-66.5 -127.5t-113 -53q-37 0 -66 29.5t-30 80.5q-22 -54 -60 -82t-75 -28zM352 633q-43 48 -43 107q0 22 8 51h59q-5 -23 -5 -42q0 -28 7.5 -57t15.5 -44l7 -15h-49z" />
    <glyph glyph-name="uni1F62" unicode="&#x1f62;" horiz-adv-x="641" 
d="M166 -8q-58 0 -88.5 45.5t-30.5 121.5q0 244 164 387h65q-169 -137 -169 -371q0 -29 2 -48.5t9 -40.5t22 -32t39 -11q40 0 70 42t38 117l17 158h55l-15 -154q-2 -30 -2 -48q0 -115 60 -115q40 0 69 30t42 76.5t18.5 87t5.5 77.5q0 138 -78 232h67q70 -107 70 -214
q0 -85 -19.5 -159.5t-66.5 -127.5t-113 -53q-37 0 -66 29.5t-30 80.5q-22 -54 -60 -82t-75 -28zM245 633q30 53 30 116q0 19 -5 42h59q8 -29 8 -51q0 -59 -43 -107h-49zM439 633l-86 158h60l78 -158h-52z" />
    <glyph glyph-name="uni1F63" unicode="&#x1f63;" horiz-adv-x="641" 
d="M166 -8q-58 0 -88.5 45.5t-30.5 121.5q0 244 164 387h65q-169 -137 -169 -371q0 -29 2 -48.5t9 -40.5t22 -32t39 -11q40 0 70 42t38 117l17 158h55l-15 -154q-2 -30 -2 -48q0 -115 60 -115q40 0 69 30t42 76.5t18.5 87t5.5 77.5q0 138 -78 232h67q70 -107 70 -214
q0 -85 -19.5 -159.5t-66.5 -127.5t-113 -53q-37 0 -66 29.5t-30 80.5q-22 -54 -60 -82t-75 -28zM290 633q-43 48 -43 107q0 22 8 51h59q-5 -23 -5 -42q0 -28 7.5 -57t15.5 -44l7 -15h-49zM419 633l-86 158h60l78 -158h-52z" />
    <glyph glyph-name="uni1F64" unicode="&#x1f64;" horiz-adv-x="641" 
d="M166 -8q-58 0 -88.5 45.5t-30.5 121.5q0 244 164 387h65q-169 -137 -169 -371q0 -29 2 -48.5t9 -40.5t22 -32t39 -11q40 0 70 42t38 117l17 158h55l-15 -154q-2 -30 -2 -48q0 -115 60 -115q40 0 69 30t42 76.5t18.5 87t5.5 77.5q0 138 -78 232h67q70 -107 70 -214
q0 -85 -19.5 -159.5t-66.5 -127.5t-113 -53q-37 0 -66 29.5t-30 80.5q-22 -54 -60 -82t-75 -28zM295 633q30 53 30 116q0 19 -5 42h59q8 -29 8 -51q0 -59 -43 -107h-49zM383 633l78 158h60l-86 -158h-52z" />
    <glyph glyph-name="uni1F65" unicode="&#x1f65;" horiz-adv-x="641" 
d="M166 -8q-58 0 -88.5 45.5t-30.5 121.5q0 244 164 387h65q-169 -137 -169 -371q0 -29 2 -48.5t9 -40.5t22 -32t39 -11q40 0 70 42t38 117l17 158h55l-15 -154q-2 -30 -2 -48q0 -115 60 -115q40 0 69 30t42 76.5t18.5 87t5.5 77.5q0 138 -78 232h67q70 -107 70 -214
q0 -85 -19.5 -159.5t-66.5 -127.5t-113 -53q-37 0 -66 29.5t-30 80.5q-22 -54 -60 -82t-75 -28zM312 633q-43 48 -43 107q0 22 8 51h59q-5 -23 -5 -42q0 -28 7.5 -57t15.5 -44l7 -15h-49zM383 633l78 158h60l-86 -158h-52z" />
    <glyph glyph-name="uni1F66" unicode="&#x1f66;" horiz-adv-x="641" 
d="M166 -8q-58 0 -88.5 45.5t-30.5 121.5q0 244 164 387h65q-169 -137 -169 -371q0 -29 2 -48.5t9 -40.5t22 -32t39 -11q40 0 70 42t38 117l17 158h55l-15 -154q-2 -30 -2 -48q0 -115 60 -115q40 0 69 30t42 76.5t18.5 87t5.5 77.5q0 138 -78 232h67q70 -107 70 -214
q0 -85 -19.5 -159.5t-66.5 -127.5t-113 -53q-37 0 -66 29.5t-30 80.5q-22 -54 -60 -82t-75 -28zM465 794q-23 0 -62 18.5t-61 18.5q-35 0 -69 -24l-22 38l5 4l9.5 7.5t13 8t17.5 7.5t22.5 5.5t27.5 2.5q26 0 65 -18t58 -18q38 0 66 28l24 -36q-5 -6 -15 -14.5t-32.5 -18
t-46.5 -9.5zM343 615q30 53 30 116q0 19 -5 42h59q8 -29 8 -51q0 -59 -43 -107h-49z" />
    <glyph glyph-name="uni1F67" unicode="&#x1f67;" horiz-adv-x="641" 
d="M166 -8q-58 0 -88.5 45.5t-30.5 121.5q0 244 164 387h65q-169 -137 -169 -371q0 -29 2 -48.5t9 -40.5t22 -32t39 -11q40 0 70 42t38 117l17 158h55l-15 -154q-2 -30 -2 -48q0 -115 60 -115q40 0 69 30t42 76.5t18.5 87t5.5 77.5q0 138 -78 232h67q70 -107 70 -214
q0 -85 -19.5 -159.5t-66.5 -127.5t-113 -53q-37 0 -66 29.5t-30 80.5q-22 -54 -60 -82t-75 -28zM414 794q-23 0 -62 18.5t-61 18.5q-35 0 -69 -24l-22 38l5 4l9.5 7.5t13 8t17.5 7.5t22.5 5.5t27.5 2.5q26 0 65 -18t58 -18q38 0 66 28l24 -36q-5 -6 -15 -14.5t-32.5 -18
t-46.5 -9.5zM351 615q-43 48 -43 107q0 22 8 51h59q-5 -23 -5 -42q0 -28 7.5 -57t14.5 -44l8 -15h-49z" />
    <glyph glyph-name="uni1F68" unicode="&#x1f68;" horiz-adv-x="815" 
d="M41 0l5 55h182q-66 34 -115 108t-49 177q0 166 106 272t274 106q146 0 221 -87t75 -224q0 -114 -64 -211.5t-168 -140.5h190l-5 -55h-263l5 55q242 133 242 349q0 119 -61 190t-181 71q-146 0 -228.5 -95t-82.5 -235q0 -164 180 -280l-5 -55h-258zM-16 549q30 53 30 116
q0 19 -5 42h59q8 -29 8 -51q0 -59 -43 -107h-49z" />
    <glyph glyph-name="uni1F69" unicode="&#x1f69;" horiz-adv-x="815" 
d="M41 0l5 55h182q-66 34 -115 108t-49 177q0 166 106 272t274 106q146 0 221 -87t75 -224q0 -114 -64 -211.5t-168 -140.5h190l-5 -55h-263l5 55q242 133 242 349q0 119 -61 190t-181 71q-146 0 -228.5 -95t-82.5 -235q0 -164 180 -280l-5 -55h-258zM-8 549q-43 48 -43 107
q0 22 8 51h59q-5 -23 -5 -42q0 -28 7.5 -57t15.5 -44l7 -15h-49z" />
    <glyph glyph-name="uni1F6A" unicode="&#x1f6a;" horiz-adv-x="815" 
d="M41 0l5 55h182q-66 34 -115 108t-49 177q0 166 106 272t274 106q146 0 221 -87t75 -224q0 -114 -64 -211.5t-168 -140.5h190l-5 -55h-263l5 55q242 133 242 349q0 119 -61 190t-181 71q-146 0 -228.5 -95t-82.5 -235q0 -164 180 -280l-5 -55h-258zM-196 549q30 53 30 116
q0 19 -5 42h59q8 -29 8 -51q0 -59 -43 -107h-49zM-2 549l-86 158h60l78 -158h-52z" />
    <glyph glyph-name="uni1F6B" unicode="&#x1f6b;" horiz-adv-x="815" 
d="M41 0l5 55h182q-66 34 -115 108t-49 177q0 166 106 272t274 106q146 0 221 -87t75 -224q0 -114 -64 -211.5t-168 -140.5h190l-5 -55h-263l5 55q242 133 242 349q0 119 -61 190t-181 71q-146 0 -228.5 -95t-82.5 -235q0 -164 180 -280l-5 -55h-258zM-127 549
q-43 48 -43 107q0 22 8 51h59q-5 -23 -5 -42q0 -28 7.5 -57t14.5 -44l8 -15h-49zM2 549l-86 158h60l78 -158h-52z" />
    <glyph glyph-name="uni1F6C" unicode="&#x1f6c;" horiz-adv-x="815" 
d="M41 0l5 55h182q-66 34 -115 108t-49 177q0 166 106 272t274 106q146 0 221 -87t75 -224q0 -114 -64 -211.5t-168 -140.5h190l-5 -55h-263l5 55q242 133 242 349q0 119 -61 190t-181 71q-146 0 -228.5 -95t-82.5 -235q0 -164 180 -280l-5 -55h-258zM-126 549q30 53 30 116
q0 19 -5 42h59q8 -29 8 -51q0 -59 -43 -107h-49zM-38 549l78 158h60l-86 -158h-52z" />
    <glyph glyph-name="uni1F6D" unicode="&#x1f6d;" horiz-adv-x="815" 
d="M41 0l5 55h182q-66 34 -115 108t-49 177q0 166 106 272t274 106q146 0 221 -87t75 -224q0 -114 -64 -211.5t-168 -140.5h190l-5 -55h-263l5 55q242 133 242 349q0 119 -61 190t-181 71q-146 0 -228.5 -95t-82.5 -235q0 -164 180 -280l-5 -55h-258zM-97 549
q-43 48 -43 107q0 22 8 51h59q-5 -23 -5 -42q0 -28 7.5 -57t14.5 -44l8 -15h-49zM-26 549l78 158h60l-86 -158h-52z" />
    <glyph glyph-name="uni1F6E" unicode="&#x1f6e;" horiz-adv-x="815" 
d="M41 0l5 55h182q-66 34 -115 108t-49 177q0 166 106 272t274 106q146 0 221 -87t75 -224q0 -114 -64 -211.5t-168 -140.5h190l-5 -55h-263l5 55q242 133 242 349q0 119 -61 190t-181 71q-146 0 -228.5 -95t-82.5 -235q0 -164 180 -280l-5 -55h-258zM32 622q-23 0 -62 18.5
t-61 18.5q-35 0 -69 -24l-22 38l5 4l9.5 7.5t13 8t17.5 7.5t22.5 5.5t27.5 2.5q26 0 65 -18t58 -18q38 0 66 28l24 -36q-5 -6 -15 -14.5t-32.5 -18t-46.5 -9.5zM-90 443q30 53 30 116q0 19 -5 42h59q8 -29 8 -51q0 -59 -43 -107h-49z" />
    <glyph glyph-name="uni1F6F" unicode="&#x1f6f;" horiz-adv-x="815" 
d="M41 0l5 55h182q-66 34 -115 108t-49 177q0 166 106 272t274 106q146 0 221 -87t75 -224q0 -114 -64 -211.5t-168 -140.5h190l-5 -55h-263l5 55q242 133 242 349q0 119 -61 190t-181 71q-146 0 -228.5 -95t-82.5 -235q0 -164 180 -280l-5 -55h-258zM14 620q-23 0 -62 18.5
t-61 18.5q-35 0 -69 -24l-22 38l5 4l9.5 7.5t13 8t17.5 7.5t22.5 5.5t27.5 2.5q26 0 65 -18t58 -18q38 0 66 28l24 -36q-5 -6 -15 -14.5t-32.5 -18t-46.5 -9.5zM-49 441q-43 48 -43 107q0 22 8 51h59q-5 -23 -5 -42q0 -28 7.5 -57t14.5 -44l8 -15h-49z" />
    <glyph glyph-name="uni1F70" unicode="&#x1f70;" horiz-adv-x="521" 
d="M146 -13q-50 0 -76 44t-26 115q0 64 17.5 133.5t49 130.5t82 100.5t109.5 39.5q51 0 90 -47l5 43h54l-57 -546h-57l12 107q-67 -61 -115 -90.5t-88 -29.5zM158 42q34 0 97 47t100 84l30 270q-41 56 -89 56q-55 0 -101.5 -59t-70 -138t-23.5 -150q0 -49 14.5 -79.5
t42.5 -30.5zM307 633l-86 158h60l78 -158h-52z" />
    <glyph glyph-name="uni1F71" unicode="&#x1f71;" horiz-adv-x="521" 
d="M146 -13q-50 0 -76 44t-26 115q0 64 17.5 133.5t49 130.5t82 100.5t109.5 39.5q51 0 90 -47l5 43h54l-57 -546h-57l12 107q-67 -61 -115 -90.5t-88 -29.5zM158 42q34 0 97 47t100 84l30 270q-41 56 -89 56q-55 0 -101.5 -59t-70 -138t-23.5 -150q0 -49 14.5 -79.5
t42.5 -30.5zM304 634l97 158h66l-109 -158h-54z" />
    <glyph glyph-name="uni1F72" unicode="&#x1f72;" horiz-adv-x="434" 
d="M215 -12q-85 0 -129.5 38t-44.5 103q0 120 116 168q-33 12 -54 40.5t-21 64.5q0 66 52.5 111.5t143.5 45.5q79 0 133 -34l-23 -41q-54 28 -114 28q-133 0 -133 -107q0 -43 29.5 -64t68.5 -21h68l-5 -49h-73q-52 0 -90.5 -35.5t-38.5 -96.5q0 -99 121 -99q63 0 161 39
l19 -45q-99 -46 -186 -46zM277 633l-86 158h60l78 -158h-52z" />
    <glyph glyph-name="uni1F73" unicode="&#x1f73;" horiz-adv-x="434" 
d="M215 -12q-85 0 -129.5 38t-44.5 103q0 120 116 168q-33 12 -54 40.5t-21 64.5q0 66 52.5 111.5t143.5 45.5q79 0 133 -34l-23 -41q-54 28 -114 28q-133 0 -133 -107q0 -43 29.5 -64t68.5 -21h68l-5 -49h-73q-52 0 -90.5 -35.5t-38.5 -96.5q0 -99 121 -99q63 0 161 39
l19 -45q-99 -46 -186 -46zM260 624l97 158h66l-109 -158h-54z" />
    <glyph glyph-name="uni1F74" unicode="&#x1f74;" horiz-adv-x="544" 
d="M338 -219l66 600q7 59 7 78q0 28 -12 39t-44 11q-15 0 -45 -16.5t-55 -34.5l-54.5 -40.5l-33.5 -25.5l-42 -392h-56l57 546h57l-10 -98q1 1 18.5 16l25 21l26 20t32 21.5t31.5 16.5t35.5 13t34.5 4q52 0 71.5 -20.5t19.5 -66.5q0 -17 -6 -79l-67 -613h-56zM265 633
l-86 158h60l78 -158h-52z" />
    <glyph glyph-name="uni1F75" unicode="&#x1f75;" horiz-adv-x="544" 
d="M338 -219l66 600q7 59 7 78q0 28 -12 39t-44 11q-15 0 -45 -16.5t-55 -34.5l-54.5 -40.5l-33.5 -25.5l-42 -392h-56l57 546h57l-10 -98q1 1 18.5 16l25 21l26 20t32 21.5t31.5 16.5t35.5 13t34.5 4q52 0 71.5 -20.5t19.5 -66.5q0 -17 -6 -79l-67 -613h-56zM302 624
l97 158h66l-109 -158h-54z" />
    <glyph glyph-name="uni1F76" unicode="&#x1f76;" horiz-adv-x="264" 
d="M70 0l57 546h56l-57 -546h-56zM127 633l-86 158h60l78 -158h-52z" />
    <glyph glyph-name="uni1F77" unicode="&#x1f77;" horiz-adv-x="264" 
d="M70 0l57 546h56l-57 -546h-56zM144 624l97 158h66l-109 -158h-54z" />
    <glyph glyph-name="uni1F78" unicode="&#x1f78;" horiz-adv-x="501" 
d="M195 -12q-68 0 -108 54.5t-40 132.5q0 176 73.5 280.5t190.5 104.5q69 0 107 -54.5t38 -126.5t-14.5 -138.5t-44 -124.5t-82 -93t-120.5 -35zM212 38q77 0 131.5 93t54.5 230q0 77 -25 113.5t-84 36.5q-75 0 -129 -94t-54 -224q0 -155 106 -155zM304 633l-86 158h60
l78 -158h-52z" />
    <glyph glyph-name="uni1F79" unicode="&#x1f79;" horiz-adv-x="501" 
d="M195 -12q-68 0 -108 54.5t-40 132.5q0 176 73.5 280.5t190.5 104.5q69 0 107 -54.5t38 -126.5t-14.5 -138.5t-44 -124.5t-82 -93t-120.5 -35zM212 38q77 0 131.5 93t54.5 230q0 77 -25 113.5t-84 36.5q-75 0 -129 -94t-54 -224q0 -155 106 -155zM249 631l97 158h66
l-109 -158h-54z" />
    <glyph glyph-name="uni1F7A" unicode="&#x1f7a;" 
d="M228 -11q-67 0 -110.5 36t-43.5 123q0 11 2 37l38 361h54l-38 -355q-2 -26 -2 -35q0 -66 28.5 -91.5t77.5 -25.5q58 0 93 37t45 133l36 337h54l-36 -340q-6 -62 -26 -106t-48.5 -67.5t-58.5 -33.5t-65 -10zM293 633l-86 158h60l78 -158h-52z" />
    <glyph glyph-name="uni1F7B" unicode="&#x1f7b;" 
d="M228 -11q-67 0 -110.5 36t-43.5 123q0 11 2 37l38 361h54l-38 -355q-2 -26 -2 -35q0 -66 28.5 -91.5t77.5 -25.5q58 0 93 37t45 133l36 337h54l-36 -340q-6 -62 -26 -106t-48.5 -67.5t-58.5 -33.5t-65 -10zM263 634l97 158h66l-109 -158h-54z" />
    <glyph glyph-name="uni1F7C" unicode="&#x1f7c;" horiz-adv-x="641" 
d="M166 -8q-58 0 -88.5 45.5t-30.5 121.5q0 244 164 387h65q-169 -137 -169 -371q0 -29 2 -48.5t9 -40.5t22 -32t39 -11q40 0 70 42t38 117l17 158h55l-15 -154q-2 -30 -2 -48q0 -115 60 -115q40 0 69 30t42 76.5t18.5 87t5.5 77.5q0 138 -78 232h67q70 -107 70 -214
q0 -85 -19.5 -159.5t-66.5 -127.5t-113 -53q-37 0 -66 29.5t-30 80.5q-22 -54 -60 -82t-75 -28zM336 633l-86 158h60l78 -158h-52z" />
    <glyph glyph-name="uni1F7D" unicode="&#x1f7d;" horiz-adv-x="641" 
d="M166 -8q-58 0 -88.5 45.5t-30.5 121.5q0 244 164 387h65q-169 -137 -169 -371q0 -29 2 -48.5t9 -40.5t22 -32t39 -11q40 0 70 42t38 117l17 158h55l-15 -154q-2 -30 -2 -48q0 -115 60 -115q40 0 69 30t42 76.5t18.5 87t5.5 77.5q0 138 -78 232h67q70 -107 70 -214
q0 -85 -19.5 -159.5t-66.5 -127.5t-113 -53q-37 0 -66 29.5t-30 80.5q-22 -54 -60 -82t-75 -28zM342 634l97 158h66l-109 -158h-54z" />
    <glyph glyph-name="uni1F80" unicode="&#x1f80;" horiz-adv-x="521" 
d="M146 -13q-50 0 -76 44t-26 115q0 64 17.5 133.5t49 130.5t82 100.5t109.5 39.5q51 0 90 -47l5 43h54l-57 -546h-57l12 107q-67 -61 -115 -90.5t-88 -29.5zM158 42q34 0 97 47t100 84l30 270q-41 56 -89 56q-55 0 -101.5 -59t-70 -138t-23.5 -150q0 -49 14.5 -79.5
t42.5 -30.5zM275 633q30 53 30 116q0 19 -5 42h59q8 -29 8 -51q0 -59 -43 -107h-49zM223 -222q-47 0 -47 61q0 30 11 85h46q-2 -23 -4.5 -41.5l-3.5 -25.5t-1 -13q0 -27 21 -27h6v-33q-14 -6 -28 -6z" />
    <glyph glyph-name="uni1F81" unicode="&#x1f81;" horiz-adv-x="521" 
d="M146 -13q-50 0 -76 44t-26 115q0 64 17.5 133.5t49 130.5t82 100.5t109.5 39.5q51 0 90 -47l5 43h54l-57 -546h-57l12 107q-67 -61 -115 -90.5t-88 -29.5zM158 42q34 0 97 47t100 84l30 270q-41 56 -89 56q-55 0 -101.5 -59t-70 -138t-23.5 -150q0 -49 14.5 -79.5
t42.5 -30.5zM222 -222q-47 0 -47 61q0 30 11 85h46q-2 -23 -4.5 -41.5l-3.5 -25.5t-1 -13q0 -27 21 -27h6v-33q-14 -6 -28 -6zM302 633q-43 48 -43 107q0 22 8 51h59q-5 -23 -5 -42q0 -28 7.5 -57t15.5 -44l7 -15h-49z" />
    <glyph glyph-name="uni1F82" unicode="&#x1f82;" horiz-adv-x="521" 
d="M146 -13q-50 0 -76 44t-26 115q0 64 17.5 133.5t49 130.5t82 100.5t109.5 39.5q51 0 90 -47l5 43h54l-57 -546h-57l12 107q-67 -61 -115 -90.5t-88 -29.5zM158 42q34 0 97 47t100 84l30 270q-41 56 -89 56q-55 0 -101.5 -59t-70 -138t-23.5 -150q0 -49 14.5 -79.5
t42.5 -30.5zM216 633q30 53 30 116q0 19 -5 42h59q8 -29 8 -51q0 -59 -43 -107h-49zM410 633l-86 158h60l78 -158h-52zM223 -222q-47 0 -47 61q0 30 11 85h46q-2 -23 -4.5 -41.5l-3.5 -25.5t-1 -13q0 -27 21 -27h6v-33q-14 -6 -28 -6z" />
    <glyph glyph-name="uni1F83" unicode="&#x1f83;" horiz-adv-x="521" 
d="M146 -13q-50 0 -76 44t-26 115q0 64 17.5 133.5t49 130.5t82 100.5t109.5 39.5q51 0 90 -47l5 43h54l-57 -546h-57l12 107q-67 -61 -115 -90.5t-88 -29.5zM158 42q34 0 97 47t100 84l30 270q-41 56 -89 56q-55 0 -101.5 -59t-70 -138t-23.5 -150q0 -49 14.5 -79.5
t42.5 -30.5zM257 633q-43 48 -43 107q0 22 8 51h59q-5 -23 -5 -42q0 -28 7.5 -57t14.5 -44l8 -15h-49zM386 633l-86 158h60l78 -158h-52zM223 -222q-47 0 -47 61q0 30 11 85h46q-2 -23 -4.5 -41.5l-3.5 -25.5t-1 -13q0 -27 21 -27h6v-33q-14 -6 -28 -6z" />
    <glyph glyph-name="uni1F84" unicode="&#x1f84;" horiz-adv-x="521" 
d="M146 -13q-50 0 -76 44t-26 115q0 64 17.5 133.5t49 130.5t82 100.5t109.5 39.5q51 0 90 -47l5 43h54l-57 -546h-57l12 107q-67 -61 -115 -90.5t-88 -29.5zM158 42q34 0 97 47t100 84l30 270q-41 56 -89 56q-55 0 -101.5 -59t-70 -138t-23.5 -150q0 -49 14.5 -79.5
t42.5 -30.5zM260 633q30 53 30 116q0 19 -5 42h59q8 -29 8 -51q0 -59 -43 -107h-49zM348 633l78 158h60l-86 -158h-52zM222 -222q-47 0 -47 61q0 30 11 85h46q-2 -23 -4.5 -41.5l-3.5 -25.5t-1 -13q0 -27 21 -27h6v-33q-14 -6 -28 -6z" />
    <glyph glyph-name="uni1F85" unicode="&#x1f85;" horiz-adv-x="521" 
d="M146 -13q-50 0 -76 44t-26 115q0 64 17.5 133.5t49 130.5t82 100.5t109.5 39.5q51 0 90 -47l5 43h54l-57 -546h-57l12 107q-67 -61 -115 -90.5t-88 -29.5zM158 42q34 0 97 47t100 84l30 270q-41 56 -89 56q-55 0 -101.5 -59t-70 -138t-23.5 -150q0 -49 14.5 -79.5
t42.5 -30.5zM279 633q-43 48 -43 107q0 22 8 51h59q-5 -23 -5 -42q0 -28 7.5 -57t14.5 -44l8 -15h-49zM350 633l78 158h60l-86 -158h-52zM223 -222q-47 0 -47 61q0 30 11 85h46q-2 -23 -4.5 -41.5l-3.5 -25.5t-1 -13q0 -27 21 -27h6v-33q-14 -6 -28 -6z" />
    <glyph glyph-name="uni1F86" unicode="&#x1f86;" horiz-adv-x="521" 
d="M146 -13q-50 0 -76 44t-26 115q0 64 17.5 133.5t49 130.5t82 100.5t109.5 39.5q51 0 90 -47l5 43h54l-57 -546h-57l12 107q-67 -61 -115 -90.5t-88 -29.5zM158 42q34 0 97 47t100 84l30 270q-41 56 -89 56q-55 0 -101.5 -59t-70 -138t-23.5 -150q0 -49 14.5 -79.5
t42.5 -30.5zM420 794q-23 0 -62 18.5t-61 18.5q-35 0 -69 -24l-22 38l5 4l9.5 7.5t13 8t17.5 7.5t22.5 5.5t27.5 2.5q26 0 65 -18t58 -18q38 0 66 28l24 -36q-5 -6 -15 -14.5t-32.5 -18t-46.5 -9.5zM298 615q30 53 30 116q0 19 -5 42h59q8 -29 8 -51q0 -59 -43 -107h-49z
M223 -222q-47 0 -47 61q0 30 11 85h46q-2 -23 -4.5 -41.5l-3.5 -25.5t-1 -13q0 -27 21 -27h6v-33q-14 -6 -28 -6z" />
    <glyph glyph-name="uni1F87" unicode="&#x1f87;" horiz-adv-x="521" 
d="M146 -13q-50 0 -76 44t-26 115q0 64 17.5 133.5t49 130.5t82 100.5t109.5 39.5q51 0 90 -47l5 43h54l-57 -546h-57l12 107q-67 -61 -115 -90.5t-88 -29.5zM158 42q34 0 97 47t100 84l30 270q-41 56 -89 56q-55 0 -101.5 -59t-70 -138t-23.5 -150q0 -49 14.5 -79.5
t42.5 -30.5zM359 794q-23 0 -62 18.5t-61 18.5q-35 0 -69 -24l-22 38l5 4l9.5 7.5t13 8t17.5 7.5t22.5 5.5t27.5 2.5q26 0 65 -18t58 -18q38 0 66 28l24 -36q-5 -6 -15 -14.5t-32.5 -18t-46.5 -9.5zM296 615q-43 48 -43 107q0 22 8 51h59q-5 -23 -5 -42q0 -28 7.5 -57
t15.5 -44l7 -15h-49zM223 -222q-47 0 -47 61q0 30 11 85h46q-2 -23 -4.5 -41.5l-3.5 -25.5t-1 -13q0 -27 21 -27h6v-33q-14 -6 -28 -6z" />
    <glyph glyph-name="uni1F88" unicode="&#x1f88;" horiz-adv-x="611" 
d="M-32 0l352 707h97l144 -707h-62l-55 279h-276l-138 -279h-62zM193 330h241l-60 306l-9 44l-22 -45zM86 549q30 53 30 116q0 19 -5 42h59q8 -29 8 -51q0 -59 -43 -107h-49zM287 -222q-47 0 -47 61q0 30 11 85h46q-2 -23 -4.5 -41.5l-3.5 -25.5t-1 -13q0 -27 21 -27h6v-33
q-13 -6 -28 -6z" />
    <glyph glyph-name="uni1F89" unicode="&#x1f89;" horiz-adv-x="611" 
d="M-32 0l352 707h97l144 -707h-62l-55 279h-276l-138 -279h-62zM193 330h241l-60 306l-9 44l-22 -45zM285 -222q-47 0 -47 61q0 30 11 85h46q-2 -23 -4.5 -41.5l-3.5 -25.5t-1 -13q0 -27 21 -27h6v-33q-13 -6 -28 -6zM144 549q-43 48 -43 107q0 22 8 51h59q-5 -23 -5 -42
q0 -28 7.5 -57t15.5 -44l7 -15h-49z" />
    <glyph glyph-name="uni1F8A" unicode="&#x1f8a;" horiz-adv-x="611" 
d="M-32 0l352 707h97l144 -707h-62l-55 279h-276l-138 -279h-62zM193 330h241l-60 306l-9 44l-22 -45zM-50 549q30 53 30 116q0 19 -5 42h59q8 -29 8 -51q0 -59 -43 -107h-49zM144 549l-86 158h60l78 -158h-52zM286 -222q-47 0 -47 61q0 30 11 85h46q-2 -23 -4.5 -41.5
l-3.5 -25.5t-1 -13q0 -27 21 -27h6v-33q-14 -6 -28 -6z" />
    <glyph glyph-name="uni1F8B" unicode="&#x1f8b;" horiz-adv-x="611" 
d="M-32 0l352 707h97l144 -707h-62l-55 279h-276l-138 -279h-62zM193 330h241l-60 306l-9 44l-22 -45zM-31 549q-43 48 -43 107q0 22 8 51h59q-5 -23 -5 -42q0 -28 7.5 -57t14.5 -44l8 -15h-49zM98 549l-86 158h60l78 -158h-52zM287 -222q-47 0 -47 61q0 30 11 85h46
q-2 -23 -4.5 -41.5l-3.5 -25.5t-1 -13q0 -27 21 -27h6v-33q-13 -6 -28 -6z" />
    <glyph glyph-name="uni1F8C" unicode="&#x1f8c;" horiz-adv-x="611" 
d="M-32 0l352 707h97l144 -707h-62l-55 279h-276l-138 -279h-62zM193 330h241l-60 306l-9 44l-22 -45zM-18 549q30 53 30 116q0 19 -5 42h59q8 -29 8 -51q0 -59 -43 -107h-49zM70 549l78 158h60l-86 -158h-52zM287 -222q-47 0 -47 61q0 30 11 85h46q-2 -23 -4.5 -41.5
l-3.5 -25.5t-1 -13q0 -27 21 -27h6v-33q-13 -6 -28 -6z" />
    <glyph glyph-name="uni1F8D" unicode="&#x1f8d;" horiz-adv-x="611" 
d="M-32 0l352 707h97l144 -707h-62l-55 279h-276l-138 -279h-62zM193 330h241l-60 306l-9 44l-22 -45zM2 549q-43 48 -43 107q0 22 8 51h59q-5 -23 -5 -42q0 -28 7.5 -57t15.5 -44l7 -15h-49zM73 549l78 158h60l-86 -158h-52zM286 -222q-47 0 -47 61q0 30 11 85h46
q-2 -23 -4.5 -41.5l-3.5 -25.5t-1 -13q0 -27 21 -27h6v-33q-14 -6 -28 -6z" />
    </font>
</defs>
</svg>
